<svg width="78" height="42" viewBox="0 0 78 42" fill="none" xmlns="http://www.w3.org/2000/svg">
<path d="M70 0L8 21L70 42V0Z" fill="#FFD600"/>
<g filter="url(#filter0_d_522_2639)">
<path d="M4 30.6845V12.3155H8.82087C9.54442 12.3155 10.1418 12.3963 10.6129 12.5581C11.1009 12.7199 11.4879 12.9949 11.774 13.3831C12.0768 13.7714 12.2872 14.281 12.405 14.9119C12.5396 15.5428 12.6069 16.3274 12.6069 17.2656C12.6069 17.9774 12.5817 18.5517 12.5312 18.9885C12.4975 19.4253 12.4302 19.7812 12.3292 20.0562C12.2283 20.3312 12.1021 20.5496 11.9506 20.7114C11.7992 20.857 11.6141 20.9945 11.3954 21.1239V21.2937C11.6478 21.4393 11.8665 21.5849 12.0516 21.7305C12.2367 21.8599 12.3797 22.0702 12.4807 22.3614C12.5985 22.6364 12.6826 23.0409 12.7331 23.5747C12.7836 24.0924 12.8088 24.8123 12.8088 25.7344C12.8088 26.6726 12.7499 27.4572 12.6321 28.0881C12.5143 28.719 12.3124 29.2286 12.0264 29.6169C11.7403 30.0051 11.3617 30.2801 10.8906 30.4419C10.4194 30.6037 9.83047 30.6845 9.12375 30.6845H4ZM8.51799 27.7969C8.73673 27.7969 8.91342 27.7646 9.04803 27.6999C9.19947 27.6352 9.31726 27.5138 9.40139 27.3359C9.48553 27.1579 9.54442 26.9153 9.57807 26.6079C9.62855 26.2844 9.65379 25.8719 9.65379 25.3704C9.65379 24.788 9.62855 24.3108 9.57807 23.9387C9.54442 23.5666 9.48553 23.2754 9.40139 23.0651C9.31726 22.8548 9.19947 22.7173 9.04803 22.6526C8.91342 22.5717 8.73673 22.5313 8.51799 22.5313H7.10454V27.7969H8.51799ZM8.36655 20.1533C8.58529 20.1533 8.76198 20.1209 8.89659 20.0562C9.04803 19.9753 9.16582 19.8459 9.24995 19.6679C9.33408 19.4738 9.39298 19.215 9.42663 18.8914C9.46029 18.5679 9.47711 18.1473 9.47711 17.6296C9.47711 17.0311 9.45187 16.57 9.40139 16.2465C9.36774 15.9229 9.30043 15.6803 9.19947 15.5185C9.11534 15.3567 8.99755 15.2597 8.84611 15.2273C8.71149 15.195 8.54323 15.1788 8.34131 15.1788H7.10454V20.1533H8.36655Z" fill="white"/>
<path d="M15.7219 30.6845V12.3155H22.9153V15.3487H18.8264V19.8621H22.8396V22.7497H18.8264V27.5057H22.8901V30.6845H15.7219Z" fill="white"/>
<path d="M26.0881 30.6845V12.3155H29.1926V27.5057H32.9282V30.6845H26.0881Z" fill="white"/>
<path d="M35.79 30.6845V12.3155H38.9702V30.6845H35.79Z" fill="white"/>
<path d="M46.07 23.0894V20.2018H50.7647C50.7815 20.5092 50.7899 20.9459 50.7899 21.5121C50.8067 22.0622 50.8152 22.7254 50.8152 23.5019C50.8152 24.4725 50.7983 25.2895 50.7647 25.9527C50.731 26.5998 50.6805 27.1499 50.6132 27.6028C50.5459 28.0396 50.4618 28.4036 50.3608 28.6948C50.2767 28.986 50.1757 29.2529 50.0579 29.4955C49.7719 30.0617 49.3596 30.4581 48.8212 30.6845C48.2827 30.8948 47.5003 31 46.4738 31C45.4306 31 44.6397 30.8948 44.1013 30.6845C43.5628 30.4581 43.1506 30.0617 42.8645 29.4955C42.7299 29.2205 42.6121 28.9212 42.5111 28.5977C42.4102 28.258 42.326 27.7969 42.2587 27.2146C42.1914 26.6322 42.141 25.8799 42.1073 24.9579C42.0905 24.0358 42.0821 22.8306 42.0821 21.3423C42.0821 19.9187 42.0905 18.762 42.1073 17.8723C42.141 16.9825 42.1914 16.2627 42.2587 15.7126C42.326 15.1464 42.4102 14.7097 42.5111 14.4023C42.6121 14.0949 42.7299 13.8037 42.8645 13.5287C43.0159 13.2375 43.1926 12.9949 43.3946 12.8008C43.5965 12.6066 43.8405 12.453 44.1265 12.3397C44.4126 12.2103 44.7407 12.1213 45.1109 12.0728C45.4979 12.0243 45.9522 12 46.4738 12C47.0123 12 47.475 12.0243 47.8621 12.0728C48.2491 12.1213 48.5772 12.2022 48.8464 12.3155C49.1156 12.4287 49.3344 12.5824 49.5027 12.7765C49.6878 12.9544 49.856 13.1728 50.0075 13.4317C50.243 13.8685 50.4113 14.3861 50.5123 14.9847C50.6301 15.5671 50.6889 16.2788 50.6889 17.1201C50.6889 17.298 50.6889 17.4436 50.6889 17.5568C50.6889 17.6539 50.6805 17.7752 50.6637 17.9208H47.7359C47.7527 17.8238 47.7611 17.7267 47.7611 17.6296C47.7611 17.5326 47.7611 17.3627 47.7611 17.1201C47.7611 16.8612 47.7359 16.5781 47.6854 16.2708C47.6517 15.9634 47.6097 15.7207 47.5592 15.5428C47.4414 15.1545 47.0712 14.9604 46.4486 14.9604C46.1121 14.9604 45.8681 15.0089 45.7166 15.106C45.5652 15.2031 45.4474 15.381 45.3633 15.6398C45.3296 15.7854 45.296 15.9553 45.2623 16.1494C45.2287 16.3436 45.195 16.6428 45.1614 17.0473C45.1445 17.4517 45.1277 17.9936 45.1109 18.6731C45.0941 19.3363 45.0856 20.218 45.0856 21.318C45.0856 22.4828 45.0856 23.4129 45.0856 24.1086C45.1025 24.8042 45.1193 25.3542 45.1361 25.7586C45.1698 26.163 45.2034 26.4623 45.2371 26.6565C45.2707 26.8506 45.3128 27.0204 45.3633 27.166C45.4474 27.4249 45.5736 27.6028 45.7419 27.6999C45.9102 27.7969 46.171 27.8455 46.5243 27.8455C46.9113 27.8455 47.1806 27.7969 47.332 27.6999C47.5003 27.5866 47.6265 27.3925 47.7106 27.1175C47.7443 26.9719 47.7779 26.7859 47.8116 26.5594C47.8452 26.3329 47.8705 26.0903 47.8873 25.8314C47.9041 25.5726 47.9125 25.3138 47.9125 25.0549C47.9294 24.7961 47.9378 24.5534 47.9378 24.3269C47.9378 24.0196 47.9378 23.7688 47.9378 23.5747C47.9378 23.3806 47.9294 23.2188 47.9125 23.0894H46.07Z" fill="white"/>
<path d="M59.6151 30.6845V22.7497H56.9396V30.6845H53.7594V12.3155H56.9396V19.8621H59.6151V12.3155H62.7701V30.6845H59.6151Z" fill="white"/>
<path d="M68.22 30.6845V15.3487H65.5193V12.3155H74V15.3487H71.3245V30.6845H68.22Z" fill="white"/>
</g>
<defs>
<filter id="filter0_d_522_2639" x="0" y="10" width="78" height="27" filterUnits="userSpaceOnUse" color-interpolation-filters="sRGB">
<feFlood flood-opacity="0" result="BackgroundImageFix"/>
<feColorMatrix in="SourceAlpha" type="matrix" values="0 0 0 0 0 0 0 0 0 0 0 0 0 0 0 0 0 0 127 0" result="hardAlpha"/>
<feOffset dy="2"/>
<feGaussianBlur stdDeviation="2"/>
<feComposite in2="hardAlpha" operator="out"/>
<feColorMatrix type="matrix" values="0 0 0 0 0 0 0 0 0 0 0 0 0 0 0 0 0 0 0.25 0"/>
<feBlend mode="normal" in2="BackgroundImageFix" result="effect1_dropShadow_522_2639"/>
<feBlend mode="normal" in="SourceGraphic" in2="effect1_dropShadow_522_2639" result="shape"/>
</filter>
</defs>
</svg>
