<svg width="216" height="72" viewBox="0 0 216 72" fill="none" xmlns="http://www.w3.org/2000/svg">
<path d="M190.298 30.5874C189.705 30.5874 189.854 30.0839 189.854 29.7063C189.854 29.3287 189.409 29.0769 189.113 29.2028C188.371 29.8322 187.927 29.0769 187.186 29.0769C185.852 29.3287 184.666 28.6993 183.48 28.3217C183.036 28.1958 182.887 28.1958 182.887 28.5734C182.739 29.0769 182.294 29.3287 181.85 29.4545C181.85 29.7063 181.85 29.958 181.85 30.0839C181.85 30.2098 181.702 30.2098 181.553 30.2098L181.405 30.0839C181.405 29.8322 181.405 29.7063 181.405 29.4545C181.109 29.4545 180.812 29.4545 180.664 29.3287C180.071 29.0769 179.775 28.3217 179.182 28.4476C178.441 28.5734 178.144 27.8182 177.551 27.9441C177.107 27.9441 176.959 27.6923 176.662 27.5664C175.773 27.4406 175.773 26.6853 175.328 26.1818V26.0559C175.476 26.0559 175.773 25.9301 175.773 25.9301C176.514 26.5594 177.107 26.3077 177.7 25.6783C178.293 25.1748 179.034 25.049 179.775 24.6713C180.368 24.2937 180.961 24.1678 181.405 24.5455C181.702 24.6713 181.85 24.6713 182.146 24.5455C182.887 24.1678 183.925 24.4196 184.666 23.9161C184.814 23.7902 185.259 23.7902 185.407 23.9161C186.593 24.6713 187.779 24.4196 188.964 24.2937C189.854 24.2937 190.595 23.9161 191.484 23.6643V23.5385C191.484 23.4126 191.336 23.4126 191.336 23.4126C190.447 23.4126 189.705 23.2867 190.595 22.1538C190.595 22.1538 190.595 22.028 190.447 22.028C189.409 21.9021 188.371 21.7762 187.334 22.1538C186.889 22.4056 186.889 22.028 186.889 21.9021C186.889 21.6504 186.593 21.3986 186.445 21.3986C186.148 21.3986 185.704 21.3986 185.407 21.5245C184.666 21.9021 184.37 21.2727 183.777 21.1469C183.628 21.021 183.628 20.5175 183.628 20.2657C183.628 20.014 183.925 19.8881 184.221 19.8881C184.666 19.8881 185.111 19.8881 185.555 19.7622C185.704 19.7622 185.704 19.5105 185.704 19.3846C185.555 18.7552 184.962 18.3776 184.37 18.5035C184.073 18.5035 183.777 18.8811 183.48 18.8811C183.184 18.8811 182.887 18.6294 182.591 18.6294C182.294 18.6294 182.146 18.7552 182.146 19.007C181.998 19.007 181.85 19.007 181.702 19.007C181.702 18.5035 181.109 18.6294 180.812 18.3776C180.071 17.8741 179.33 17.8741 178.737 18.6294C178.441 18.8811 178.293 19.007 177.848 18.7552C177.551 18.6294 177.107 18.7552 176.81 18.5035C175.921 17.7483 174.587 18.2517 173.698 17.6224C173.253 17.3706 172.808 17.7483 172.216 18C171.771 17.4965 171.03 17.6224 170.437 17.7483C169.844 17.8741 169.251 16.993 168.51 17.6224C167.917 16.8671 167.324 17.3706 166.731 17.6224C166.435 17.7483 166.287 17.4965 166.139 17.2448C166.139 16.8671 166.139 16.3636 165.99 15.986C165.99 15.7343 165.842 15.7343 165.694 15.8601C165.249 16.2378 164.805 16.1119 164.36 15.8601C163.619 15.4825 162.878 14.979 161.988 15.2308C161.84 15.2308 161.692 15.1049 161.544 14.979C161.692 14.8531 161.988 14.7273 162.137 14.6014C162.433 14.4755 162.581 14.2238 162.433 13.972C162.285 13.5944 161.692 13.0909 161.544 13.2168C160.803 13.8462 160.21 13.5944 159.469 13.0909C159.172 12.8392 158.579 13.0909 158.135 12.965C157.542 12.8392 157.838 12.2098 157.394 12.0839C157.097 11.958 156.949 11.958 156.652 11.958C156.504 11.3287 155.911 11.5804 155.467 11.4545C154.874 12.2098 154.281 11.4545 153.688 11.3287L153.54 11.2028C153.54 11.0769 153.688 11.0769 153.688 11.0769C153.985 11.0769 154.133 11.0769 154.429 10.951C154.577 10.951 154.726 10.8252 154.874 10.6993C154.874 10.5734 155.022 10.3217 154.874 10.1958C154.726 9.81818 154.281 9.56643 153.985 9.69231C153.688 9.81818 153.54 9.94406 153.392 9.69231C152.799 8.93706 152.651 8.81119 152.206 9.44056C151.613 10.0699 151.168 9.69231 150.724 9.56643C150.724 9.69231 150.575 9.81818 150.575 9.94406C150.279 10.0699 150.279 9.81818 150.279 9.56643C149.834 9.56643 149.242 9.56643 148.945 9.06294C148.797 8.93706 148.5 8.81119 148.352 8.68532C147.759 9.44056 146.722 8.68531 146.129 9.31468C146.129 9.31468 146.129 9.44056 146.129 9.56643C145.684 9.56643 145.24 9.56643 144.795 9.69231C144.498 9.69231 144.498 9.81818 144.647 10.0699C144.943 10.4476 144.795 10.5734 144.498 10.8252C144.202 11.2028 143.906 10.951 143.609 10.6993C143.313 10.4476 143.016 10.0699 142.572 10.0699C141.831 10.0699 141.089 9.69231 140.793 9.31468C140.497 8.81119 140.2 8.55944 139.607 8.68532C139.014 8.68532 138.718 8.55944 138.421 7.93007C138.125 7.17483 137.829 7.17483 136.791 7.55245C135.902 7.8042 135.605 7.67832 135.309 6.7972C135.309 6.67133 135.309 6.41958 135.161 6.29371C134.864 5.66434 133.975 5.66434 133.53 5.16084C133.53 5.16084 133.234 5.28671 133.086 5.41259C132.937 5.66434 132.789 5.79021 132.641 6.04196C132.493 6.29371 132.789 6.7972 132.344 6.92308C132.048 7.04895 131.603 7.04895 131.307 7.04895C130.121 7.17482 128.935 6.7972 127.75 6.54545C127.75 6.41958 127.898 6.29371 127.898 6.16783C128.194 5.53846 128.194 5.03496 127.601 4.78322C127.157 4.65734 126.712 5.03497 126.267 4.65734C125.971 4.40559 125.378 4.27972 124.785 4.15385C124.489 4.02797 124.044 4.15385 123.748 4.15385L123.6 4.27972C123.6 4.27972 123.6 4.40559 123.748 4.40559C124.341 4.53147 124.637 4.78322 124.933 5.28671C125.082 5.41259 125.082 5.66434 124.933 5.79021C124.785 6.04196 124.489 6.16783 124.341 6.04196C123.451 5.53846 122.562 5.28671 121.673 5.91608C121.376 6.04196 120.783 6.16783 120.635 6.04196C119.894 5.16084 118.412 6.04196 117.671 5.16084C117.523 5.03497 117.078 5.16084 116.633 5.28671C116.485 5.28671 116.337 5.53846 116.189 5.53846C114.855 5.66434 113.521 5.79021 112.335 5.41259C111.89 5.16084 111.594 5.03497 111.297 5.03497C110.112 4.90909 109.815 5.28671 110.26 6.29371C110.556 6.7972 110.408 6.92308 109.963 7.04895C109.667 7.04895 109.667 7.17483 109.815 7.42657C109.963 7.55245 110.26 7.8042 109.815 7.93007C109.222 8.05594 108.481 7.93007 107.74 8.30769C106.999 8.81119 106.11 9.18881 105.072 8.93706C104.627 8.81119 104.035 8.93706 103.59 9.31468C103.442 9.44056 102.997 9.44056 102.849 9.31468C102.404 8.93706 101.959 8.93706 101.367 9.31468C100.922 9.56643 100.329 9.56643 99.8844 9.18881C99.5879 9.06294 97.5129 8.55944 97.2164 8.43357C96.1789 8.30769 95.1413 8.81119 94.252 9.18881C93.8074 9.31468 93.5109 9.44056 93.0663 9.18881C92.9181 9.06294 92.4734 8.93706 92.3252 9.06294C91.7323 9.56643 90.3983 9.18881 90.2501 10.3217H90.1019C89.509 9.69231 89.2126 10.5734 88.7679 10.4476C88.175 10.4476 87.5821 10.4476 86.9893 10.8252C86.841 10.951 86.5446 10.951 86.2482 10.6993C85.5071 10.1958 84.766 10.3217 84.0249 10.5734C82.8391 11.0769 81.6534 11.4545 80.3194 11.3287C79.7265 11.2028 79.1336 11.2028 78.5407 11.7063C77.0586 11.7063 75.5764 12.2098 74.2424 11.3287C73.7977 11.0769 73.2048 11.2028 72.7602 10.951C72.4637 10.8252 71.8709 11.3287 71.278 11.2028C70.9816 11.2028 70.6851 11.4545 70.3887 11.5804C69.944 12.0839 69.7958 11.8322 69.6476 11.3287C69.6476 11.2028 69.6476 10.951 69.6476 10.8252C69.6476 10.6993 69.3511 10.5734 69.3511 10.5734C68.7583 11.0769 67.8689 10.8252 67.2761 11.4545C66.8314 11.8322 66.2385 12.2098 65.7939 12.3357C65.0528 12.4615 64.4599 12.7133 64.0152 13.2168C63.7188 13.5944 63.1259 13.5944 62.8295 13.3427C62.2366 12.965 61.4955 12.965 60.7544 12.965C59.8651 12.965 58.9758 12.965 58.2347 12.5874C57.79 12.3357 57.1971 12.4615 57.0489 13.2168C56.9007 13.5944 56.6042 13.7203 56.1596 13.4685C55.2703 12.8392 54.3809 13.2168 53.4916 13.5944C53.047 13.8462 52.6023 14.2238 52.3059 14.4755C51.713 14.8531 51.713 15.2308 52.1577 15.7343C52.1577 15.7343 52.1577 15.8601 52.1577 15.986C52.0094 15.986 51.8612 16.1119 51.713 16.1119C51.1201 15.8601 50.6755 15.6084 49.9344 15.6084C49.4897 15.7343 48.8968 15.7343 48.4522 15.3566C47.7111 14.8531 47.4146 15.7343 46.8218 15.7343C46.5253 15.7343 46.2289 15.6084 45.7842 15.4825C44.8949 15.1049 44.1538 14.979 43.4127 15.8601C43.1163 16.1119 42.968 16.1119 42.5234 15.986C41.6341 15.7343 40.893 15.1049 40.0037 15.7343C39.8554 15.8601 39.4108 15.7343 39.2626 15.6084C38.8179 15.2308 38.5215 15.4825 38.225 15.6084C37.6321 15.7343 37.3357 16.1119 36.891 16.4895C36.5946 16.7413 36.4464 16.7413 36.2982 16.1119C36.2982 15.986 36.2982 15.986 36.2982 15.8601C36.1499 15.3566 36.1499 15.2308 35.7053 15.4825C34.5195 16.4895 33.1855 17.2448 31.5551 16.2378C31.1105 15.986 30.5176 16.1119 30.3694 16.8671C30.3694 17.2448 29.9247 16.8671 29.7765 16.8671C29.4801 16.7413 29.0354 17.3706 28.739 16.8671C28.739 16.8671 28.4425 16.993 28.2943 16.993C27.8496 17.3706 27.2568 17.7483 26.6639 17.6224C25.9228 17.4965 25.3299 18 24.737 17.8741C24.4406 17.8741 24.1442 17.4965 23.8477 17.7483C22.9584 18.2517 21.9209 18.5035 21.1798 19.2587C20.8833 19.5105 20.5869 19.6364 20.2904 19.6364C19.1047 19.6364 18.0671 20.1399 17.326 20.8951C17.0296 21.1469 16.8814 21.1469 16.5849 21.021C16.2885 20.8951 15.9921 20.6434 15.6956 21.021C14.9545 21.5245 14.0652 21.7762 13.0277 21.7762C12.583 21.7762 12.1384 21.9021 12.1384 22.4056C12.1384 22.6573 11.8419 22.6573 11.6937 22.5315C11.249 22.028 10.6562 23.035 10.2115 22.2797C10.0633 22.1538 9.61863 22.2797 9.61863 22.7832C10.0633 22.7832 10.5079 23.1608 10.5079 23.5385C10.5079 23.9161 10.0633 23.7902 9.76685 23.7902C9.32219 23.7902 9.02575 24.1678 8.72931 24.4196C8.43287 24.7972 8.43287 25.1748 8.13643 25.4266C7.83999 25.8042 7.24711 25.9301 6.80245 26.1818C5.6167 26.4336 5.91314 27.0629 5.6167 27.4406C5.32026 27.8182 5.02382 28.0699 4.72738 28.3217C4.57916 28.6993 4.72738 29.0769 4.43094 29.4545C4.1345 30.0839 3.3934 30.7133 3.54162 31.4685C3.68984 32.3497 2.94874 33.1049 2.94874 33.8601C2.94874 34.8671 2.65231 35.6224 2.20765 36.5035C1.76299 37.2587 2.05943 38.014 1.76299 38.6434C1.31833 39.2727 0.280791 39.5245 0.132572 40.4056C-0.015648 41.035 -0.163868 41.035 0.429011 41.1608C1.76299 41.5385 2.05943 41.7902 2.05943 42.7972C2.05943 43.049 2.05943 43.4266 2.05943 43.5524C1.46655 44.0559 1.91121 44.6853 1.61477 45.3147C1.31833 45.8182 1.46655 46.5734 1.46655 47.2028C1.61477 47.958 1.02189 48.4615 1.02189 49.0909C1.02189 50.6014 1.02189 52.1119 1.02189 53.6224C1.02189 54.1259 1.17011 54.6294 1.46655 55.007C1.76299 55.3846 1.61477 56.014 1.31833 56.3916C1.02189 56.7692 0.577231 57.1469 0.280791 57.5245C0.132572 57.7762 0.132572 58.028 0.280791 58.1539C0.577231 58.9091 1.17011 59.1608 2.05943 59.1608C2.35587 59.1608 2.50409 59.035 2.65231 59.4126C2.65231 59.7902 2.65231 60.042 2.65231 60.4196C2.65231 60.6713 2.80052 60.9231 3.09696 60.9231C3.68984 61.049 3.68984 61.3007 3.68984 61.8042C3.68984 62.5594 3.54162 63.3147 2.50409 63.4406C2.20765 63.4406 2.20765 63.6923 2.35587 63.9441C2.80052 64.3217 3.09696 64.5734 3.54162 64.951C4.72738 65.8322 6.06136 66.4615 7.39533 66.965C7.98821 67.2168 7.69177 67.3427 7.54355 67.5944C7.54355 67.7203 7.69177 68.0979 7.83999 68.0979C8.72931 68.3496 9.61863 68.8531 10.5079 68.8531C11.249 68.8531 11.8419 68.979 12.4348 69.3566C12.7312 69.6084 13.1759 69.7343 13.6206 69.8601C13.7688 69.8601 14.0652 69.986 14.0652 69.8601C14.5099 69.4825 15.1028 69.7343 15.6956 69.6084C17.0296 69.2308 18.2154 68.7273 19.5493 68.0979C20.4387 67.5944 21.4762 67.2168 22.5137 67.3427C23.2548 67.4685 23.8477 67.4685 24.5888 66.965C24.737 66.8392 25.3299 66.8392 25.6263 66.965C26.3674 67.4685 27.1085 67.3427 27.8496 67.3427C28.739 67.3427 29.3318 67.4685 29.4801 68.2238C29.7765 69.1049 30.3694 69.4825 31.2587 69.3566C31.4069 69.3566 31.5551 69.4825 31.7034 69.6084C32.148 69.8601 32.5927 69.8601 33.1855 69.6084C34.0749 69.2308 35.1124 68.979 36.0017 68.6014C36.891 68.2238 38.0768 67.8462 38.6697 69.1049C38.8179 69.4825 39.2626 68.7273 39.4108 68.979C40.0037 69.7343 40.7447 69.8601 41.7823 69.8601C42.8198 69.7343 43.7091 69.8601 44.7467 69.8601C46.2289 69.8601 46.6735 69.7343 47.8593 68.8531C48.3039 68.4755 48.7486 68.3496 49.3415 68.3496C49.6379 68.3496 49.7861 68.0979 50.0826 67.972C50.379 67.972 50.5272 68.4755 50.9719 68.0979C51.2683 67.8462 51.4166 67.972 51.4166 68.2238C51.5648 68.7273 51.713 68.7273 52.0094 68.4755C52.1577 68.3497 52.3059 68.3496 52.4541 68.2238C52.4541 67.972 52.7505 67.7203 52.8988 67.7203C52.8988 67.3427 52.6023 67.2168 52.3059 67.2168C50.5272 67.2168 48.8968 67.2168 47.1182 67.2168C47.1182 66.8392 47.5628 66.8392 47.7111 66.7133C48.4522 66.3357 49.045 65.958 49.7861 65.8322C50.2308 66.2098 50.6755 66.0839 51.1201 65.8322C51.5648 65.7063 52.1576 65.8322 52.7505 65.8322C53.1952 65.8322 53.6399 65.8322 53.9363 65.5804C54.2327 65.3287 54.8256 65.958 55.2703 65.4546C55.4185 65.2028 56.1596 65.3287 56.456 65.0769C56.9007 64.8252 57.1971 65.2028 57.3453 65.2028C57.79 65.0769 58.0864 64.8252 58.5311 64.8252C59.2722 64.8252 60.0133 64.8252 60.6062 64.8252C61.1991 64.8252 61.7919 64.8252 62.533 64.8252C63.2741 64.8252 64.0152 64.6993 64.6081 64.8252C65.3492 64.951 65.7939 64.0699 66.2385 64.4476C66.9796 65.0769 67.4243 64.1958 68.1654 64.3217C68.9065 64.4476 69.6476 64.3217 70.2405 64.3217C70.9816 64.3217 71.8709 64.5734 72.612 64.0699C73.3531 63.5664 73.9459 64.1958 74.5388 64.3217C74.687 64.3217 74.687 64.3217 74.8353 64.3217C75.4281 63.6923 76.3175 63.8182 77.0586 63.9441C77.9479 64.0699 78.689 63.4406 79.5783 63.4406C81.2087 63.5664 82.6909 63.4406 84.3213 63.4406C85.0624 63.4406 85.9517 63.3147 86.5446 63.9441C86.5446 64.0699 86.9893 63.9441 86.9893 63.9441C87.4339 63.3147 87.8786 64.0699 88.3232 64.0699C88.4715 63.4406 89.0643 63.6923 89.509 63.5664C89.8054 63.5664 90.2501 63.5664 90.3983 63.9441C90.5465 64.1958 90.3983 64.6993 90.9912 64.3217C91.4359 64.0699 91.8805 63.8182 92.3252 63.6923C92.4734 63.5664 92.9181 63.5664 93.0663 63.8182C93.2145 64.0699 93.2145 64.3217 93.0663 64.4476C92.9181 64.5734 92.9181 64.8252 92.7698 65.0769C93.5109 65.0769 94.4002 64.951 94.9931 65.2028C96.1789 65.7063 97.3646 65.8322 98.5504 65.3287C98.8468 65.2028 98.9951 65.2028 99.1433 65.4546C99.5879 65.8322 100.329 65.4545 100.774 65.958C100.922 66.2098 101.218 66.0839 101.515 65.958C101.959 65.7063 102.256 65.4545 102.701 65.8322C103.293 66.3357 103.738 65.3287 104.035 65.7063C104.479 66.2098 105.072 65.5804 105.368 65.8322C105.961 66.3357 106.258 65.8322 106.851 65.5804C107.147 65.4545 107.592 65.5804 107.888 65.7063C108.185 65.8322 108.481 65.958 108.778 65.7063C109.074 65.5804 109.519 66.0839 109.815 65.5804C110.26 65.958 110.704 65.5804 111.149 65.4546C111.89 65.2028 112.631 65.8322 113.372 65.5804C113.817 65.4545 114.113 65.958 114.558 65.5804C114.855 65.3287 115.003 66.0839 115.447 65.7063C115.744 65.3287 116.189 65.4546 116.633 65.4546C117.226 65.4546 117.819 65.4546 118.412 65.0769C118.56 64.951 119.153 64.951 119.449 65.0769C120.042 65.5804 120.783 65.4546 121.524 65.4546C122.266 65.4546 123.007 65.4546 123.6 65.4546C124.341 65.4546 125.23 65.7063 125.823 65.0769C126.416 65.4546 127.157 65.4546 127.75 65.4546C128.046 65.4546 128.343 65.4546 128.491 65.3287C128.639 65.3287 128.639 65.0769 128.639 64.951C128.046 64.6993 127.601 64.1958 127.157 63.8182C126.86 63.5664 127.009 63.1888 127.601 63.0629C127.75 63.0629 127.898 63.0629 128.046 63.0629C128.491 62.4336 128.787 62.4336 129.084 63.0629C129.232 63.4406 129.38 63.6923 129.677 63.3147C130.269 62.8112 130.714 62.4336 131.455 63.0629C131.603 63.1888 132.196 63.3147 132.493 63.1888C133.975 62.4336 135.309 62.5594 136.791 63.0629C137.088 63.1888 137.236 63.1888 137.532 63.0629C137.977 62.6853 138.57 62.6853 139.014 62.6853C140.941 62.6853 142.868 62.6853 144.795 62.6853C145.24 62.6853 145.388 62.4336 145.684 62.3077C145.981 62.3077 146.277 62.5594 146.574 62.5594C146.87 62.6853 147.463 62.9371 147.463 62.9371C147.908 62.3077 148.649 63.4406 148.945 62.6853C150.131 62.6853 151.168 61.5524 152.354 62.5594C152.502 62.6853 152.947 62.6853 153.095 62.5594C153.688 61.9301 154.281 62.9371 154.726 62.5594C155.467 61.9301 155.911 62.9371 156.652 62.6853C156.801 62.6853 156.949 62.8112 157.097 62.9371C157.245 63.0629 157.245 63.8182 156.949 64.0699C156.652 64.3217 156.504 64.8252 155.911 64.3217C155.763 64.1958 155.615 64.3217 155.615 64.4476C155.615 64.6993 155.615 64.951 155.911 65.0769C157.394 65.3287 159.024 64.6993 160.506 65.4546C160.506 65.4546 160.803 65.3287 160.803 65.2028C160.803 64.6993 161.099 64.5734 161.396 64.951C161.84 65.4545 162.285 65.7063 163.026 65.5804C163.915 65.4545 164.953 65.8322 165.842 65.2028C165.842 65.2028 166.139 65.3287 166.139 65.4546C166.139 65.8322 166.435 66.0839 166.731 65.7063C167.028 65.4545 167.324 65.4545 167.621 65.7063C168.065 66.0839 168.214 65.5804 168.51 65.5804C168.806 65.5804 169.103 65.958 169.399 65.958C170.14 65.958 171.03 65.7063 171.623 66.3357C171.771 66.4615 172.067 66.3357 172.364 66.2098C173.401 65.4545 174.587 65.3287 175.921 65.3287C176.514 65.3287 177.255 65.5804 177.7 65.2028C178.441 64.5734 179.034 65.4546 179.627 65.3287C180.071 64.5734 180.664 65.5804 181.257 65.0769C181.405 64.951 181.998 64.8252 182.294 64.951C183.036 65.4545 183.48 65.3287 184.221 64.951C184.814 64.6993 185.704 64.6993 186.296 64.951C187.038 65.2028 187.63 65.0769 188.223 64.951C188.52 64.951 188.816 65.3287 189.409 64.951C189.854 64.6993 190.15 65.2028 190.595 65.3287C191.188 65.4546 191.484 64.8252 192.077 64.951C192.225 64.951 192.225 65.0769 192.373 65.0769C192.67 65.3287 192.966 65.4545 193.263 65.2028C194.004 64.6993 194.745 64.951 195.486 64.8252C196.079 64.8252 196.524 64.8252 197.116 64.8252C197.561 64.8252 197.709 65.4546 198.302 65.0769C198.747 64.8252 199.192 64.5734 199.636 64.3217C199.933 64.1958 200.229 64.3217 200.377 64.3217C201.118 64.3217 201.859 64.3217 202.452 64.3217C203.193 64.3217 203.786 63.8182 204.379 63.5664C204.676 63.4406 204.379 63.5664 204.379 63.4406C203.935 63.0629 204.527 62.6853 204.379 62.4336C203.935 61.5524 203.638 60.5455 202.156 60.6713C202.008 60.6713 201.859 60.6713 201.711 60.5455C201.563 60.5455 201.563 60.4196 201.563 60.4196L201.711 60.2937C202.452 60.2937 203.342 60.2937 204.083 60.1678C204.972 59.9161 205.713 59.4126 206.454 60.1678C206.899 59.6643 207.344 59.7902 207.936 59.7902C208.826 59.7902 209.715 59.6643 210.456 60.2937C211.197 59.7902 212.087 59.2867 212.976 58.9091C213.272 58.7832 213.569 58.9091 213.717 59.2867C213.865 59.6643 214.903 59.9161 215.051 59.6643C215.347 59.035 216.237 58.5315 215.94 57.6503C215.792 57.1469 215.644 56.6434 215.94 56.1399C216.089 55.8881 215.792 55.6364 215.496 55.7622C215.347 55.7622 215.051 55.8881 215.051 56.014C214.903 56.2657 215.051 56.5175 214.903 56.7692C214.903 56.8951 214.755 57.021 214.606 57.1469C214.458 57.021 214.31 57.021 214.162 56.8951C214.013 56.6434 213.865 56.5175 213.717 56.2657C213.569 55.6364 213.272 56.014 212.976 56.1399C212.828 56.2657 212.531 56.2657 212.531 56.2657C211.79 55.7622 211.049 55.7622 210.308 55.7622C209.715 55.7622 209.27 55.7622 208.826 55.3846C208.826 55.3846 208.529 55.3846 208.381 55.5105C207.788 55.8881 207.344 55.6364 207.047 55.1329C206.603 54.1259 205.861 53.7483 204.824 53.7483C204.231 53.6224 203.638 53.3706 203.045 53.2448C202.452 53.1189 202.008 52.7413 201.267 52.7413C200.525 52.7413 199.933 52.6154 199.34 52.2378C199.192 52.1119 199.043 52.2378 198.747 52.2378C198.302 52.2378 198.006 52.8671 197.265 52.3636C196.82 52.1119 196.079 52.2378 195.486 52.2378C195.041 52.2378 194.597 52.2378 194.3 52.4895C194.004 52.7413 193.559 52.993 193.115 52.993C192.67 52.993 192.373 52.7413 191.929 52.7413C191.188 52.7413 190.447 52.8671 189.854 52.7413C189.113 52.6154 188.52 53.2448 187.63 52.8671C187.038 52.6154 186.296 52.7413 185.555 52.7413C185.407 52.7413 185.259 52.7413 184.962 52.7413C184.518 52.6154 184.221 53.2448 183.777 52.993C183.332 52.6154 182.739 52.8671 182.294 52.6154C181.998 52.4895 180.812 52.4895 180.219 52.6154C179.923 52.6154 179.627 52.6154 179.478 52.4895C178.885 51.7343 178.293 51.7343 177.7 52.4895C177.403 52.8671 176.81 52.7413 176.514 52.6154C176.217 52.4895 175.921 52.4895 175.625 52.6154C175.032 52.7413 174.439 52.7413 173.846 52.7413C173.253 52.7413 172.808 52.1119 172.216 52.7413C171.623 52.7413 171.03 52.7413 170.289 52.7413C169.844 52.7413 169.548 52.4895 169.103 52.2378C168.955 52.1119 168.807 51.7343 168.807 51.6084C168.955 51.4825 169.103 51.3566 169.251 51.3566C169.992 51.3566 170.882 51.1049 171.623 51.6084C171.919 51.8601 172.216 51.7343 172.512 51.6084C172.808 51.3566 173.105 51.3566 173.55 51.3566C174.439 51.3566 175.328 51.1049 176.069 51.7343C176.217 51.8601 176.514 51.7343 176.514 51.7343C177.255 51.2308 177.996 51.3566 178.737 51.3566C179.478 51.3566 180.368 51.3566 181.109 51.3566C181.85 50.7273 182.739 50.979 183.48 51.3566C183.777 51.4825 184.37 51.6084 184.666 51.7343C184.962 51.8601 185.407 51.4825 185.852 51.4825C187.63 51.3566 189.409 51.8601 191.039 51.1049C191.336 50.979 191.484 51.6084 191.929 51.3566C192.225 51.2308 192.522 51.1049 192.966 51.1049C193.263 51.1049 193.559 50.979 193.559 50.7273C193.707 49.8462 194.449 49.8462 194.893 50.0979C195.634 50.4755 196.375 50.7273 197.116 50.0979C197.858 50.7273 197.858 50.2238 198.006 49.7203C198.006 49.5944 198.302 49.5944 198.45 49.4685C198.45 49.2168 198.302 48.965 198.006 48.965C197.709 49.0909 197.413 49.2168 197.116 49.3427C196.672 49.4685 196.375 49.0909 195.931 48.965C195.486 48.7133 195.338 49.5944 194.745 49.2168C194.597 49.0909 194.3 48.965 194.004 48.965C193.707 48.965 193.263 48.965 192.966 48.965C192.67 48.965 192.522 49.5944 192.077 49.2168C191.781 48.965 191.484 48.8392 191.484 48.4615C192.077 48.2098 192.522 47.958 193.115 47.7063C193.559 47.4545 194.152 47.3287 194.597 47.5804C195.486 47.958 196.375 48.2098 197.265 47.5804C197.265 47.5804 197.413 47.5804 197.561 47.5804C198.747 48.3357 199.933 47.8322 201.118 47.958C202.008 48.0839 202.601 47.7063 203.342 47.4545C203.638 47.3287 203.638 47.0769 203.638 46.8252C203.638 46.6993 203.49 46.5734 203.342 46.5734C202.897 46.4476 202.452 46.5734 202.156 46.1958C201.118 45.1888 199.933 44.9371 198.599 45.0629C197.709 45.0629 196.82 45.0629 195.931 45.0629C195.041 44.9371 194.152 45.3147 193.411 44.6853C193.263 44.5594 192.966 44.8112 192.67 44.8112C192.373 44.9371 192.077 45.0629 191.929 45.0629C191.336 44.8112 190.743 44.6853 190.15 44.5594C189.854 44.5594 189.854 44.3077 190.002 44.1818C190.002 44.1818 190.15 44.0559 190.15 43.9301C190.447 43.5525 190.891 43.4266 190.447 42.7972C190.15 42.2937 189.854 42.042 189.261 42.042C189.113 42.042 188.964 41.9161 188.816 41.7902C188.964 41.6643 189.261 41.5385 189.409 41.5385C189.557 41.4126 189.705 41.2867 189.557 41.1608C189.261 40.6573 188.668 40.5315 188.223 40.4056C188.075 40.4056 188.075 40.1538 188.075 40.028C188.075 39.7762 188.223 39.7762 188.371 39.7762C189.113 40.4056 190.15 39.7762 190.891 40.1538C191.781 40.6573 192.522 40.5315 193.263 40.1538C193.263 40.1538 193.411 40.1538 193.559 40.1538C194.152 40.7832 195.19 40.4056 195.782 40.6573C197.116 41.2867 198.747 40.7832 200.081 41.4126C200.674 40.9091 201.118 41.7902 201.711 41.5385C202.008 41.4126 202.304 41.2867 202.304 40.9091C202.304 40.5315 202.304 40.2797 202.008 40.028C201.711 39.7762 202.008 39.6503 202.156 39.3986C202.304 39.2727 202.156 39.021 202.008 39.021C201.711 39.021 201.563 39.1469 201.267 39.2727C201.118 39.3986 200.97 39.3986 200.822 39.2727C200.822 39.2727 200.674 39.1469 200.674 39.021C200.674 38.7692 200.822 38.5175 201.118 38.5175C201.267 38.5175 201.415 38.5175 201.711 38.5175C202.897 38.3916 204.231 38.7692 205.269 38.1399C205.417 38.014 205.713 38.2657 206.01 38.2657C206.306 38.3916 206.603 38.5175 207.047 38.5175C209.419 38.5175 211.642 38.5175 214.013 38.5175C214.162 38.5175 214.162 38.5175 214.31 38.5175C214.458 38.3916 214.458 38.2657 214.606 38.1399C214.606 38.1399 214.458 38.014 214.458 37.8881C214.162 37.2587 213.569 38.014 213.124 37.6364C212.828 37.5105 212.383 37.3846 212.235 37.1329C211.79 36.6294 211.494 37.3846 211.049 37.1329C210.012 36.3776 208.529 37.2587 207.492 36.3776C207.492 36.3776 207.344 36.3776 207.344 36.5035C206.454 37.1329 205.861 36.2518 205.269 36.1259C205.269 35.3706 204.527 35.2448 204.083 34.993C203.342 34.7413 202.601 34.3636 201.711 34.2378C201.415 34.2378 201.267 34.2378 201.118 33.986C201.267 33.8601 201.415 33.8601 201.563 33.8601C202.601 33.8601 203.49 33.8601 204.527 33.7343C204.824 33.7343 205.12 33.6084 205.269 33.4825C205.417 33.3566 205.417 32.979 205.417 32.8531C205.861 32.8531 206.306 32.8531 206.603 32.7273C206.751 32.7273 206.899 32.4755 206.899 32.3497C206.899 32.2238 206.751 31.972 206.751 31.972C205.861 31.972 204.972 31.2168 204.083 31.3427C203.49 31.3427 203.045 31.3427 202.452 31.3427C201.859 31.3427 201.267 31.3427 200.822 30.965C200.377 31.3427 199.933 31.4685 199.34 31.3427C198.006 31.2168 196.672 31.7203 195.486 30.965L195.338 31.0909C194.893 31.4685 194.3 31.4685 193.856 31.2168C193.263 30.7133 192.966 31.5944 192.373 31.3427C191.929 31.0909 191.484 30.8392 190.891 30.8392C190.891 30.4615 191.039 30.0839 190.447 29.8322C190.743 29.4545 190.447 29.7063 190.298 30.5874ZM188.964 23.1608C188.964 23.1608 189.113 23.1608 189.113 23.2867V23.4126C188.964 23.5385 188.964 23.5385 188.816 23.2867C188.816 23.2867 188.964 23.2867 188.964 23.1608ZM181.85 19.007C181.998 19.1329 182.146 19.1329 182.146 19.2587C182.294 19.3846 182.146 19.5105 181.998 19.3846C181.998 19.3846 181.85 19.2587 181.85 19.007C181.85 19.1329 181.85 19.1329 181.85 19.007ZM180.961 19.2587C181.109 19.2587 181.257 19.1329 181.257 19.1329C181.257 19.1329 181.257 19.1329 181.257 19.007C181.257 19.1329 181.257 19.3846 180.961 19.3846V19.2587ZM180.812 20.6434C180.961 20.6434 180.961 20.7692 181.109 20.8951C180.961 20.8951 180.812 21.021 180.664 21.021C180.516 21.021 180.516 20.8951 180.368 20.7692C180.516 20.7692 180.664 20.6434 180.812 20.6434ZM177.551 20.1399C177.848 20.1399 177.996 20.1399 178.293 20.1399C178.441 20.1399 178.441 20.2657 178.589 20.3916L178.441 20.5175C178.293 20.5175 178.144 20.5175 177.996 20.6434C177.848 20.6434 177.7 20.6434 177.551 20.5175L177.403 20.3916C177.255 20.2657 177.403 20.1399 177.551 20.1399ZM9.76685 24.4196L9.61863 24.2937L9.76685 24.1678L9.91507 24.2937C9.91507 24.4196 9.91507 24.4196 9.76685 24.4196ZM35.2606 17.4965C35.1124 17.3706 35.1124 17.3706 35.1124 17.3706C35.1124 17.3706 35.1124 17.2448 35.2606 17.2448C35.2606 17.2448 35.2606 17.2448 35.4088 17.2448L35.5571 17.3706C35.4088 17.3706 35.4088 17.4965 35.2606 17.4965ZM44.302 67.4685C44.302 67.4685 44.1538 67.4685 44.1538 67.3427C44.1538 67.2168 44.302 67.2168 44.302 67.0909L44.4502 67.2168C44.4502 67.3427 44.4502 67.3427 44.302 67.4685ZM47.2664 67.5944C47.1182 67.7203 47.1182 67.8462 46.97 67.972C46.8218 68.0979 46.6735 67.972 46.8218 67.8462C46.97 67.5944 47.1182 67.5944 47.2664 67.5944ZM94.8449 64.4476C94.6967 64.4476 94.5485 64.4476 94.4002 64.3217C94.252 64.1958 94.252 64.0699 94.1038 63.9441C94.1038 63.8182 94.252 63.6923 94.252 63.5664C94.5485 63.6923 94.6967 63.9441 94.9931 64.1958L94.8449 64.4476ZM99.1433 64.3217C98.6986 64.5734 97.9575 64.4476 97.8093 64.0699C97.8093 63.9441 97.8093 63.8182 97.9575 63.5664C98.4022 63.8182 98.8468 63.9441 99.2915 64.1958C99.2915 64.3217 99.1433 64.3217 99.1433 64.3217ZM110.704 63.6923L110.853 63.5664L111.001 63.6923C110.853 63.9441 110.704 63.9441 110.704 63.6923ZM113.965 6.41958L113.817 6.29371C113.817 6.29371 113.817 6.29371 113.817 6.16783C113.817 6.16783 113.817 6.16783 113.817 6.04196C113.817 6.04196 113.817 6.04196 113.965 6.04196C113.965 6.04196 113.965 6.04196 114.113 6.04196C114.262 6.16783 114.262 6.29371 113.965 6.41958ZM117.671 63.4406L117.523 63.3147V63.1888H117.671C117.967 63.1888 117.967 63.3147 117.671 63.4406ZM122.117 63.9441C121.524 63.4406 121.08 63.9441 120.635 64.3217C120.487 64.4476 120.339 64.5734 120.19 64.3217C119.746 63.8182 119.301 64.0699 118.856 64.3217L118.56 64.0699C118.708 63.5664 118.856 63.1888 119.005 62.6853C119.005 62.5594 119.153 62.5594 119.153 62.5594C119.301 62.5594 119.449 62.6853 119.005 62.4336C120.339 63.0629 121.08 62.6853 121.821 62.9371C121.969 62.9371 121.969 63.1888 122.117 63.3147C122.266 63.5664 122.117 63.6923 122.117 63.9441ZM124.044 63.5664C123.896 63.6923 123.748 63.8182 123.6 63.9441C123.303 63.6923 123.451 63.4406 123.451 63.1888C123.6 62.9371 123.896 62.9371 124.044 63.0629C124.489 63.1888 124.192 63.4406 124.044 63.5664ZM125.23 63.9441L125.082 63.8182C125.082 63.8182 125.082 63.6923 125.23 63.6923H125.378C125.378 63.6923 125.378 63.8182 125.23 63.9441ZM126.564 63.3147C126.564 63.4406 126.564 63.5664 126.564 63.6923C126.564 63.8182 126.416 63.8182 126.416 63.8182C126.267 63.8182 126.119 63.6923 126.119 63.6923C126.119 63.4406 126.119 63.1888 126.119 62.9371C126.119 62.8112 126.267 62.6853 126.416 62.5594C126.564 62.6853 126.564 62.8112 126.712 62.9371C126.564 63.0629 126.564 63.0629 126.564 63.3147ZM127.601 6.41958C127.453 6.54545 127.453 6.7972 127.453 6.7972C127.305 6.92308 127.157 6.7972 127.305 6.67133C127.305 6.54545 127.453 6.54545 127.601 6.41958ZM145.981 10.8252H145.832L145.684 10.6993C145.684 10.3217 145.684 9.94406 145.684 9.56643C145.981 9.56643 146.129 9.69231 146.129 9.94406C146.129 10.1958 146.129 10.4476 145.981 10.8252ZM156.06 12.3357H155.911C155.911 12.0839 156.06 12.0839 156.208 12.0839C156.208 12.0839 156.208 12.0839 156.06 12.0839C156.208 12.0839 156.208 12.2098 156.06 12.3357ZM158.728 14.6014L158.876 14.7273L158.728 14.8531C158.728 14.8531 158.579 14.8531 158.579 14.7273C158.579 14.7273 158.728 14.7273 158.728 14.6014ZM161.099 64.0699C161.099 64.3217 160.803 64.4476 160.506 64.4476C160.21 64.4476 160.062 64.1958 160.062 63.9441C160.062 63.8182 160.062 63.6923 160.062 63.4406C159.469 63.5664 159.617 64.0699 159.32 64.3217C159.024 64.5734 158.579 64.3217 158.431 64.0699C158.135 63.3147 158.579 62.8112 159.617 62.9371C159.913 62.9371 160.062 63.1888 160.062 63.4406C160.506 63.3147 160.506 63.0629 160.654 62.8112C160.654 62.6853 160.803 62.5594 160.803 62.6853C160.951 62.6853 161.099 62.8112 161.099 62.9371C161.099 63.3147 161.099 63.6923 161.099 64.0699ZM161.84 63.9441L161.692 63.8182V63.6923H161.84C162.137 63.6923 162.137 63.8182 161.84 63.9441ZM161.988 62.8112C161.84 62.8112 161.84 62.6853 161.692 62.6853L161.84 62.5594L161.988 62.6853C161.988 62.8112 161.988 62.8112 161.988 62.8112ZM163.619 63.8182C163.471 63.9441 163.471 63.9441 163.322 63.6923L163.471 63.5664C163.471 63.5664 163.619 63.5664 163.619 63.6923V63.8182ZM164.063 62.8112C163.915 62.9371 163.915 62.9371 163.767 62.6853L163.915 62.5594H164.063C164.063 62.6853 164.212 62.8112 164.063 62.8112ZM164.656 64.3217C164.508 64.1958 164.36 64.1958 164.36 64.0699C164.36 63.9441 164.508 63.8182 164.508 63.6923C164.656 63.8182 164.656 63.8182 164.805 63.9441C164.805 64.0699 164.805 64.1958 164.656 64.3217ZM165.694 52.2378C165.546 52.2378 165.546 52.1119 165.397 52.1119L165.546 51.986L165.694 52.1119V52.2378ZM167.769 52.7413L167.621 52.6154L167.769 52.4895C167.769 52.4895 167.769 52.4895 167.917 52.6154C167.917 52.6154 167.917 52.7413 168.065 52.7413C167.917 52.7413 167.769 52.7413 167.769 52.7413ZM215.051 59.035L215.199 59.1608L215.051 59.2867C215.051 59.2867 214.903 59.2867 214.903 59.1608C215.051 59.1608 215.051 59.1608 215.051 59.035ZM189.705 56.3916C189.854 56.3916 190.002 56.5175 190.15 56.5175C190.15 56.6434 190.002 56.7692 190.002 56.7692C189.705 56.7692 189.557 56.6434 189.409 56.5175C189.409 56.6434 189.557 56.5175 189.705 56.3916ZM188.223 56.5175C188.371 56.5175 188.52 56.6434 188.668 56.7692C188.52 56.7692 188.371 56.8951 188.223 56.8951C188.075 56.7692 187.927 56.7692 187.779 56.6434C187.927 56.6434 188.075 56.5175 188.223 56.5175ZM182.294 55.8881C182.887 55.8881 183.48 55.8881 184.073 55.8881C184.221 55.8881 184.37 56.014 184.518 56.1399C184.37 56.2657 184.221 56.3916 184.073 56.3916C183.777 56.3916 183.628 56.3916 182.887 56.3916C182.887 56.3916 182.591 56.3916 182.146 56.3916L181.998 56.2657C181.998 56.1399 182.146 55.8881 182.294 55.8881ZM178.885 56.014C179.627 56.014 180.219 56.014 180.961 56.014L181.109 56.1399C181.109 56.1399 181.109 56.2657 180.961 56.2657C180.664 56.3916 180.368 56.5175 180.071 56.6434C179.478 56.8951 179.33 56.8951 178.737 56.2657C178.737 56.2657 178.589 56.1399 178.589 56.014C178.737 56.014 178.885 56.014 178.885 56.014ZM174.735 56.014C175.032 56.014 175.18 56.014 175.921 56.014C175.773 56.014 175.773 56.014 175.921 56.014C176.069 56.014 176.069 56.1399 176.217 56.2657L176.069 56.3916C175.773 56.5175 175.625 56.5175 175.328 56.6434C174.884 56.8951 174.735 56.6434 174.439 56.3916C174.439 56.3916 174.291 56.2657 174.291 56.1399C174.587 56.1399 174.735 56.014 174.735 56.014ZM174.291 26.6853C174.291 26.9371 174.142 27.0629 173.698 27.0629C173.401 27.0629 173.105 27.0629 172.808 27.0629C172.66 27.0629 172.512 27.0629 172.364 26.9371C172.216 26.9371 172.216 26.8112 172.216 26.8112L172.364 26.6853C172.808 26.5594 173.105 26.3077 173.55 26.1818C173.846 26.0559 173.994 26.1818 174.142 26.4336C174.439 26.5594 174.291 26.5594 174.291 26.6853ZM183.184 31.0909L183.036 30.965C183.036 30.965 183.036 30.8392 183.184 30.8392H183.332C183.332 30.965 183.332 30.965 183.184 31.0909ZM184.221 30.5874L184.073 30.4615V30.3357H184.221C184.37 30.4615 184.37 30.4615 184.221 30.5874ZM185.704 39.5245L185.852 39.3986L186 39.5245C185.852 39.7762 185.704 39.7762 185.704 39.5245ZM187.482 31.0909L187.334 30.965L187.482 30.8392C187.482 30.8392 187.482 30.8392 187.63 30.965C187.63 30.965 187.63 31.0909 187.779 31.0909C187.63 30.965 187.482 30.965 187.482 31.0909ZM191.781 47.8322C192.225 47.7063 192.373 47.958 192.373 48.3357C192.225 48.4615 191.929 48.4615 191.781 48.5874C191.632 48.7133 191.484 48.7133 191.336 48.5874C191.336 48.4615 191.336 48.4615 191.336 48.3357C191.484 48.0839 191.632 47.958 191.781 47.8322ZM190.595 30.965C190.595 30.8392 190.447 30.7133 190.447 30.5874C190.447 30.5874 190.447 30.5874 190.298 30.5874C190.447 30.5874 190.595 30.5874 190.595 30.8392C190.743 30.965 190.595 31.0909 190.595 30.965ZM206.158 32.3497C206.306 32.3497 206.306 32.4755 206.306 32.6014C206.306 32.6014 206.306 32.6014 206.306 32.4755C206.158 32.4755 206.01 32.4755 206.01 32.3497C205.861 32.3497 206.01 32.2238 206.158 32.3497ZM200.525 33.8601C200.674 33.8601 200.674 33.8601 200.525 33.8601C200.674 33.7343 200.674 33.7343 200.674 33.7343C200.674 33.7343 200.674 33.7343 200.822 33.7343C200.97 33.8601 200.97 33.986 200.674 33.986C200.674 34.1119 200.525 34.1119 200.525 33.8601C200.525 33.986 200.525 33.986 200.525 33.8601ZM197.561 32.2238L197.709 32.3497L197.561 32.4755C197.265 32.4755 197.265 32.3497 197.561 32.2238ZM195.338 32.3497C195.486 32.0979 196.375 32.0979 196.524 32.3497V32.4755L196.375 32.6014C196.227 32.6014 196.079 32.6014 195.931 32.6014C195.782 32.6014 195.634 32.4755 195.486 32.4755C195.338 32.4755 195.338 32.3497 195.338 32.3497ZM191.929 30.7133C191.929 30.8392 191.781 30.965 191.781 31.0909H191.632C191.484 30.7133 191.781 30.7133 191.929 30.7133Z" fill="#1A1A1A"/>
<path d="M9.02575 22.6573C9.02575 22.5315 9.02575 22.5315 9.02575 22.6573V22.6573Z" fill="#1A1A1A"/>
<path d="M129.084 64.951C129.232 65.0769 129.232 64.951 129.084 64.951V64.951Z" fill="#1A1A1A"/>
<path d="M118.412 4.40559C119.153 4.15385 119.894 4.02797 120.635 3.77622C120.932 3.65035 121.228 3.52448 121.524 3.27273C121.673 3.14685 121.673 2.76923 121.673 2.64336C121.673 2.01399 121.228 1.51049 120.487 1.51049C119.746 1.51049 119.005 1.38462 118.56 2.13986C118.412 2.26573 118.264 2.51748 118.115 2.51748C117.523 1.88811 117.374 2.39161 117.226 2.8951C117.078 3.14685 116.93 3.52448 116.781 3.77622C116.633 4.27972 116.93 4.53147 117.374 4.53147C117.967 4.40559 118.115 4.40559 118.412 4.40559Z" fill="#1A1A1A"/>
<path d="M22.3655 68.3496C22.0691 68.2238 21.9209 68.2238 21.7726 68.4755C21.4762 68.7273 21.1798 69.1049 20.8833 69.3566C20.7351 69.4825 20.7351 69.8601 21.0315 69.986C21.1798 70.1119 21.4762 70.1119 21.4762 70.1119C22.0691 69.6084 22.3655 69.986 22.662 70.4895C22.662 70.6154 22.9584 70.6154 23.1066 70.6154C23.4031 70.3636 23.6995 70.1119 23.9959 69.8601C23.9959 69.6084 23.9959 69.4825 23.8477 69.3566C23.4031 68.6014 22.8102 68.6014 22.3655 68.3496Z" fill="#1A1A1A"/>
<path d="M199.34 50.0979C199.34 50.3497 199.34 50.6014 199.488 50.7273C199.784 50.979 200.081 50.7273 200.377 50.6014C200.674 50.3497 200.97 49.7203 201.563 50.3497C201.859 50.0979 202.156 49.972 202.304 49.7203C202.304 49.7203 202.008 49.3427 201.859 49.2168C201.711 49.0909 201.415 49.0909 201.118 48.965C200.377 48.7133 199.784 49.2168 199.192 49.4685C199.34 49.5944 199.34 49.8462 199.34 50.0979Z" fill="#1A1A1A"/>
<path d="M26.3674 69.8601C26.8121 69.6084 27.1085 69.4825 27.1085 70.1119C27.1085 70.2378 27.2568 70.2378 27.405 70.2378C27.5532 69.6084 27.8496 68.8531 27.9979 68.2238C27.9979 67.972 27.8496 67.972 27.7014 68.0979C27.405 68.3496 26.9603 68.4755 26.5157 68.2238C26.3674 68.0979 26.2192 67.972 26.071 67.972C25.9228 67.972 25.7746 67.972 25.6263 68.0979C25.6263 68.2238 25.6263 68.3497 25.7746 68.4755C25.9228 68.6014 25.9228 68.7273 25.7746 68.8531C25.6263 69.4825 25.9228 69.986 26.3674 69.8601Z" fill="#1A1A1A"/>
<path d="M188.075 27.6923C187.63 27.6923 187.038 27.8182 186.593 27.4406C186.148 27.0629 185.555 27.1888 185.111 27.1888C184.962 27.1888 184.666 27.3147 184.666 27.3147C184.666 27.5664 184.962 27.5664 185.259 27.5664C185.555 27.5664 185.852 27.5664 186 27.6923C186.296 27.8182 186.593 28.1958 186.741 28.3217C187.038 28.5734 187.334 27.8182 187.779 28.3217C188.075 28.5734 188.371 28.4476 188.668 28.1958C188.668 28.1958 188.668 28.0699 188.668 27.9441C188.668 27.8182 188.371 27.6923 188.075 27.6923Z" fill="#1A1A1A"/>
<path d="M38.9661 7.42657C38.6697 7.42657 38.3732 7.42657 38.225 7.8042C38.0768 8.05594 38.0768 8.30769 37.9286 8.43357C37.7804 8.55944 37.7804 8.81119 37.9286 8.81119C38.5215 8.81119 38.9661 9.56643 39.559 9.31469C39.7072 9.31469 40.0037 9.31468 40.0037 9.18881C40.1519 8.81119 39.8554 8.93706 39.559 8.81119C39.1143 8.68531 39.1143 8.43357 39.2626 8.05594C39.559 7.42657 39.559 7.42657 38.9661 7.42657Z" fill="#1A1A1A"/>
<path d="M208.381 63.0629C208.085 63.0629 207.936 63.5664 207.492 63.3147C207.195 63.0629 206.899 62.9371 206.603 63.0629C206.306 63.1888 206.01 63.5664 205.861 63.8182C205.861 63.9441 205.861 64.0699 206.01 64.3217L206.158 64.4476C206.899 63.8182 207.788 64.0699 208.678 64.0699C208.974 64.0699 209.122 63.8182 208.974 63.5664C208.826 63.0629 208.529 63.0629 208.381 63.0629Z" fill="#1A1A1A"/>
<path d="M126.712 1.88811C127.009 1.38462 127.305 1.00699 127.453 0.503497C127.453 0.377622 127.157 0.125874 126.86 0C126.86 0 126.564 0 126.416 0.125874C125.971 0.629371 125.823 1.00699 126.119 1.63636C126.267 1.76224 126.416 1.76224 126.712 1.88811Z" fill="#1A1A1A"/>
<path d="M8.13643 70.993C8.43287 70.993 8.43287 70.8671 8.28465 70.7413C7.98821 70.1119 7.24711 69.986 6.50602 70.2378C6.3578 70.2378 6.3578 70.4895 6.3578 70.6154C6.3578 70.7413 6.50602 70.993 6.50602 70.993C6.80245 71.1189 6.95068 71.1189 7.24711 71.1189C7.54355 70.993 7.83999 70.993 8.13643 70.993Z" fill="#1A1A1A"/>
<path d="M203.342 49.972C203.193 49.972 203.193 50.0979 203.193 50.0979L203.342 50.2238C203.786 50.3497 204.083 50.4755 204.527 50.4755C204.676 50.4755 204.972 50.979 205.12 50.4755C205.269 50.2238 205.12 49.8462 205.12 49.5944C205.12 49.4685 204.972 49.4685 204.972 49.3427C204.527 49.8462 203.935 49.8462 203.342 49.972Z" fill="#1A1A1A"/>
<path d="M57.0489 67.972C57.1971 67.972 57.1971 67.8462 57.1971 67.8462V67.7203C56.9007 67.2168 56.3078 66.965 55.7149 67.0909C55.5667 67.0909 55.4185 67.2168 55.4185 67.3427C55.4185 67.3427 55.5667 67.4685 55.5667 67.5944C55.8631 67.972 56.456 68.0979 57.0489 67.972Z" fill="#1A1A1A"/>
<path d="M134.42 64.4476C134.271 64.5734 134.123 64.5734 133.975 64.6993L134.123 64.8252C134.568 64.951 134.864 65.2028 135.309 65.3287C135.457 65.3287 135.754 65.3287 135.754 65.2028C136.05 64.951 135.605 64.8252 135.605 64.6993C135.309 64.4475 134.864 64.5734 134.42 64.4476Z" fill="#1A1A1A"/>
<path d="M188.816 20.014C188.964 20.014 189.113 19.8881 189.113 19.7622C188.964 19.6364 188.816 19.6364 188.668 19.6364C188.371 19.6364 187.927 19.6364 187.63 19.6364C187.482 19.6364 187.334 19.7622 187.334 19.8881L187.482 20.014C187.63 20.014 187.779 20.014 187.927 20.014C188.223 20.014 188.52 20.014 188.816 20.014Z" fill="#1A1A1A"/>
<path d="M208.974 32.6014C209.27 32.6014 209.419 32.4755 209.419 32.2238C209.419 31.8462 209.27 31.7203 208.826 31.7203C208.529 31.7203 208.381 31.8462 208.381 32.2238C208.529 32.4755 208.678 32.6014 208.974 32.6014Z" fill="#1A1A1A"/>
<path d="M208.826 50.7273C208.974 50.7273 209.27 50.4755 209.419 50.2238C209.419 50.0979 209.27 49.8462 209.122 49.7203C208.974 49.5944 208.826 49.5944 208.678 49.5944C208.678 49.7203 208.529 49.8462 208.529 50.0979C208.529 50.2238 208.233 50.7273 208.826 50.7273Z" fill="#1A1A1A"/>
<path d="M52.6023 68.6014C52.6023 68.979 52.8988 69.1049 53.1952 68.979C53.6399 68.8531 53.9363 68.6014 53.9363 68.2238L53.7881 68.0979C53.4916 68.0979 53.3434 68.0979 53.047 68.0979C53.047 68.3496 52.8988 68.4755 52.6023 68.6014Z" fill="#1A1A1A"/>
<path d="M41.4858 13.7203C41.4858 13.5944 41.4858 13.5944 41.4858 13.4685C41.4858 13.3427 41.3376 13.2168 41.3376 13.0909C41.1894 13.2168 41.1894 13.3427 41.0412 13.4685C40.893 13.7203 40.7447 14.0979 40.5965 14.3497C40.7447 14.3497 40.893 14.4755 41.0412 14.4755C41.3376 14.4755 41.3376 14.0979 41.4858 13.7203Z" fill="#1A1A1A"/>
<path d="M33.1855 14.7273C32.7409 14.4755 31.9998 14.6014 31.8516 14.979C31.8516 15.1049 31.8516 15.2308 31.9998 15.4825C32.4445 15.2308 32.8891 15.1049 33.3338 14.8531C33.3338 14.7273 33.3338 14.7273 33.1855 14.7273Z" fill="#1A1A1A"/>
<path d="M106.702 6.7972V6.67133C106.554 6.41958 105.665 6.41958 105.517 6.67133V6.7972C105.665 6.92308 105.813 6.92308 106.11 7.04895C106.11 6.92308 106.406 6.7972 106.702 6.7972Z" fill="#1A1A1A"/>
<path d="M63.7188 66.5874C63.5706 66.5874 63.5706 66.7133 63.4223 66.8392L63.5706 66.965C63.7188 66.965 63.867 66.965 64.0152 67.0909C64.1634 67.0909 64.3117 67.0909 64.4599 67.0909L64.6081 66.965C64.4599 66.8392 64.4599 66.7133 64.3117 66.7133C64.1634 66.4615 63.867 66.4615 63.7188 66.5874Z" fill="#1A1A1A"/>
<path d="M1.02189 64.951C1.02189 65.0769 1.02189 65.2028 1.17011 65.4546C1.31833 65.3287 1.61477 65.2028 1.76299 65.0769C1.91121 64.951 1.91121 64.8252 2.05943 64.6993C1.91121 64.6993 1.76299 64.5734 1.61477 64.5734C1.17011 64.4476 1.02189 64.6993 1.02189 64.951Z" fill="#1A1A1A"/>
<path d="M129.973 64.0699L129.825 63.9441C129.528 63.9441 129.232 63.9441 129.232 64.1958C129.232 64.4476 129.232 64.5734 129.232 64.8252C129.38 64.6993 129.677 64.6993 129.825 64.5734C129.973 64.5734 130.269 64.4476 129.973 64.0699Z" fill="#1A1A1A"/>
<path d="M89.2126 64.6993C89.3608 64.8252 89.509 64.8252 89.6572 64.8252C89.8054 64.8252 89.8054 64.3217 89.6572 64.1958C89.3608 63.9441 89.0643 64.0699 88.7679 64.0699C88.7679 64.3217 89.0643 64.5734 89.2126 64.6993Z" fill="#1A1A1A"/>
<path d="M88.7679 64.0699C88.7679 63.9441 88.7679 63.9441 88.7679 64.0699V64.0699Z" fill="#1A1A1A"/>
<path d="M209.863 63.5664C209.715 63.5664 209.715 63.6923 209.567 63.8182L209.715 63.9441C209.863 63.9441 210.012 63.9441 210.16 63.9441C210.308 63.9441 210.456 63.9441 210.456 63.9441C210.604 63.9441 210.753 63.8182 210.901 63.6923C210.753 63.5664 210.753 63.4406 210.604 63.4406C210.456 63.4406 210.16 63.4406 209.863 63.5664Z" fill="#1A1A1A"/>
<path d="M49.6379 69.2308C49.6379 69.3566 49.7861 69.4825 49.7861 69.4825C49.9344 69.4825 50.2308 69.3566 50.5272 69.3566C50.379 69.2308 50.2308 69.1049 50.0826 69.1049C49.9344 69.1049 49.7861 69.1049 49.6379 69.2308Z" fill="#1A1A1A"/>
<path d="M18.3636 72C18.66 72 18.8082 72 18.9565 71.7483L18.8082 71.6224C18.66 71.6224 18.3636 71.6224 18.2154 71.8741L18.3636 72Z" fill="#1A1A1A"/>
<path d="M77.2068 65.2028C77.2068 65.3287 77.0586 65.4545 77.0586 65.5804C77.0586 65.7063 77.2068 65.8322 77.355 65.8322C77.5032 65.7063 77.6514 65.5804 77.5032 65.4546C77.5032 65.3287 77.355 65.2028 77.2068 65.2028Z" fill="#1A1A1A"/>
<path d="M132.493 64.1958C132.196 64.3217 132.344 64.5734 132.344 64.8252C132.344 64.951 132.493 64.951 132.493 64.951L132.641 64.8252C132.789 64.5734 132.789 64.4476 132.641 64.1958C132.641 64.0699 132.641 64.1958 132.493 64.1958Z" fill="#1A1A1A"/>
<path d="M150.427 8.81119C150.427 8.68531 150.279 8.68532 150.131 8.68532L149.983 8.81119C149.983 9.06294 149.983 9.31468 149.983 9.44056C150.131 9.44056 150.279 9.44056 150.427 9.44056C150.427 9.18881 150.427 9.06294 150.427 8.81119Z" fill="#1A1A1A"/>
<path d="M199.488 43.5524C199.636 43.6783 199.933 43.6783 200.081 43.8042C200.081 43.8042 200.229 43.6783 200.229 43.5524C200.081 43.3007 199.784 43.4266 199.636 43.4266C199.636 43.4266 199.488 43.4266 199.488 43.5524Z" fill="#1A1A1A"/>
<path d="M38.8179 13.2168C38.9661 13.3427 39.1143 13.3427 39.1143 13.4685C39.2626 13.4685 39.4108 13.3427 39.559 13.3427C39.559 13.2168 39.4108 13.0909 39.4108 13.0909C39.2626 13.0909 39.1143 13.2168 38.8179 13.2168Z" fill="#1A1A1A"/>
<path d="M42.3752 9.69231C42.2269 9.44056 41.9305 9.56643 41.7823 9.56643L41.6341 9.69231C41.7823 9.81818 42.0787 9.81818 42.2269 9.94406C42.2269 9.94406 42.2269 9.69231 42.3752 9.69231Z" fill="#1A1A1A"/>
<path d="M129.973 0C129.973 0.125874 129.825 0.125874 129.825 0.251748H129.973L130.121 0.125874C130.121 0.125874 130.121 0 129.973 0Z" fill="#1A1A1A"/>
<path d="M141.238 2.64336V2.51748H141.089C141.089 2.64336 141.089 2.76923 141.238 2.76923C141.238 2.76923 141.238 2.76923 141.238 2.64336Z" fill="#1A1A1A"/>
<path d="M129.677 4.15385L129.528 4.02797C129.232 4.15385 129.232 4.27972 129.528 4.40559C129.528 4.40559 129.528 4.27972 129.677 4.15385Z" fill="#1A1A1A"/>
<path d="M140.497 4.02797V4.15385L140.645 4.27972C140.645 4.15385 140.645 4.02797 140.793 4.02797C140.645 4.02797 140.645 4.02797 140.497 4.02797Z" fill="#1A1A1A"/>
<path d="M109.37 6.16783L109.222 6.04196C108.926 6.16783 108.926 6.29371 109.222 6.41958C109.222 6.41958 109.37 6.29371 109.37 6.16783Z" fill="#1A1A1A"/>
<path d="M18.5118 69.986C18.5118 70.1119 18.5118 70.1119 18.5118 69.986V69.986Z" fill="#1A1A1A"/>
<path d="M18.5118 70.1119C18.3636 70.1119 18.2154 70.1119 18.2154 70.2378C18.0671 70.3636 18.2154 70.4895 18.3636 70.3636C18.5118 70.3636 18.5118 70.2378 18.5118 70.1119Z" fill="#1A1A1A"/>
<path d="M19.8458 69.986L19.994 69.8601L19.8458 69.7343C19.8458 69.8601 19.6976 69.8601 19.6976 69.986C19.8458 69.8601 19.8458 69.8601 19.8458 69.986Z" fill="#1A1A1A"/>
<path d="M18.9565 69.7343H18.8082C18.8082 69.8601 18.66 69.986 18.66 70.1119C18.8082 69.986 18.9565 69.986 18.9565 69.7343Z" fill="#1A1A1A"/>
<path d="M18.66 69.986C18.5118 69.986 18.5118 69.986 18.66 69.986V69.986Z" fill="#1A1A1A"/>
<path d="M66.535 66.7133C66.6832 66.8392 66.6832 66.965 66.8314 66.8392V66.7133C66.8314 66.7133 66.6832 66.5874 66.6832 66.7133C66.535 66.5874 66.535 66.7133 66.535 66.7133Z" fill="#1A1A1A"/>
<path d="M88.3232 65.7063L88.4715 65.8322C88.6197 65.7063 88.7679 65.7063 88.6197 65.5804H88.4715C88.4715 65.7063 88.3232 65.7063 88.3232 65.7063Z" fill="#1A1A1A"/>
<path d="M70.9816 65.958L71.1298 65.8322C71.1298 65.8322 70.9816 65.7063 70.9816 65.5804L70.8333 65.7063C70.8333 65.8322 70.8333 65.958 70.9816 65.958Z" fill="#1A1A1A"/>
<path d="M92.9181 65.0769C92.9181 64.951 92.9181 64.951 92.9181 65.0769V65.0769Z" fill="#1A1A1A"/>
<path d="M92.6216 65.3287H92.7698C92.7698 65.2028 92.9181 65.0769 92.9181 64.951C92.7698 65.0769 92.6216 65.0769 92.6216 65.3287Z" fill="#1A1A1A"/>
<path d="M130.862 64.6993C131.01 64.8252 131.01 64.951 131.159 64.8252V64.6993L131.01 64.5734L130.862 64.6993Z" fill="#1A1A1A"/>
<path d="M129.084 63.3147V63.1888C128.935 63.1888 128.787 63.0629 128.787 63.0629C128.639 63.1888 128.787 63.4406 129.084 63.3147Z" fill="#1A1A1A"/>
<path d="M207.047 53.4965C207.047 53.4965 206.899 53.6224 207.047 53.6224L207.195 53.7483C207.344 53.6224 207.492 53.4965 207.344 53.4965C207.195 53.4965 207.047 53.4965 207.047 53.4965Z" fill="#1A1A1A"/>
<path d="M195.19 50.6014C195.338 50.8531 195.338 50.8531 195.486 50.6014L195.338 50.4755L195.19 50.6014Z" fill="#1A1A1A"/>
<path d="M210.16 50.2238C210.308 50.2238 210.456 50.2238 210.456 50.2238L210.308 50.0979C210.308 49.972 210.16 50.0979 210.16 50.2238Z" fill="#1A1A1A"/>
<path d="M207.195 49.972H207.047L206.899 50.0979C206.899 50.2238 207.047 50.2238 207.047 50.2238C207.344 50.2238 207.344 50.0979 207.195 49.972Z" fill="#1A1A1A"/>
<path d="M202.601 44.0559C202.749 44.0559 202.749 44.0559 202.897 44.1818V44.0559C202.897 44.0559 202.749 43.9301 202.749 44.0559C202.749 43.9301 202.749 43.9301 202.601 44.0559Z" fill="#1A1A1A"/>
<path d="M201.118 44.0559C201.267 44.1818 201.267 44.3077 201.415 44.1818V44.0559C201.415 44.0559 201.267 43.9301 201.267 44.0559C201.118 43.9301 201.118 44.0559 201.118 44.0559Z" fill="#1A1A1A"/>
<path d="M198.599 43.6783L198.747 43.5524L198.599 43.4266L198.45 43.5524C198.45 43.5524 198.45 43.6783 198.599 43.6783Z" fill="#1A1A1A"/>
<path d="M197.265 43.5524L197.413 43.6783C197.413 43.6783 197.561 43.6783 197.561 43.5524V43.4266C197.561 43.3007 197.413 43.3007 197.265 43.5524Z" fill="#1A1A1A"/>
<path d="M202.749 42.9231L202.601 43.049C202.749 43.049 202.749 43.049 202.897 43.1748V43.049C202.897 42.9231 202.897 42.9231 202.749 42.9231Z" fill="#1A1A1A"/>
<path d="M201.267 42.7972L201.118 42.9231C201.267 42.9231 201.267 43.049 201.415 43.049C201.415 43.049 201.415 42.9231 201.563 42.9231C201.415 42.9231 201.267 42.9231 201.267 42.7972Z" fill="#1A1A1A"/>
<path d="M181.553 29.3287C181.553 29.3287 181.405 29.5804 181.405 29.7063C181.553 29.7063 181.702 29.7063 181.85 29.7063C181.85 29.4545 181.85 29.2028 181.553 29.3287Z" fill="#1A1A1A"/>
<path d="M189.409 27.8182C189.557 27.8182 189.557 27.9441 189.705 27.9441C189.705 27.9441 189.705 27.8182 189.854 27.8182L189.705 27.6923C189.557 27.6923 189.409 27.8182 189.409 27.8182Z" fill="#1A1A1A"/>
<path d="M202.304 23.5385L202.452 23.4126C202.452 23.4126 202.304 23.2867 202.304 23.1608L202.156 23.2867C202.156 23.4126 202.304 23.4126 202.304 23.5385Z" fill="#1A1A1A"/>
<path d="M192.522 23.2867C192.67 23.2867 192.67 23.2867 192.818 23.4126V23.2867L192.67 23.1608C192.67 23.2867 192.67 23.2867 192.522 23.2867Z" fill="#1A1A1A"/>
<path d="M191.188 23.035C191.336 22.9091 191.336 22.7832 191.336 22.7832H191.188C191.188 22.7832 191.039 22.9091 191.188 22.9091C191.039 22.9091 191.188 23.035 191.188 23.035Z" fill="#1A1A1A"/>
<path d="M8.58109 22.9091H8.72931C8.87753 22.9091 8.87753 22.7832 8.87753 22.6573C8.72931 22.6573 8.58109 22.6573 8.58109 22.9091Z" fill="#1A1A1A"/>
<path d="M37.4839 13.2168H37.3357C37.3357 13.2168 37.1875 13.3427 37.3357 13.3427L37.4839 13.4685C37.6321 13.3427 37.6321 13.2168 37.4839 13.2168Z" fill="#1A1A1A"/>
</svg>
