<svg width="70" height="50" viewBox="0 0 70 50" fill="none" xmlns="http://www.w3.org/2000/svg">
<path d="M17.9891 18.6559C18.1171 17.4922 17.3791 16.7046 16.8014 15.9582C16.2237 15.2117 15.1928 16.2293 14.4459 16.807C14.1023 17.1462 14.1803 17.508 14.5195 17.8514C16.4954 19.8111 16.555 19.9119 16.917 19.8338C17.5403 19.7373 17.8795 20.0807 17.8751 20.7633C17.8708 21.4459 18.4116 21.6701 19.2689 22.6592C20.007 23.4467 20.3138 22.5853 21.684 21.9111C23.2557 21.1177 23.2557 21.1177 22.5448 19.2261C22.4256 19.0246 22.0864 18.6812 21.8664 18.5393C20.8855 18.0313 21.7515 17.6551 21.5175 16.5695C21.4395 16.2076 21.2011 15.8046 21.0634 15.342C20.0317 13.368 19.6513 13.185 18.1391 14.0792C17.8367 14.258 17.5343 14.4368 17.8919 15.0413C18.6668 16.3512 18.8228 17.0749 19.5837 17.441C21.1651 18.2739 20.2306 19.9145 19.0665 19.7869C18.544 19.8238 17.9251 19.2377 17.9891 18.6559Z" fill="#FFD600"/>
<path d="M11.7991 25.444C11.6246 24.4591 11.0058 23.8731 10.4877 23.2274C9.11234 21.5927 8.85111 21.6111 7.71501 23.3709C7.53179 23.7513 7.44938 24.072 7.88943 24.3558C9.94767 25.9948 10.0073 26.0955 10.8506 26.1409C11.9551 26.1678 11.2862 27.1073 11.7859 27.4918C14.1834 29.4742 13.5645 28.8881 15.7867 26.8941C16.0295 26.6145 16.1716 26.3946 16.0339 25.9319C15.1626 23.9991 14.9838 23.6969 14.3421 23.5323C13.7601 23.4685 13.4024 22.8639 13.7461 22.5247C14.3737 21.7456 13.7961 20.9992 12.8835 19.2267C12.2875 18.2192 11.9394 19.241 10.5877 20.1763C9.84081 20.7539 10.2397 21.1981 12.0139 23.277C12.5915 24.0234 13.5769 23.8488 13.4901 24.8521C13.4261 25.434 13.0824 25.7732 12.56 25.8101C12.1979 25.8882 11.7579 25.6044 11.7991 25.444Z" fill="#FFD600"/>
<path d="M6.46146 30.9122C6.18622 29.987 5.48494 29.7217 4.76526 29.1952C3.10586 28.0004 2.90424 28.1196 2.04777 30.1221C1.86455 30.5024 1.94256 30.8643 2.32301 31.0473C4.64687 31.9852 4.70648 32.086 5.43056 31.9298C6.51667 31.6956 6.00823 32.6763 6.54909 32.9004C9.21219 34.1818 8.55212 33.7561 10.3571 31.0567C10.7831 30.3968 10.5631 30.2549 9.40777 28.7621C9.12813 28.5194 8.8485 28.2768 8.38565 28.4144C7.9228 28.5521 7.36353 28.0668 7.64756 27.6269C8.0552 26.7058 7.43632 26.1198 6.34059 24.7277C5.70331 23.8805 5.41489 25.003 4.30158 26.3413C3.67392 27.1205 4.01316 27.4639 6.1126 28.9425C6.83229 29.469 7.79919 29.0332 7.8132 29.977C7.90962 30.5999 7.46517 30.9987 7.06193 31.2372C6.90151 31.196 6.42026 31.0726 6.46146 30.9122Z" fill="#FFD600"/>
<path d="M26.8057 15.6185C26.7505 14.8351 26.5349 14.0106 26.3788 13.2869L26.278 13.3465C25.3287 11.0518 25.1683 11.0107 23.5369 11.7033C23.0329 12.0014 22.4692 12.1987 23.0469 12.9451C23.7438 13.893 24.3398 14.9006 25.0367 15.8485C25.2155 16.1508 26.3157 16.8603 26.3341 17.1214C26.1281 17.9232 26.6873 18.4085 26.8845 18.9719C27.0222 19.4345 27.343 19.5168 27.8059 19.3791C29.2952 18.9065 30.3997 18.9334 30.6838 18.4934C31.0274 18.1542 30.6373 16.3449 30.2569 16.1618C29.9773 15.9192 29.6976 15.6765 29.9405 15.3969C30.3849 14.9981 30.2657 14.7966 29.6784 12.4238C29.2103 10.2526 29.2515 10.0922 26.8777 10.6799C26.5156 10.758 26.3736 10.978 26.612 11.381C27.7218 13.7168 27.8366 14.6009 28.2767 14.8847C29.3768 15.5942 28.7859 16.8956 27.663 16.6076C27.1818 16.4842 26.8425 16.1407 26.8057 15.6185Z" fill="#FFD600"/>
<path d="M24.3106 41.3021C24.4666 42.0259 23.6093 41.0368 25.508 45.6261C25.884 46.4918 26.9929 45.8361 28.0194 45.5011C28.4823 45.3634 28.5647 45.0427 28.3675 44.4793C27.1385 41.942 26.9185 41.8001 26.2768 41.6355C25.6351 41.4709 25.3371 40.9671 25.5019 40.3257C25.7079 39.5238 25.6667 39.6842 24.5158 37.5087C24.2177 37.005 23.9381 36.7623 23.4341 37.0604C21.097 38.1703 20.6017 37.1031 20.8866 39.6547C20.9646 40.0166 20.919 40.8596 21.4187 41.2441C21.9183 41.6287 21.9367 41.8898 21.6527 42.3297C21.3687 42.7697 21.3871 43.0308 21.6535 45.3213C21.842 47.2499 22.0024 47.291 23.4505 46.9787C24.6375 46.6849 24.5367 46.7445 23.9678 44.6328L24.0686 44.5732C22.9176 42.3978 21.6843 40.543 24.0538 40.638C24.0353 40.3768 24.2326 40.9402 24.3106 41.3021Z" fill="#FFD600"/>
<path d="M31.45 36.8086C31.5464 37.4315 31.9452 37.8757 32.5229 38.6221C33.7379 40.2158 34.0999 40.1377 34.7135 38.4148C34.938 37.8741 34.8003 37.4115 34.5023 36.9077C33.9842 36.262 33.4662 35.6164 33.0077 35.0714C32.3292 34.3846 31.4404 35.1822 31.4491 33.817C31.4123 33.2948 31.1327 33.0521 29.895 31.88C29.5557 31.5366 29.1937 31.6147 28.9096 32.0546C27.0451 34.6532 26.5682 33.8471 27.4579 36.0411C27.7148 36.7052 27.8524 37.1678 28.3932 37.392C28.8745 37.5154 29.0717 38.0788 28.7877 38.5188C28.4029 39.0183 28.6825 39.261 29.3154 40.7908C29.6318 41.5557 30.0263 42.6824 30.2875 42.664C30.6083 42.7463 31.0712 42.6086 31.2132 42.3886C31.6576 41.9898 32.1433 41.4306 32.3677 40.8899C32.4913 40.4088 30.8179 38.2703 30.277 38.0461C29.5758 37.7808 29.2777 37.277 29.2225 36.4937C29.1901 35.2888 31.3439 34.5592 31.45 36.8086Z" fill="#FFD600"/>
<path d="M17.4641 43.9905C16.9065 49.4883 18.3178 48.6538 19.7064 48.2407C20.1692 48.103 20.2516 47.7823 20.114 47.3197C19.4487 44.585 19.5311 44.2643 18.9902 44.0401C18.6098 43.8571 18.3714 43.454 18.715 43.1148C19.0998 42.6153 18.921 42.313 18.0541 39.6976C17.9165 39.235 17.6368 38.9923 17.1328 39.2904C15.6618 40.0242 14.6853 38.8336 14.4249 41.8436C14.3837 42.0039 14.3425 42.1643 14.4021 42.2651C14.4801 42.6269 14.5581 42.9888 14.737 43.2911C15.0946 43.8956 14.971 44.3767 14.5266 44.7755C13.7797 45.3531 13.6929 46.3565 13.4869 47.1583C13.0152 48.6612 13.0748 48.7619 14.4406 48.7704C15.9668 48.8199 15.9668 48.8199 15.8975 47.0929C15.8835 46.1491 15.5899 44.9628 15.3742 44.1383C15.2182 43.4145 15.525 42.5531 16.0475 42.5161C16.8312 42.4608 17.5097 43.1476 17.4641 43.9905Z" fill="#FFD600"/>
<path d="M1.71171 41.745C1.30847 41.9834 1.22607 42.3041 1.36369 42.7668C3.0511 45.849 3.14752 46.472 4.07761 45.514C6.66627 42.7593 6.70747 42.599 6.85388 41.6964C6.95908 40.9542 7.72437 40.6376 8.28363 41.1229C8.50366 41.2649 8.68248 41.5671 8.96211 41.8098C10.1578 40.1507 10.2174 40.2515 9.44254 38.9417C9.20411 38.5387 9.06649 38.076 8.84646 37.9341C8.52563 37.8518 8.12238 38.0903 7.65954 38.228C7.2975 38.306 6.87585 38.2834 7.03187 39.0071C7.2063 39.992 6.70225 40.29 5.85896 40.2447C4.99726 39.9382 4.85524 40.1582 1.71171 41.745Z" fill="#FFD600"/>
<path d="M6.64204 37.1976C6.76125 37.3991 6.83926 37.761 6.89887 37.8617C7.32052 37.8844 7.74216 37.9071 8.20501 37.7694C9.39194 37.4755 9.11231 37.2329 9.14829 34.7636C8.46541 34.7594 7.72293 34.6544 7.04006 34.6502C6.35718 34.646 6.16957 35.7089 5.6331 34.8021C5.45428 34.4999 5.45428 34.4999 1.61826 34.4561C1.19661 34.4334 0.852978 34.7726 0.83018 35.1941C0.592577 37.7827 0.262952 39.0656 1.44988 38.7717C5.87675 37.5141 4.68983 37.8079 5.3771 37.1295C5.66112 36.6896 5.68392 36.2681 6.64204 37.1976Z" fill="#FFD600"/>
<path d="M6.37447 47.5558C6.09044 47.9958 6.26926 48.298 6.64971 48.4811C9.95448 49.9269 9.31281 49.7624 10.8382 46.8204C11.1222 46.3805 11.145 45.959 11.0486 45.336C10.6541 44.2092 11.919 44.2772 12.1023 43.8969C12.4687 43.1362 12.7343 42.4352 12.9999 41.7341C13.1832 41.3537 13.0639 41.1522 12.5827 41.0288C11.8814 40.7635 10.7401 40.2143 10.5981 40.4343C9.20073 42.2126 9.70478 41.9145 10.0396 42.9405C10.5165 43.7466 10.1913 44.3469 9.34796 44.3015C8.66509 44.2973 8.7659 44.2377 6.37447 47.5558Z" fill="#FFD600"/>
<path d="M64.6647 9.68829C65.2652 10.0132 65.1644 10.0728 68.8856 9.23247C69.3484 9.09479 69.5913 8.8152 69.394 8.25182C67.789 4.84884 67.4954 3.66245 66.3453 4.47853C63.903 6.33066 63.541 6.40874 63.4542 7.41207C63.3078 8.31465 62.9641 8.65385 62.1437 8.187C61.9236 8.04511 61.7632 8.00396 61.644 7.80245C59.7838 9.7184 60.4939 8.61853 61.1408 11.092C62.4469 10.9997 63.029 11.0635 63.1938 10.4221C63.221 9.31799 63.7846 9.12069 64.6647 9.68829Z" fill="#FFD600"/>
<path d="M36.3476 31.0564C36.8429 32.1236 37.6634 32.5904 38.383 33.1169C39.3228 33.7852 40.344 31.1413 37.6397 30.0204C37.2593 29.8373 36.9157 30.1765 36.1364 29.5493C35.9163 29.4074 35.8383 29.0456 35.6183 28.9037C35.2379 28.7206 34.8574 28.5376 34.477 28.3545C33.8765 28.0296 33.5145 28.1077 33.4093 28.8499C33.2813 30.0136 32.1355 30.147 33.3505 31.7407C33.8089 32.2856 34.0658 32.9497 34.8082 33.0547C35.3903 33.1185 35.2439 34.0211 35.3403 34.6441C36.5325 36.6592 36.8489 37.4241 37.3162 36.6038C37.9666 35.4031 38.4707 35.1051 37.8518 34.519C37.0725 33.8918 36.536 32.985 35.5139 32.6374C35.2939 32.4955 34.9363 31.891 34.9179 31.6299C34.9406 31.2084 35.2843 30.8692 35.4859 30.75C35.7287 30.4704 36.1688 30.7542 36.3476 31.0564Z" fill="#FFD600"/>
<path d="M60.8217 1.35255C61.0049 0.972208 60.7665 0.56919 60.3449 0.546511C56.2292 0.260112 56.0688 0.218968 55.7252 0.558164C55.2395 1.11733 55.2035 3.58663 55.6208 4.29191C55.74 4.49342 55.6576 4.81416 55.5568 4.87376C54.8879 5.81328 55.1219 6.8989 55.0351 7.90223C56.9418 8.13485 57.7342 6.71424 58.2655 5.3121C58.1279 4.84948 57.7886 4.50606 57.8298 4.3457C57.9122 4.02497 58.2147 3.84614 58.4759 3.82767C59.8828 3.67574 60.2125 2.39281 60.8217 1.35255Z" fill="#FFD600"/>
<path d="M64.2262 15.3876C63.9054 15.3053 63.0577 15.9425 62.8377 15.8006C62.6176 15.6587 62.48 15.1961 62.3424 14.7334C61.1003 14.2439 59.7573 13.814 58.8824 15.5554C59.7029 16.0222 60.3586 17.1305 61.4035 17.0566C61.5639 17.0978 61.7428 17.4 61.8024 17.5008C62.8385 18.7921 61.1607 17.3362 64.3191 19.6847C64.9791 20.1104 65.5016 20.0735 65.9872 19.5143C69.0019 16.0996 68.9607 16.26 64.2262 15.3876Z" fill="#FFD600"/>
<path d="M63.3272 11.5672C62.9879 11.2237 61.943 11.2976 61.581 11.3757C61.0585 11.4126 61.1365 11.7745 60.7245 13.3781C61.7282 13.4646 62.5899 13.7711 63.2544 13.5142C63.8181 13.3169 64.1021 12.877 64.5377 13.8434C64.6569 14.0449 65.5598 14.191 68.3694 14.5697C69.5335 14.6974 69.4599 13.6529 69.7755 11.4262C69.8395 10.8444 69.5599 10.6017 69.0374 10.6387C66.4847 10.9241 65.7422 10.8191 65.0734 11.7586C64.5877 12.3178 63.9049 12.3136 63.3272 11.5672Z" fill="#FFD600"/>
<path d="M59.9605 19.678C59.9745 20.6218 60.5338 21.1071 61.0519 21.7527C61.6892 22.5999 62.074 22.1004 63.1417 21.605C64.6539 20.7109 63.0865 20.8216 58.8324 17.0811C57.3746 15.7671 57.3746 15.7671 55.8625 16.6612C55.3584 16.9593 55.2164 17.1792 55.5144 17.683C59.0681 24.1498 58.4264 23.9852 60.4014 22.9534C60.4014 22.9534 60.5022 22.8938 60.6442 22.6738C59.9658 21.987 59.3285 21.1398 58.5492 20.5126C58.1091 20.2288 57.6095 19.8442 57.8339 19.3035C58.4844 18.1029 60.0885 18.5143 59.9605 19.678Z" fill="#FFD600"/>
<path d="M49.0182 9.69218C46.7707 3.13309 47.0915 3.21538 45.1165 4.24722C45.1165 4.24722 45.0157 4.30683 44.9745 4.46719C46.4094 6.2027 48.3257 8.06164 46.0754 8.16822C45.9746 8.22783 45.6766 7.72406 45.6582 7.46294C45.7266 6.19849 44.8465 5.63089 44.0672 5.00368C43.7875 4.76103 43.0819 5.1783 42.619 5.31598C42.1562 5.45367 42.1746 5.71479 42.5734 6.15895C47.5568 12.0523 46.6539 11.9062 47.9049 11.0305C48.4089 10.7324 49.4126 10.819 49.0182 9.69218Z" fill="#FFD600"/>
<path d="M51.2806 4.54631C51.4455 3.90485 50.6522 2.33392 50.1297 2.37085C49.5064 2.4674 48.9428 2.66469 48.4799 2.80238C52.002 11.0558 50.8282 9.30186 53.3029 8.65458C53.9262 8.55804 54.2102 8.11809 54.1138 7.49509C53.3512 1.14593 53.5713 1.28783 51.5595 1.79743C51.5595 1.79743 51.4586 1.85704 51.4174 2.01741C51.6743 2.68154 51.8899 3.50605 52.408 4.15172C52.6464 4.55474 52.9856 4.89815 52.5412 5.29695C52.1564 5.79651 50.7906 5.78809 51.2806 4.54631Z" fill="#FFD600"/>
<path d="M53.8614 21.7883C53.7562 22.5306 54.5679 24.3626 55.2096 24.5272C55.8513 24.6918 56.5157 24.4349 57.3406 24.2191C56.4053 22.8681 56.2449 22.827 53.815 19.6398C53.3565 19.0949 53.1409 18.2704 52.6 18.0462C52.0592 17.822 51.3535 18.2393 50.831 18.2762C50.3086 18.3131 50.0658 18.5927 50.263 19.1561C52.4693 25.8755 51.7496 25.3491 54.2427 24.9629C52.9909 22.8471 52.1152 21.5969 52.5597 21.1981C52.8025 20.9185 53.2241 20.9412 53.4854 20.9227C53.7054 21.0646 53.843 21.5272 53.8614 21.7883Z" fill="#FFD600"/>
<path d="M58.0694 7.74005C58.6102 7.96424 58.9311 8.04653 59.1511 8.18843C59.3711 8.33033 59.7103 8.67374 59.9716 8.65527C60.5536 8.71909 61.3461 7.29849 61.1489 6.73511C60.9333 5.91061 61.4189 5.35143 61.9598 5.57562C62.661 5.84096 63.0643 5.60251 63.6095 5.1441C66.0746 2.87048 66.6154 3.09468 64.4152 1.67568C63.1546 0.925043 62.8934 0.943505 62.0229 2.00224C60.8684 3.50092 60.6256 3.7805 60.6808 4.56386C60.7404 4.66462 60.3968 5.00381 60.1952 5.12303C59.2283 5.55877 58.8986 6.84169 58.0694 7.74005Z" fill="#FFD600"/>
<path d="M20.0284 35.6741C21.367 36.7866 22.3839 34.8253 20.8025 33.9924C20.2616 33.7682 20.0828 33.4659 20.1468 32.8841C20.238 31.1981 18.029 31.1443 18.3594 32.8529C18.4558 33.4759 18.213 33.7555 17.7686 34.1543C17.4661 34.3332 17.4021 34.915 17.2601 35.135C17.6958 36.1014 18.3375 36.266 18.8827 35.8076C19.428 35.3491 19.6892 35.3307 20.0284 35.6741Z" fill="#FFD600"/>
<path d="M15.2572 34.2793C16.5958 35.3919 17.6127 33.4305 16.0313 32.5976C15.4904 32.3734 15.3116 32.0712 15.3756 31.4893C15.4668 29.8034 13.2577 29.7496 13.5882 31.4582C13.6846 32.0812 13.4418 32.3608 12.9973 32.7596C12.6949 32.9384 12.6309 33.5203 12.4889 33.7403C12.9246 34.7067 13.5662 34.8712 14.1115 34.4128C14.5559 34.014 14.8584 33.8352 15.2572 34.2793Z" fill="#FFD600"/>
<path d="M32.6552 21.1358C31.4359 20.2248 30.5978 22.4883 31.9407 22.9182C32.642 23.1836 32.8208 23.4858 32.8761 24.2692C32.9313 25.0526 33.5317 25.3775 34.3566 25.1617C34.439 24.841 34.6222 24.4607 34.5442 24.0988C34.4478 23.4758 34.4706 23.0543 34.9747 22.7563C36.1844 22.0409 34.6302 20.1039 33.7597 21.1627C33.5169 21.4422 33.2145 21.6211 32.6552 21.1358Z" fill="#FFD600"/>
<path d="M26.7619 22.4444C25.3821 21.4923 24.5852 23.5955 26.1482 24.1673C26.6891 24.3915 26.8679 24.6938 26.9047 25.216C26.9143 26.8423 29.2242 26.8365 28.7333 25.0867C28.5361 24.5234 28.7193 24.143 29.1225 23.9046C29.425 23.7258 29.489 23.1439 29.631 22.9239C29.1953 21.9575 28.3932 21.7518 27.9076 22.311C27.5227 22.8105 27.2615 22.829 26.7619 22.4444Z" fill="#FFD600"/>
<path d="M13.1182 38.9442C14.2183 39.6537 15.194 37.8528 13.6722 37.1206C12.5309 36.5715 12.7737 36.2919 12.5993 35.307C12.2784 35.2247 11.8384 34.9409 11.5772 34.9594C11.0547 34.9963 10.7707 35.4363 10.9679 35.9997C11.1239 36.7234 11.2019 37.0853 10.5559 37.6033C9.50656 38.3598 11.0011 40.196 11.8716 39.1373C12.2565 38.6378 12.6185 38.5597 13.1182 38.9442Z" fill="#FFD600"/>
<path d="M52.4657 13.9096C52.0257 13.6258 51.9477 13.2639 51.9705 12.8424C52.0757 12.1002 51.7776 11.5964 51.2964 11.473C50.6547 11.3084 50.3707 11.7484 50.3251 12.5913C50.1375 13.6543 48.6525 13.4444 49.1662 14.7726C49.3634 15.336 49.9043 15.5602 50.8712 15.1245C51.0316 15.1656 51.3524 15.2479 51.5724 15.3898C52.1317 15.8751 52.613 15.9985 52.9978 15.499C53.2818 15.059 53.1258 14.3353 52.4657 13.9096Z" fill="#FFD600"/>
<path d="M19.8285 26.1362C19.6085 25.9943 19.3473 26.0128 18.9256 25.9901C18.7424 26.3704 18.4996 26.65 18.518 26.9111C18.83 28.3586 20.0398 27.6433 20.1502 29.21C20.201 30.676 22.3504 30.629 21.9788 29.0808C21.8228 28.357 21.8456 27.9355 22.4504 27.5779C23.4585 26.9818 22.1656 25.0263 21.3363 25.9246C20.6902 26.4427 20.3878 26.6215 19.8285 26.1362Z" fill="#FFD600"/>
<path d="M25.9851 30.7919C27.2044 31.7029 27.8821 29.3982 26.5392 28.9683C25.8379 28.7029 25.659 28.4007 25.503 27.6769C25.4478 26.8936 24.7465 26.6282 23.9813 26.9447C23.9997 27.2059 23.7156 27.6458 23.8532 28.1084C23.9497 28.7314 24.0277 29.0933 23.5236 29.3914C22.3139 30.1067 23.8681 32.0437 24.7386 30.985C25.2242 30.4258 25.4854 30.4073 25.9851 30.7919Z" fill="#FFD600"/>
<path d="M56.6033 10.7831C56.2001 11.0215 55.9388 11.04 55.54 10.5958C54.5038 9.30448 53.1477 10.9224 54.4267 11.9341C54.8667 12.2179 54.9447 12.5798 54.8211 13.0609C54.4091 14.6646 56.5357 15.0391 56.5857 13.5135C56.5901 12.8309 56.7917 12.7117 57.3554 12.5144C58.7027 12.2617 57.9138 10.0082 56.6033 10.7831Z" fill="#FFD600"/>
</svg>
