<svg width="41" height="74" viewBox="0 0 41 74" fill="none" xmlns="http://www.w3.org/2000/svg">
<path d="M30.1703 52.8131C31.2884 52.4645 32.203 53.0378 33.0465 53.4615C33.89 53.8853 33.0882 55.0916 32.664 55.9351C32.3967 56.3372 32.0265 56.33 31.6244 56.0629C29.3219 54.4999 29.2116 54.4607 29.2189 54.0906C29.1944 53.4606 28.7922 53.1936 28.1228 53.3286C27.4534 53.4637 27.1298 52.976 25.9945 52.3244C25.0799 51.7512 25.867 51.2851 26.2666 49.8117C26.7448 48.1177 26.7448 48.1177 28.7383 48.4527C28.9589 48.5311 29.3611 48.7981 29.5425 48.9868C30.2291 49.8518 30.4326 48.9301 31.5434 48.9517C31.9136 48.9589 32.355 49.1156 32.8356 49.162C34.9713 49.7961 35.2238 50.1342 34.6354 51.7891C34.5177 52.1201 34.4 52.4511 33.7379 52.216C32.3035 51.7067 31.563 51.6923 31.0579 51.0159C29.9373 49.624 28.5053 50.8551 28.8535 51.9728C28.9173 52.4924 29.6112 52.9873 30.1703 52.8131Z" fill="#FFD600"/>
<path d="M24.6901 60.1866C25.6905 60.169 26.3845 60.6639 27.1176 61.0485C28.9861 62.0847 29.0179 62.3445 27.5075 63.7963C27.1691 64.0489 26.87 64.1912 26.5071 63.8138C24.5038 62.1085 24.3934 62.0693 24.1875 61.2506C23.9496 60.1722 23.1552 61.0084 22.6819 60.5918C20.2765 58.6195 20.9704 59.1144 22.5029 56.5521C22.7309 56.2603 22.9197 56.0789 23.4003 56.1253C25.4649 56.6098 25.7959 56.7273 26.0804 57.3253C26.2545 57.8842 26.9165 58.1192 27.1838 57.7171C27.8287 56.9521 28.6722 57.3758 30.5872 57.9315C31.6906 58.3233 30.7539 58.8605 30.0944 60.3659C29.6702 61.2093 29.1577 60.9031 26.7768 59.5607C25.9333 59.1369 25.9161 58.1368 24.9476 58.4142C24.3885 58.5884 24.1212 58.9906 24.185 59.5102C24.1776 59.8804 24.5405 60.2577 24.6901 60.1866Z" fill="#FFD600"/>
<path d="M20.3428 66.4709C21.304 66.5637 21.6987 67.2009 22.3534 67.8061C23.8443 69.2052 23.7658 69.4258 21.9636 70.6498C21.6252 70.9024 21.255 70.8952 21.0024 70.557C19.6366 68.4567 19.5263 68.4176 19.541 67.6773C19.563 66.5668 18.6975 67.2535 18.3738 66.7658C16.6059 64.3985 17.1502 64.9646 19.4551 62.6766C20.0215 62.1322 20.203 62.3209 21.89 63.1684C22.1818 63.3962 22.4735 63.6241 22.427 64.1045C22.3804 64.585 22.964 65.0407 23.3416 64.6778C24.1679 64.1014 24.8618 64.5963 26.4385 65.4046C27.3923 65.8676 26.3453 66.3656 25.2444 67.7142C24.5995 68.4793 24.1974 68.2123 22.3436 66.4358C21.6889 65.8306 21.9317 64.7985 21.0024 64.9655C20.3722 64.9903 20.0657 65.5027 19.9088 65.944C19.9799 66.0935 20.1932 66.542 20.3428 66.4709Z" fill="#FFD600"/>
<path d="M31.4648 43.5813C32.2445 43.4854 33.0954 43.539 33.8359 43.5534L33.7966 43.6637C36.2315 44.1555 36.3026 44.305 35.9348 46.0382C35.7387 46.5898 35.6528 47.1806 34.8094 46.7569C33.7452 46.2548 32.6418 45.863 31.5776 45.3609C31.2466 45.2434 30.3393 44.3 30.0794 44.3319C29.3315 44.6877 28.7479 44.232 28.157 44.1464C27.6764 44.1 27.5342 43.801 27.5808 43.3205C27.7598 41.7688 27.5219 40.6903 27.8995 40.3273C28.1668 39.9252 30.018 39.9613 30.2706 40.2994C30.5624 40.5273 30.8542 40.7551 31.0822 40.4634C31.3887 39.9509 31.6094 40.0293 34.0516 40.1509C36.2731 40.1941 36.4227 40.123 36.3001 42.5645C36.2928 42.9347 36.104 43.1162 35.6626 42.9595C33.1566 42.3182 32.2666 42.3749 31.9037 41.9976C30.9964 41.0542 29.8317 41.8832 30.3295 42.9297C30.5428 43.3782 30.9449 43.6452 31.4648 43.5813Z" fill="#FFD600"/>
<path d="M6.72405 50.9497C5.98355 50.9353 7.11884 51.5869 2.24913 50.6034C1.32717 50.4003 1.75871 49.1867 1.89111 48.1154C1.93769 47.635 2.23683 47.4927 2.82777 47.5782C5.55442 48.2979 5.73587 48.4865 6.02031 49.0845C6.30475 49.6826 6.85645 49.8784 7.45474 49.5939C8.2026 49.2381 8.05303 49.3093 10.4094 50.0217C10.9611 50.2176 11.2529 50.4454 11.0568 50.9971C10.4144 53.5026 11.557 53.784 8.9971 53.9934C8.62684 53.9862 7.80788 54.1924 7.33463 53.7759C6.86139 53.3593 6.60148 53.3913 6.22387 53.7542C5.84626 54.1172 5.58635 54.1491 3.28636 54.3265C1.35663 54.5111 1.28552 54.3616 1.31493 52.881C1.37621 51.6603 1.33698 51.7706 3.51928 51.9242L3.55851 51.8138C5.9149 52.5262 7.97215 53.3809 7.42533 51.0745C7.68524 51.0425 7.09431 50.9569 6.72405 50.9497Z" fill="#FFD600"/>
<path d="M9.76944 43.0844C9.13927 43.1092 8.6268 42.803 7.7833 42.3792C5.98597 41.4926 5.99332 41.1224 7.5675 40.1903C8.05545 39.8665 8.53605 39.9129 9.08775 40.1088C9.82091 40.4934 10.5541 40.8779 11.1769 41.2233C11.9811 41.7574 11.3681 42.7823 12.7069 42.5121C13.2268 42.4482 13.5186 42.6761 14.9064 43.6658C15.3086 43.9329 15.3012 44.303 14.9236 44.666C12.7291 46.9931 13.6118 47.3066 11.2873 46.854C10.586 46.7292 10.1054 46.6828 9.78173 46.1952C9.5684 45.7467 8.97746 45.6611 8.59986 46.024C8.18302 46.4973 7.89122 46.2694 6.26799 45.9416C5.45637 45.7777 4.2745 45.6066 4.24262 45.3467C4.1004 45.0477 4.14698 44.5672 4.33579 44.3858C4.64228 43.8733 5.09835 43.2897 5.5863 42.966C6.03502 42.7525 8.45517 43.9846 8.77884 44.4723C9.17362 45.1095 9.72532 45.3054 10.5051 45.2094C11.6943 45.0104 11.9983 42.7575 9.76944 43.0844Z" fill="#FFD600"/>
<path d="M5.39503 58.1819C0.103593 59.7822 0.652827 58.2376 0.792578 56.7962C0.839162 56.3157 1.13831 56.1734 1.6189 56.2198C4.43136 56.3486 4.73051 56.2063 5.05418 56.694C5.30674 57.0322 5.7481 57.1889 6.01537 56.7868C6.43221 56.3135 6.76323 56.4311 9.49723 56.7805C9.97783 56.8269 10.2696 57.0548 10.0735 57.6064C9.63457 59.1901 10.9905 59.9201 8.08491 60.7522C7.93534 60.8234 7.78576 60.8945 7.67542 60.8553C7.30517 60.8481 6.93491 60.8409 6.60389 60.7234C5.94184 60.4883 5.49313 60.7018 5.18663 61.2142C4.76244 62.0576 3.7939 62.335 3.04603 62.6907C1.66065 63.4414 1.55031 63.4022 1.28058 62.0639C0.939736 60.5761 0.939735 60.5761 2.64879 60.3131C3.5781 60.1461 4.7992 60.2069 5.65005 60.2605C6.39056 60.2749 7.17765 59.8088 7.1139 59.2892C7.01826 58.5097 6.214 57.9756 5.39503 58.1819Z" fill="#FFD600"/>
<path d="M10.6156 73.2062C10.4586 73.6475 10.1595 73.7898 9.67891 73.7434C6.32944 72.6784 5.69928 72.7031 6.46184 71.6071C8.67108 68.5396 8.82065 68.4685 9.67886 68.1519C10.3875 67.9065 10.5518 67.0951 9.96818 66.6394C9.78673 66.4507 9.4557 66.3331 9.16391 66.1053C10.564 64.6143 10.4537 64.5751 11.8881 65.0845C12.3295 65.2412 12.81 65.2876 12.9915 65.4762C13.1337 65.7752 12.9768 66.2165 12.9302 66.697C12.9229 67.0672 13.0258 67.4765 12.2853 67.4621C11.2849 67.4796 11.0888 68.0313 11.2947 68.8499C11.7606 69.6366 11.5718 69.8181 10.6156 73.2062Z" fill="#FFD600"/>
<path d="M14.1367 67.4979C13.916 67.4195 13.5458 67.4123 13.4354 67.3731C13.3325 66.9638 13.2295 66.5545 13.2761 66.074C13.3373 64.8532 13.6291 65.0811 16.0468 64.5727C16.1817 65.2419 16.4269 65.9502 16.5618 66.6194C16.6966 67.2885 15.6888 67.6762 16.6819 68.0288C17.0129 68.1463 17.0129 68.1463 17.7903 71.9015C17.8933 72.3108 17.626 72.7129 17.2165 72.816C14.7204 73.5451 13.5238 74.1142 13.5851 72.8935C13.9724 68.3093 13.9112 69.5301 14.4457 68.7259C14.8233 68.3629 15.2328 68.2598 14.1367 67.4979Z" fill="#FFD600"/>
<path d="M4.01734 69.7448C3.63973 70.1078 3.30871 69.9902 3.05615 69.6521C1.00378 66.6868 1.28822 67.2848 3.88489 65.2247C4.26249 64.8617 4.67198 64.7586 5.30215 64.7338C6.48402 64.905 6.17505 63.677 6.51343 63.4244C7.19018 62.9191 7.8277 62.5242 8.46522 62.1293C8.8036 61.8767 9.02428 61.955 9.23761 62.4035C9.63239 63.0407 10.3901 64.0553 10.2013 64.2367C8.72272 65.9483 8.91888 65.3967 7.84734 65.2648C6.96462 64.9513 6.43744 65.3854 6.64341 66.2041C6.77828 66.8733 6.81751 66.7629 4.01734 69.7448Z" fill="#FFD600"/>
<path d="M30.0398 5.3019C29.6058 4.77504 29.5666 4.88537 29.6793 1.07352C29.7259 0.593042 29.9539 0.301243 30.5449 0.386807C34.1935 1.30952 35.4146 1.37033 34.8335 2.65505C33.4824 5.40596 33.4751 5.77611 32.5065 6.05349C31.6483 6.37005 31.3811 6.77217 31.9965 7.48771C32.178 7.67639 32.2491 7.82589 32.4698 7.90425C30.9446 10.0963 31.8887 9.18897 29.3361 9.02818C29.1767 7.72905 29.0026 7.17022 29.6009 6.88563C30.6798 6.64743 30.7656 6.05662 30.0398 5.3019Z" fill="#FFD600"/>
<path d="M14.4798 37.1774C13.3371 36.896 12.7217 36.1804 12.067 35.5752C11.2308 34.7813 13.6313 33.2728 15.2497 35.7112C15.5022 36.0494 15.235 36.4515 16 37.0959C16.1815 37.2846 16.5517 37.2918 16.7332 37.4805C16.9857 37.8187 17.2383 38.1569 17.4908 38.495C17.9249 39.0219 17.9175 39.392 17.2089 39.6375C16.0908 39.986 16.179 41.1356 14.3817 40.2489C13.7589 39.9036 13.0576 39.7788 12.8124 39.0705C12.6383 38.5116 11.7801 38.8282 11.1499 38.853C8.94312 38.0694 8.1315 37.9055 8.84748 37.2899C9.90184 36.4217 10.098 35.8701 10.7919 36.365C11.557 37.0094 12.55 37.362 13.087 38.2982C13.2685 38.4869 13.9305 38.722 14.1904 38.69C14.5999 38.5869 14.8672 38.1847 14.9456 37.9641C15.1737 37.6723 14.8108 37.2949 14.4798 37.1774Z" fill="#FFD600"/>
<path d="M38.9603 7.47529C39.2986 7.22268 39.74 7.37939 39.843 7.78871C40.9121 11.7717 40.9832 11.9212 40.716 12.3233C40.2599 12.9069 37.8422 13.4153 37.0698 13.141C36.8491 13.0627 36.55 13.205 36.5108 13.3153C35.7163 14.1515 34.6055 14.1299 33.637 14.4073C33.0436 12.5813 34.2868 11.5316 35.5618 10.7418C36.0424 10.7882 36.4445 11.0552 36.5941 10.9841C36.8932 10.8418 37.0109 10.5108 36.9791 10.251C36.8589 8.8415 38.0555 8.27233 38.9603 7.47529Z" fill="#FFD600"/>
<path d="M24.5277 6.82401C24.6699 7.12302 24.2065 8.07676 24.388 8.26544C24.5694 8.45412 25.05 8.50051 25.5306 8.5469C26.2491 9.67177 26.9283 10.907 25.386 12.0989C24.7705 11.3834 23.5568 10.9524 23.4293 9.91311C23.3581 9.7636 23.0271 9.64607 22.9168 9.60689C21.4505 8.83775 23.2012 10.2049 20.2907 7.55617C19.7463 6.99013 19.6825 6.47047 20.1386 5.88688C22.9143 2.275 22.7647 2.34614 24.5277 6.82401Z" fill="#FFD600"/>
<path d="M28.451 6.97413C28.8532 7.24116 28.9807 8.28047 28.9733 8.65062C29.0371 9.17028 28.6668 9.16307 27.1711 9.87454C26.894 8.90638 26.4281 8.11969 26.5532 7.41856C26.639 6.82776 27.0166 6.46481 25.9843 6.22254C25.7636 6.14418 25.4473 5.28635 24.5376 2.60251C24.1894 1.48484 25.229 1.35696 27.3549 0.620734C27.914 0.44647 28.2058 0.67433 28.2695 1.19399C28.478 3.75308 28.7232 4.46142 27.9287 5.29763C27.4727 5.88122 27.6075 6.55038 28.451 6.97413Z" fill="#FFD600"/>
<path d="M21.1316 11.831C20.2023 11.9981 19.6187 11.5424 18.8855 11.1578C17.9317 10.6949 18.3485 10.2216 18.6305 9.07916C19.219 7.42429 19.4102 8.98325 23.8975 12.4403C25.4668 13.6188 25.4668 13.6188 24.8783 15.2736C24.6821 15.8253 24.4933 16.0067 23.9416 15.8109C16.9117 13.5633 17.1961 14.1613 17.8312 12.026C17.8312 12.026 17.8704 11.9156 18.0592 11.7342C18.8635 12.2682 19.8173 12.7312 20.5824 13.3756C20.9453 13.7529 21.4185 14.1695 21.9064 13.8457C22.9608 12.9775 22.2497 11.4825 21.1316 11.831Z" fill="#FFD600"/>
<path d="M33.0314 20.6534C39.9019 21.6018 39.7597 21.3028 39.1247 23.4382C39.1247 23.4382 39.0854 23.5485 38.9359 23.6196C36.9571 22.5443 34.765 21.0204 35.0911 23.2485C35.0519 23.3589 35.6036 23.5548 35.8635 23.5228C37.0919 23.2134 37.8177 23.9682 38.5828 24.6126C38.8746 24.8404 38.5999 25.6127 38.5534 26.0932C38.5068 26.5736 38.2469 26.6056 37.7344 26.2994C30.9938 22.5393 31.3101 23.3971 31.9304 22.0021C32.1266 21.4504 31.8495 20.4823 33.0314 20.6534Z" fill="#FFD600"/>
<path d="M37.6509 17.4478C38.2492 17.1633 39.9435 17.6406 40.0073 18.1603C40.0318 18.7902 39.946 19.381 39.8994 19.8615C31.1212 17.9872 33.0681 18.8028 33.2299 16.2509C33.2054 15.6209 33.583 15.258 34.2132 15.2332C40.5933 14.7649 40.4118 14.5763 40.2966 16.6477C40.2966 16.6477 40.2574 16.758 40.1078 16.8291C39.4065 16.7044 38.5557 16.6508 37.8225 16.2662C37.3812 16.1095 36.979 15.8425 36.6725 16.3549C36.2557 16.8282 36.5254 18.1665 37.6509 17.4478Z" fill="#FFD600"/>
<path d="M20.2271 18.2191C19.5185 18.4645 17.5642 18.0192 17.2798 17.4211C16.9953 16.8231 17.1204 16.122 17.1743 15.2714C18.6799 15.9302 18.751 16.0797 22.3457 17.853C22.9685 18.1984 23.8193 18.252 24.143 18.7397C24.4667 19.2274 24.192 19.9997 24.2558 20.5193C24.3196 21.039 24.0915 21.3308 23.5006 21.2452C16.4805 20.3679 17.1351 20.9732 17.037 18.4533C19.3542 19.276 20.7494 19.8956 21.0559 19.3832C21.2839 19.0914 21.181 18.682 21.1491 18.4222C20.9676 18.2335 20.487 18.1872 20.2271 18.2191Z" fill="#FFD600"/>
<path d="M33.2154 11.3993C32.8917 10.9117 32.7495 10.6127 32.568 10.424C32.3866 10.2353 31.9845 9.96826 31.9526 9.70843C31.7785 9.1496 33.0216 8.09995 33.6126 8.18551C34.4634 8.23911 34.9195 7.65551 34.5958 7.16783C34.201 6.53064 34.358 6.08934 34.7037 5.46657C36.4642 2.61255 36.1405 2.12486 37.955 4.01167C38.9334 5.10457 38.9653 5.3644 38.0924 6.42126C36.8419 7.84106 36.6138 8.13286 35.8341 8.22876C35.7238 8.18959 35.4565 8.59171 35.378 8.81236C35.1353 9.84446 33.9387 10.4136 33.2154 11.3993Z" fill="#FFD600"/>
<path d="M13.0699 54.0727C11.7213 52.9726 13.4524 51.5992 14.573 52.9911C14.8967 53.4788 15.2277 53.5963 15.7867 53.422C17.4247 53.0096 17.9004 55.1665 16.1595 55.1697C15.5293 55.1944 15.3013 55.4862 14.9948 55.9987C14.8771 56.3297 14.318 56.5039 14.1292 56.6854C13.0969 56.4431 12.8125 55.8451 13.1582 55.2223C13.5039 54.5996 13.4721 54.3397 13.0699 54.0727Z" fill="#FFD600"/>
<path d="M15.3528 58.4865C14.0042 57.3864 15.7353 56.013 16.8559 57.4049C17.1795 57.8926 17.5106 58.0101 18.0696 57.8358C19.7076 57.4234 20.1833 59.5804 18.4423 59.5835C17.8122 59.6083 17.5841 59.9 17.2776 60.4125C17.1599 60.7435 16.6009 60.9177 16.4121 61.0992C15.3798 60.8569 15.0954 60.2589 15.4411 59.6361C15.7476 59.1237 15.8653 58.7927 15.3528 58.4865Z" fill="#FFD600"/>
<path d="M24.9276 38.8994C26.0555 39.9211 23.9934 41.177 23.3142 39.9418C22.9194 39.3046 22.5884 39.1871 21.8087 39.283C21.0289 39.3789 20.5949 38.8521 20.6488 38.0014C20.948 37.8591 21.2864 37.6065 21.6566 37.6137C22.2868 37.589 22.6963 37.4859 22.8924 36.9342C23.3632 35.6103 25.5627 36.764 24.6898 37.8209C24.4617 38.1127 24.344 38.4437 24.9276 38.8994Z" fill="#FFD600"/>
<path d="M24.7709 44.932C25.9699 46.1033 24.0574 47.288 23.1967 45.8641C22.873 45.3765 22.542 45.2589 22.0222 45.3229C20.4234 45.625 19.987 43.3577 21.799 43.5041C22.3899 43.5896 22.7283 43.337 22.8852 42.8957C23.0029 42.5647 23.562 42.3905 23.7508 42.209C24.7831 42.4513 25.1387 43.1988 24.6826 43.7824C24.2657 44.2557 24.2976 44.5155 24.7709 44.932Z" fill="#FFD600"/>
<path d="M11.1819 61.4788C10.2747 60.5354 11.8562 59.2331 12.8664 60.5859C13.6241 61.6004 13.8522 61.3086 14.8526 61.2911C14.9948 61.5901 15.3577 61.9674 15.3896 62.2273C15.4533 62.7469 15.0757 63.1099 14.4848 63.0243C13.7443 63.0099 13.374 63.0027 12.9891 63.7358C12.4472 64.9102 10.3581 63.7956 11.231 62.7388C11.6478 62.2655 11.6552 61.8954 11.1819 61.4788Z" fill="#FFD600"/>
<path d="M28.2304 18.079C28.5933 18.4564 28.9635 18.4636 29.373 18.3604C30.0816 18.115 30.6333 18.3109 30.8467 18.7594C31.1311 19.3574 30.7535 19.7204 29.9345 19.9266C28.9268 20.3143 29.4172 21.731 28.0146 21.4815C27.4237 21.3959 27.1 20.9083 27.3428 19.8762C27.2716 19.7267 27.1294 19.4277 26.948 19.239C26.3644 18.7833 26.1511 18.3348 26.5679 17.8615C26.9455 17.4985 27.686 17.513 28.2304 18.079Z" fill="#FFD600"/>
<path d="M22.4733 52.4415C22.6548 52.6302 22.6866 52.8901 22.7896 53.2994C22.4512 53.552 22.2232 53.8438 21.9633 53.8758C20.4823 53.8469 20.9531 52.523 19.3936 52.7148C17.9444 52.9458 17.5791 50.828 19.1704 50.8961C19.9109 50.9105 20.3204 50.8074 20.5558 50.1454C20.9481 49.0422 23.1157 49.936 22.3924 50.9218C22.0074 51.6548 21.8897 51.9858 22.4733 52.4415Z" fill="#FFD600"/>
<path d="M16.7233 47.2933C15.5954 46.2715 17.7286 45.1652 18.4078 46.4004C18.8026 47.0376 19.1337 47.1551 19.8742 47.1695C20.6539 47.0736 21.0487 47.7108 20.8844 48.5222C20.6245 48.5542 20.2469 48.9171 19.7663 48.8708C19.1361 48.8955 18.7659 48.8883 18.5697 49.4399C18.0989 50.7638 15.8995 49.6101 16.7724 48.5533C17.2284 47.9697 17.1966 47.7098 16.7233 47.2933Z" fill="#FFD600"/>
<path d="M30.5081 13.4207C30.3512 13.862 30.3831 14.1218 30.8956 14.428C32.3619 15.1972 31.0329 16.8376 29.7946 15.7767C29.4317 15.3993 29.0615 15.3921 28.6127 15.6055C27.117 16.317 26.3422 14.3023 27.8305 13.961C28.4999 13.8259 28.5784 13.6053 28.6642 13.0145C28.6544 11.6442 31.0181 11.9865 30.5081 13.4207Z" fill="#FFD600"/>
</svg>
