<svg width="67" height="57" viewBox="0 0 67 57" fill="none" xmlns="http://www.w3.org/2000/svg">
<path d="M32.0699 45.95C33.1905 46.29 33.6246 47.2781 34.084 48.1026C34.5434 48.9271 33.2022 49.4745 32.3772 49.9338C31.9301 50.1163 31.628 49.9023 31.4455 49.4555C30.42 46.8687 30.3507 46.7743 30.5649 46.4723C30.8988 45.9373 30.7163 45.4905 30.0867 45.2261C29.4572 44.9617 29.4637 44.3764 28.891 43.1995C28.4569 42.2114 29.3698 42.2681 30.5286 41.2738C31.8763 40.1411 31.8763 40.1411 33.3367 41.5384C33.4751 41.7272 33.6576 42.1741 33.7016 42.4321C33.7831 43.5335 34.4696 42.8853 35.3761 43.5273C35.6782 43.7413 35.9552 44.119 36.3265 44.4274C37.7364 46.1519 37.7552 46.5736 36.3382 47.6119C36.0548 47.8196 35.7714 48.0272 35.3561 47.4608C34.456 46.2335 33.8517 45.8055 33.8142 44.9621C33.6699 43.181 31.7935 43.3949 31.4532 44.5151C31.2138 44.9808 31.5095 45.7801 32.0699 45.95Z" fill="#FFD600"/>
<path d="M23.3927 48.9703C24.2299 49.518 24.5256 50.3173 24.9158 51.0473C25.8785 52.9543 25.7588 53.1872 23.6936 53.5394C23.2717 53.5583 22.9443 53.5079 22.8563 52.9918C22.1582 50.4555 22.0889 50.3611 22.3788 49.5681C22.7884 48.5423 21.6613 48.7877 21.504 48.1772C20.6234 45.194 20.9191 45.9933 23.6268 44.7348C23.9795 44.6216 24.2376 44.5776 24.609 44.886C26.0441 46.4469 26.2518 46.7301 26.1509 47.3846C25.9807 47.9447 26.3961 48.5112 26.8432 48.3287C27.8066 48.0582 28.266 48.8827 29.5374 50.4184C30.2297 51.3625 29.1531 51.2806 27.7613 52.1552C26.9364 52.6146 26.6847 52.0733 25.4702 49.6251C25.0108 48.8006 25.5589 47.9636 24.6019 47.6488C24.0416 47.4788 23.5945 47.6613 23.3551 48.127C23.141 48.4291 23.229 48.9452 23.3927 48.9703Z" fill="#FFD600"/>
<path d="M16.2646 51.7261C17.0074 52.343 16.9757 53.0919 17.1769 53.9604C17.6234 55.9555 17.4345 56.0939 15.256 56.0937C14.8341 56.1126 14.532 55.8986 14.5132 55.4769C14.5643 52.9721 14.4951 52.8777 14.9234 52.2736C15.5658 51.3673 14.464 51.4491 14.4704 50.8638C14.3391 47.9121 14.4711 48.6862 17.6634 48.0886C18.4379 47.9565 18.4819 48.2146 19.4007 49.8636C19.5139 50.216 19.6271 50.5684 19.3185 50.9397C19.0099 51.311 19.2364 52.0159 19.7527 51.9279C20.7601 51.9154 21.0558 52.7147 21.9053 54.2692C22.4339 55.1881 21.2881 55.0118 19.6194 55.5088C18.656 55.7794 18.4736 55.3325 17.9391 52.8214C17.7379 51.9528 18.5188 51.2355 17.6563 50.8515C17.1213 50.5179 16.5797 50.7696 16.2019 51.0464C16.1766 51.2101 16.1009 51.701 16.2646 51.7261Z" fill="#FFD600"/>
<path d="M38.33 39.0406C39.0288 39.3994 39.7023 39.9218 40.3066 40.3499L40.2122 40.4191C41.9494 42.194 41.9242 42.3576 40.6457 43.5848C40.1734 43.9309 39.7703 44.3714 39.3109 43.5469C38.7131 42.5336 38.0208 41.5895 37.4229 40.5762C37.2152 40.2929 36.9952 39.0028 36.7623 38.8832C35.9438 38.7572 35.7173 38.0523 35.2767 37.6495C34.9053 37.3411 34.9558 37.0138 35.2644 36.6425C36.2847 35.4595 36.6943 34.4337 37.2106 34.3456C37.6577 34.1631 39.1685 35.2332 39.1872 35.6548C39.3005 36.0073 39.4137 36.3597 39.7663 36.2465C40.3079 35.9948 40.4463 36.1836 42.3978 37.6564C44.2107 38.9405 44.3744 38.9657 42.9005 40.9165C42.6864 41.2186 42.4282 41.2626 42.1513 40.885C40.4393 38.9464 39.6712 38.4932 39.5832 37.9771C39.3632 36.687 37.934 36.7183 37.7574 37.8637C37.6817 38.3546 37.8641 38.8014 38.33 39.0406Z" fill="#FFD600"/>
<path d="M13.7267 31.2344C13.1223 30.8064 13.695 31.9833 10.2204 28.4335C9.57213 27.7474 10.6112 26.986 11.3229 26.1742C11.6316 25.8029 11.9589 25.8533 12.3996 26.2561C14.2501 28.3835 14.294 28.6415 14.1931 29.296C14.0922 29.9505 14.4384 30.4226 15.0931 30.5233C15.9116 30.6493 15.7479 30.6241 17.2962 32.5375C17.6424 33.0095 17.7556 33.3619 17.2833 33.708C15.3436 35.4197 16.1304 36.2946 13.8956 35.0294C13.5934 34.8154 12.8002 34.5258 12.6429 33.9153C12.4857 33.3048 12.2528 33.1852 11.7365 33.2733C11.2201 33.3614 10.9872 33.2418 8.98534 32.0962C7.28562 31.1646 7.31085 31.0009 8.16748 29.7927C8.90442 28.8172 8.80996 28.8865 10.5284 30.2397L10.6229 30.1705C12.1712 32.0839 13.3922 33.9468 14.2365 31.7316C14.4694 31.8512 14.0288 31.4484 13.7267 31.2344Z" fill="#FFD600"/>
<path d="M20.6667 26.4392C20.1316 26.1056 19.8799 25.5643 19.4205 24.7398C18.4325 22.9965 18.6466 22.6944 20.4725 22.8078C21.0581 22.8142 21.4295 23.1226 21.7756 23.5946C22.1658 24.3247 22.5559 25.0548 22.8769 25.6905C23.2418 26.5842 22.1587 27.0876 23.4178 27.6163C23.8836 27.8555 23.9969 28.208 24.5883 29.8066C24.7707 30.2534 24.5566 30.5555 24.0402 30.6436C20.9171 31.3356 21.471 32.0908 19.8029 30.4103C19.2931 29.9131 18.9217 29.6047 18.9282 29.0194C19.0039 28.5285 18.5632 28.1257 18.0469 28.2137C17.4361 28.371 17.3229 28.0186 16.1647 26.8353C15.5857 26.2436 14.7044 25.438 14.8241 25.2051C14.8746 24.8779 15.1832 24.5066 15.4413 24.4626C15.9829 24.2109 16.6881 23.9844 17.2737 23.9907C17.7648 24.0663 19.0737 26.4453 19.0672 27.0306C19.0356 27.7796 19.3817 28.2516 20.0805 28.6104C21.1759 29.114 22.6938 27.4212 20.6667 26.4392Z" fill="#FFD600"/>
<path d="M8.56204 36.4702C3.28626 34.8208 4.60875 33.8518 5.53461 32.7379C5.84323 32.3666 6.17062 32.417 6.54201 32.7254C8.79558 34.4123 9.12297 34.4626 9.11651 35.0479C9.13528 35.4696 9.41221 35.8472 9.85929 35.6648C10.4701 35.5075 10.6778 35.7907 12.7424 37.616C13.1138 37.9244 13.227 38.2769 12.7547 38.623C11.5015 39.6864 12.2125 41.0522 9.34173 40.1079C9.17804 40.0827 9.01434 40.0575 8.94511 39.9631C8.64295 39.7491 8.34079 39.5351 8.1331 39.2519C7.71771 38.6854 7.22662 38.6099 6.68507 38.8616C5.86014 39.3209 4.9032 39.0061 4.08472 38.8802C2.51701 38.7227 2.44778 38.6283 2.97702 37.3697C3.5315 35.9474 3.53149 35.9474 5.09275 36.6902C5.95522 37.0741 6.93093 37.8106 7.60448 38.333C8.20879 38.761 9.12173 38.8177 9.36112 38.352C9.7202 37.6535 9.35528 36.7598 8.56204 36.4702Z" fill="#FFD600"/>
<path d="M4.43379 51.8321C4.05594 52.109 3.72854 52.0586 3.35715 51.7502C1.18574 48.9872 0.650657 48.6535 1.89745 48.1754C5.44889 46.8792 5.61259 46.9044 6.5003 47.1248C7.22431 47.3199 7.81632 46.741 7.58986 46.0361C7.54586 45.7781 7.33816 45.4948 7.22493 45.1424C9.22096 44.6957 9.15173 44.6013 10.0517 45.8286C10.3287 46.2063 10.7001 46.5147 10.7441 46.7727C10.6936 47.1 10.3157 47.3769 10.0071 47.7481C9.79296 48.0502 9.64803 48.4467 9.04372 48.0187C8.20648 47.4711 7.73416 47.8172 7.44431 48.6101C7.38738 49.5227 7.12922 49.5667 4.43379 51.8321Z" fill="#FFD600"/>
<path d="M10.5547 49.0886C10.4163 48.8997 10.1141 48.6857 10.0449 48.5913C10.1898 48.1949 10.3347 47.7984 10.6434 47.4271C11.3803 46.4517 11.4935 46.8041 13.7788 47.742C13.5142 48.3714 13.3188 49.0951 13.0542 49.7244C12.7895 50.3538 11.7381 50.1082 12.3612 50.9579C12.5689 51.2411 12.5689 51.2411 11.1009 54.7842C10.956 55.1807 10.5089 55.3632 10.1123 55.2184C7.63806 54.4189 6.3285 54.2174 7.06544 53.2419C9.96273 49.6675 9.22579 50.6429 10.12 50.278C10.6363 50.1899 11.0329 50.3347 10.5547 49.0886Z" fill="#FFD600"/>
<path d="M0.922629 45.2613C0.406313 45.3494 0.198619 45.0661 0.179851 44.6445C0.149399 41.0383 0.0484735 41.6928 3.35407 41.4477C3.87038 41.3596 4.267 41.5044 4.80209 41.838C5.68333 42.6436 6.11811 41.4542 6.53996 41.4354C7.38367 41.3977 8.13291 41.4292 8.88215 41.4607C9.30401 41.4419 9.44247 41.6307 9.36678 42.1216C9.33508 42.8705 9.39139 44.1355 9.13323 44.1796C6.94827 44.7647 7.42059 44.4186 6.60857 43.7073C6.05472 42.9521 5.37471 43.0149 5.08486 43.8079C4.82024 44.4372 4.9147 44.368 0.922629 45.2613Z" fill="#FFD600"/>
<path d="M58.6699 6.57427C58.6071 5.89457 58.5127 5.96379 60.7487 2.87389C61.0573 2.5026 61.41 2.38935 61.8506 2.79217C64.3494 5.60559 65.3251 6.34202 64.1223 7.07825C61.4586 8.59474 61.2444 8.8968 60.2875 8.58204C59.3997 8.36169 58.9527 8.54416 59.0594 9.4819C59.1034 9.73994 59.0782 9.90357 59.2167 10.0924C56.7231 11.0488 58.0139 10.8286 55.9932 9.26135C56.5917 8.0971 56.7619 7.537 57.4166 7.63776C58.4428 8.04693 58.8459 7.60642 58.6699 6.57427Z" fill="#FFD600"/>
<path d="M27.8828 24.1994C27.096 23.3246 26.9893 22.3868 26.788 21.5183C26.5428 20.3917 29.3761 20.4927 29.3438 23.4192C29.3625 23.8408 28.9154 24.0233 29.1859 24.9862C29.2299 25.2443 29.5321 25.4583 29.5761 25.7163C29.5948 26.138 29.6136 26.5597 29.6324 26.9813C29.6951 27.661 29.481 27.9631 28.757 27.7679C27.6363 27.428 27.0631 28.4286 26.0751 26.6852C25.7542 26.0495 25.2443 25.5523 25.4397 24.8286C25.6098 24.2685 24.7221 24.0481 24.1871 23.7145C22.8024 21.8263 22.2233 21.2347 23.1615 21.1278C24.5215 21.002 24.9938 20.6559 25.2895 21.4552C25.56 22.4182 26.1831 23.2678 26.1009 24.344C26.1449 24.6021 26.5603 25.1685 26.7932 25.2881C27.1899 25.4329 27.637 25.2504 27.8259 25.112C28.1785 24.9987 28.0905 24.4827 27.8828 24.1994Z" fill="#FFD600"/>
<path d="M64.8256 13.3845C65.2475 13.3657 65.5244 13.7433 65.3795 14.1398C64.0247 18.0353 63.9994 18.1989 63.5523 18.3814C62.8471 18.6079 60.5618 17.67 60.0772 17.0091C59.9387 16.8203 59.6114 16.7699 59.5169 16.8391C58.3898 17.0845 57.4833 16.4425 56.5264 16.1277C57.0621 14.2838 58.6803 14.114 60.1788 14.1771C60.5501 14.4855 60.7326 14.9323 60.8963 14.9575C61.2237 15.0079 61.5071 14.8002 61.6268 14.5674C62.3197 13.3339 63.6293 13.5354 64.8256 13.3845Z" fill="#FFD600"/>
<path d="M53.2556 4.7362C53.2052 5.06346 52.2858 5.59203 52.3298 5.85007C52.3738 6.1081 52.7451 6.41652 53.1165 6.72494C53.0784 8.05915 52.9458 9.46259 51.0002 9.58199C50.8934 8.64425 50.1319 7.60575 50.6106 6.67436C50.6359 6.51073 50.4282 6.2275 50.359 6.13309C49.5786 4.67293 50.258 6.78761 49.3399 2.96108C49.2079 2.18697 49.4473 1.72127 50.1525 1.49477C54.4784 0.0665432 54.3147 0.0413539 53.2556 4.7362Z" fill="#FFD600"/>
<path d="M56.4159 7.06486C56.5984 7.51171 56.1196 8.44311 55.9054 8.74518C55.6661 9.21087 55.3639 8.99686 53.7269 8.74498C54.042 7.78839 54.099 6.87584 54.5965 6.36612C54.9996 5.92561 55.5159 5.83755 54.7984 5.05709C54.6599 4.86827 54.8805 3.98091 55.6368 1.2496C55.9772 0.129393 56.9089 0.607779 59.0809 1.19327C59.6412 1.36325 59.7545 1.7157 59.5151 2.18139C58.2489 4.41547 58.0535 5.1392 56.9264 5.38455C56.2212 5.61105 55.9565 6.24037 56.4159 7.06486Z" fill="#FFD600"/>
<path d="M47.6323 6.96986C46.7698 6.58588 46.5433 5.88098 46.1532 5.1509C45.6246 4.232 46.2353 4.07472 47.1107 3.28812C48.5277 2.24982 47.8095 3.64691 49.5772 9.02801C50.2126 10.8846 50.2126 10.8846 48.7957 11.9229C48.3234 12.269 48.0652 12.3131 47.719 11.841C43.1685 6.03172 43.0676 6.68623 44.7932 5.27665C44.7932 5.27665 44.8876 5.20743 45.1458 5.1634C45.5107 6.05711 46.0393 6.976 46.3098 7.93893C46.3978 8.45501 46.555 9.06549 47.1406 9.07184C48.5006 8.94609 48.7529 7.30981 47.6323 6.96986Z" fill="#FFD600"/>
<path d="M52.5143 20.9544C57.6633 25.5994 57.7138 25.2722 55.9882 26.6818C55.9882 26.6818 55.8937 26.751 55.73 26.7258C54.698 24.7244 53.7417 22.2321 52.7589 24.2585C52.6645 24.3277 53.0106 24.7997 53.2435 24.9193C54.4334 25.3537 54.6094 26.3858 54.8799 27.3488C54.9931 27.7012 54.3319 28.1858 54.0232 28.5571C53.7146 28.9283 53.4817 28.8087 53.23 28.2675C49.769 21.3695 49.5484 22.2569 50.8457 21.4514C51.318 21.1053 51.6331 20.1487 52.5143 20.9544Z" fill="#FFD600"/>
<path d="M58.1368 20.8983C58.7915 20.9991 59.9245 22.346 59.6851 22.8117C59.3512 23.3466 58.9481 23.7871 58.6395 24.1584C52.4333 17.6755 53.585 19.4441 55.1533 17.424C55.4872 16.8891 56.0035 16.8011 56.5386 17.1347C62.0784 20.3323 62.0344 20.0742 60.7746 21.723C60.7746 21.723 60.6802 21.7922 60.5165 21.767C60.0066 21.2698 59.3331 20.7474 58.9429 20.0173C58.666 19.6397 58.4835 19.1928 57.942 19.4445C57.3312 19.6018 56.802 20.8604 58.1368 20.8983Z" fill="#FFD600"/>
<path d="M43.2932 11.746C42.5692 11.5509 41.2034 10.0844 41.3043 9.42986C41.4052 8.77535 41.9028 8.26562 42.4255 7.59226C43.3003 8.98321 43.2751 9.14684 45.2511 12.6336C45.572 13.2693 46.2456 13.7917 46.2391 14.377C46.2327 14.9623 45.5714 15.4468 45.332 15.9125C45.0926 16.3782 44.74 16.4915 44.2994 16.0887C38.9867 11.4184 39.1879 12.2869 40.5234 10.1473C41.9772 12.1298 42.7828 13.4264 43.3243 13.1747C43.6769 13.0614 43.8219 12.6649 43.9416 12.4321C43.8976 12.1741 43.5262 11.8656 43.2932 11.746Z" fill="#FFD600"/>
<path d="M57.8686 13.4026C57.875 12.8173 57.9255 12.49 57.8815 12.232C57.8375 11.9739 57.655 11.5271 57.7747 11.2942C57.9449 10.7341 59.5631 10.5644 60.0037 10.9672C60.6772 11.4896 61.3825 11.2631 61.3889 10.6778C61.4206 9.92888 61.7985 9.65201 62.4345 9.3311C65.4949 7.95939 65.5013 7.3741 65.9413 9.95447C66.1361 11.4083 66.0164 11.6411 64.7004 12.0249C62.868 12.4968 62.5154 12.61 61.8166 12.2512C61.7474 12.1568 61.3003 12.3393 61.1114 12.4777C60.3304 13.1951 59.0209 12.9936 57.8686 13.4026Z" fill="#FFD600"/>
<path d="M17.2193 37.3835C16.7224 35.7157 18.9261 35.5522 19.0704 37.3333C19.0639 37.9186 19.2716 38.2018 19.832 38.3718C21.4184 38.9509 20.5993 41.0025 19.1578 40.0269C18.6227 39.6933 18.2701 39.8066 17.7285 40.0583C17.4451 40.2659 16.8848 40.0959 16.6267 40.14C15.9091 39.3595 16.01 38.705 16.6461 38.3841C17.2821 38.0632 17.4018 37.8303 17.2193 37.3835Z" fill="#FFD600"/>
<path d="M16.6261 42.3174C16.1292 40.6496 18.3329 40.4862 18.4772 42.2673C18.4708 42.8525 18.6785 43.1358 19.2388 43.3057C20.8253 43.8849 20.0062 45.9365 18.5646 44.9609C18.0295 44.6273 17.6769 44.7405 17.1353 44.9922C16.852 45.1999 16.2916 45.0299 16.0335 45.0739C15.3159 44.2935 15.4169 43.639 16.0529 43.318C16.5944 43.0664 16.8778 42.8587 16.6261 42.3174Z" fill="#FFD600"/>
<path d="M35.5555 31.4945C35.9139 32.9735 33.5025 32.8537 33.6351 31.4502C33.6668 30.7013 33.4591 30.4181 32.7604 30.0593C32.0616 29.7005 31.9988 29.0208 32.5216 28.3475C32.849 28.3978 33.2708 28.379 33.573 28.593C34.1081 28.9266 34.5047 29.0714 34.977 28.7253C36.1106 27.8946 37.281 30.0849 35.965 30.4687C35.6124 30.5819 35.329 30.7896 35.5555 31.4945Z" fill="#FFD600"/>
<path d="M32.0346 36.3967C32.3679 38.0394 30.1202 37.9448 30.2088 36.2833C30.2152 35.698 30.0075 35.4148 29.5417 35.1756C28.0497 34.5272 28.9632 32.4064 30.3796 33.5456C30.8202 33.9485 31.242 33.9296 31.6199 33.6527C31.9033 33.4451 32.4636 33.6151 32.7217 33.571C33.4393 34.3515 33.3131 35.1696 32.6079 35.3961C31.9971 35.5534 31.8774 35.7863 32.0346 36.3967Z" fill="#FFD600"/>
<path d="M11.4946 42.4492C11.2746 41.159 13.3146 40.9704 13.3897 42.657C13.446 43.922 13.7986 43.8088 14.6359 44.3564C14.5854 44.6836 14.6734 45.1997 14.5537 45.4325C14.3143 45.8982 13.798 45.9863 13.3574 45.5835C12.7531 45.1555 12.4509 44.9415 11.7204 45.3316C10.6121 45.9986 9.51086 43.9028 10.8269 43.519C11.4377 43.3617 11.6518 43.0596 11.4946 42.4492Z" fill="#FFD600"/>
<path d="M49.9909 16.1271C50.0789 16.6432 50.3811 16.8572 50.7777 17.002C51.5017 17.1971 51.8479 17.6692 51.7722 18.1601C51.6712 18.8146 51.1549 18.9026 50.3617 18.6131C49.3103 18.3675 48.9195 19.815 47.8998 18.8205C47.4592 18.4177 47.4656 17.8324 48.2466 17.115C48.2718 16.9514 48.3223 16.6241 48.2783 16.3661C48.0518 15.6612 48.1275 15.1703 48.7383 15.013C49.2546 14.925 49.8589 15.353 49.9909 16.1271Z" fill="#FFD600"/>
<path d="M25.9131 41.3178C25.9571 41.5759 25.8374 41.8087 25.6925 42.2052C25.2706 42.224 24.918 42.3373 24.6851 42.2177C23.4764 41.3617 24.61 40.531 23.2124 39.8134C21.8841 39.1903 22.7724 37.2331 24.0503 38.1835C24.6546 38.6115 25.0512 38.7563 25.618 38.341C26.5627 37.6488 27.8528 39.6062 26.7005 40.0152C25.97 40.4053 25.6866 40.6129 25.9131 41.3178Z" fill="#FFD600"/>
<path d="M24.0517 33.8282C23.6933 32.3492 26.0795 32.6326 25.9468 34.0361C25.9151 34.785 26.1228 35.0682 26.7272 35.4962C27.4259 35.855 27.3942 36.6039 26.8022 37.1829C26.5693 37.0633 26.053 37.1514 25.6816 36.8429C25.1465 36.5093 24.8444 36.2953 24.372 36.6414C23.2385 37.4721 22.068 35.2818 23.384 34.898C24.0893 34.6715 24.209 34.4387 24.0517 33.8282Z" fill="#FFD600"/>
<path d="M54.4933 13.5535C54.1155 13.8304 53.9958 14.0632 54.2475 14.6045C55.0278 16.0646 53.0065 16.6749 52.5788 15.1015C52.4908 14.5854 52.1887 14.3714 51.6976 14.2959C50.0606 14.044 50.5523 11.942 51.9751 12.4959C52.6047 12.7603 52.7936 12.6219 53.1967 12.1814C53.9589 11.0423 55.7213 12.6536 54.4933 13.5535Z" fill="#FFD600"/>
</svg>
