<svg width="63" height="61" viewBox="0 0 63 61" fill="none" xmlns="http://www.w3.org/2000/svg">
<path d="M13.4674 28.4347C13.3053 27.2753 12.3961 26.6932 11.6525 26.1115C10.9089 25.5298 10.1598 26.7692 9.57784 27.5125C9.32813 27.9256 9.49275 28.2572 9.90607 28.5068C12.3034 29.9212 12.386 30.0042 12.7178 29.8397C13.2982 29.5931 13.7115 29.8426 13.8752 30.5053C14.0388 31.168 14.6182 31.2526 15.6926 32.0008C16.6018 32.5829 16.6874 31.6727 17.8498 30.6828C19.1784 29.5279 19.1784 29.5279 18.024 27.8689C17.8589 27.7029 17.4455 27.4533 17.1973 27.3698C16.1215 27.1182 16.8686 26.541 16.3747 25.5462C16.2101 25.2146 15.8799 24.8825 15.6327 24.4679C14.147 22.8079 13.7332 22.7239 12.4872 23.9618C12.238 24.2094 11.9888 24.457 12.4842 24.9551C13.5575 26.0344 13.8868 26.6976 14.7144 26.8657C16.4523 27.2848 15.9498 29.1044 14.7899 29.2664C14.2925 29.4305 13.5484 29.0144 13.4674 28.4347Z" fill="#FFD600"/>
<path d="M9.13606 36.5339C8.72475 35.6221 7.98068 35.206 7.31966 34.7073C5.58432 33.4605 5.33563 33.5425 4.66706 35.5272C4.58298 35.9408 4.58197 36.2719 5.07836 36.4389C7.47673 37.5222 7.55929 37.6052 8.38795 37.4422C9.4653 37.1971 9.04795 38.2719 9.6269 38.522C12.4386 39.8549 11.6945 39.4388 13.3584 36.9604C13.525 36.6298 13.6086 36.3818 13.3614 35.9671C12.0414 34.3076 11.7937 34.0586 11.1312 34.0566C10.5512 34.1376 10.0558 33.6395 10.3056 33.2263C10.7224 32.317 9.97883 31.7354 8.65832 30.2414C7.83269 29.4112 7.74659 30.487 6.66621 31.7254C6.08424 32.4687 6.58012 32.8013 8.81135 34.3807C9.55492 34.9624 10.4672 34.5512 10.6298 35.545C10.7108 36.1247 10.4611 36.5379 9.96371 36.7019C9.63194 36.8665 9.13555 36.6994 9.13606 36.5339Z" fill="#FFD600"/>
<path d="M5.30651 43.1445C4.81214 42.3152 4.06705 42.2302 3.23991 41.8966C1.33742 41.1459 1.17129 41.311 0.833475 43.4621C0.7494 43.8758 0.914022 44.2074 1.32785 44.2914C3.8113 44.63 3.89386 44.713 4.55739 44.3839C5.55269 43.8902 5.30097 44.9655 5.88042 45.05C8.77719 45.6382 8.03261 45.3876 9.11853 42.3281C9.36925 41.5839 9.12105 41.5004 7.63391 40.337C7.30315 40.1705 6.97239 40.0039 6.55756 40.251C6.14273 40.4981 5.48121 40.165 5.64835 39.6689C5.81701 38.676 5.07293 38.2599 3.66834 37.1796C2.84221 36.5149 2.83868 37.6738 2.08856 39.2443C1.67171 40.1536 2.08503 40.4032 4.4839 41.3209C5.31104 41.6545 6.14121 40.9948 6.38689 41.9061C6.63357 42.4862 6.3008 42.9819 5.96853 43.312C5.8029 43.3115 5.306 43.31 5.30651 43.1445Z" fill="#FFD600"/>
<path d="M21.2673 23.3262C21.0211 22.5805 20.6093 21.8342 20.2801 21.171L20.197 21.2536C18.7124 19.2625 18.5468 19.262 17.1356 20.3338C16.7203 20.7465 16.2224 21.0761 16.966 21.6578C17.8747 22.4055 18.7003 23.2357 19.609 23.9834C19.8567 24.2325 21.0977 24.6501 21.1797 24.8987C21.1772 25.7265 21.8387 26.0595 22.1685 26.5572C22.4156 26.9718 22.7469 26.9728 23.1617 26.7257C24.4893 25.9019 25.5667 25.6569 25.7338 25.1607C25.9835 24.7476 25.1604 23.0896 24.7466 23.0055C24.4158 22.839 24.0851 22.6724 24.2517 22.3418C24.5845 21.8462 24.4193 21.6801 23.2665 19.5245C22.2787 17.5349 22.2792 17.3693 20.1225 18.5217C19.7908 18.6863 19.7072 18.9343 20.0374 19.2664C21.6877 21.258 22.0164 22.0868 22.5128 22.2538C23.7538 22.6715 23.5011 24.0779 22.3417 24.0744C21.8448 24.0729 21.4314 23.8234 21.2673 23.3262Z" fill="#FFD600"/>
<path d="M25.1649 48.833C25.4942 49.4962 24.4199 48.748 27.3891 52.7302C27.9666 53.4769 28.8803 52.5691 29.793 51.9924C30.2079 51.7454 30.2089 51.4142 29.8791 50.9166C28.0637 48.759 27.8155 48.6754 27.153 48.6734C26.4905 48.6715 26.0777 48.2563 26.0797 47.5941C26.0822 46.7664 26.0817 46.9319 24.4309 45.1059C24.0181 44.6908 23.6874 44.5242 23.272 44.9368C21.2794 46.5864 20.5369 45.6736 21.4405 48.0769C21.6051 48.4085 21.7683 49.2367 22.3472 49.4868C22.9262 49.7368 23.0082 49.9854 22.8411 50.4816C22.6739 50.9777 22.756 51.2263 23.5776 53.381C24.2346 55.204 24.4002 55.2045 25.7273 54.5463C26.8056 53.9701 26.7226 54.0526 25.6518 52.1456L25.7348 52.063C24.0841 50.237 22.4323 48.742 24.7526 48.2524C24.6706 48.0038 25.0003 48.5014 25.1649 48.833Z" fill="#FFD600"/>
<path d="M30.9809 42.7248C31.2275 43.305 31.7234 43.6376 32.467 44.2193C34.0367 45.4657 34.3685 45.3011 34.5397 43.4805C34.6242 42.9013 34.377 42.4867 33.9642 42.0716C33.3032 41.5729 32.6422 41.0743 32.0638 40.6587C31.2371 40.1595 30.5716 41.1509 30.2443 39.8255C30.0802 39.3283 29.7495 39.1618 28.2613 38.3295C27.848 38.0799 27.5162 38.2445 27.3491 38.7407C26.1806 41.7171 25.5201 41.0529 26.9222 42.961C27.3345 43.5417 27.5817 43.9563 28.1611 44.0408C28.658 44.0423 28.9878 44.54 28.8206 45.0361C28.5704 45.6148 28.9012 45.7813 29.8909 47.1087C30.3858 47.7724 31.0453 48.7677 31.294 48.6857C31.6252 48.6867 32.0401 48.4396 32.1237 48.1915C32.4564 47.6959 32.7897 47.0347 32.8743 46.4555C32.8758 45.9588 30.7276 44.2968 30.1482 44.2123C29.4031 44.1273 28.9903 43.7122 28.7441 42.9665C28.4164 41.8066 30.3249 40.5707 30.9809 42.7248Z" fill="#FFD600"/>
<path d="M19.189 53.1197C20.0005 58.5854 21.1635 57.43 22.408 56.6887C22.8228 56.4416 22.8238 56.1105 22.5766 55.6959C21.2591 53.2087 21.2601 52.8775 20.6807 52.793C20.2669 52.709 19.9366 52.3769 20.1863 51.9638C20.4365 51.3851 20.1888 51.136 18.7052 48.8138C18.458 48.3992 18.1273 48.2326 17.7119 48.6453C16.4664 49.7176 15.227 48.8034 15.7148 51.7848C15.7143 51.9504 15.7138 52.1159 15.7963 52.1989C15.961 52.5305 16.1256 52.8621 16.3733 53.1112C16.8687 53.6094 16.8671 54.106 16.5344 54.6017C15.9524 55.3449 16.115 56.3387 16.1125 57.1665C16.0249 58.739 16.1074 58.822 17.4335 58.4949C18.9252 58.1682 18.9252 58.1682 18.4333 56.5112C18.1877 55.6 17.6112 54.5221 17.1994 53.7759C16.8702 53.1127 16.9558 52.2024 17.4532 52.0384C18.1992 51.7923 19.0259 52.2914 19.189 53.1197Z" fill="#FFD600"/>
<path d="M3.36614 54.8103C3.03387 55.1404 3.03287 55.4715 3.28005 55.8862C5.67389 58.4594 5.92057 59.0396 6.58662 57.8827C8.41863 54.5772 8.41914 54.4116 8.33909 53.5008C8.25855 52.7556 8.92258 52.2609 9.5841 52.594C9.83229 52.6775 10.08 52.9266 10.4107 53.0932C11.1619 51.1915 11.2444 51.2746 10.1711 50.1953C9.84086 49.8632 9.59367 49.4485 9.34548 49.365C9.01422 49.364 8.68194 49.6941 8.26711 49.9412C7.93535 50.1058 7.52102 50.1873 7.85027 50.8505C8.26157 51.7623 7.84623 52.1749 7.01758 52.338C6.10686 52.2525 6.02329 52.5005 3.36614 54.8103Z" fill="#FFD600"/>
<path d="M7.02733 49.1923C7.19246 49.3583 7.35708 49.6899 7.43964 49.773C7.85397 49.6914 8.2683 49.6099 8.68313 49.3628C9.76149 48.7866 9.43074 48.6201 8.85834 46.2178C8.19531 46.3814 7.44972 46.4619 6.78669 46.6255C6.12367 46.7891 6.20321 47.8654 5.46014 47.1182C5.21245 46.8691 5.21245 46.8691 1.48299 47.7684C1.06866 47.85 0.818955 48.2631 0.90051 48.6772C1.30677 51.2445 1.30274 52.5689 2.3811 51.9927C6.36329 49.687 5.28493 50.2632 5.78434 49.4369C5.95148 48.9407 5.86993 48.5266 7.02733 49.1923Z" fill="#FFD600"/>
<path d="M9.31537 59.2979C9.14823 59.794 9.39592 60.0431 9.80974 60.1271C13.369 60.7172 12.7065 60.7153 13.4617 57.4892C13.6288 56.9931 13.5473 56.5789 13.3006 55.9988C12.6411 55.0035 13.8841 54.7589 13.9681 54.3452C14.1363 53.518 14.2214 52.7732 14.3065 52.0285C14.3905 51.6149 14.2254 51.4488 13.7285 51.4473C12.9834 51.3623 11.742 51.1103 11.6584 51.3583C10.7411 53.425 11.1565 53.0124 11.7334 53.9246C12.3939 54.5888 12.2262 55.2506 11.3976 55.4136C10.7346 55.5772 10.8176 55.4947 9.31537 59.2979Z" fill="#FFD600"/>
<path d="M56.51 8.28379C57.1721 8.45133 57.089 8.53387 60.4897 6.80576C60.9045 6.55868 61.0712 6.22807 60.7414 5.73042C58.3486 2.82605 57.7722 1.74822 56.8579 2.82157C54.9459 5.21636 54.6141 5.38092 54.7767 6.37473C54.8568 7.28551 54.6071 7.69864 53.6968 7.44758C53.4486 7.36406 53.283 7.36356 53.1179 7.19751C51.7858 9.51126 52.2036 8.27087 53.4391 10.5095C54.6826 10.0994 55.2625 10.0184 55.2645 9.35615C55.0194 8.27932 55.5173 7.94971 56.51 8.28379Z" fill="#FFD600"/>
<path d="M34.3141 35.9471C35.0566 36.8599 35.9669 37.111 36.794 37.4446C37.8693 37.8617 38.2092 35.0483 35.3119 34.6257C34.8981 34.5417 34.6484 34.9548 33.7387 34.5382C33.4905 34.4547 33.3258 34.1231 33.0776 34.0396C32.6638 33.9555 32.25 33.8715 31.8362 33.7875C31.1742 33.62 30.8424 33.7845 30.9229 34.5298C31.085 35.6891 30.0072 36.0998 31.5769 37.3461C32.1553 37.7617 32.5676 38.3424 33.3132 38.2619C33.8932 38.1808 33.9732 39.0916 34.2199 39.6718C35.8712 41.3323 36.3661 41.996 36.6173 41.0862C36.9526 39.7628 37.3679 39.3502 36.6238 38.934C35.7141 38.5174 34.9711 37.7702 33.8947 37.6842C33.6465 37.6007 33.1511 37.1025 33.0691 36.8539C32.9875 36.4398 33.2372 36.0267 33.4034 35.8616C33.57 35.531 34.0664 35.6981 34.3141 35.9471Z" fill="#FFD600"/>
<path d="M50.7345 1.1477C50.8186 0.73407 50.4883 0.401973 50.074 0.483505C46.0138 1.21631 45.8482 1.21581 45.5985 1.62894C45.2652 2.29016 45.8376 4.6924 46.4155 5.27357C46.5807 5.43962 46.5796 5.77073 46.4966 5.85325C46.0792 6.9281 46.5731 7.9229 46.7357 8.91671C48.6412 8.6741 49.0601 7.1026 49.2302 5.61313C48.9831 5.19851 48.5697 4.94893 48.5702 4.78338C48.5713 4.45228 48.8205 4.20469 49.0691 4.12266C50.3957 3.62999 50.3997 2.30557 50.7345 1.1477Z" fill="#FFD600"/>
<path d="M57.4866 13.9156C57.1553 13.9146 56.4903 14.7403 56.2421 14.6568C55.9939 14.5733 55.7467 14.1587 55.4995 13.744C54.175 13.5745 52.7673 13.4875 52.3475 15.3901C53.2577 15.6412 54.1659 16.5545 55.1607 16.2263C55.3263 16.2268 55.574 16.4759 55.6566 16.5589C56.9786 17.5562 54.994 16.5569 58.6334 18.0578C59.378 18.3084 59.8754 18.1443 60.2086 17.4831C62.2914 13.4333 62.2909 13.5989 57.4866 13.9156Z" fill="#FFD600"/>
<path d="M55.6755 10.4333C55.2621 10.1837 54.2674 10.5118 53.9356 10.6764C53.4382 10.8405 53.6028 11.1721 53.5978 12.8276C54.5921 12.665 55.5028 12.7505 56.0837 12.3384C56.5816 12.0088 56.7488 11.5126 57.4088 12.3424C57.5739 12.5084 58.4851 12.4284 61.3019 12.1057C62.4618 11.9436 62.1336 10.9493 61.8919 8.71364C61.8109 8.13396 61.4801 7.96741 60.9827 8.13147C58.5783 9.0348 57.8327 9.11534 57.4153 10.1902C57.0821 10.8514 56.419 11.015 55.6755 10.4333Z" fill="#FFD600"/>
<path d="M54.4065 19.1214C54.6522 20.0327 55.3137 20.3658 55.9747 20.8644C56.8009 21.5291 57.0511 20.9504 57.9643 20.2082C59.2103 18.9703 57.7181 19.4625 52.6742 16.8812C50.9378 15.9655 50.9379 15.9655 49.6918 17.2034C49.2765 17.616 49.1929 17.8641 49.6057 18.2792C54.6411 23.6748 53.9786 23.6728 55.6394 22.1879C55.6394 22.1879 55.7225 22.1053 55.8061 21.8572C54.9794 21.3581 54.1533 20.6934 53.2436 20.2768C52.7472 20.1098 52.1682 19.8597 52.2528 19.2805C52.5881 17.9571 54.2444 17.9621 54.4065 19.1214Z" fill="#FFD600"/>
<path d="M41.343 12.1288C37.5511 6.32307 37.8824 6.32407 36.2215 7.80906C36.2215 7.80906 36.1384 7.89159 36.1379 8.05714C37.9558 9.38703 40.2706 10.7184 38.1154 11.3741C38.0324 11.4567 37.6195 11.0415 37.5375 10.793C37.2928 9.55059 36.3 9.2165 35.3903 8.79989C35.0596 8.63334 34.4781 9.21103 34.0633 9.45812C33.6484 9.7052 33.7305 9.95378 34.2264 10.2864C40.5067 14.7752 39.5955 14.8552 40.5928 13.6993C41.0082 13.2867 42.0025 13.1241 41.343 12.1288Z" fill="#FFD600"/>
<path d="M42.2707 6.58566C42.2727 5.92345 41.1173 4.59555 40.6199 4.75961C40.0395 5.0062 39.5416 5.33581 39.1268 5.5829C44.5709 12.718 43.0017 11.3061 45.2415 10.0712C45.8219 9.82461 45.9891 9.32845 45.7424 8.74828C43.4417 2.78145 43.6899 2.86497 41.8649 3.85281C41.8649 3.85281 41.7819 3.93534 41.7814 4.10089C42.1937 4.68156 42.6055 5.42779 43.2665 5.92643C43.5968 6.25853 44.0101 6.5081 43.6773 7.00376C43.4271 7.58245 42.101 7.90958 42.2707 6.58566Z" fill="#FFD600"/>
<path d="M49.0129 22.6642C49.0935 23.4094 50.3309 24.9859 50.9934 24.9879C51.656 24.9899 52.2369 24.5778 52.9835 24.1661C51.7446 23.0863 51.5789 23.0858 48.4395 20.5931C47.8611 20.1775 47.4493 19.4312 46.8698 19.3467C46.2904 19.2622 45.7089 19.8399 45.2115 20.004C44.7141 20.168 44.5474 20.4986 44.8772 20.9963C48.6686 26.9676 47.8414 26.634 50.1633 25.6476C48.4294 23.9041 47.273 22.9073 47.6058 22.4117C47.7725 22.0811 48.1868 21.9995 48.4355 21.9175C48.6837 22.001 48.9309 22.4156 49.0129 22.6642Z" fill="#FFD600"/>
<path d="M49.6372 8.01461C50.2167 8.09912 50.548 8.10012 50.7961 8.18364C51.0443 8.26717 51.4577 8.51673 51.7064 8.4347C52.2863 8.35367 52.7052 6.78217 52.3754 6.28452C51.9636 5.5383 52.2969 4.87708 52.8764 4.9616C53.6214 5.04661 53.9537 4.7165 54.3695 4.13831C56.2 1.3294 56.7795 1.41392 54.2976 0.578704C52.891 0.160598 52.6423 0.242624 52.0588 1.48252C51.3082 3.21858 51.1415 3.54919 51.3877 4.29492C51.4703 4.37794 51.2205 4.79107 51.0544 4.95613C50.2242 5.61585 50.2202 6.94026 49.6372 8.01461Z" fill="#FFD600"/>
<path d="M19.6296 44.4292C21.2009 45.1789 21.7043 43.0283 19.9664 42.6092C19.387 42.5246 19.1393 42.2756 19.0582 41.6959C18.732 40.0394 16.5773 40.5296 17.3179 42.1046C17.5645 42.6847 17.3979 43.0153 17.0651 43.511C16.8159 43.7586 16.897 44.3383 16.8134 44.5863C17.4734 45.4161 18.1359 45.4181 18.5518 44.8399C18.9676 44.2617 19.2163 44.1797 19.6296 44.4292Z" fill="#FFD600"/>
<path d="M14.6613 44.2487C16.2325 44.9984 16.736 42.8477 14.9981 42.4286C14.4187 42.3441 14.171 42.095 14.0899 41.5154C13.7637 39.8589 11.609 40.349 12.3496 41.924C12.5962 42.5042 12.4296 42.8348 12.0968 43.3305C11.8476 43.5781 11.9287 44.1577 11.8451 44.4058C12.5051 45.2356 13.1676 45.2375 13.5835 44.6594C13.9162 44.1637 14.1654 43.9161 14.6613 44.2487Z" fill="#FFD600"/>
<path d="M28.2948 27.2378C26.8887 26.6542 26.6329 29.0539 28.0405 29.1409C28.7856 29.226 29.0333 29.475 29.2795 30.2208C29.5257 30.9665 30.1877 31.134 30.9343 30.7224C30.9353 30.3913 31.0194 29.9777 30.8548 29.6461C30.6081 29.0659 30.5265 28.6517 30.9418 28.2391C31.9387 27.2488 29.9556 25.7529 29.3721 26.9927C29.2055 27.3234 28.9563 27.5709 28.2948 27.2378Z" fill="#FFD600"/>
<path d="M22.9035 29.9531C21.3318 29.369 21.0766 31.6032 22.7324 31.7737C23.3118 31.8582 23.5595 32.1073 23.7236 32.6044C24.1329 34.1784 26.3707 33.6057 25.4645 32.0302C25.1348 31.5326 25.2188 31.1189 25.5511 30.7888C25.8003 30.5413 25.7193 29.9616 25.8028 29.7135C25.1428 28.8838 24.3147 28.8813 23.9814 29.5425C23.7312 30.1212 23.4825 30.2032 22.9035 29.9531Z" fill="#FFD600"/>
<path d="M13.7349 49.2954C14.9759 49.713 15.4789 47.7279 13.8236 47.3918C12.5821 47.1397 12.7487 46.8091 12.3374 45.8973C12.0062 45.8963 11.5098 45.7293 11.2611 45.8113C10.7637 45.9754 10.5965 46.4715 10.9263 46.9692C11.2555 47.6324 11.4202 47.964 10.9212 48.6247C10.0901 49.6155 11.9905 51.0284 12.574 49.7885C12.8242 49.2099 13.156 49.0453 13.7349 49.2954Z" fill="#FFD600"/>
<path d="M45.7223 15.3702C45.2259 15.2032 45.0613 14.8716 44.9797 14.4575C44.8992 13.7122 44.4864 13.2971 43.9895 13.2956C43.3269 13.2936 43.1598 13.7898 43.3229 14.618C43.4024 15.6944 41.9113 15.8554 42.7359 17.0168C43.0656 17.5144 43.6451 17.599 44.4753 16.9392C44.6409 16.9397 44.9722 16.9407 45.2203 17.0243C45.8819 17.3573 46.3787 17.3588 46.629 16.7802C46.7961 16.284 46.4669 15.6208 45.7223 15.3702Z" fill="#FFD600"/>
<path d="M17.0902 35.2336C16.842 35.15 16.5933 35.2321 16.179 35.3136C16.0949 35.7272 15.9282 36.0578 16.0103 36.3064C16.6688 37.6328 17.6656 36.6425 18.158 38.1339C18.5677 39.5424 20.6399 38.9692 19.8988 37.5597C19.5696 36.8965 19.488 36.4824 19.9864 35.9872C20.8171 35.162 19.0828 33.584 18.4998 34.6584C18.0009 35.3191 17.7517 35.5667 17.0902 35.2336Z" fill="#FFD600"/>
<path d="M24.2034 38.2347C25.6095 38.8184 25.6997 36.4181 24.2921 36.3311C23.547 36.2461 23.2993 35.997 22.97 35.3338C22.7239 34.5881 21.9788 34.5031 21.3147 34.9978C21.3968 35.2463 21.2297 35.7425 21.4768 36.1571C21.7235 36.7373 21.8881 37.0689 21.4728 37.4815C20.476 38.4719 22.459 39.9678 23.0425 38.7279C23.3758 38.0667 23.6245 37.9847 24.2034 38.2347Z" fill="#FFD600"/>
<path d="M48.9644 11.324C48.6321 11.6542 48.3834 11.7362 47.8875 11.4036C46.5655 10.4063 45.6488 12.3074 47.1374 12.9741C47.6338 13.1411 47.7984 13.4727 47.7969 13.9694C47.7919 15.6249 49.9456 15.4658 49.6189 13.9749C49.4552 13.3122 49.6214 13.1471 50.1193 12.8175C51.3633 12.2418 50.0443 10.2512 48.9644 11.324Z" fill="#FFD600"/>
</svg>
