<svg width="45" height="74" viewBox="0 0 45 74" fill="none" xmlns="http://www.w3.org/2000/svg">
<path d="M6.57896 43.1344C5.95236 42.1456 4.88386 41.9911 3.9664 41.7686C3.04894 41.5461 2.87879 42.9843 2.65587 43.9015C2.59915 44.3809 2.88606 44.6149 3.36556 44.6714C6.13311 44.969 6.2426 45.0105 6.47674 44.7236C6.90347 44.2592 7.38298 44.3157 7.80577 44.8516C8.22856 45.3876 8.79117 45.2251 10.0786 45.4627C11.1471 45.6172 10.849 44.7529 11.4987 43.3712C12.2314 41.7706 12.2314 41.7706 10.4948 40.7367C10.2758 40.6537 9.79629 40.5972 9.53576 40.6237C8.4521 40.8391 8.894 40.0048 8.03326 39.3029C7.74634 39.0689 7.30839 38.9029 6.91199 38.6275C4.87326 37.7295 4.46169 37.824 3.83842 39.4661C3.71377 39.7945 3.58911 40.1229 4.24604 40.3719C5.66939 40.9114 6.24322 41.3793 7.06635 41.1904C8.82212 40.8541 9.1163 42.7187 8.12696 43.3455C7.74178 43.7004 6.89226 43.6289 6.57896 43.1344Z" fill="#FFD600"/>
<path d="M5.98065 52.2996C5.22939 51.6392 4.37987 51.5676 3.5719 51.3866C1.47645 50.9681 1.28386 51.1455 1.49495 53.2291C1.58927 53.6405 1.72514 53.9424 2.2462 53.8895C4.87787 53.8851 4.98736 53.9266 5.67462 53.4358C6.55447 52.7675 6.61847 53.9187 7.24901 53.9073C10.3602 53.9595 9.51066 53.8879 10.002 50.9436C10.0172 50.5737 9.99079 50.3132 9.59439 50.0378C7.7067 49.0719 7.37823 48.9474 6.77407 49.2193C6.2794 49.5327 5.62247 49.2837 5.67919 48.8043C5.68314 47.804 4.76568 47.5815 2.94593 46.7666C1.85104 46.3516 2.21711 47.3669 1.74487 48.941C1.52195 49.8583 2.11095 49.9563 4.79539 50.4729C5.71285 50.6954 6.37372 49.9441 6.93238 50.782C7.24568 51.2764 7.18897 51.7558 6.80378 52.1106C6.56964 52.3976 6.04858 52.4505 5.98065 52.2996Z" fill="#FFD600"/>
<path d="M5.22428 59.9017C4.43148 59.3508 3.71783 59.5812 2.82676 59.6191C0.784082 59.7215 0.70098 59.9404 1.28208 62.039C1.3764 62.4504 1.66332 62.6844 2.07489 62.5899C4.47636 61.8723 4.58584 61.9137 5.05413 61.3399C5.75656 60.4791 5.97159 61.5624 6.5342 61.4C9.41518 60.7388 8.63359 60.8182 8.35852 57.5834C8.27936 56.8021 8.01883 56.8286 6.18391 56.3836C5.8139 56.3685 5.44388 56.3535 5.16819 56.7499C4.89249 57.1463 4.15246 57.1163 4.09969 56.5954C3.8431 55.6216 2.99358 55.5501 1.26815 55.1465C0.241205 54.8825 0.716766 55.9393 0.682488 57.6794C0.678541 58.6797 1.15804 58.7362 3.72178 58.5809C4.61285 58.543 5.0963 57.5992 5.69652 58.3276C6.16085 58.754 6.06259 59.3429 5.89638 59.7808C5.74534 59.8488 5.29222 60.0527 5.22428 59.9017Z" fill="#FFD600"/>
<path d="M11.5716 35.2598C11.0393 34.6824 10.356 34.173 9.78217 33.7051L9.74062 33.8145C7.56602 32.6147 7.41497 32.6827 6.57272 34.2418C6.36497 34.7891 6.04772 35.295 6.96518 35.5175C8.10161 35.823 9.1965 36.238 10.3329 36.5435C10.6614 36.668 11.964 36.5356 12.1415 36.7281C12.4812 37.4829 13.2212 37.5129 13.7271 37.8299C14.1235 38.1054 14.4256 37.9694 14.7013 37.573C15.5699 36.2744 16.4497 35.6061 16.397 35.0852C16.4537 34.6058 15.0191 33.436 14.6076 33.5304C14.2375 33.5154 13.8675 33.5004 13.8827 33.1305C13.981 32.5416 13.762 32.4586 11.8215 30.9718C10.1 29.568 10.0321 29.417 8.54413 31.3575C8.30999 31.6444 8.33638 31.9049 8.77433 32.0709C11.1 33.2028 11.7417 33.8217 12.2628 33.7687C13.5654 33.6363 13.9163 35.0215 12.8591 35.4974C12.4059 35.7013 11.9264 35.6448 11.5716 35.2598Z" fill="#FFD600"/>
<path d="M25.6589 56.8778C26.2327 57.3458 24.9452 57.1082 29.2945 59.508C30.1288 59.9494 30.5859 58.7452 31.1788 57.843C31.4545 57.4466 31.3186 57.1446 30.8127 56.8277C28.2681 55.6128 28.0076 55.6393 27.4034 55.9112C26.7993 56.1831 26.2518 55.9756 25.9801 55.3717C25.6404 54.6168 25.7083 54.7678 23.4506 53.7869C22.9032 53.5794 22.5332 53.5644 22.3254 54.1117C21.1923 56.4372 20.139 55.9127 21.9548 57.7279C22.2417 57.9619 22.7324 58.6488 23.363 58.6373C23.9935 58.6258 24.1709 58.8183 24.2237 59.3392C24.2765 59.8601 24.4539 60.0526 26.0923 61.6753C27.4438 63.0641 27.5948 62.9961 28.5314 61.8484C29.2753 60.8782 29.2338 60.9877 27.4708 59.6933L27.5123 59.5839C25.2546 58.6029 23.1328 57.924 25.0435 56.5194C24.8661 56.3269 25.372 56.6439 25.6589 56.8778Z" fill="#FFD600"/>
<path d="M28.4317 48.9125C28.8961 49.339 29.4851 49.437 30.4025 49.6595C32.3469 50.146 32.5811 49.8591 31.9848 48.1304C31.8226 47.568 31.4262 47.2926 30.8787 47.0851C30.0707 46.9041 29.2628 46.7231 28.5643 46.5835C27.6053 46.4705 27.4087 47.6482 26.5632 46.5764C26.2083 46.1915 25.8383 46.1765 24.1393 46.0334C23.6597 45.9769 23.4256 46.2638 23.4784 46.7847C23.644 49.978 22.7681 49.646 24.8332 50.8044C25.4485 51.1628 25.845 51.4383 26.4076 51.2759C26.8607 51.072 27.3666 51.3889 27.4193 51.9098C27.4306 52.5402 27.8006 52.5552 29.2503 53.3551C29.9752 53.7551 30.987 54.389 31.1796 54.2115C31.4816 54.0756 31.7573 53.6792 31.7309 53.4187C31.8292 52.8299 31.8595 52.09 31.6973 51.5277C31.4935 51.0747 28.8506 50.4487 28.288 50.6111C27.5743 50.8416 27.0269 50.6341 26.4946 50.0567C25.717 49.1358 26.9444 47.2218 28.4317 48.9125Z" fill="#FFD600"/>
<path d="M21.9878 63.2504C24.9849 67.8926 25.5666 66.36 26.3937 65.1708C26.6694 64.7744 26.5335 64.4724 26.1371 64.197C23.9097 62.4762 23.7739 62.1743 23.2113 62.3367C22.7997 62.4312 22.3617 62.2652 22.4184 61.7858C22.4072 61.1554 22.0788 61.0309 19.7683 59.5291C19.3719 59.2537 19.0019 59.2386 18.7941 59.786C18.1029 61.2771 16.5964 60.9566 18.2724 63.4702C18.3404 63.6211 18.4083 63.7721 18.5178 63.8136C18.8047 64.0476 19.0916 64.2815 19.4201 64.406C20.077 64.655 20.2808 65.1079 20.1826 65.6968C19.9596 66.6141 20.5183 67.4519 20.858 68.2068C21.4279 69.675 21.5374 69.7165 22.6098 68.8707C23.8333 67.957 23.8333 67.957 22.7008 66.6512C22.1006 65.9229 21.1304 65.1795 20.447 64.67C19.8732 64.2021 19.5751 63.3378 19.9603 62.9829C20.538 62.4505 21.497 62.5636 21.9878 63.2504Z" fill="#FFD600"/>
<path d="M8.27688 71.3271C8.11067 71.765 8.24655 72.0669 8.64295 72.3424C11.8861 73.6968 12.3504 74.1232 12.479 72.7945C12.7817 69.0274 12.7138 68.8764 12.2646 68.0801C11.8833 67.4347 12.2837 66.7099 13.0237 66.7399C13.2843 66.7134 13.6127 66.8379 13.9827 66.8529C13.8811 64.8109 13.9906 64.8524 12.5673 64.3129C12.1293 64.1469 11.7329 63.8715 11.4724 63.8979C11.1703 64.0339 11.0041 64.4718 10.7284 64.8682C10.4943 65.1551 10.1506 65.4005 10.7245 65.8685C11.4757 66.5289 11.268 67.0762 10.5807 67.5671C9.71601 67.8655 9.7424 68.1259 8.27688 71.3271Z" fill="#FFD600"/>
<path d="M9.28998 64.6984C9.50895 64.7814 9.79587 65.0153 9.90535 65.0568C10.249 64.8114 10.5926 64.566 10.8683 64.1696C11.6123 63.1993 11.2423 63.1843 9.72855 61.2332C9.19233 61.656 8.54661 62.0374 8.01039 62.4603C7.47417 62.8831 7.99128 63.8305 7.00588 63.457C6.67742 63.3325 6.67742 63.3325 3.65267 65.6923C3.30904 65.9377 3.25233 66.4171 3.49769 66.7605C4.92831 68.9307 5.4718 70.1384 6.21578 69.1682C8.88963 65.4232 8.14564 66.3934 8.25908 65.4346C8.20631 64.9137 7.96095 64.5703 9.28998 64.6984Z" fill="#FFD600"/>
<path d="M15.5486 72.9559C15.6014 73.4768 15.9299 73.6013 16.3414 73.5068C19.8266 72.5738 19.2224 72.8457 18.5773 69.5958C18.5245 69.075 18.2792 68.7315 17.8148 68.3051C16.8031 67.6712 17.834 66.9349 17.7396 66.5235C17.551 65.7006 17.3208 64.9873 17.0906 64.2739C16.9963 63.8625 16.7773 63.7795 16.3242 63.9834C15.6105 64.2138 14.3758 64.4972 14.4022 64.7577C14.4207 67.0187 14.6285 66.4713 15.5308 67.0637C16.4067 67.3957 16.5274 68.0676 15.8401 68.5584C15.3039 68.9813 15.3454 68.8718 15.5486 72.9559Z" fill="#FFD600"/>
<path d="M37.4514 7.00106C38.1235 6.88012 38.0819 6.9896 40.4649 4.01091C40.7406 3.61451 40.7558 3.24459 40.2499 2.92763C36.8709 1.27128 35.9007 0.527883 35.5116 1.88306C34.7597 4.85386 34.5256 5.14078 35.0842 5.97864C35.5334 6.77499 35.4767 7.25438 34.544 7.40179C34.2835 7.42827 34.1325 7.49624 33.9135 7.41325C33.6563 10.0706 33.5244 8.76843 35.5743 10.2967C36.5373 9.40947 37.0319 9.09607 36.7602 8.49219C36.092 7.61284 36.4093 7.10697 37.4514 7.00106Z" fill="#FFD600"/>
<path d="M28.6671 41.3632C29.7204 41.8876 30.653 41.7402 31.5441 41.7023C32.6957 41.6379 31.8428 38.9354 29.0298 39.7476C28.6182 39.842 28.5615 40.3214 27.5609 40.3179C27.3004 40.3443 27.0135 40.1104 26.753 40.1369C26.3414 40.2313 25.9298 40.3258 25.5183 40.4202C24.8462 40.5411 24.612 40.8281 24.9933 41.4734C25.6199 42.4623 24.808 43.2815 26.7524 43.7681C27.4508 43.9076 28.0662 44.266 28.7119 43.8846C29.2066 43.5713 29.6558 44.3676 30.1201 44.794C32.3099 45.624 33.0348 46.0239 32.8877 45.0916C32.6462 43.7479 32.854 43.2006 32.0045 43.129C31.0039 43.1255 30.0185 42.752 29.0028 43.1183C28.7423 43.1448 28.0853 42.8958 27.9079 42.7034C27.6625 42.3599 27.7193 41.8805 27.8024 41.6616C27.8175 41.2917 28.3386 41.2387 28.6671 41.3632Z" fill="#FFD600"/>
<path d="M29.2436 2.88854C29.1493 2.47712 28.7114 2.31113 28.3677 2.55656C24.973 4.90133 24.8219 4.96931 24.7652 5.4487C24.7349 6.18853 26.2486 8.1397 27.015 8.43018C27.234 8.51318 27.3699 8.81512 27.3283 8.92459C27.3923 10.0758 28.2531 10.7777 28.8117 11.6156C30.4468 10.6074 30.179 9.00325 29.7186 7.57654C29.3222 7.30108 28.8427 7.24455 28.7747 7.09358C28.6389 6.79164 28.7635 6.46322 28.9561 6.28577C29.9606 5.28905 29.4171 4.08129 29.2436 2.88854Z" fill="#FFD600"/>
<path d="M40.6674 11.7263C40.3653 11.8622 40.1008 12.889 39.8403 12.9155C39.5798 12.942 39.1834 12.6665 38.787 12.391C37.5107 12.7839 36.1929 13.2862 36.5966 15.1923C37.5292 15.0449 38.7336 15.5013 39.504 14.7915C39.655 14.7236 39.9835 14.8481 40.0929 14.8896C41.7089 15.2516 39.4888 15.1615 43.4231 15.0247C44.2047 14.9453 44.5899 14.5904 44.6202 13.8506C44.8437 9.30209 44.9117 9.45306 40.6674 11.7263Z" fill="#FFD600"/>
<path d="M37.5794 9.30333C37.0999 9.24681 36.3296 9.95661 36.0954 10.2435C35.7102 10.5984 35.9971 10.8324 36.6765 12.3421C37.5148 11.7833 38.3795 11.4849 38.7383 10.8696C39.0555 10.3637 39.0028 9.8428 39.9466 10.3258C40.1656 10.4087 40.9623 9.9594 43.3941 8.50187C44.3835 7.87507 43.6738 7.10519 42.5301 5.16905C42.2168 4.67464 41.8468 4.65962 41.4616 5.01452C39.6452 6.8305 38.9994 7.21188 39.0634 8.36313C39.0331 9.10297 38.4969 9.52584 37.5794 9.30333Z" fill="#FFD600"/>
<path d="M40.0132 17.7396C40.6134 18.468 41.3535 18.498 42.1615 18.679C43.1884 18.943 43.1772 18.3127 43.7022 17.2594C44.3255 15.6173 43.1699 16.682 37.5102 16.4152C35.5506 16.2986 35.5506 16.2986 34.9273 17.9407C34.7196 18.4881 34.7459 18.7485 35.2934 18.956C42.1081 21.7893 41.5039 22.0612 42.4029 20.0227C42.4029 20.0227 42.4444 19.9133 42.418 19.6528C41.459 19.5398 40.4321 19.2758 39.4315 19.2722C38.9105 19.3252 38.2799 19.3366 38.1177 18.7742C37.8762 17.4305 39.3866 16.7508 40.0132 17.7396Z" fill="#FFD600"/>
<path d="M25.2278 16.7687C19.376 13.0482 19.6781 12.9122 18.7792 14.9507C18.7792 14.9507 18.7376 15.0602 18.8055 15.2112C21.0105 15.6712 23.6685 15.9273 21.9768 17.4149C21.9352 17.5243 21.3878 17.3169 21.2103 17.1244C20.4743 16.0941 19.4321 16.2 18.4316 16.1964C18.0616 16.1814 17.7707 16.9477 17.495 17.3441C17.2193 17.7405 17.3967 17.933 17.9857 18.031C25.5596 19.5241 24.7628 19.9735 25.1935 18.5088C25.4012 17.9615 26.2395 17.4026 25.2278 16.7687Z" fill="#FFD600"/>
<path d="M23.7825 11.3374C23.5108 10.7336 21.91 10.0016 21.5248 10.3565C21.0981 10.8209 20.7808 11.3268 20.5052 11.7232C28.4108 15.9717 26.3984 15.3342 27.9279 13.2843C28.3547 12.8199 28.3019 12.299 27.8376 11.8726C23.2773 7.38928 23.5378 7.36281 22.284 9.01636C22.284 9.01636 22.2424 9.12584 22.3104 9.27681C22.9257 9.63527 23.6091 10.1447 24.417 10.3257C24.855 10.4917 25.3345 10.5482 25.2362 11.1371C25.2474 11.7674 24.175 12.6132 23.7825 11.3374Z" fill="#FFD600"/>
<path d="M36.5651 23.1942C36.9464 23.8396 38.7246 24.764 39.3287 24.4921C39.9329 24.2202 40.2917 23.6048 40.8015 22.9215C39.2271 22.45 39.0761 22.518 35.1873 21.545C34.4888 21.4055 33.8055 20.896 33.2429 21.0585C32.6803 21.2209 32.3894 21.9872 32.0042 22.3421C31.619 22.697 31.6039 23.0669 32.1098 23.3839C38.0294 27.2554 37.1383 27.2933 38.8453 25.4359C36.546 24.5644 35.0811 24.1344 35.1794 23.5455C35.1946 23.1756 35.5382 22.9302 35.7308 22.7527C35.9913 22.7263 36.3877 23.0017 36.5651 23.1942Z" fill="#FFD600"/>
<path d="M31.0814 9.59534C31.644 9.43292 31.946 9.29697 32.2066 9.27049C32.4671 9.24401 32.9466 9.30052 33.1392 9.12308C33.6339 8.80968 33.3661 7.20552 32.8602 6.88855C32.1769 6.37912 32.2072 5.63929 32.7698 5.47686C33.4834 5.24645 33.6496 4.80856 33.7895 4.11022C34.296 0.795987 34.8586 0.633559 32.2533 0.898338C30.7996 1.0987 30.607 1.27615 30.5879 2.64635C30.6216 4.53743 30.6064 4.90735 31.1387 5.48475C31.2482 5.52625 31.1915 6.00564 31.1084 6.22459C30.6249 7.16835 31.1684 8.37612 31.0814 9.59534Z" fill="#FFD600"/>
<path d="M18.7987 55.1543C20.5393 55.1879 20.1092 53.0213 18.3535 53.3577C17.7909 53.5201 17.4624 53.3956 17.1491 52.9012C16.1676 51.5274 14.4079 52.864 15.733 53.9924C16.1974 54.4188 16.1822 54.7887 16.0839 55.3776C15.9593 55.706 16.2726 56.2004 16.299 56.4609C17.2428 56.9438 17.847 56.6719 17.9868 55.9736C18.1266 55.2752 18.3192 55.0978 18.7987 55.1543Z" fill="#FFD600"/>
<path d="M14.1996 57.0425C15.9402 57.0761 15.5102 54.9096 13.7544 55.2459C13.1918 55.4083 12.8633 55.2838 12.55 54.7894C11.5686 53.4156 9.80887 54.7522 11.1339 55.8806C11.5983 56.307 11.5831 56.6769 11.4849 57.2658C11.3602 57.5942 11.6735 58.0886 11.6999 58.3491C12.6437 58.832 13.2479 58.5601 13.3877 57.8618C13.486 57.2729 13.6106 56.9445 14.1996 57.0425Z" fill="#FFD600"/>
<path d="M19.5873 35.9187C18.0657 35.9681 18.8242 38.2592 20.142 37.7569C20.8557 37.5265 21.1842 37.651 21.7164 38.2284C22.2487 38.8058 22.9208 38.6848 23.4306 38.0015C23.2948 37.6996 23.2004 37.2882 22.9135 37.0542C22.4492 36.6278 22.2038 36.2843 22.4116 35.7369C22.9102 34.4233 20.4863 33.8802 20.4672 35.2504C20.452 35.6204 20.3274 35.9488 19.5873 35.9187Z" fill="#FFD600"/>
<path d="M15.7995 40.6188C14.1268 40.7362 14.8174 42.8762 16.3957 42.3474C16.9584 42.185 17.2868 42.3095 17.6417 42.6944C18.6647 43.9587 20.4659 42.5127 18.9898 41.4523C18.4839 41.1353 18.3896 40.7239 18.5558 40.286C18.6805 39.9576 18.3672 39.4632 18.3408 39.2028C17.3969 38.7198 16.6417 39.0597 16.6114 39.7995C16.6226 40.4299 16.43 40.6073 15.7995 40.6188Z" fill="#FFD600"/>
<path d="M15.441 62.0211C16.7436 61.8887 16.3815 59.8731 14.7352 60.2509C13.5005 60.5343 13.5157 60.1643 12.7644 59.5039C12.4623 59.6399 11.9413 59.6929 11.7487 59.8703C11.3635 60.2252 11.4163 60.7461 11.9222 61.063C12.496 61.531 12.7829 61.7649 12.6015 62.5728C12.254 63.8185 14.5684 64.32 14.5875 62.9498C14.5763 62.3194 14.8104 62.0325 15.441 62.0211Z" fill="#FFD600"/>
<path d="M30.555 17.9113C30.034 17.9643 29.747 17.7303 29.5017 17.3868C29.1204 16.7415 28.573 16.534 28.1199 16.7379C27.5157 17.0098 27.5685 17.5307 28.0592 18.2176C28.5763 19.1649 27.2849 19.9276 28.5157 20.6446C29.0216 20.9615 29.5842 20.7991 30.0676 19.8553C30.2187 19.7874 30.5207 19.6514 30.7813 19.6249C31.5213 19.655 31.9744 19.451 31.9632 18.8207C31.9104 18.2998 31.3366 17.8319 30.555 17.9113Z" fill="#FFD600"/>
<path d="M12.687 47.8292C12.4265 47.8557 12.2339 48.0332 11.8902 48.2786C11.9846 48.69 11.9694 49.0599 12.1468 49.2524C13.2945 50.1883 13.7931 48.8746 14.8576 50.0294C15.8127 51.1427 17.4629 49.7646 16.2058 48.7872C15.632 48.3193 15.3866 47.9759 15.6359 47.319C16.0514 46.2243 13.8201 45.5038 13.7331 46.723C13.5517 47.5309 13.427 47.8593 12.687 47.8292Z" fill="#FFD600"/>
<path d="M20.4047 47.6235C21.9263 47.5741 21.0168 45.3511 19.699 45.8534C18.9853 46.0838 18.6568 45.9593 18.083 45.4914C17.5507 44.914 16.8371 45.1444 16.4368 45.8692C16.6142 46.0616 16.6669 46.5825 17.0633 46.858C17.5277 47.2844 17.8146 47.5184 17.6068 48.0658C17.1082 49.3794 19.5321 49.9225 19.5513 48.5523C19.5816 47.8124 19.7742 47.635 20.4047 47.6235Z" fill="#FFD600"/>
<path d="M31.8359 12.8871C31.6697 13.325 31.4771 13.5025 30.8881 13.4044C29.2721 13.0424 29.2227 15.1525 30.8538 15.1446C31.3749 15.0916 31.6618 15.3256 31.8656 15.7785C32.545 17.2882 34.4405 16.2535 33.527 15.0308C33.1042 14.4948 33.1873 14.2759 33.5046 13.77C34.3996 12.7318 32.376 11.464 31.8359 12.8871Z" fill="#FFD600"/>
</svg>
