<svg width="22" height="22" viewBox="0 0 22 22" fill="none" xmlns="http://www.w3.org/2000/svg">
<path fill-rule="evenodd" clip-rule="evenodd" d="M5.52084 10.999C5.52084 7.97415 7.97329 5.52171 10.9982 5.52171C14.0231 5.52171 16.4755 7.97415 16.4755 10.999C16.4755 14.0239 14.0231 16.4764 10.9982 16.4764C7.97329 16.4764 5.52084 14.0239 5.52084 10.999ZM7.44168 10.9991C7.44168 12.9626 9.03367 14.5546 10.9972 14.5546C12.9608 14.5546 14.5528 12.9626 14.5528 10.9991C14.5528 9.03554 12.9608 7.44354 10.9972 7.44354C9.03367 7.44354 7.44168 9.03554 7.44168 10.9991Z" fill="white"/>
<path d="M17.9725 5.30606C17.9725 6.01298 17.3994 6.58606 16.6925 6.58606C15.9856 6.58606 15.4125 6.01298 15.4125 5.30606C15.4125 4.59913 15.9856 4.02605 16.6925 4.02605C17.3994 4.02605 17.9725 4.59913 17.9725 5.30606Z" fill="white"/>
<path fill-rule="evenodd" clip-rule="evenodd" d="M6.60179 0.397008C7.73957 0.345452 8.10312 0.333008 11 0.333008C13.8969 0.333008 14.2605 0.345452 15.3982 0.397008C17.1316 0.476119 18.6542 0.901008 19.8765 2.12323C21.0987 3.34545 21.5236 4.86812 21.6027 6.60145C21.6542 7.73923 21.6667 8.10279 21.6667 10.9997C21.6667 13.8966 21.6542 14.2601 21.6027 15.3979C21.5236 17.1312 21.0987 18.6539 19.8765 19.8761C18.6542 21.0983 17.1316 21.5232 15.3982 21.6023C14.2605 21.6539 13.8969 21.6663 11 21.6663C8.10312 21.6663 7.73957 21.6539 6.60179 21.6023C4.86845 21.5232 3.34579 21.0983 2.12357 19.8761C0.901343 18.6539 0.476455 17.1312 0.397344 15.3979C0.345788 14.2601 0.333344 13.8966 0.333344 10.9997C0.333344 8.10279 0.345788 7.73923 0.397344 6.60145C0.476455 4.86812 0.901343 3.34545 2.12357 2.12323C3.34579 0.901008 4.86845 0.476119 6.60179 0.397008ZM15.3093 2.31716C14.1848 2.26561 13.8471 2.25494 10.9991 2.25494C8.15107 2.25494 7.81329 2.26561 6.68884 2.31716C5.47462 2.37228 4.3484 2.61583 3.48173 3.4825C2.61507 4.34916 2.37151 5.47539 2.3164 6.68961C2.26484 7.81405 2.25418 8.15183 2.25418 10.9998C2.25418 13.8478 2.26484 14.1856 2.3164 15.3101C2.37151 16.5243 2.61507 17.6505 3.48173 18.5172C4.3484 19.3838 5.47462 19.6274 6.68884 19.6825C7.81329 19.7341 8.15107 19.7447 10.9991 19.7447C13.8471 19.7447 14.1848 19.7341 15.3093 19.6825C16.5235 19.6274 17.6497 19.3838 18.5164 18.5172C19.3831 17.6505 19.6266 16.5243 19.6817 15.3101C19.7333 14.1856 19.744 13.8478 19.744 10.9998C19.744 8.15183 19.7333 7.81405 19.6817 6.68961C19.6266 5.47539 19.3831 4.34916 18.5164 3.4825C17.6497 2.61583 16.5235 2.37228 15.3093 2.31716Z" fill="white"/>
</svg>
