<svg width="32" height="32" viewBox="0 0 32 32" fill="none" xmlns="http://www.w3.org/2000/svg">
<path d="M13.6 22H10C8.4087 22 6.88258 21.3679 5.75736 20.2426C4.63214 19.1174 4 17.5913 4 16C4 14.4087 4.63214 12.8826 5.75736 11.7574C6.88258 10.6321 8.4087 10 10 10H13.6C13.9183 10 14.2235 10.1264 14.4485 10.3515C14.6736 10.5765 14.8 10.8817 14.8 11.2C14.8 11.5183 14.6736 11.8235 14.4485 12.0485C14.2235 12.2736 13.9183 12.4 13.6 12.4H10C9.04522 12.4 8.12955 12.7793 7.45442 13.4544C6.77928 14.1295 6.4 15.0452 6.4 16C6.4 16.9548 6.77928 17.8705 7.45442 18.5456C8.12955 19.2207 9.04522 19.6 10 19.6H13.6C13.9183 19.6 14.2235 19.7264 14.4485 19.9515C14.6736 20.1765 14.8 20.4817 14.8 20.8C14.8 21.1183 14.6736 21.4235 14.4485 21.6485C14.2235 21.8736 13.9183 22 13.6 22ZM22 22H18.4C18.0817 22 17.7765 21.8736 17.5515 21.6485C17.3264 21.4235 17.2 21.1183 17.2 20.8C17.2 20.4817 17.3264 20.1765 17.5515 19.9515C17.7765 19.7264 18.0817 19.6 18.4 19.6H22C22.9548 19.6 23.8705 19.2207 24.5456 18.5456C25.2207 17.8705 25.6 16.9548 25.6 16C25.6 15.0452 25.2207 14.1295 24.5456 13.4544C23.8705 12.7793 22.9548 12.4 22 12.4H18.4C18.0817 12.4 17.7765 12.2736 17.5515 12.0485C17.3264 11.8235 17.2 11.5183 17.2 11.2C17.2 10.8817 17.3264 10.5765 17.5515 10.3515C17.7765 10.1264 18.0817 10 18.4 10H22C23.5913 10 25.1174 10.6321 26.2426 11.7574C27.3679 12.8826 28 14.4087 28 16C28 17.5913 27.3679 19.1174 26.2426 20.2426C25.1174 21.3679 23.5913 22 22 22Z" fill="white"/>
<path d="M19.75 17H12.25C11.9185 17 11.6005 16.8946 11.3661 16.7071C11.1317 16.5196 11 16.2652 11 16C11 15.7348 11.1317 15.4804 11.3661 15.2929C11.6005 15.1054 11.9185 15 12.25 15H19.75C20.0815 15 20.3995 15.1054 20.6339 15.2929C20.8683 15.4804 21 15.7348 21 16C21 16.2652 20.8683 16.5196 20.6339 16.7071C20.3995 16.8946 20.0815 17 19.75 17Z" fill="white"/>
</svg>
