<svg width="1440" height="279" viewBox="0 0 1440 279" fill="none" xmlns="http://www.w3.org/2000/svg">
<path d="M1440 278.156L1440 52.2272C1437.69 52.5649 1436.45 54.5911 1435.37 56.4485C1433.68 58.9814 1431.98 61.6831 1429.51 63.5405C1426.58 66.0733 1423.34 68.0996 1419.33 67.7619C1418.41 67.7619 1418.1 68.2684 1417.95 69.1127C1417.48 71.139 1415.94 71.4767 1414.4 72.3209C1411.31 74.3472 1407.77 74.8538 1404.99 77.2177C1403.91 78.2309 1402.37 77.7243 1401.29 78.3997C1398.98 79.9194 1396.82 81.608 1394.81 83.4654C1394.04 84.1408 1393.58 85.154 1392.5 85.154C1388.49 84.9851 1385.4 87.5179 1382.17 89.2065C1381.7 89.3753 1381.24 89.7131 1380.78 89.7131C1376.46 88.6999 1372.14 90.5573 1367.82 89.0376C1367.36 88.8688 1366.9 88.8688 1366.43 88.6999C1365.05 88.1934 1364.28 85.6605 1362.42 87.6868C1361.04 86.5048 1359.65 87.5179 1358.11 87.6868C1353.94 87.8556 1349.78 88.1933 1346.08 85.6605C1343.76 83.9719 1341.3 83.1277 1338.52 84.6474C1336.98 85.4917 1335.74 84.8163 1334.66 83.6343C1333.58 82.4523 1332.51 81.7769 1330.96 81.9457C1328.5 79.4129 1325.56 78.9063 1322.48 79.7506C1321.56 79.9194 1320.63 79.7506 1319.86 79.0751C1315.23 74.3472 1309.06 73.8407 1303.36 71.9832C1300.89 71.139 1298.42 70.1258 1295.8 70.1258C1294.26 70.1258 1292.72 70.2947 1291.64 71.6455C1290.25 72.9964 1288.71 71.8143 1287.32 72.1521C1283.77 73.334 1280.38 72.9964 1276.83 71.9832C1274.67 71.3078 1272.82 72.9963 1271.28 74.6849C1267.58 78.9063 1263.41 81.4391 1257.86 80.5948C1256.47 80.426 1255.08 81.1014 1254 82.1146C1251.54 84.1408 1248.61 85.6605 1245.83 87.1802C1243.52 88.3622 1241.2 89.2065 1238.58 89.3753C1231.49 90.2196 1225.32 93.9344 1219.46 97.987C1219.15 98.1558 1218.84 98.3246 1218.53 98.3246C1218.22 98.3246 1217.92 98.3247 1217.61 98.4935C1217.3 98.4935 1216.99 98.3246 1216.68 98.3246C1215.6 98.1558 1214.52 98.4935 1213.44 98.4935C1212.21 98.6624 1210.98 98.4935 1209.74 98.8312C1206.66 99.8444 1204.96 102.377 1203.26 105.079C1198.18 107.781 1197.71 113.691 1195.71 118.418C1195.55 118.756 1195.55 119.094 1195.4 119.432C1194.17 121.289 1192.31 121.964 1190.62 122.809C1190.31 122.978 1190 123.146 1189.69 123.146C1187.23 124.666 1185.37 124.835 1184.6 121.12C1184.6 120.951 1184.6 120.782 1184.6 120.782C1184.6 120.782 1184.6 120.782 1184.45 120.782C1179.21 117.743 1175.5 111.158 1168.26 113.184C1167.18 113.522 1165.79 113.691 1165.17 114.873C1163.32 118.25 1160.7 121.12 1160.39 125.679C1159.93 130.069 1157.15 133.784 1155.76 137.837C1155.61 138.512 1155.15 139.188 1154.99 140.032C1154.07 144.76 1152.99 149.488 1149.59 153.034C1148.51 154.047 1148.21 155.567 1147.9 157.255C1147.59 158.944 1146.82 160.295 1145.28 161.139C1143.12 160.295 1141.11 159.45 1139.57 157.255C1138.18 155.229 1136.02 154.891 1133.86 156.073C1131.24 157.424 1128.62 158.944 1125.53 158.775C1125.38 158.775 1124.92 158.775 1124.92 158.944C1121.99 162.996 1116.74 162.152 1113.51 165.698C1112.89 166.373 1112.27 166.88 1112.27 167.893C1112.27 169.075 1111.96 169.751 1110.73 169.919C1109.96 170.088 1109.65 170.764 1109.8 171.608C1110.11 172.959 1109.96 173.803 1108.57 174.141C1106.26 174.816 1106.26 177.687 1104.71 179.038C1104.25 179.375 1104.25 180.557 1103.63 180.895C1100.7 182.584 1099.32 185.792 1097.62 188.662C1096.69 190.351 1095.31 190.689 1093.76 190.857C1090.37 191.026 1087.29 192.039 1084.82 194.403C1084.05 195.079 1083.12 194.91 1082.2 194.741C1079.88 194.403 1077.73 193.39 1075.72 192.039C1074.49 191.195 1073.41 191.364 1072.17 192.377C1069.09 195.248 1065.54 197.105 1061.53 198.118C1060.61 198.287 1059.53 198.625 1059.06 199.469C1057.68 201.664 1055.67 201.495 1053.67 200.989C1051.51 200.313 1049.81 200.651 1047.96 202.34C1045.65 204.366 1042.72 204.872 1039.79 205.041C1039.17 205.041 1038.55 205.041 1038.24 205.548C1037.16 208.081 1035 207.912 1033.15 208.081C1030.84 208.25 1028.22 208.081 1026.37 206.561C1023.59 204.366 1021.59 205.886 1019.89 207.743C1018.66 209.094 1017.27 210.107 1015.57 210.782C1012.18 212.133 1010.33 215.173 1009.56 218.719C1008.48 223.615 1005.7 226.655 1002 229.188C1000.92 229.863 999.687 230.37 998.453 231.045C996.911 231.889 995.369 231.889 993.827 231.045C992.747 230.538 991.513 230.201 990.588 229.356C987.966 227.161 985.036 227.499 982.106 227.837C980.718 228.006 980.101 229.019 979.33 229.863C978.096 231.214 977.325 230.707 976.554 229.356C976.245 228.85 975.782 228.174 975.782 227.668C975.474 223.953 973.006 221.927 970.847 219.563C970.23 218.887 969.459 218.719 968.688 219.225C966.22 220.914 963.29 221.589 960.514 222.265C959.743 222.433 958.972 222.94 958.355 223.447C954.654 225.304 950.952 225.642 947.251 223.784C946.788 223.615 946.48 222.94 946.017 223.278C942.47 226.148 938.306 225.979 933.833 226.148C936.301 230.876 933.679 233.409 931.057 236.111C928.744 238.306 925.505 239.488 923.808 242.527C923.346 243.371 922.266 243.203 921.495 243.203C918.565 243.371 915.943 242.696 913.321 241.514C911.933 240.839 911.162 241.176 909.774 242.527C908.232 244.216 905.918 245.735 903.451 245.904C900.983 246.073 898.67 245.904 896.202 245.06C892.809 244.047 891.421 240.67 888.491 239.15C887.257 238.475 886.023 238.137 884.79 238.812C882.013 240.67 879.392 239.825 876.616 239.15C876.153 238.981 875.69 238.812 875.228 238.643C873.068 237.799 871.372 238.137 869.984 240.163C869.83 240.501 869.521 240.67 869.213 241.007C867.825 243.878 865.666 244.047 863.198 243.203C861.81 242.696 860.73 242.696 859.805 244.047C859.034 245.06 857.954 245.398 856.721 245.229C854.561 244.891 852.248 244.722 850.397 246.242C849.318 247.086 848.084 245.735 847.004 246.58C842.223 248.268 837.288 247.086 832.353 246.749C829.423 246.58 827.726 243.371 826.492 241.176C823.716 236.448 819.552 234.253 815.388 231.72C814.771 230.707 813.692 230.032 813.229 228.85C813.075 228.512 813.075 228.006 812.921 227.668C815.234 220.745 810.299 210.445 803.667 208.925C800.428 208.081 797.498 206.392 794.568 204.872C792.1 203.522 791.483 199.976 789.633 197.612C788.862 196.598 788.399 195.417 787.782 194.403C787.628 194.066 787.319 193.897 787.165 193.559C787.011 193.39 786.702 193.053 786.548 192.884C785.931 191.871 785.006 191.195 784.235 190.351C779.916 189 774.519 182.077 774.364 177.18C774.21 172.114 770.509 169.75 767.579 167.218C766.345 166.036 764.802 165.023 764.494 163.334C762.797 156.917 755.24 155.398 750.305 157.593C740.589 158.606 733.495 165.191 726.092 171.101C724.704 172.283 723.162 173.634 721.619 173.972C714.062 175.66 709.436 182.246 703.575 186.636C700.491 189 696.789 188.156 693.396 188.831C691.854 189.169 690.312 188.831 689.078 189.844C687.227 191.364 685.222 191.195 683.217 190.52C682.446 191.533 681.367 191.702 680.287 192.039C679.362 192.377 678.436 191.195 677.511 191.702C674.735 193.053 673.038 191.533 671.496 189.338C670.262 187.48 668.72 186.974 666.561 187.143C662.397 187.311 658.233 186.467 654.069 187.818C653.452 187.987 652.989 187.311 652.372 187.311C650.676 187.311 648.979 187.48 648.054 189.338C647.283 191.195 645.432 192.039 644.353 193.728C643.736 194.91 642.656 194.91 641.577 194.91C639.109 194.91 636.95 194.066 634.945 192.884C633.248 191.871 632.477 192.377 631.398 193.728C631.089 194.066 630.627 194.403 630.472 194.91C629.547 197.949 627.079 197.443 625.383 196.767C622.607 195.754 619.831 194.91 616.901 194.403C616.438 194.403 615.975 194.066 615.667 193.728C613.353 191.702 611.657 184.272 612.582 181.233C613.353 178.869 612.736 176.842 611.194 174.985C609.96 173.634 609.189 171.946 607.955 170.595C607.184 169.919 607.493 168.737 607.647 167.724C607.955 163.503 607.339 162.49 603.483 160.97C602.866 160.632 601.941 160.463 601.632 159.788C600.398 156.917 597.622 156.411 595.617 155.06C593.458 153.709 591.762 152.358 590.22 150.332C589.294 149.15 588.523 148.137 586.672 148.475C585.13 148.644 583.588 147.799 582.046 147.293C578.498 145.773 574.643 146.448 571.096 145.435C570.787 145.266 570.324 145.266 570.016 145.266C567.086 146.786 565.389 144.929 563.693 142.734C562.767 141.552 561.688 140.538 560.3 140.032C559.22 139.525 558.295 138.85 557.215 138.174C554.748 136.486 553.36 134.291 553.822 130.914C553.977 129.901 553.977 128.55 553.36 127.537C552.126 125.679 549.504 125.679 548.425 127.874C547.037 130.745 544.569 131.083 542.256 131.589C539.942 132.096 537.629 132.433 535.932 129.901C535.624 129.563 535.161 129.056 534.853 129.056C533.002 129.056 532.385 128.381 531.768 126.355C531.46 125.004 530.226 122.809 527.604 123.146C526.216 123.315 525.137 121.289 524.365 120.107C521.589 115.886 519.893 115.717 516.808 119.432C515.729 120.782 514.341 120.951 512.953 120.782C511.256 120.614 509.714 120.782 508.172 121.627C506.167 122.809 504.162 121.458 502.003 121.964C501.232 122.133 500.615 121.289 499.998 120.614C498.456 118.925 497.684 116.73 496.913 114.704C496.296 113.015 496.913 111.326 497.53 109.976C498.147 108.456 498.918 106.936 499.072 105.417C498.456 104.403 497.685 104.91 497.068 104.741C494.446 104.403 491.978 104.403 489.665 102.715C488.585 101.871 487.197 101.195 485.655 101.026C484.575 100.857 483.033 100.52 482.416 98.4934C481.799 96.2983 479.64 95.1164 477.481 95.6229C475.168 95.9606 473.317 95.1164 471.62 93.9344C470.541 93.259 469.77 92.5835 468.382 93.4278C467.148 94.1032 465.914 93.9344 464.835 92.9212C463.138 91.4015 460.979 90.3884 458.974 89.713C457.74 89.2064 456.352 88.6998 455.427 87.349C454.502 86.167 452.805 86.8424 452.651 88.3621C452.497 89.0375 452.651 89.8819 452.959 90.5573C454.347 94.1032 453.268 97.3115 451.571 100.351C450.8 101.702 450.029 103.221 450.337 105.079C450.646 106.43 449.875 107.612 448.949 108.456C447.716 109.469 446.328 110.651 444.94 111.664C442.78 112.171 441.084 111.326 440.159 108.962C439.696 107.612 438.925 106.092 437.691 105.754C433.064 104.572 430.751 100.013 427.049 97.4803C426.433 97.1426 425.507 96.636 425.507 95.9606C425.661 90.0507 420.572 86.5047 420.109 80.4259C419.955 76.3734 416.871 72.6586 414.557 69.2815C410.856 66.4109 407.463 68.9438 404.224 70.1257C402.682 70.8012 401.602 71.4766 399.906 70.4634C396.821 68.606 393.891 69.1126 391.423 71.9832C390.652 72.8274 389.727 73.334 388.956 74.0094C386.025 76.3734 383.095 75.0226 382.941 71.1389C382.941 67.2552 381.399 64.2158 380.011 61.0076C379.085 58.9813 378.006 56.955 378.16 54.591C378.314 51.7205 376.772 50.0319 374.459 49.3565C372.145 48.6811 369.986 48.85 367.981 50.8762C364.126 54.5911 362.892 59.8255 360.887 64.7223C359.19 68.7749 355.643 71.4766 352.25 71.1389C351.942 71.1389 351.633 71.3077 351.633 71.1389C346.235 65.3978 341.763 70.6323 337.29 72.8274C334.977 74.0094 332.972 75.8668 330.659 77.0488C329.579 77.5554 328.345 78.2308 328.037 79.4128C327.111 83.2965 324.49 85.1539 321.714 87.1802C319.709 88.531 318.012 90.3884 317.241 92.9212C316.624 94.6098 315.236 95.2852 313.848 95.9606C310.301 97.4803 306.908 99 304.132 101.871C303.052 102.884 301.973 103.053 300.585 103.221C297.963 103.221 296.267 104.741 295.033 107.105C292.565 111.664 288.093 113.69 284.391 116.73C283.774 117.236 282.54 117.068 281.769 116.73C277.297 115.041 272.67 114.366 267.889 114.366C265.576 114.366 263.417 113.522 261.566 111.664C257.71 109.807 254.009 111.326 251.541 116.054C248.765 121.795 245.218 127.03 245.526 134.122C245.681 136.655 244.293 139.188 242.596 141.383C239.049 145.604 237.044 150.501 236.89 156.58C236.735 160.126 234.114 162.659 231.492 164.685C230.721 165.191 229.641 165.191 228.716 164.347C225.323 161.645 221.93 158.944 220.542 154.216C219.925 152.358 217.92 152.865 216.995 151.514C212.522 145.773 206.353 144.253 200.184 142.565C199.259 142.396 198.334 142.058 197.408 141.72C192.01 139.694 187.538 142.058 185.995 148.137C185.379 150.839 183.991 152.865 182.448 154.891C180.598 157.255 178.284 157.762 175.817 156.917C171.807 155.735 169.185 157.086 167.951 161.308C166.563 165.867 163.016 167.555 159.623 169.075C157.618 169.919 155.922 170.426 154.842 172.452C153.454 174.647 151.758 175.829 149.29 175.323C149.136 175.323 148.827 175.323 148.519 175.323C144.972 175.491 138.031 182.415 137.569 186.298C137.569 186.805 137.415 187.311 137.106 187.818L137.26 187.818C137.106 188.156 136.798 188.493 136.489 188.662C134.639 189.338 132.634 189.675 130.937 191.026C128.932 192.208 127.39 191.364 126.927 189.169C125.848 184.103 122.301 182.246 118.445 180.895C116.594 180.219 115.515 179.206 115.052 177.18C114.589 175.491 113.818 173.634 112.43 172.79C107.958 170.257 106.57 165.36 104.565 160.97C103.948 159.619 103.177 158.268 101.943 157.593C99.6294 156.073 97.4702 156.242 95.7738 158.775C94.6942 160.295 93.4605 161.814 92.6892 163.334C91.147 166.711 88.371 168.737 86.3661 171.439C83.4358 172.79 80.3512 171.439 77.4209 171.439C75.1076 171.439 73.2568 171.777 72.7942 174.816C72.7942 175.323 72.4858 175.998 72.1775 176.167C68.6303 177.18 66.9337 181.401 63.0781 181.739C60.919 181.908 59.531 183.597 58.2971 185.285C55.6753 188.831 52.4365 190.689 48.1182 190.182C47.5012 190.013 46.7302 190.52 46.2676 189.675L46.2676 189.844C45.188 188.156 43.8001 187.987 42.1035 188.662C39.9443 189.506 37.7852 190.52 36.0888 192.208C34.0837 194.066 32.2332 196.092 29.9197 197.612C27.9148 198.962 25.7556 197.443 24.0591 198.962C23.9049 198.962 23.7507 198.962 23.7507 198.962C20.6663 197.78 20.6661 197.78 19.4324 201.326C18.9696 202.171 17.89 202.339 17.2732 203.015C16.9647 207.067 14.4972 209.769 10.7958 209.6C8.7909 209.431 7.40272 210.107 6.47742 211.964C4.93519 214.835 2.62183 215.341 5.69806e-06 213.822L0 279L1440 279L1440 278.156Z" fill="#1A1A1A"/>
<g filter="url(#filter0_d_1136_3891)">
<path fill-rule="evenodd" clip-rule="evenodd" d="M7.39795 216.601C8.47681 214.752 9.70996 214.289 11.7136 214.443C15.4126 214.752 17.8785 212.286 18.1868 208.433C18.8033 207.817 19.8822 207.663 20.3446 206.892C21.5776 203.656 21.5776 203.656 24.6602 204.735C24.8143 204.735 24.8142 204.735 24.9684 204.735C26.6637 203.348 28.9757 204.735 30.8252 203.502C33.1371 202.115 34.9867 200.266 36.9902 198.571C38.6857 197.03 40.8435 196.26 43.0012 195.335C44.6967 194.719 46.0836 194.873 47.1626 196.414L47.1626 196.26C47.625 197.03 48.3955 196.722 49.012 196.722C53.3275 197.184 56.5643 195.489 59.1845 192.253C60.4175 190.712 61.9587 189.171 63.9624 189.017C67.8156 188.863 69.665 184.856 73.0558 183.932C73.5182 183.778 73.6721 183.315 73.6721 182.699C73.9805 179.925 75.984 179.617 78.2959 179.617C81.2244 179.463 84.307 180.85 87.2354 179.617C89.3931 177.151 92.1674 175.302 93.5545 172.22C94.3251 170.679 95.5581 169.446 96.637 168.059C98.3324 165.748 100.49 165.594 102.802 166.981C104.035 167.751 104.806 168.83 105.422 170.063C107.426 174.069 108.813 178.538 113.283 180.85C114.67 181.62 115.594 183.315 115.903 184.856C116.365 186.86 117.444 187.63 119.294 188.247C123.147 189.479 126.692 191.174 127.771 195.797C128.233 197.801 129.774 198.571 131.778 197.492C133.473 196.414 135.477 196.106 137.326 195.335C137.635 195.027 137.943 194.873 138.097 194.565L137.943 194.565C138.251 194.102 138.251 193.64 138.405 193.178C138.868 189.633 145.649 183.315 149.348 183.161C149.656 183.161 149.811 183.161 150.119 183.161C152.585 183.624 154.434 182.545 155.667 180.542C156.746 178.846 158.596 178.23 160.445 177.46C163.99 176.227 167.535 174.686 168.768 170.371C170.001 166.519 172.621 165.286 176.628 166.364C179.094 166.981 181.407 166.673 183.256 164.515C184.951 162.666 186.184 160.817 186.801 158.351C188.188 152.804 192.812 150.646 198.206 152.495C199.131 152.804 200.056 152.958 200.98 153.266C207.146 154.807 213.464 156.194 217.78 161.433C218.705 162.666 220.709 162.204 221.325 163.899C222.712 168.214 226.103 170.525 229.494 173.145C230.573 173.915 231.497 173.915 232.268 173.453C235.042 171.758 237.662 169.292 237.662 166.056C237.817 160.509 239.82 156.194 243.365 152.187C245.061 150.338 246.448 147.873 246.293 145.561C245.985 139.089 249.53 134.158 252.304 129.072C254.616 124.604 258.315 123.371 262.323 125.066C264.018 126.761 266.33 127.531 268.642 127.531C273.42 127.531 278.043 128.148 282.513 129.689C283.284 129.997 284.517 130.151 285.133 129.689C288.678 126.761 293.302 125.066 295.768 120.905C297.155 118.594 298.696 117.361 301.317 117.361C302.704 117.361 303.782 117.207 304.861 116.128C307.636 113.508 311.181 112.121 314.571 110.735C315.959 110.118 317.5 109.656 317.962 107.961C318.887 105.649 320.582 103.954 322.432 102.721C325.206 100.872 327.826 99.1772 328.751 95.6329C329.059 94.5542 330.292 93.9378 331.371 93.4755C333.683 92.3968 335.687 90.5476 337.998 89.623C342.468 87.6197 347.092 82.9968 352.332 88.082C352.486 88.2361 352.795 88.082 352.949 88.082C356.494 88.2361 359.884 85.9246 361.58 82.2262C363.583 77.9115 364.97 73.1344 368.67 69.5901C370.673 67.7409 372.677 67.4327 375.143 68.2032C377.455 68.8196 378.996 70.3606 378.842 72.9803C378.842 75.1377 379.767 76.9869 380.691 78.8361C382.079 81.764 383.62 84.5378 383.62 88.082C383.62 91.6263 386.702 92.8591 389.631 90.7017C390.401 90.0853 391.326 89.623 392.097 88.8525C394.563 86.2328 397.337 85.7705 400.574 87.4656C402.269 88.3902 403.348 87.6197 404.889 87.1574C408.126 86.0788 411.671 83.7673 415.216 86.3869C417.528 89.623 420.61 92.8591 420.764 96.5575C421.072 102.105 426.313 105.341 426.159 110.735C426.159 111.351 427.083 111.813 427.7 112.121C431.399 114.433 433.711 118.748 438.335 119.672C439.568 119.981 440.184 121.367 440.801 122.6C441.725 124.758 443.267 125.528 445.579 125.066C446.966 124.141 448.199 123.063 449.586 122.138C450.665 121.367 451.281 120.289 450.973 119.056C450.665 117.361 451.281 116.128 452.206 114.741C453.901 111.967 454.98 109.04 453.593 105.803C453.285 105.187 453.285 104.417 453.285 103.8C453.439 102.413 455.134 101.797 456.059 102.876C457.138 103.954 458.371 104.571 459.604 105.033C461.762 105.803 463.765 106.574 465.461 107.961C466.54 108.885 467.927 109.194 469.006 108.423C470.239 107.653 471.164 108.269 472.242 108.885C474.092 109.964 475.787 110.735 478.099 110.426C480.257 110.118 482.415 111.197 483.031 113.046C483.648 115.049 485.343 115.358 486.268 115.358C487.809 115.512 489.196 116.128 490.275 116.899C492.587 118.44 495.053 118.594 497.673 118.748C498.29 118.748 499.06 118.44 499.677 119.364C499.523 120.751 498.906 122.138 498.135 123.525C497.519 124.912 496.748 126.299 497.519 127.84C498.29 129.843 499.214 131.692 500.601 133.233C501.218 133.85 501.68 134.62 502.605 134.466C504.609 134.004 506.767 135.082 508.77 134.158C510.311 133.387 511.853 133.233 513.548 133.387C514.935 133.541 516.168 133.387 517.401 132.154C520.484 128.764 522.179 128.918 524.953 132.771C525.878 134.004 526.957 135.699 528.19 135.545C530.81 135.236 531.889 137.394 532.351 138.472C532.968 140.322 533.584 141.092 535.434 140.938C535.742 140.938 536.205 141.4 536.513 141.709C538.208 144.02 540.52 143.866 542.832 143.25C545.144 142.787 547.61 142.479 548.997 139.859C549.922 137.856 552.696 137.856 553.929 139.551C554.546 140.476 554.546 141.554 554.391 142.633C553.929 145.715 555.316 147.718 557.782 149.259C558.707 149.876 559.632 150.646 560.865 150.955C562.252 151.417 563.331 152.187 564.256 153.42C565.797 155.423 567.646 157.118 570.575 155.732C570.883 155.578 571.191 155.732 571.654 155.886C575.198 156.964 579.052 156.348 582.597 157.581C583.984 158.043 585.679 158.814 587.22 158.659C588.916 158.505 589.841 159.276 590.765 160.355C592.152 162.204 594.002 163.437 596.16 164.669C598.317 165.902 601.092 166.364 602.171 168.984C602.479 169.601 603.249 169.755 604.02 170.063C607.719 171.45 608.49 172.374 608.182 176.227C608.182 177.151 607.873 178.23 608.49 178.846C609.723 180.079 610.493 181.62 611.726 182.853C613.268 184.548 613.884 186.397 613.114 188.555C612.189 191.329 613.884 198.109 616.196 199.958C616.504 200.266 616.967 200.42 617.429 200.574C620.357 201.037 623.132 201.807 625.906 202.732C627.601 203.194 630.067 203.811 630.992 201.037C631.146 200.574 631.609 200.42 631.917 199.958C632.842 198.725 633.766 198.109 635.462 199.188C637.465 200.42 639.777 201.037 642.089 201.037C643.168 201.037 644.247 200.883 644.864 199.958C645.788 198.417 647.638 197.647 648.563 195.952C649.333 194.256 651.183 194.102 652.878 194.102C653.34 194.102 653.957 194.719 654.573 194.565C658.735 193.332 662.896 194.102 667.058 193.948C669.061 193.794 670.603 194.256 671.99 195.952C673.531 197.955 675.38 199.342 678.001 198.109C678.925 197.647 679.696 198.725 680.775 198.417C681.7 197.955 682.933 197.955 683.703 197.03C685.707 197.647 687.556 197.955 689.56 196.414C690.793 195.489 692.488 195.797 693.876 195.489C697.266 195.027 700.811 195.643 704.048 193.486C709.905 189.479 714.529 183.469 722.081 181.928C723.622 181.62 725.163 180.233 726.55 179.309C733.948 174.069 741.038 167.905 750.748 166.981C755.68 164.978 763.232 166.364 764.928 172.22C765.39 173.761 766.777 174.686 768.01 175.765C770.939 178.23 774.484 180.233 774.792 184.856C774.946 189.325 780.34 195.643 784.656 196.876C785.427 197.647 786.351 198.263 786.968 199.188C787.122 199.342 787.43 199.65 787.584 199.804C787.738 200.112 788.047 200.266 788.201 200.575C788.817 201.499 789.28 202.578 790.05 203.502C791.746 205.66 792.516 208.896 794.982 210.129C797.911 211.67 800.685 213.057 804.076 213.827C810.703 215.368 815.635 224.614 813.323 230.932C813.323 231.24 813.477 231.703 813.632 232.011C814.094 233.089 815.019 233.706 815.789 234.63C819.951 236.942 824.112 238.945 826.886 243.26C828.119 245.263 829.815 248.037 832.743 248.345C837.521 248.653 842.453 249.732 847.385 248.191C848.464 247.421 849.697 248.499 850.776 247.883C852.78 246.496 854.937 246.65 857.095 246.958C858.328 247.112 859.407 246.804 860.178 245.88C861.102 244.647 862.181 244.647 863.568 245.109C865.88 245.88 868.192 245.571 869.579 243.106C869.733 242.798 870.042 242.644 870.35 242.335C871.737 240.486 873.587 240.178 875.59 240.948C876.053 241.103 876.515 241.257 876.977 241.411C879.752 242.181 882.372 242.798 885.146 241.103C886.225 240.486 887.458 240.794 888.845 241.411C891.773 242.798 893.161 245.88 896.551 246.804C899.017 247.421 901.329 247.729 903.795 247.575C906.261 247.421 908.419 246.034 910.115 244.493C911.502 243.26 912.118 243.106 913.659 243.568C916.28 244.647 919.054 245.263 921.828 245.109C922.599 245.109 923.678 245.263 924.14 244.493C925.99 241.719 929.072 240.64 931.384 238.637C934.158 236.171 936.778 233.86 934.158 229.545C938.628 229.391 942.789 229.545 946.334 226.925C946.797 226.617 947.105 227.234 947.567 227.388C951.266 229.083 955.119 228.775 958.664 227.08C959.435 226.771 960.051 226.309 960.822 226.001C963.75 225.384 966.525 224.768 968.991 223.227C969.761 222.765 970.532 222.765 971.148 223.535C973.306 225.693 975.772 227.542 976.08 230.932C976.08 231.394 976.543 232.011 976.851 232.473C977.622 233.706 978.392 234.168 979.625 232.935C980.396 232.165 981.012 231.086 982.4 231.086C985.328 230.778 988.256 230.47 990.877 232.473C991.801 233.089 993.034 233.398 994.113 234.014C995.655 234.785 997.196 234.939 998.737 234.014C999.816 233.398 1001.05 232.935 1002.28 232.319C1005.98 230.007 1008.91 227.388 1009.83 222.765C1010.6 219.529 1012.3 216.755 1015.85 215.522C1017.54 214.906 1018.93 214.135 1020.16 212.748C1021.86 211.053 1023.86 209.666 1026.63 211.67C1028.48 213.057 1031.1 213.211 1033.42 213.057C1035.26 212.902 1037.58 213.211 1038.5 210.745C1038.81 210.129 1039.43 210.283 1040.04 210.283C1042.97 210.129 1045.9 209.666 1048.21 207.817C1050.06 206.43 1051.6 205.968 1053.91 206.584C1055.76 207.201 1057.77 207.355 1059.31 205.198C1059.93 204.427 1060.85 204.273 1061.77 203.965C1065.78 203.04 1069.33 201.345 1072.41 198.725C1073.64 197.801 1074.57 197.647 1075.95 198.417C1077.96 199.65 1080.12 200.575 1082.43 200.883C1083.35 201.037 1084.28 201.191 1085.05 200.575C1087.67 198.417 1090.75 197.493 1093.99 197.338C1095.53 197.338 1096.92 196.876 1097.84 195.335C1099.54 192.715 1100.92 189.788 1103.85 188.247C1104.47 187.938 1104.47 187.014 1104.93 186.551C1106.47 185.165 1106.47 182.545 1108.78 182.083C1110.17 181.774 1110.48 181.004 1110.02 179.771C1109.71 179.001 1110.02 178.384 1110.94 178.23C1112.17 178.076 1112.48 177.46 1112.48 176.381C1112.48 175.456 1113.1 174.994 1113.72 174.378C1116.8 171.142 1122.19 171.912 1125.12 168.214C1125.27 168.06 1125.58 168.06 1125.74 168.06C1128.82 168.214 1131.44 166.827 1134.06 165.594C1136.22 164.515 1138.38 164.824 1139.76 166.673C1141.3 168.676 1143.31 169.446 1145.47 170.217C1146.85 169.446 1147.78 168.214 1148.09 166.673C1148.39 165.286 1148.86 163.899 1149.78 162.82C1153.33 159.584 1154.25 155.269 1155.18 150.955C1155.33 150.338 1155.64 149.722 1155.95 148.951C1157.33 145.099 1160.11 141.863 1160.57 137.856C1161.03 133.85 1163.5 131.23 1165.35 127.994C1165.96 126.915 1167.2 126.761 1168.43 126.453C1175.67 124.604 1179.37 130.613 1184.61 133.387C1184.77 133.387 1184.77 133.387 1184.77 133.387C1184.77 133.387 1184.77 133.387 1184.77 133.695C1185.54 137.086 1187.54 136.932 1189.85 135.545C1190.16 135.391 1190.47 135.391 1190.78 135.236C1192.47 134.312 1194.32 133.695 1195.56 132.154C1195.71 131.846 1195.71 131.538 1195.86 131.23C1197.87 126.915 1198.33 121.522 1203.42 119.056C1205.11 116.59 1206.96 114.279 1209.89 113.354C1211.12 113.046 1212.36 113.046 1213.59 113.046C1214.67 113.046 1215.75 112.738 1216.83 112.892C1217.13 113.046 1217.44 113.046 1217.75 113.046C1218.06 113.046 1218.37 113.046 1218.67 112.892C1218.98 112.892 1219.29 112.738 1219.6 112.584C1225.46 108.731 1231.62 105.341 1238.71 104.725C1241.33 104.417 1243.64 103.8 1245.96 102.722C1248.73 101.335 1251.66 99.9478 1254.12 98.0986C1255.2 97.174 1256.59 96.5575 1257.98 96.7116C1263.53 97.4821 1267.69 95.1707 1271.39 91.3182C1272.93 89.7772 1274.78 88.2362 1276.93 88.8526C1280.48 89.7772 1283.87 90.0854 1287.42 89.0067C1288.8 88.6985 1290.34 89.6231 1291.73 88.5444C1292.81 87.3116 1294.35 87.3116 1295.89 87.1575C1298.51 87.1575 1301.13 88.0821 1303.44 88.8526C1308.99 90.7018 1315.31 91.01 1319.94 95.3248C1320.71 95.9412 1321.63 96.0953 1322.56 95.9412C1325.79 95.1707 1328.57 95.633 1331.03 97.9445C1332.57 97.7904 1333.65 98.5609 1334.73 99.4855C1335.81 100.564 1337.04 101.181 1338.59 100.41C1341.36 99.0232 1343.67 99.9477 1346.14 101.335C1349.84 103.646 1354.15 103.338 1358.16 103.184C1359.55 103.184 1360.93 102.105 1362.47 103.184C1364.32 101.335 1365.25 103.646 1366.48 104.108C1366.94 104.263 1367.41 104.263 1367.87 104.417C1372.18 105.649 1376.5 103.954 1380.82 105.033C1381.28 105.187 1381.74 104.879 1382.2 104.571C1385.59 103.03 1388.68 100.872 1392.53 100.872C1393.61 100.872 1394.07 99.9477 1394.84 99.3314C1397 97.6363 1399.16 96.0953 1401.31 94.7084C1402.39 94.092 1403.93 94.4002 1405.01 93.6297C1407.79 91.3182 1411.33 90.8559 1414.42 89.1608C1415.8 88.3903 1417.5 88.0821 1417.96 86.2329C1418.11 85.6165 1418.42 85.0002 1419.35 85.0002C1423.35 85.3083 1426.59 83.3051 1429.52 81.1477C1431.83 79.4526 1433.53 76.987 1435.38 74.6755C1436.61 72.9804 1437.69 71.1312 1440 70.823C1440 50.1737 1440 29.5244 1440 9.02922C1438.61 8.87512 1436.92 9.49153 1435.84 8.56694C1433.37 6.71774 1431.06 7.02595 1428.29 7.79645C1427.05 8.10464 1426.28 8.87515 1425.36 9.49155C1424.59 9.95384 1424.12 10.5702 1423.2 10.4161C1421.04 9.95381 1418.73 9.79971 1416.73 8.8751C1413.34 7.18002 1409.64 6.71774 1405.94 6.10135C1405.17 5.94725 1404.55 5.94725 1403.93 6.25544C1401.62 7.79644 1398.69 8.56692 1397.31 11.4948C1396.54 13.1899 1394.84 13.6522 1393.15 13.344C1392.22 13.1899 1391.3 12.8817 1390.37 12.5735C1390.37 14.1145 1389.91 15.0391 1388.52 15.8096C1387.29 16.426 1386.36 17.3506 1388.06 18.7375C1388.52 19.0457 1388.83 19.6621 1388.21 20.2785C1387.75 20.7408 1387.44 20.2785 1386.98 20.1244C1384.36 19.3539 1381.89 17.5047 1378.97 18.8916C1378.04 19.1997 1377.42 18.5834 1376.81 17.967C1375.27 16.426 1373.26 15.8096 1371.41 14.885C1370.03 14.2686 1368.64 14.2686 1367.41 15.3473C1365.4 17.0424 1363.09 17.3506 1360.47 16.8883C1358.31 16.426 1356 17.967 1353.69 17.1965C1349.07 19.508 1344.29 20.7408 1339.05 20.2785C1337.81 20.1244 1336.89 20.8949 1335.96 21.8195C1335.04 22.8982 1333.81 23.6687 1333.04 24.9014C1331.34 27.0588 1329.8 29.2162 1329.49 32.2982C1329.34 34.1474 1328.88 36.613 1325.95 36.613C1324.87 36.613 1324.1 37.5376 1323.33 38.3081C1320.55 41.6982 1316.55 42.4687 1312.54 43.0851C1310.07 43.3933 1307.3 43.7015 1305.76 45.5507C1304.37 47.3999 1302.67 47.8622 1300.67 48.0163C1298.82 48.1704 1297.59 49.095 1297.13 50.7901C1296.82 51.8688 1296.35 52.6393 1295.43 53.2557C1293.89 54.3344 1292.96 56.3377 1290.81 56.4918C1290.5 59.7279 1287.88 57.8787 1286.34 58.4951C1286.18 58.4951 1286.03 58.4951 1286.03 58.6492C1284.18 60.3443 1281.71 60.6524 1279.25 61.2688C1277.24 61.7311 1275.39 62.6558 1273.85 64.1967C1272.77 65.2754 1271.69 66.0459 1269.69 65.5836C1268.3 65.2754 1266.61 66.8164 1264.91 65.8918C1264.91 65.8918 1264.76 66.0459 1264.6 66.0459C1263.83 66.8164 1263.37 68.5115 1262.6 68.2033C1261.06 67.4328 1260.6 69.282 1260.13 69.1279C1257.98 68.9738 1257.36 69.7443 1257.51 71.7476C1257.51 72.5181 1256.74 72.8263 1256.13 72.9804C1253.35 73.905 1250.89 75.2919 1248.88 77.4492C1247.34 79.1443 1245.34 80.8394 1242.56 80.6853C1240.71 80.6853 1238.87 80.6853 1237.17 80.6853C1236.09 75.7542 1233.01 72.9804 1229.31 70.5148C1228.38 69.8984 1227.15 69.7443 1226.38 70.3607C1224.69 71.4394 1222.99 70.9771 1221.3 70.6689C1220.22 70.5148 1219.14 70.0525 1218.21 70.823C1216.05 72.6722 1212.97 73.905 1212.05 76.987C1211.59 78.5279 1210.51 79.4526 1208.81 78.8362C1207.27 78.3739 1206.65 79.4526 1206.19 80.3772C1205.88 80.9936 1206.19 81.764 1204.96 81.9181C1204.65 81.6099 1204.19 81.3017 1203.72 80.8394C1201.88 78.9902 1200.18 76.9869 1197.1 78.3738C1196.79 78.5279 1196.33 78.3738 1196.17 78.2197C1193.71 76.0623 1190.78 77.141 1188.16 77.6033C1186.77 77.9115 1185.08 77.2952 1184.15 78.6821C1182.61 80.8394 1179.84 81.6099 1178.45 83.9214C1177.83 84.846 1176.91 85.6165 1175.83 86.2329C1173.82 87.3116 1173.05 89.9313 1170.9 90.8559C1170.59 93.6297 1168.43 93.9379 1166.27 94.2461C1165.19 94.4002 1164.11 94.5543 1163.5 95.633C1162.57 97.3281 1161.19 98.869 1160.57 100.564C1159.64 103.184 1157.8 103.954 1155.48 103.954C1154.25 103.954 1153.17 103.954 1152.25 105.033C1150.55 107.19 1148.55 108.115 1145.77 106.882C1145.47 106.728 1144.69 106.728 1144.39 107.036C1142.23 108.423 1139.92 107.807 1137.6 107.653C1135.91 107.499 1134.06 107.653 1132.36 107.807C1130.51 107.961 1129.44 108.885 1128.67 110.581C1127.59 113.2 1127.43 113.2 1124.81 112.276C1121.73 111.351 1118.65 110.735 1115.56 110.581C1113.72 110.581 1111.56 110.581 1110.63 111.813C1109.25 113.508 1107.7 115.358 1107.24 117.669C1106.78 120.443 1106.47 123.063 1107.55 125.682C1106.16 126.299 1104.93 126.607 1104.01 127.531C1107.24 130.768 1107.24 130.768 1105.08 135.082C1103.39 134.312 1101.54 133.541 1100.46 132.154C1099.69 131.23 1102 130.151 1101.23 128.764C1101.85 128.456 1102.16 127.994 1101.85 127.377C1101.69 126.915 1101.08 126.915 1100.61 127.069C1100.15 127.223 1099.84 127.531 1099.38 127.686C1098.46 127.686 1097.69 127.531 1098.15 126.299C1098.3 125.836 1098.3 125.066 1097.84 125.22C1094.91 125.99 1095.53 123.679 1095.22 121.984C1093.06 123.217 1091.37 124.604 1089.52 125.066C1087.21 125.682 1085.36 123.833 1083.35 122.908C1083.04 123.217 1082.74 123.525 1082.58 123.833C1081.97 125.99 1080.73 125.528 1079.34 124.758C1078.88 124.604 1078.42 124.295 1078.27 123.987C1077.34 122.6 1076.57 123.217 1075.65 123.987C1073.49 125.99 1070.1 126.145 1068.71 123.833C1067.01 121.059 1064.24 120.751 1061.47 120.135C1059.15 119.672 1056.69 119.518 1055.46 122.292C1055.15 122.908 1054.53 123.063 1054.07 123.371C1052.37 124.45 1050.83 125.682 1049.29 126.761C1047.75 127.84 1046.82 129.227 1047.44 131.23C1047.9 132.463 1047.29 133.233 1046.67 134.158C1045.13 136.777 1044.97 139.705 1045.44 142.633C1045.59 144.02 1045.9 145.253 1047.29 145.715C1048.21 146.023 1048.06 146.64 1048.06 147.564C1048.21 151.417 1047.13 155.115 1046.21 158.814C1045.9 160.201 1045.44 161.587 1045.9 162.974C1046.36 164.053 1045.9 164.824 1044.82 165.132C1043.13 165.594 1042.51 166.827 1041.58 168.06C1040.51 169.755 1039.43 171.296 1038.5 173.145C1037.73 174.686 1036.34 174.994 1034.96 174.224C1033.72 173.453 1032.03 173.145 1031.72 171.296C1031.57 170.679 1031.1 170.217 1030.64 170.063C1027.71 168.984 1024.94 167.135 1021.39 168.214C1018.47 168.984 1015.38 168.83 1013.84 165.132C1013.69 164.669 1013.22 163.899 1012.3 163.899C1011.22 165.132 1011.07 166.827 1010.3 168.368C1009.83 169.292 1009.37 170.217 1008.45 170.679C1006.75 171.45 1002.28 173.145 1000.28 173.299C999.816 173.299 999.354 173.453 998.891 173.607C996.271 174.224 995.655 173.915 994.884 171.45C994.422 169.909 993.959 168.368 993.343 166.827C993.189 166.519 993.343 165.902 992.572 165.902C988.719 165.594 985.02 164.207 981.013 164.669C976.389 165.132 970.224 168.676 968.682 173.145C968.22 174.532 967.449 174.994 966.216 175.148C965.446 175.148 964.829 175.148 964.059 175.148C960.976 175.302 957.585 174.532 956.044 178.538C955.582 179.617 954.657 179.001 953.886 178.692C952.037 177.922 950.341 177.614 948.8 179.309C948.338 179.771 947.875 179.771 947.259 179.309C946.488 178.692 946.18 179.309 945.872 179.771C944.639 182.545 942.635 184.548 940.015 186.089C939.09 186.706 938.32 187.784 937.703 188.709C936.47 190.712 934.004 190.096 932.617 191.483C932.155 191.945 931.384 190.866 931.076 190.404C930.151 189.017 928.61 188.247 927.377 187.168C926.606 186.706 925.835 186.397 925.065 186.551C923.369 187.014 921.674 187.168 920.133 187.784C916.588 189.017 913.814 188.247 911.039 186.243C909.652 185.319 908.419 183.624 906.415 183.932C904.104 184.24 903.949 183.469 904.104 181.466C904.258 178.23 903.795 177.922 900.867 178.692C898.247 179.463 898.247 179.463 896.86 176.997C896.551 176.535 896.243 175.919 895.935 175.456C894.548 173.453 894.24 173.453 891.928 174.84C891.003 175.302 889.924 175.61 889.153 176.227C887.15 177.614 885.608 177.46 884.221 175.456C883.605 174.686 882.526 174.224 881.447 173.915C880.831 175.302 880.831 176.689 880.831 178.076C880.676 181.004 880.06 183.469 876.823 184.702C875.436 185.165 874.357 186.397 872.97 187.168C871.121 188.247 869.733 189.325 869.733 191.791C869.733 192.407 869.425 192.87 868.963 193.332C866.805 195.027 865.572 197.955 862.49 198.417C861.719 198.571 861.102 199.034 860.948 199.804C860.332 201.499 859.253 203.194 858.945 204.735C858.482 206.276 858.02 206.43 856.787 206.738C853.858 207.509 850.776 207.971 848.156 209.204C845.844 210.283 844.457 210.283 842.453 208.742C841.066 207.663 839.062 206.122 837.367 207.047C835.363 208.125 833.206 207.817 831.202 208.279C829.969 208.588 828.89 208.434 828.428 207.047C827.965 205.506 826.578 205.043 825.345 204.427C822.879 203.194 820.259 202.578 817.639 202.578C815.481 202.578 814.865 201.961 814.865 200.266C814.865 197.493 814.865 194.873 814.865 192.099C814.865 190.096 814.248 188.247 813.632 186.243C813.169 184.856 812.399 183.932 811.011 183.624C808.391 183.161 806.233 181.158 803.305 181.312C802.072 181.466 801.456 180.079 800.377 179.463C799.452 178.846 798.527 177.768 797.294 178.076C795.291 178.538 793.287 177.922 791.129 179.463C791.592 176.843 792.054 174.686 792.054 172.683C792.362 167.905 792.67 163.128 790.359 158.659C789.588 157.273 788.817 156.348 787.276 156.194C785.118 156.04 783.423 154.961 781.882 153.728C781.573 153.42 781.265 152.804 780.803 153.112C778.953 154.037 778.337 152.496 777.566 151.417C777.104 150.8 776.641 150.338 775.871 150.184C772.018 149.105 768.164 147.873 764.157 149.105C762.77 149.568 761.537 149.259 760.15 148.489C757.375 146.948 754.293 146.332 751.056 146.486C750.286 146.486 749.207 146.486 748.745 147.256C747.512 149.259 745.662 149.259 743.658 149.722C740.884 150.184 738.264 150.955 735.49 151.725C734.257 152.033 733.486 152.804 732.87 153.882C731.637 155.886 731.174 156.04 728.862 155.269C727.629 154.807 726.55 154.345 725.163 154.191C722.697 153.882 720.539 153.574 719.152 156.348C718.844 157.118 718.073 157.273 717.303 157.118C716.224 156.81 715.453 157.427 714.529 158.043C711.6 159.738 708.98 161.896 705.743 162.974C703.894 163.591 701.736 164.515 700.965 166.21C700.041 168.06 699.27 167.597 698.037 167.135C695.263 165.902 692.334 165.132 689.406 166.827C688.635 166.21 688.481 165.286 688.635 164.515C688.789 162.358 688.481 160.355 687.094 158.659C686.478 157.735 687.094 156.964 687.556 156.194C688.327 154.961 688.635 153.882 688.173 152.187C687.094 147.873 684.166 145.715 680.929 143.712C680.158 143.25 679.08 143.095 678.155 143.404C676.459 143.712 674.61 144.02 673.069 144.791C671.373 145.561 669.832 143.558 668.753 144.482C667.52 145.561 666.595 147.256 664.9 147.873C663.513 149.568 660.893 148.951 659.814 150.492C658.272 152.65 656.115 153.574 653.803 154.499C651.953 155.269 650.72 156.348 649.641 158.043C648.717 159.584 647.484 161.125 645.942 162.204C642.089 165.132 638.236 164.823 635.616 160.817C633.766 157.889 631.146 156.194 628.218 154.807C626.831 154.037 624.981 153.42 624.211 152.187C621.128 147.41 616.813 144.174 612.343 140.784C609.415 138.472 606.64 136.623 602.941 137.24C599.705 137.702 597.239 136.777 595.543 133.849C595.235 133.541 594.927 133.233 594.464 132.925C590.611 130.922 588.145 127.994 586.141 124.141C583.675 119.21 578.589 117.053 574.274 118.44C572.116 119.056 571.345 118.44 570.267 117.207L570.267 117.053C569.804 116.282 568.879 116.59 568.263 116.282C563.177 113.508 559.324 111.659 562.714 104.879C563.023 104.417 563.023 103.954 563.331 103.492C565.797 98.4067 566.413 92.705 569.496 87.7738C570.421 86.2328 569.804 83.4591 568.417 82.9968C567.338 82.6886 566.413 83.7673 565.334 83.1509C562.56 83.1509 563.947 80.8394 563.331 79.6066C561.327 80.223 559.324 81.1476 558.091 79.1443C555.779 75.1377 551.925 75.1377 548.072 74.6754C547.148 74.5213 546.223 74.8295 545.606 75.6C543.757 77.4492 541.445 77.7574 539.133 76.6787C537.284 75.7541 536.051 76.5246 534.509 77.141C532.968 77.7574 531.581 75.4459 529.886 76.6787C528.036 78.0656 526.186 77.6033 524.183 77.141C522.642 76.8328 521.1 76.2164 519.713 76.8328C518.172 77.4492 516.631 77.6033 514.935 77.4492C513.548 77.2951 512.315 77.6033 511.545 78.8361C510.157 81.4558 507.075 80.9934 505.225 82.8426C505.071 82.9967 504.455 82.8427 504.3 82.6886C501.064 80.6853 496.903 80.8394 493.82 77.9115C492.125 76.3705 489.813 75.1377 487.193 77.2951C486.114 78.2197 484.572 78.2197 483.339 79.2984C482.569 79.9148 481.798 79.7607 480.873 79.1443C478.87 77.6033 476.866 76.2164 474.554 74.9836C472.088 73.7508 470.084 71.9016 467.31 70.977C465.769 70.5147 464.844 68.0491 462.841 70.0524C462.686 70.2065 462.224 70.0524 462.224 69.8983C460.991 68.0491 458.371 68.0492 457.138 66.3541C454.672 63.118 450.511 62.3474 447.736 59.7278C447.12 59.1114 446.195 59.1114 445.424 59.4196C443.729 59.8819 442.342 59.2655 440.955 58.1868C439.259 56.7999 437.256 55.7212 435.252 55.7212C431.553 55.8753 429.858 53.872 428.316 51.0982C427.7 49.8655 426.621 48.7867 426.159 47.3998C425.696 46.167 424.771 45.5506 423.538 45.3965C422.922 45.2424 421.997 45.3965 421.535 45.0883C418.761 43.085 415.986 44.0097 413.058 44.7802C411.979 45.0884 410.9 45.3966 409.975 44.9343C408.28 44.0097 406.893 44.4719 405.352 45.0883C403.81 45.7047 402.269 46.4753 401.653 43.8556C401.498 42.931 400.111 42.3146 399.341 41.39C399.032 42.0064 398.878 42.3146 398.724 42.6228C398.108 44.6261 397.645 46.4753 395.333 47.0916C393.33 47.554 391.326 48.0163 390.093 45.7048C389.939 45.5507 389.477 45.3965 389.168 45.3965C387.011 45.5506 385.161 44.472 383.003 44.0097C380.846 43.5474 378.534 42.1605 376.376 44.1638C375.759 44.7802 375.143 44.1638 374.526 44.0097C371.444 43.2392 368.361 42.1604 365.125 42.0063C363.121 41.8522 361.426 42.1604 360.501 44.3178C360.193 44.9342 359.576 45.7048 358.96 44.9343C357.881 43.7015 357.418 44.3179 357.11 45.3965C356.339 48.6326 354.49 49.5572 351.253 49.4031C346.63 49.249 342.16 49.7113 338.769 53.4097C338.461 53.872 337.69 54.0261 337.228 54.1802C332.912 55.1048 329.213 57.1081 325.823 60.036C325.052 60.6524 324.281 61.2687 323.356 61.4228C320.582 61.8851 318.116 62.8097 316.267 65.1212C315.65 65.8917 315.034 66.6622 314.417 67.4327C313.801 68.3573 313.184 69.436 311.643 68.9737C311.181 68.8196 310.564 68.8196 310.41 69.1278C308.406 71.7475 305.632 70.977 303.012 70.6688C301.008 70.5147 298.851 70.5147 297.309 71.5934C295.614 72.8262 293.61 73.4426 292.069 74.8295C291.761 75.1377 291.298 75.4459 290.836 75.4459C287.137 74.5213 283.438 73.2885 280.355 70.977C279.122 70.0524 278.198 69.436 276.656 69.2819C274.653 69.1278 272.803 67.5868 270.645 67.7409C265.559 64.0425 260.011 64.0425 254.308 65.5835C253.075 65.8917 251.226 65.8917 250.455 67.1245C249.222 69.1278 247.989 71.1311 247.527 73.4426C246.91 75.7541 246.448 77.9115 243.827 78.9901C243.365 79.1442 243.057 79.4524 242.749 79.7606C242.286 80.2229 241.824 80.6852 242.44 81.3016C244.444 83.3049 242.44 85.3082 242.749 87.4656C242.132 87.3115 241.824 87.3115 241.67 87.1574C240.745 86.541 240.437 85.6164 240.437 84.3836C240.437 82.6885 238.125 85 237.971 83.1508C237.971 82.3803 237.354 82.2262 236.738 82.3803C235.35 82.8426 233.964 82.2262 232.576 82.9967C230.573 82.0721 228.569 81.6099 226.565 83.3049C221.479 87.7738 214.852 89.9312 209.92 94.7083C206.529 98.0985 201.597 100.564 200.672 106.112C200.364 107.344 199.285 108.269 198.206 108.885C195.894 110.272 193.274 111.043 190.5 111.351C188.342 111.505 186.493 112.43 184.797 113.662C182.485 115.358 181.098 117.977 178.478 119.21C177.553 120.443 176.166 121.213 174.625 121.213C172.929 121.213 171.388 121.83 170.001 122.754C168.768 124.295 167.535 125.99 165.532 126.299C162.449 126.915 161.986 129.072 161.986 131.384C162.141 134.928 161.216 137.856 157.825 139.705C157.517 140.168 157.209 140.63 156.9 141.246C155.975 143.404 154.743 145.561 153.664 147.718C152.431 150.646 149.194 150.338 146.882 151.417C144.57 152.495 143.337 152.187 143.029 149.722C142.875 148.951 142.875 148.335 142.258 147.872C139.946 146.948 138.251 145.561 137.789 143.095C136.71 138.318 132.857 136.315 128.849 134.62C127.308 134.004 125.613 133.849 124.38 132.771C121.451 129.997 116.982 130.151 113.899 127.84C113.283 127.377 112.204 127.223 111.587 127.531C109.43 128.61 108.351 127.223 107.272 125.682C105.114 123.063 103.265 120.289 100.182 118.44C98.4866 117.361 96.7911 116.744 94.9417 117.977C93.0922 119.21 91.0885 118.748 89.3932 118.131C87.8519 117.669 86.4647 117.515 85.0775 118.285C84.3069 118.748 83.3822 118.748 82.7656 118.131C79.6831 115.049 75.0593 115.512 71.8228 113.046C71.0521 112.584 70.2815 112.584 69.5109 112.892C66.8908 113.817 63.8081 113.971 61.9586 116.59C61.3422 117.361 60.5715 117.207 59.6467 117.207C56.7184 117.053 55.7937 120.751 53.1735 121.059C53.1735 121.059 53.1735 121.213 53.1735 121.367C53.3276 123.371 51.9404 123.525 50.5532 123.833C48.3955 124.141 46.0838 124.295 45.3131 127.223C45.1591 127.84 44.3884 127.686 43.7719 127.994C38.6857 130.305 34.0619 133.695 28.5133 134.774C27.7427 134.928 27.4345 136.007 26.3556 135.853C25.8932 134.466 25.4308 132.925 23.8895 132.308C21.5776 131.384 19.1116 130.305 16.4915 129.997C14.4878 129.843 13.2548 130.305 12.0217 131.846C10.9429 133.233 9.40162 135.39 7.86036 135.39C5.24024 135.545 2.62013 136.777 9.86469e-06 136.161C7.49366e-06 163.282 5.10916e-06 190.558 2.73812e-06 217.679C3.54492 219.683 5.85669 219.22 7.39795 216.601Z" fill="white"/>
</g>
<defs>
<filter id="filter0_d_1136_3891" x="-4" y="0" width="1448" height="251" filterUnits="userSpaceOnUse" color-interpolation-filters="sRGB">
<feFlood flood-opacity="0" result="BackgroundImageFix"/>
<feColorMatrix in="SourceAlpha" type="matrix" values="0 0 0 0 0 0 0 0 0 0 0 0 0 0 0 0 0 0 127 0" result="hardAlpha"/>
<feOffset dy="-2"/>
<feGaussianBlur stdDeviation="2"/>
<feComposite in2="hardAlpha" operator="out"/>
<feColorMatrix type="matrix" values="0 0 0 0 0 0 0 0 0 0 0 0 0 0 0 0 0 0 0.2 0"/>
<feBlend mode="normal" in2="BackgroundImageFix" result="effect1_dropShadow_1136_3891"/>
<feBlend mode="normal" in="SourceGraphic" in2="effect1_dropShadow_1136_3891" result="shape"/>
</filter>
</defs>
</svg>
