<svg width="22" height="17" viewBox="0 0 22 17" fill="none" xmlns="http://www.w3.org/2000/svg">
<path d="M19.4803 4.17105L19.4936 4.71905C19.4936 10.315 15.0919 16.7619 7.04153 16.7619C4.57069 16.7619 2.27089 16.0614 0.333336 14.86C0.675558 14.8987 1.02436 14.9202 1.37769 14.9202C3.42861 14.9202 5.31507 14.2433 6.81268 13.1086C4.89735 13.0742 3.28191 11.8493 2.72421 10.1688C2.99305 10.2182 3.26415 10.2419 3.54856 10.2419C3.94852 10.2419 4.33511 10.1925 4.70175 10.0958C2.69973 9.70468 1.19101 7.99629 1.19101 5.94618V5.89245C1.78204 6.21049 2.4553 6.39959 3.173 6.42327C1.99979 5.66468 1.22653 4.36885 1.22653 2.90109C1.22653 2.12533 1.44209 1.39898 1.81757 0.773643C3.97513 3.3352 7.20146 5.01998 10.8389 5.19622C10.7633 4.88673 10.7256 4.56226 10.7256 4.23135C10.7256 1.89544 12.6853 0 15.1029 0C16.3605 0 17.4982 0.51357 18.2981 1.33663C19.2936 1.14534 20.2313 0.792941 21.0778 0.309415C20.7512 1.29796 20.058 2.12745 19.1536 2.65176C20.0357 2.55074 20.8823 2.32079 21.6667 1.98557C21.0801 2.83224 20.3357 3.57796 19.4803 4.17105Z" fill="white"/>
</svg>
