<svg width="70" height="53" viewBox="0 0 70 53" fill="none" xmlns="http://www.w3.org/2000/svg">
<path d="M32.2181 43.7386C33.296 44.1954 33.6226 45.2242 33.9917 46.0929C34.3608 46.9616 32.9693 47.364 32.1004 47.7335C31.6366 47.8677 31.3589 47.6228 31.225 47.159C30.4803 44.4776 30.4215 44.3764 30.6665 44.0987C31.0552 43.602 30.9213 43.1382 30.3235 42.8086C29.7258 42.4789 29.7944 41.8975 29.3502 40.6663C29.0235 39.6375 29.9251 39.7906 31.1827 38.9244C32.6428 37.9405 32.6428 37.9405 33.9461 39.4849C34.0636 39.6874 34.1976 40.1512 34.2139 40.4125C34.1779 41.5166 34.9292 40.9446 35.7622 41.6791C36.0398 41.924 36.275 42.3289 36.6114 42.675C37.8298 44.5396 37.8036 44.9609 36.2847 45.8436C35.9809 46.0201 35.6772 46.1966 35.3244 45.5892C34.5601 44.2732 34.0048 43.7835 34.0571 42.9408C34.1028 41.154 32.2148 41.1679 31.7575 42.2461C31.4701 42.6839 31.6791 43.5102 32.2181 43.7386Z" fill="#FFD600"/>
<path d="M23.2712 45.8237C24.0453 46.457 24.2543 47.2833 24.5646 48.0508C25.3191 50.0495 25.1754 50.2684 23.0849 50.4C22.6635 50.3741 22.3434 50.2893 22.3108 49.7667C21.8862 47.1701 21.8274 47.0689 22.1998 46.3109C22.7159 45.334 21.5694 45.4586 21.4779 44.8348C20.9194 41.7744 21.1284 42.6007 23.9539 41.6358C24.3165 41.5605 24.5778 41.5441 24.9142 41.8902C26.175 43.5946 26.3514 43.8983 26.1816 44.5386C25.9529 45.0777 26.3057 45.6851 26.7695 45.551C27.756 45.3839 28.1251 46.2526 29.2258 47.9147C29.8138 48.927 28.7522 48.7315 27.2757 49.4541C26.4069 49.8236 26.2142 49.2586 25.2669 46.6949C24.8978 45.8262 25.5315 45.0518 24.6137 44.6374C24.0747 44.409 23.6109 44.5431 23.3234 44.9809C23.0784 45.2587 23.1111 45.7813 23.2712 45.8237Z" fill="#FFD600"/>
<path d="M15.8924 47.8097C16.5652 48.5019 16.4542 49.2435 16.562 50.1286C16.7938 52.1602 16.5913 52.2779 14.4257 52.047C14.0043 52.021 13.7267 51.7762 13.7528 51.3548C14.0697 48.8689 14.0109 48.7677 14.5009 48.2122C15.2358 47.3789 14.1318 47.3435 14.2004 46.762C14.3833 43.8123 14.4323 44.5963 17.6693 44.34C18.4533 44.2906 18.4696 44.5519 19.2078 46.2893C19.2829 46.6519 19.3581 47.0144 19.0118 47.351C18.6656 47.6876 18.8158 48.4127 19.3384 48.3798C20.3412 48.474 20.5503 49.3003 21.2297 50.9365C21.6576 51.9064 20.5372 51.6097 18.8256 51.9273C17.8391 52.0944 17.7052 51.6306 17.4406 49.0764C17.3329 48.1913 18.1854 47.5604 17.3688 47.0872C16.8723 46.6987 16.3072 46.8917 15.9022 47.1271C15.8597 47.2871 15.7323 47.7674 15.8924 47.8097Z" fill="#FFD600"/>
<path d="M39.1753 37.5294C39.8319 37.9603 40.4459 38.5512 41.0012 39.0409L40.9 39.0998C42.4384 41.0491 42.396 41.2092 40.9946 42.2943C40.4883 42.5885 40.0408 42.984 39.6717 42.1153C39.1851 41.0441 38.5971 40.0318 38.1104 38.9606C37.9341 38.6569 37.8524 37.3504 37.6336 37.2068C36.8333 36.9948 36.683 36.2698 36.2878 35.8224C35.9514 35.4764 36.0363 35.1562 36.3826 34.8196C37.5225 33.751 38.0387 32.7741 38.5613 32.7411C39.0251 32.607 40.4133 33.8313 40.3872 34.2527C40.4623 34.6152 40.5374 34.9777 40.9 34.9024C41.4651 34.7095 41.5827 34.9119 43.3661 36.5835C45.032 38.0526 45.1921 38.095 43.5196 39.8793C43.2746 40.157 43.0133 40.1735 42.7781 39.7685C41.2822 37.6591 40.5668 37.127 40.5342 36.6044C40.4525 35.2979 39.0284 35.1777 38.7311 36.2982C38.6037 36.7784 38.7376 37.2422 39.1753 37.5294Z" fill="#FFD600"/>
<path d="M15.5462 27.1596C14.991 26.6699 15.4352 27.9012 12.3583 24.0025C11.7866 23.2515 12.9005 22.6042 13.6943 21.8722C14.0405 21.5356 14.3606 21.6203 14.7558 22.0676C16.3694 24.3795 16.3857 24.6408 16.2159 25.2811C16.046 25.9214 16.34 26.4276 16.9802 26.5971C17.7805 26.8091 17.6204 26.7667 18.9564 28.8337C19.2503 29.3399 19.3255 29.7024 18.8192 29.9966C16.709 31.4936 17.3982 32.4471 15.311 30.9521C15.0334 30.7072 14.2756 30.3352 14.1841 29.7113C14.0927 29.0875 13.8738 28.9439 13.3512 28.9768C12.8286 29.0097 12.6097 28.8661 10.7413 27.5146C9.15059 26.4081 9.19306 26.248 10.173 25.1369C11.0092 24.2448 10.908 24.3037 12.4726 25.8316L12.5738 25.7728C13.9098 27.8398 14.9256 29.8221 16.0003 27.7082C16.2191 27.8518 15.8239 27.4045 15.5462 27.1596Z" fill="#FFD600"/>
<path d="M22.9548 23.1253C22.4583 22.7368 22.2656 22.1718 21.8965 21.3031C21.0995 19.4645 21.3445 19.1867 23.1475 19.4929C23.7289 19.5612 24.0654 19.9073 24.3594 20.4135C24.6697 21.181 24.98 21.9484 25.2315 22.6147C25.4993 23.5422 24.3691 23.9282 25.5646 24.5874C26.0023 24.8747 26.0774 25.2372 26.4955 26.8898C26.6294 27.3536 26.3844 27.6313 25.8618 27.6643C22.6836 28.0218 23.1539 28.8316 21.6743 26.9835C21.2202 26.435 20.8838 26.0889 20.9524 25.5074C21.0798 25.0272 20.6846 24.5799 20.1619 24.6128C19.5381 24.7045 19.4629 24.342 18.4373 23.0424C17.9245 22.3927 17.134 21.498 17.2777 21.2791C17.3627 20.959 17.7089 20.6224 17.9702 20.6059C18.5353 20.4129 19.2605 20.2623 19.8419 20.3307C20.3221 20.4578 21.3705 22.9627 21.3019 23.5441C21.1909 24.2857 21.4848 24.7918 22.1414 25.2227C23.1768 25.8396 24.8656 24.3166 22.9548 23.1253Z" fill="#FFD600"/>
<path d="M9.85586 31.8203C4.78639 29.6211 6.20403 28.7973 7.24277 27.7875C7.58901 27.4509 7.90912 27.5356 8.24556 27.8817C10.3066 29.7982 10.6268 29.8829 10.5582 30.4644C10.532 30.8858 10.7672 31.2907 11.231 31.1566C11.8549 31.0648 12.0313 31.3685 13.8899 33.4026C14.2263 33.7487 14.3014 34.1113 13.7951 34.4055C12.4363 35.3305 12.9981 36.7642 10.2445 35.521C10.0845 35.4786 9.9244 35.4362 9.86561 35.335C9.58796 35.0901 9.31032 34.8452 9.13394 34.5416C8.78117 33.9342 8.30101 33.807 7.73591 34C6.86704 34.3695 5.94918 33.9551 5.14891 33.7431C3.60716 33.4205 3.54837 33.3192 4.2082 32.1234C4.9105 30.7675 4.9105 30.7675 6.38365 31.6716C7.20025 32.1449 8.09197 32.9807 8.70605 33.5716C9.26134 34.0613 10.1629 34.2144 10.4503 33.7766C10.8815 33.1198 10.6137 32.1923 9.85586 31.8203Z" fill="#FFD600"/>
<path d="M4.12 46.6622C3.71496 46.8976 3.39485 46.8128 3.05841 46.4667C1.19332 43.4886 0.696833 43.1001 1.98707 42.7565C5.65528 41.8435 5.81534 41.8859 6.6744 42.1991C7.37341 42.4699 8.02344 41.9567 7.87319 41.2317C7.85687 40.9704 7.68048 40.6667 7.60536 40.3041C9.63708 40.0713 9.57828 39.97 10.3426 41.286C10.5778 41.691 10.9142 42.0371 10.9306 42.2984C10.8456 42.6185 10.4406 42.8539 10.0943 43.1905C9.84935 43.4682 9.66316 43.8472 9.10787 43.3575C8.33374 42.7242 7.82744 43.0184 7.45506 43.7764C7.30152 44.678 7.04021 44.6945 4.12 46.6622Z" fill="#FFD600"/>
<path d="M10.4963 44.5817C10.3787 44.3792 10.1011 44.1344 10.0423 44.0331C10.2285 43.6541 10.4147 43.2751 10.7609 42.9385C11.5972 42.0464 11.6723 42.409 13.8444 43.5839C13.5145 44.1818 13.2434 44.8809 12.9135 45.4788C12.5836 46.0767 11.5644 45.7212 12.0936 46.6323C12.27 46.9359 12.27 46.9359 10.4342 50.3045C10.248 50.6835 9.78417 50.8176 9.40527 50.6316C7.03059 49.5744 5.75016 49.2353 6.58637 48.3431C9.84631 45.0948 9.01009 45.9869 9.93776 45.7187C10.4604 45.6857 10.8393 45.8718 10.4963 44.5817Z" fill="#FFD600"/>
<path d="M1.32757 39.7549C0.804942 39.7879 0.628559 39.4842 0.654696 39.0628C1.00752 35.4728 0.837656 36.1131 4.14981 36.2194C4.67244 36.1865 5.05134 36.3725 5.54783 36.7609C6.3383 37.6556 6.89687 36.5186 7.31824 36.5445C8.16097 36.5964 8.90245 36.7071 9.64393 36.8178C10.0653 36.8438 10.1829 37.0462 10.0555 37.5265C9.94442 38.268 9.86601 39.5321 9.6047 39.5486C7.37046 39.8991 7.87676 39.6049 7.14509 38.8115C6.67473 38.0017 5.99205 37.9922 5.61967 38.7502C5.28975 39.3481 5.39101 39.2892 1.32757 39.7549Z" fill="#FFD600"/>
<path d="M62.8443 7.39213C62.8541 6.70944 62.7529 6.76829 65.304 3.93185C65.6502 3.59524 66.0128 3.51995 66.408 3.96726C68.5932 7.03016 69.485 7.86595 68.2111 8.47083C65.4019 9.69704 65.1569 9.9748 64.2391 9.56039C63.38 9.24721 62.9162 9.38135 62.9227 10.3253C62.939 10.5867 62.8965 10.7467 63.0141 10.9492C60.4336 11.6363 61.7402 11.5541 59.898 9.78125C60.6166 8.68667 60.8453 8.1476 61.4855 8.31716C62.4621 8.8328 62.9096 8.43735 62.8443 7.39213Z" fill="#FFD600"/>
<path d="M30.3663 21.6618C29.6771 20.7083 29.6706 19.7643 29.5628 18.8792C29.4387 17.7327 32.2446 18.1332 31.9015 21.0405C31.8754 21.4619 31.4116 21.596 31.5781 22.5824C31.5945 22.8437 31.8721 23.0885 31.8884 23.3498C31.8623 23.7712 31.8362 24.1926 31.81 24.614C31.8002 25.2967 31.5552 25.5744 30.8562 25.3036C29.7783 24.8468 29.1022 25.7814 28.3052 23.9427C28.0537 23.2765 27.5996 22.7279 27.8708 22.0288C28.0994 21.4897 27.2404 21.1766 26.7439 20.7881C25.568 18.7635 25.0552 18.1137 25.9992 18.1067C27.3645 18.1257 27.8708 17.8314 28.0799 18.6578C28.2464 19.6441 28.7756 20.5552 28.5796 21.6169C28.5959 21.8782 28.9487 22.4856 29.1675 22.6292C29.5464 22.8152 30.0103 22.6811 30.2128 22.5634C30.5754 22.4881 30.5427 21.9655 30.3663 21.6618Z" fill="#FFD600"/>
<path d="M68.2403 14.8176C68.6617 14.8435 68.8968 15.2484 68.7106 15.6274C66.95 19.3585 66.9075 19.5186 66.4437 19.6527C65.7185 19.8033 63.5464 18.6284 63.1348 17.9198C63.0172 17.7173 62.6971 17.6325 62.5959 17.6914C61.4493 17.816 60.6164 17.0815 59.6986 16.6671C60.427 14.8898 62.0537 14.8923 63.5366 15.1137C63.8731 15.4598 64.007 15.9236 64.167 15.966C64.4872 16.0508 64.7909 15.8742 64.9347 15.6553C65.7546 14.5019 67.035 14.841 68.2403 14.8176Z" fill="#FFD600"/>
<path d="M57.6572 4.99057C57.5723 5.31072 56.6022 5.73907 56.6185 6.00038C56.6348 6.26168 56.9712 6.60777 57.3077 6.95385C57.128 8.27684 56.8471 9.65867 54.9003 9.57138C54.8938 8.62738 54.247 7.51383 54.8219 6.63816C54.8644 6.47809 54.688 6.17439 54.6292 6.07316C54.0086 4.53823 54.4594 6.71346 53.9531 2.81032C53.9041 2.0264 54.1916 1.58856 54.9167 1.43797C59.3689 0.475575 59.2088 0.433185 57.6572 4.99057Z" fill="#FFD600"/>
<path d="M60.5515 7.64137C60.6854 8.10514 60.1105 8.98081 59.8655 9.25857C59.5781 9.6964 59.3004 9.45155 57.6999 9.02765C58.1148 8.1096 58.2683 7.208 58.8171 6.75371C59.2646 6.35826 59.7872 6.32535 59.1568 5.47311C59.0392 5.27064 59.3528 4.41143 60.3948 1.77494C60.8521 0.69681 61.7275 1.27129 63.8245 2.08366C64.3635 2.31206 64.4386 2.6746 64.1512 3.11243C62.6551 5.20037 62.384 5.89952 61.2375 6.02417C60.5123 6.17476 60.1824 6.77267 60.5515 7.64137Z" fill="#FFD600"/>
<path d="M51.8297 6.61665C51.0131 6.14339 50.8629 5.41832 50.5526 4.65085C50.1247 3.68092 50.7486 3.58917 51.7024 2.89951C53.2213 2.01688 52.3589 3.33038 53.5446 8.86968C53.979 10.7836 53.979 10.7836 52.4601 11.6662C51.9538 11.9605 51.6925 11.9769 51.3985 11.4708C47.4919 5.21083 47.3221 5.85113 49.1872 4.63189C49.1872 4.63189 49.2885 4.57304 49.5498 4.55659C49.8176 5.48413 50.2455 6.45406 50.4121 7.44044C50.4448 7.96306 50.5362 8.5869 51.1176 8.65523C52.483 8.67419 52.9076 7.07345 51.8297 6.61665Z" fill="#FFD600"/>
<path d="M55.1974 21.0428C59.8226 26.2082 59.9075 25.888 58.0424 27.1073C58.0424 27.1073 57.9411 27.1661 57.781 27.1237C56.9677 25.0238 56.2818 22.4436 55.0895 24.355C54.9883 24.4139 55.2823 24.92 55.5011 25.0637C56.6378 25.6217 56.7031 26.6669 56.8697 27.6533C56.9448 28.0158 56.236 28.4277 55.8898 28.7643C55.5435 29.1009 55.3247 28.9573 55.1319 28.3923C52.4242 21.165 52.1106 22.0242 53.4858 21.3605C53.9921 21.0663 54.4069 20.1482 55.1974 21.0428Z" fill="#FFD600"/>
<path d="M60.7926 21.5825C61.4329 21.7521 62.416 23.2117 62.1286 23.6496C61.7399 24.1462 61.2924 24.5417 60.9461 24.8783C55.4652 17.7731 56.4222 19.6541 58.1959 17.811C58.5846 17.3143 59.1072 17.2814 59.6037 17.6699C64.7711 21.437 64.7548 21.1757 63.3274 22.6821C63.3274 22.6821 63.2261 22.741 63.0661 22.6986C62.612 22.15 61.998 21.5591 61.6877 20.7916C61.4525 20.3867 61.3186 19.9229 60.7535 20.1159C60.1296 20.2077 59.4697 21.4035 60.7926 21.5825Z" fill="#FFD600"/>
<path d="M47.0089 10.9076C46.3099 10.6368 45.1079 9.03353 45.2777 8.39323C45.4476 7.75293 45.9963 7.29864 46.5876 6.68428C47.3094 8.16037 47.267 8.32045 48.8609 11.9977C49.1124 12.6639 49.7265 13.2549 49.6579 13.8363C49.5893 14.4178 48.8805 14.8297 48.593 15.2675C48.3056 15.7054 47.943 15.7806 47.5478 15.3333C42.7625 10.1256 42.8703 11.0108 44.4252 9.02405C45.6598 11.1499 46.3229 12.5248 46.888 12.3318C47.2506 12.2565 47.4368 11.8775 47.5805 11.6586C47.5642 11.3973 47.2277 11.0512 47.0089 10.9076Z" fill="#FFD600"/>
<path d="M61.3223 14.0988C61.3909 13.5173 61.4759 13.1972 61.4595 12.9359C61.4432 12.6745 61.3093 12.2108 61.453 11.9919C61.6817 11.4528 63.3083 11.4553 63.7036 11.9026C64.3177 12.4936 65.0428 12.343 65.1114 11.7615C65.2225 11.02 65.6275 10.7846 66.2939 10.5328C69.4819 9.49259 69.5505 8.91113 69.7138 11.5242C69.753 12.9908 69.6093 13.2097 68.2602 13.4521C66.3886 13.7273 66.026 13.8026 65.3694 13.3717C65.3106 13.2705 64.8468 13.4046 64.6443 13.5223C63.7917 14.1531 62.5113 13.814 61.3223 14.0988Z" fill="#FFD600"/>
<path d="M18.3651 33.6455C18.0483 31.934 20.2564 32.0049 20.2106 33.7916C20.142 34.3731 20.3184 34.6768 20.8573 34.9052C22.373 35.6492 21.3407 37.603 20.0113 36.48C19.5148 36.0915 19.1523 36.1668 18.5872 36.3598C18.2834 36.5363 17.7444 36.3079 17.4831 36.3244C16.8527 35.4721 17.0226 34.8318 17.6889 34.58C18.3553 34.3282 18.499 34.1093 18.3651 33.6455Z" fill="#FFD600"/>
<path d="M17.2512 38.49C16.9344 36.7786 19.1425 36.8494 19.0968 38.6362C19.0282 39.2176 19.2046 39.5213 19.7435 39.7497C21.2591 40.4938 20.2269 42.4476 18.8975 41.3245C18.401 40.936 18.0384 41.0113 17.4733 41.2043C17.1695 41.3808 16.6306 41.1524 16.3693 41.1689C15.7389 40.3167 15.9087 39.6764 16.5751 39.4245C17.1402 39.2316 17.444 39.055 17.2512 38.49Z" fill="#FFD600"/>
<path d="M37.2188 29.7301C37.418 31.2391 35.0335 30.8646 35.3145 29.4827C35.4255 28.7412 35.2492 28.4375 34.5926 28.0067C33.9361 27.5758 33.9459 26.8931 34.5371 26.2787C34.8572 26.3635 35.2786 26.3895 35.5562 26.6343C36.0527 27.0228 36.4316 27.2088 36.9379 26.9146C38.153 26.2085 39.0839 28.5109 37.7349 28.7532C37.3723 28.8285 37.0685 29.005 37.2188 29.7301Z" fill="#FFD600"/>
<path d="M33.1979 34.2331C33.3547 35.9022 31.1303 35.57 31.3949 33.9269C31.4635 33.3454 31.2871 33.0417 30.8494 32.7545C29.435 31.9516 30.5685 29.939 31.8555 31.2221C32.2507 31.6694 32.6721 31.6953 33.0771 31.46C33.3809 31.2834 33.9198 31.5118 34.1812 31.4954C34.8116 32.3476 34.5992 33.148 33.8741 33.2986C33.2502 33.3903 33.1065 33.6092 33.1979 34.2331Z" fill="#FFD600"/>
<path d="M12.136 38.0776C12.0543 36.7711 14.1024 36.7995 13.9978 38.485C13.9194 39.7492 14.282 39.6739 15.0561 40.3072C14.9712 40.6273 15.0038 41.15 14.8601 41.3689C14.5727 41.8067 14.05 41.8396 13.6548 41.3923C13.0995 40.9026 12.8219 40.6577 12.0543 40.9684C10.8816 41.5144 10.0095 39.3133 11.3585 39.0709C11.9824 38.9792 12.2274 38.7014 12.136 38.0776Z" fill="#FFD600"/>
<path d="M53.2017 15.9743C53.2343 16.4969 53.512 16.7418 53.8909 16.9278C54.5899 17.1986 54.8839 17.7048 54.7565 18.185C54.5866 18.8253 54.064 18.8582 53.3062 18.4862C52.2871 18.1306 51.7448 19.5289 50.8368 18.4318C50.4415 17.9845 50.5101 17.403 51.3627 16.7722C51.4051 16.6121 51.4901 16.292 51.4737 16.0307C51.3235 15.3056 51.4509 14.8254 52.0748 14.7336C52.5974 14.7007 53.1527 15.1904 53.2017 15.9743Z" fill="#FFD600"/>
<path d="M26.5897 38.4794C26.606 38.7407 26.4623 38.9596 26.2761 39.3386C25.8547 39.3126 25.4921 39.3879 25.2733 39.2443C24.1627 38.2649 25.3778 37.5588 24.0648 36.6971C22.8105 35.9366 23.9015 34.084 25.0708 35.1646C25.6261 35.6543 26.005 35.8404 26.6126 35.4873C27.6252 34.8989 28.6998 36.9824 27.5108 37.2671C26.7432 37.5778 26.4394 37.7543 26.5897 38.4794Z" fill="#FFD600"/>
<path d="M25.5349 30.833C25.3357 29.324 27.6777 29.8586 27.3968 31.2404C27.2857 31.9819 27.4621 32.2856 28.0174 32.7753C28.6739 33.2062 28.5629 33.9477 27.9128 34.4609C27.694 34.3172 27.1714 34.3501 26.8349 34.0041C26.3384 33.6156 26.0608 33.3707 25.5545 33.6649C24.3394 34.3711 23.4085 32.0687 24.7575 31.8263C25.4827 31.6757 25.6264 31.4568 25.5349 30.833Z" fill="#FFD600"/>
<path d="M57.9509 13.8914C57.5459 14.1268 57.4022 14.3457 57.5949 14.9107C58.2155 16.4456 56.1413 16.8386 55.8833 15.2283C55.8506 14.7057 55.573 14.4609 55.0928 14.3337C53.4923 13.9098 54.2044 11.8712 55.5599 12.5729C56.1577 12.9025 56.3602 12.7848 56.8077 12.3894C57.6864 11.3372 59.2673 13.1264 57.9509 13.8914Z" fill="#FFD600"/>
</svg>
