<svg width="52" height="69" viewBox="0 0 52 69" fill="none" xmlns="http://www.w3.org/2000/svg">
<path d="M31.3865 52.1485C32.5548 52.0679 33.312 52.8371 34.0346 53.4444C34.7571 54.0517 33.6981 55.0401 33.0904 55.7626C32.7374 56.0921 32.3788 55.9995 32.0494 55.6467C30.171 53.5937 30.0727 53.53 30.1655 53.1716C30.2873 52.553 29.9579 52.2002 29.2754 52.1769C28.593 52.1535 28.3909 51.6042 27.4371 50.7078C26.68 49.9386 27.5535 49.6671 28.283 48.3259C29.14 46.7882 29.14 46.7882 31.0018 47.575C31.1984 47.7023 31.5278 48.0551 31.6607 48.2806C32.1286 49.281 32.5397 48.4312 33.6153 48.709C33.9739 48.8016 34.367 49.0561 34.8238 49.2123C36.7548 50.323 36.9223 50.7104 35.9671 52.1845C35.776 52.4793 35.585 52.7741 34.9953 52.3924C33.7176 51.5652 33.0006 51.38 32.6656 50.6052C31.8974 48.9918 30.2196 49.8586 30.2998 51.0266C30.2417 51.5469 30.8023 52.1888 31.3865 52.1485Z" fill="#FFD600"/>
<path d="M24.3498 58.0558C25.3271 58.27 25.8877 58.912 26.512 59.4556C28.09 60.8957 28.061 61.1559 26.2558 62.2193C25.8682 62.3868 25.5443 62.4561 25.2785 62.0051C23.724 59.8827 23.6257 59.8191 23.6147 58.975C23.6327 57.8706 22.6665 58.5006 22.3024 57.9859C20.4185 55.5108 20.9791 56.1527 23.0626 54.014C23.3519 53.7828 23.5776 53.6499 24.0344 53.8061C25.9308 54.7549 26.2257 54.9458 26.3641 55.5934C26.4042 56.1773 26.9939 56.5591 27.3469 56.2296C28.1512 55.6343 28.8738 56.2416 30.6082 57.225C31.5911 57.8613 30.5556 58.1674 29.5658 59.4796C28.958 60.2022 28.5303 59.7858 26.5245 57.9292C25.802 57.322 26.0166 56.3449 25.0102 56.3909C24.426 56.4312 24.073 56.7606 24.0148 57.281C23.9221 57.6394 24.1878 58.0905 24.3498 58.0558Z" fill="#FFD600"/>
<path d="M18.6671 63.1653C19.5807 63.4777 19.8174 64.189 20.3143 64.9292C21.4411 66.6351 21.3137 66.8317 19.2774 67.6059C18.8898 67.7734 18.5312 67.6808 18.3638 67.2934C17.5208 64.9342 17.4225 64.8706 17.6081 64.1537C17.8864 63.0783 16.8855 63.5464 16.6834 62.9971C15.511 60.2851 15.9097 60.9617 18.6811 59.2683C19.358 58.8696 19.4909 59.0951 20.9361 60.3097C21.1672 60.5988 21.3984 60.888 21.242 61.3447C21.0855 61.8014 21.5478 62.3797 21.9991 62.1139C22.9363 61.7441 23.4969 62.3861 24.8438 63.537C25.6647 64.2079 24.5309 64.4504 23.1479 65.5081C22.3437 66.1034 22.0142 65.7507 20.6217 63.5937C20.1248 62.8535 20.5996 61.9054 19.6569 61.8531C19.0381 61.7315 18.6215 62.1592 18.3667 62.5523C18.4013 62.7142 18.5051 63.1999 18.6671 63.1653Z" fill="#FFD600"/>
<path d="M34.781 43.4656C35.5617 43.5525 36.377 43.8014 37.0941 43.9866L37.0304 44.0848C39.2854 45.1262 39.32 45.2881 38.5613 46.8894C38.2429 47.3808 38.0228 47.9358 37.3002 47.3285C36.3811 46.594 35.3983 45.9577 34.4791 45.2232C34.1843 45.0323 33.5199 43.9046 33.2596 43.8757C32.4498 44.0489 31.9875 43.4706 31.4324 43.2507C30.9756 43.0945 30.9064 42.7707 31.0628 42.314C31.5958 40.8456 31.6139 39.7412 32.0652 39.4754C32.4182 39.1459 34.2108 39.609 34.3783 39.9964C34.6094 40.2855 34.8406 40.5747 35.1299 40.3435C35.5466 39.9158 35.7432 40.043 38.0909 40.7259C40.2421 41.2816 40.4041 41.2469 39.7201 43.5941C39.6274 43.9526 39.4017 44.0855 39.0086 43.831C36.719 42.6278 35.84 42.4772 35.5742 42.0261C34.9098 40.8985 33.585 41.4358 33.8272 42.5691C33.931 43.0548 34.2605 43.4076 34.781 43.4656Z" fill="#FFD600"/>
<path d="M9.00818 44.9154C8.29112 44.7302 9.24486 45.6266 4.73492 43.5439C3.88498 43.1332 4.58548 42.0522 4.96205 41.0405C5.1185 40.5838 5.44243 40.5145 5.99752 40.7343C8.48365 42.0648 8.61653 42.2904 8.75494 42.938C8.89334 43.5856 9.38475 43.9037 10.0326 43.7651C10.8424 43.5919 10.6805 43.6265 12.8081 44.8644C13.2995 45.1825 13.5306 45.4717 13.2122 45.9631C12.0078 48.2523 13.0543 48.7903 10.5155 48.4022C10.157 48.3096 9.31257 48.321 8.94852 47.8063C8.58448 47.2916 8.32423 47.2626 7.87294 47.5285C7.42165 47.7943 7.1614 47.7653 4.88287 47.4062C2.96286 47.1397 2.92826 46.9778 3.29932 45.5441C3.64129 44.3704 3.57761 44.4687 5.66509 45.1226L5.72878 45.0244C7.85638 46.2622 9.66006 47.5694 9.66155 45.1989C9.9218 45.2279 9.36671 45.008 9.00818 44.9154Z" fill="#FFD600"/>
<path d="M13.7899 37.9668C13.1712 37.8452 12.7434 37.4288 12.0209 36.8215C10.4774 35.5433 10.5702 35.1848 12.3172 34.6418C12.8668 34.4396 13.3236 34.5958 13.815 34.914C14.4393 35.4576 15.0636 36.0013 15.5896 36.4813C16.2485 37.1869 15.4151 38.0424 16.78 38.089C17.3005 38.147 17.5317 38.4361 18.6529 39.72C18.9823 40.0728 18.8896 40.4312 18.4383 40.697C15.7651 42.454 16.5514 42.963 14.3947 41.9853C13.7413 41.7018 13.2845 41.5456 13.0824 40.9962C12.9786 40.5105 12.4235 40.2907 11.9723 40.5565C11.4573 40.9206 11.2261 40.6315 9.72281 39.9372C8.97115 39.5901 7.86096 39.1504 7.89005 38.8902C7.82085 38.5664 7.97729 38.1097 8.20294 37.9768C8.61963 37.5491 9.19828 37.0867 9.74786 36.8845C10.2338 36.7805 12.3032 38.5388 12.5053 39.0881C12.742 39.7993 13.2334 40.1174 14.0141 40.2044C15.2171 40.2857 16.0339 38.164 13.7899 37.9668Z" fill="#FFD600"/>
<path d="M6.04257 51.6448C0.52476 51.9786 1.4163 50.6028 1.88564 49.2326C2.04208 48.7759 2.36601 48.7066 2.82282 48.8628C5.52908 49.6383 5.85301 49.5691 6.05509 50.1184C6.22258 50.5058 6.61571 50.7603 6.96872 50.4308C7.48369 50.0667 7.77853 50.2576 10.3574 51.2297C10.8142 51.3859 11.0454 51.6751 10.727 52.1664C9.93374 53.6059 11.084 54.6296 8.06489 54.7675C7.90292 54.8021 7.74096 54.8368 7.64268 54.7732C7.28415 54.6806 6.92562 54.5879 6.63077 54.3971C6.04108 54.0153 5.55519 54.1192 5.1385 54.547C4.53076 55.2695 3.52438 55.3155 2.71456 55.4888C1.1932 55.8988 1.09492 55.8352 1.14204 54.4707C1.15457 52.9443 1.15457 52.9443 2.87801 53.0836C3.82071 53.1359 4.99458 53.4773 5.80992 53.7262C6.52697 53.9114 7.40047 53.6399 7.45864 53.1195C7.54588 52.339 6.88699 51.6334 6.04257 51.6448Z" fill="#FFD600"/>
<path d="M7.64639 67.4698C7.39166 67.8629 7.06773 67.9322 6.61092 67.776C3.59877 65.9654 2.98 65.8438 3.97535 64.9537C6.83402 62.4799 6.99599 62.4452 7.90409 62.3356C8.65023 62.2607 8.99772 61.5091 8.53539 60.9308C8.40251 60.7053 8.10766 60.5144 7.8765 60.2253C9.58338 59.0983 9.4851 59.0347 10.7628 59.8618C11.1559 60.1163 11.6127 60.2726 11.7456 60.4981C11.8148 60.8219 11.5601 61.215 11.4036 61.6717C11.3109 62.0301 11.3164 62.4522 10.5993 62.267C9.62201 62.0528 9.3036 62.5442 9.31464 63.3883C9.58592 64.2614 9.36028 64.3944 7.64639 67.4698Z" fill="#FFD600"/>
<path d="M12.3921 62.7298C12.1956 62.6026 11.837 62.51 11.7387 62.4463C11.7332 62.0243 11.7277 61.6022 11.8842 61.1455C12.2261 59.9719 12.4573 60.261 14.9269 60.3253C14.9033 61.0075 14.978 61.7534 14.9545 62.4356C14.9309 63.1179 13.8608 63.2621 14.7454 63.8348C15.0402 64.0257 15.0402 64.0257 14.9279 67.859C14.9334 68.281 14.5804 68.6105 14.1582 68.6162C11.5613 68.7484 10.2656 69.0256 10.6075 67.852C12.0446 63.4814 11.7027 64.655 12.4087 63.996C12.86 63.7302 13.2822 63.7245 12.3921 62.7298Z" fill="#FFD600"/>
<path d="M2.02796 62.5767C1.57667 62.8425 1.28183 62.6516 1.11434 62.2642C-0.196436 58.9046 -0.0580329 59.5522 2.94456 58.1481C3.39585 57.8822 3.81806 57.8766 4.43684 57.9982C5.54702 58.4379 5.53047 57.1717 5.91808 57.0041C6.6933 56.669 7.40483 56.4321 8.11637 56.1953C8.50398 56.0277 8.70055 56.1549 8.80435 56.6406C9.04103 57.3519 9.54348 58.5141 9.31783 58.6471C7.48358 59.9706 7.80199 59.4792 6.79009 59.1031C6.00383 58.5941 5.39058 58.8946 5.40161 59.7387C5.37805 60.421 5.44173 60.3227 2.02796 62.5767Z" fill="#FFD600"/>
<path d="M42.2482 5.89161C41.9478 5.27865 41.8841 5.37693 42.8754 1.6942C43.0319 1.23748 43.3212 1.00629 43.8763 1.22615C47.2124 2.96738 48.3862 3.30883 47.5238 4.42448C45.5732 6.7887 45.4804 7.14715 44.4741 7.19313C43.5659 7.30273 43.2129 7.63219 43.6462 8.47067C43.7791 8.6962 43.8137 8.8581 44.0102 8.98535C42.0195 10.7656 43.1478 10.101 40.7018 9.35448C40.8472 8.05362 40.807 7.46965 41.4549 7.33106C42.5596 7.34871 42.7797 6.79371 42.2482 5.89161Z" fill="#FFD600"/>
<path d="M19.7385 33.3083C18.692 32.7703 18.2588 31.9318 17.7618 31.1916C17.132 30.2259 19.8162 29.3131 20.8266 32.0597C20.9941 32.4472 20.6411 32.7766 21.2363 33.5805C21.3692 33.806 21.7277 33.8986 21.8606 34.1241C22.0281 34.5116 22.1956 34.899 22.363 35.2864C22.6634 35.8994 22.5707 36.2578 21.8245 36.3328C20.6562 36.4134 20.4762 37.5524 18.9327 36.2742C18.4067 35.7941 17.7533 35.5106 17.6786 34.7648C17.6385 34.1808 16.7304 34.2904 16.1116 34.1688C14.146 32.8963 13.3943 32.5492 14.2332 32.1158C15.4597 31.5148 15.7781 31.0234 16.3388 31.6654C16.934 32.4692 17.8185 33.0418 18.1244 34.0769C18.2573 34.3024 18.847 34.6841 19.1072 34.7131C19.5294 34.7075 19.8824 34.378 20.0098 34.1814C20.2991 33.9503 20.0334 33.4992 19.7385 33.3083Z" fill="#FFD600"/>
<path d="M50.4236 10.0684C50.8112 9.90087 51.2043 10.1554 51.2099 10.5774C51.3287 14.6999 51.3633 14.8618 51.0103 15.1913C50.4317 15.6537 47.9621 15.5894 47.2741 15.144C47.0775 15.0167 46.7536 15.086 46.6899 15.1843C45.7237 15.8142 44.6481 15.5364 43.6417 15.5824C43.4867 13.6686 44.9389 12.9347 46.362 12.461C46.8188 12.6172 47.1482 12.97 47.3102 12.9353C47.6341 12.8661 47.8252 12.5712 47.8543 12.3111C48.0633 10.9119 49.3591 10.6348 50.4236 10.0684Z" fill="#FFD600"/>
<path d="M36.5338 6.09832C36.603 6.42212 35.9316 7.24295 36.0645 7.46848C36.1973 7.694 36.6541 7.85024 37.111 8.00647C37.5497 9.26702 37.9248 10.6258 36.1487 11.429C35.7155 10.5906 34.6344 9.89065 34.7507 8.84996C34.7161 8.68806 34.4213 8.49718 34.323 8.43355C33.0744 7.34623 34.4614 9.08116 32.2425 5.83118C31.8438 5.1546 31.902 4.63425 32.4807 4.17187C36.0163 1.29929 35.8543 1.33393 36.5338 6.09832Z" fill="#FFD600"/>
<path d="M40.3158 7.15135C40.6452 7.50413 40.5289 8.54482 40.4362 8.90326C40.378 9.42361 40.0195 9.331 38.3998 9.67746C38.3542 8.67142 38.0829 7.79829 38.3667 7.14503C38.5868 6.59004 39.0381 6.3242 38.0899 5.84983C37.8933 5.72258 37.784 4.81481 37.5197 1.99322C37.4395 0.825271 38.4805 0.941189 40.7189 0.716314C41.3031 0.676001 41.5342 0.965156 41.4761 1.4855C41.087 4.0236 41.1617 4.76948 40.1954 5.39943C39.6168 5.86181 39.5932 6.54406 40.3158 7.15135Z" fill="#FFD600"/>
<path d="M32.0719 10.1849C31.1292 10.1326 30.6668 9.55426 30.0425 9.0106C29.2217 8.33968 29.7367 7.97558 30.2752 6.92922C31.2304 5.45512 31.0559 7.01616 34.6217 11.4171C35.8758 12.9265 35.8758 12.9265 34.9206 14.4006C34.6022 14.8919 34.3765 15.0249 33.8851 14.7067C27.566 10.8948 27.7044 11.5424 28.816 9.61157C28.816 9.61157 28.8797 9.5133 29.1054 9.38038C29.7643 10.0859 30.5851 10.7569 31.1803 11.5607C31.4461 12.0117 31.8101 12.5264 32.3597 12.3242C33.5862 11.7232 33.2402 10.1042 32.0719 10.1849Z" fill="#FFD600"/>
<path d="M41.6079 21.5197C48.0724 24.0308 48.0032 23.707 46.8916 25.6378C46.8916 25.6378 46.8279 25.736 46.6659 25.7707C44.9896 24.267 43.2095 22.2775 43.0114 24.5208C42.9477 24.6191 43.4392 24.9372 43.6994 24.9662C44.966 24.9492 45.4976 25.8513 46.0928 26.6552C46.3239 26.9443 45.8782 27.6322 45.7217 28.0889C45.5653 28.5457 45.305 28.5167 44.8773 28.1003C39.1895 22.8835 39.2988 23.7913 40.2249 22.5774C40.5433 22.086 40.4977 21.08 41.6079 21.5197Z" fill="#FFD600"/>
<path d="M46.8433 19.4687C47.4912 19.3301 49.0291 20.1862 48.9709 20.7066C48.8491 21.3252 48.6289 21.8802 48.4725 22.3369C40.3662 18.484 42.0716 19.7276 42.8193 17.2821C42.9411 16.6635 43.3924 16.3976 44.0112 16.5192C50.3263 17.5385 50.1934 17.313 49.6022 19.3018C49.6022 19.3018 49.5385 19.4001 49.3766 19.4347C48.7232 19.1512 47.9079 18.9024 47.2836 18.3587C46.8904 18.1042 46.561 17.7514 46.1443 18.1792C45.6293 18.5433 45.5822 19.9078 46.8433 19.4687Z" fill="#FFD600"/>
<path d="M29.7145 16.1912C28.9684 16.2661 27.1702 15.381 27.0318 14.7334C26.8934 14.0858 27.1772 13.4326 27.4264 12.6174C28.7387 13.6065 28.7733 13.7684 31.8601 16.3248C32.3862 16.8048 33.2015 17.0536 33.4036 17.603C33.6057 18.1523 33.1599 18.8402 33.1017 19.3605C33.0436 19.8809 32.7542 20.1121 32.1991 19.8922C25.5726 17.4158 26.0696 18.156 26.5569 15.6815C28.6209 17.0177 29.8349 17.9431 30.2515 17.5154C30.5409 17.2842 30.5354 16.8621 30.5644 16.6019C30.4316 16.3764 29.9747 16.2202 29.7145 16.1912Z" fill="#FFD600"/>
<path d="M43.9272 12.5583C43.7251 12.009 43.6559 11.6852 43.523 11.4597C43.3902 11.2342 43.0607 10.8814 43.0898 10.6212C43.0497 10.0372 44.5018 9.30334 45.0569 9.5232C45.8723 9.77204 46.4509 9.30965 46.2488 8.76033C46.0122 8.0491 46.2669 7.65602 46.7473 7.13C49.12 4.76012 48.918 4.21079 50.2468 6.46605C50.9458 7.75559 50.9167 8.01576 49.8231 8.84226C48.2782 9.93459 47.9888 10.1658 47.2081 10.0788C47.1098 10.0152 46.7568 10.3447 46.6294 10.5412C46.1546 11.4893 44.8589 11.7665 43.9272 12.5583Z" fill="#FFD600"/>
<path d="M14.4593 49.421C13.4018 48.0388 15.4035 47.1027 16.1717 48.716C16.3738 49.2654 16.6687 49.4562 17.2528 49.4159C18.9417 49.3933 18.9056 51.6019 17.2112 51.2025C16.5925 51.0809 16.3031 51.3121 15.8864 51.7398C15.6954 52.0347 15.1112 52.075 14.8856 52.2079C13.9374 51.7335 13.799 51.0859 14.2793 50.5599C14.7597 50.0339 14.7888 49.7737 14.4593 49.421Z" fill="#FFD600"/>
<path d="M15.6593 54.2432C14.6018 52.861 16.6035 51.9249 17.3718 53.5383C17.5738 54.0876 17.8687 54.2785 18.4529 54.2382C20.1417 54.2155 20.1056 56.4241 18.4112 56.0247C17.7925 55.9031 17.5031 56.1343 17.0865 56.5621C16.8954 56.8569 16.3112 56.8972 16.0856 57.0301C15.1374 56.5558 14.999 55.9082 15.4793 55.3822C15.896 54.9544 16.0871 54.6596 15.6593 54.2432Z" fill="#FFD600"/>
<path d="M29.5043 37.399C30.3652 38.6539 28.0687 39.3991 27.6936 38.0403C27.4569 37.3291 27.162 37.1382 26.3813 37.0513C25.6006 36.9643 25.3002 36.3514 25.5494 35.5362C25.8733 35.4669 26.2609 35.2993 26.6195 35.392C27.2382 35.5135 27.6605 35.5079 27.9789 35.0165C28.7431 33.8372 30.6159 35.4682 29.5223 36.2947C29.233 36.5259 29.0419 36.8207 29.5043 37.399Z" fill="#FFD600"/>
<path d="M27.9565 43.2323C28.8521 44.6491 26.7175 45.3597 26.2095 43.7754C26.0074 43.226 25.7126 43.0351 25.1921 42.9772C23.5669 42.9016 23.6667 40.5947 25.3957 41.156C25.9507 41.3758 26.3384 41.2083 26.5931 40.8152C26.7841 40.5204 27.3683 40.48 27.5939 40.3471C28.5422 40.8215 28.7152 41.631 28.1365 42.0934C27.6215 42.4575 27.5925 42.7177 27.9565 43.2323Z" fill="#FFD600"/>
<path d="M10.9097 56.1904C10.2453 55.0628 12.0851 54.1613 12.755 55.711C13.2574 56.8733 13.5468 56.6421 14.5241 56.8563C14.5933 57.1801 14.859 57.6312 14.8299 57.8913C14.7718 58.4117 14.3205 58.6775 13.7654 58.4576C13.0483 58.2724 12.6898 58.1798 12.1458 58.8041C11.347 59.8215 9.57238 58.2541 10.666 57.4276C11.181 57.0635 11.2737 56.7051 10.9097 56.1904Z" fill="#FFD600"/>
<path d="M37.5327 17.905C37.7985 18.3561 38.157 18.4487 38.5792 18.443C39.3254 18.368 39.8168 18.6862 39.9206 19.1719C40.059 19.8195 39.6077 20.0853 38.7633 20.0966C37.6932 20.2409 37.8426 21.7326 36.5359 21.1657C35.9808 20.9458 35.7787 20.3965 36.2536 19.4484C36.219 19.2865 36.1498 18.9627 36.0169 18.7372C35.5546 18.1589 35.4508 17.6732 35.9657 17.309C36.417 17.0432 37.1341 17.2284 37.5327 17.905Z" fill="#FFD600"/>
<path d="M23.9845 50.0077C24.1174 50.2332 24.0883 50.4934 24.0938 50.9155C23.7062 51.0831 23.4169 51.3142 23.1567 51.2853C21.7225 50.9148 22.4867 49.7356 20.9253 49.5617C19.4621 49.4514 19.5964 47.3064 21.1288 47.7405C21.8459 47.9257 22.2681 47.92 22.6502 47.3304C23.287 46.3476 25.189 47.7185 24.2573 48.5103C23.7132 49.1346 23.5222 49.4294 23.9845 50.0077Z" fill="#FFD600"/>
<path d="M19.5815 43.6694C18.7205 42.4145 21.0517 41.8312 21.4267 43.19C21.6634 43.9012 21.9583 44.0921 22.6753 44.2773C23.4561 44.3643 23.6928 45.0755 23.3453 45.827C23.085 45.7981 22.6337 46.0639 22.1769 45.9077C21.5581 45.7861 21.1996 45.6935 20.8812 46.1848C20.117 47.3641 18.2441 45.7331 19.3378 44.9066C19.9164 44.4443 19.9455 44.1841 19.5815 43.6694Z" fill="#FFD600"/>
<path d="M40.826 13.8992C40.5713 14.2923 40.5422 14.5524 40.9699 14.9688C42.2185 16.0562 40.5462 17.345 39.587 16.0265C39.3212 15.5755 38.9627 15.4829 38.4768 15.5868C36.8571 15.9333 36.5693 13.7939 38.0962 13.8059C38.7786 13.8292 38.906 13.6327 39.1261 13.0777C39.4335 11.7422 41.6539 12.6216 40.826 13.8992Z" fill="#FFD600"/>
</svg>
