<svg width="64" height="59" viewBox="0 0 64 59" fill="none" xmlns="http://www.w3.org/2000/svg">
<path d="M13.6021 26.5284C13.4954 25.3623 12.6153 24.7376 11.9005 24.1212C11.1858 23.5049 10.3788 24.708 9.76229 25.4232C9.49329 25.8242 9.64188 26.1633 10.0427 26.4322C12.3691 27.9588 12.4476 28.0457 12.7867 27.8969C13.378 27.6779 13.7789 27.9468 13.9107 28.6168C14.0425 29.2867 14.6171 29.3985 15.6542 30.1969C16.5343 30.8216 16.6631 29.916 17.8709 28.9818C19.2524 27.8906 19.2524 27.8906 18.1788 26.1783C18.0218 26.0046 17.621 25.7357 17.3771 25.6405C16.3149 25.3383 17.0883 24.7968 16.6426 23.7794C16.494 23.4403 16.18 23.0929 15.953 22.6669C14.5486 20.9379 14.1394 20.8344 12.8363 22.0126C12.5757 22.2482 12.3151 22.4838 12.786 23.005C13.8063 24.1342 14.1035 24.8125 14.9219 25.0195C16.6372 25.5203 16.0489 27.3148 14.883 27.422C14.3786 27.5624 13.6554 27.1115 13.6021 26.5284Z" fill="#FFD600"/>
<path d="M8.89171 34.417C8.52443 33.4864 7.80128 33.0355 7.165 32.506C5.49162 31.1781 5.2394 31.2483 4.47735 33.1999C4.37371 33.6092 4.35695 33.94 4.84464 34.1304C7.18783 35.3262 7.26632 35.413 8.10149 35.2892C9.18889 35.0952 8.721 36.1495 9.28718 36.4268C12.0312 37.8915 11.308 37.4405 13.0874 35.0426C13.2695 34.7202 13.3648 34.4762 13.1377 34.0502C11.8987 32.3296 11.6632 32.069 11.0018 32.0357C10.4188 32.0893 9.94791 31.5681 10.2169 31.1671C10.6764 30.2782 9.96165 29.6618 8.71424 28.1066C7.92937 27.238 7.79219 28.309 6.65448 29.4954C6.038 30.2106 6.51731 30.5664 8.66999 32.2501C9.38476 32.8664 10.3152 32.4987 10.4302 33.4994C10.4836 34.0825 10.2146 34.4835 9.71012 34.624C9.37102 34.7727 8.88333 34.5824 8.89171 34.417Z" fill="#FFD600"/>
<path d="M4.75323 40.8417C4.29908 39.9897 3.55916 39.8696 2.74913 39.4972C0.885245 38.6572 0.711503 38.8143 0.271793 40.9479C0.168153 41.3572 0.316743 41.6964 0.725946 41.7999C3.18955 42.2555 3.26804 42.3423 3.94624 42.0448C4.96354 41.5985 4.661 42.6612 5.23556 42.773C8.09999 43.4975 7.36845 43.212 8.59838 40.2061C8.88415 39.4742 8.64031 39.379 7.21077 38.1463C6.88844 37.9643 6.56611 37.7822 6.14014 38.0095C5.71417 38.2368 5.0695 37.8728 5.26001 37.3849C5.47567 36.4008 4.75252 35.9498 3.40148 34.804C2.60822 34.1007 2.54954 35.2586 1.72578 36.7925C1.26627 37.6814 1.66708 37.9503 4.01866 38.9807C4.82868 39.3531 5.68901 38.7331 5.89094 39.6553C6.10963 40.2467 5.75376 40.7262 5.40628 41.0404C5.24092 41.0321 4.74484 41.0071 4.75323 40.8417Z" fill="#FFD600"/>
<path d="M21.6335 21.7921C21.4232 21.0353 21.0475 20.2702 20.7503 19.592L20.6635 19.6705C19.2759 17.6108 19.1105 17.6024 17.6505 18.6069C17.2161 18.9996 16.7033 19.3054 17.418 19.9218C18.2898 20.7118 19.0746 21.5805 19.9464 22.3706C20.1818 22.6311 21.4011 23.1071 21.4712 23.3593C21.4292 24.1863 22.0739 24.5504 22.3795 25.0633C22.6065 25.4893 22.9373 25.5059 23.3632 25.2786C24.728 24.5181 25.8154 24.3241 26.0059 23.8362C26.2749 23.4352 25.532 21.7396 25.1228 21.6361C24.8004 21.454 24.4781 21.272 24.6602 20.9495C25.0161 20.4699 24.8591 20.2962 23.8106 18.0877C22.9191 16.0529 22.9275 15.8875 20.7191 16.9372C20.38 17.0859 20.2848 17.3299 20.5987 17.6773C22.1517 19.7454 22.4405 20.589 22.9282 20.7794C24.1474 21.2553 23.8281 22.6488 22.6706 22.5905C22.1745 22.5656 21.7737 22.2967 21.6335 21.7921Z" fill="#FFD600"/>
<path d="M24.311 47.464C24.6082 48.1423 23.5711 47.3439 26.3463 51.4633C26.8874 52.2368 27.8429 51.3728 28.7818 50.8397C29.2077 50.6124 29.2245 50.2815 28.9189 49.7687C27.209 47.5269 26.9651 47.4317 26.3037 47.3984C25.6423 47.3652 25.2498 46.9309 25.2834 46.2692C25.3253 45.4422 25.3169 45.6076 23.7556 43.705C23.3631 43.2707 23.0408 43.0886 22.6064 43.4813C20.5383 45.0355 19.8403 44.0884 20.6282 46.5325C20.7768 46.8716 20.9002 47.707 21.4664 47.9842C22.0326 48.2614 22.1027 48.5137 21.9122 49.0016C21.7217 49.4895 21.7918 49.7417 22.5096 51.9336C23.0788 53.7863 23.2441 53.7946 24.6005 53.1996C25.7047 52.6747 25.6178 52.7533 24.6394 50.7971L24.7263 50.7185C23.1649 48.8159 21.5868 47.244 23.927 46.8643C23.8569 46.612 24.1624 47.1249 24.311 47.464Z" fill="#FFD600"/>
<path d="M30.409 41.6351C30.6277 42.2265 31.107 42.5823 31.8217 43.1986C33.3298 44.5182 33.6689 44.3694 33.9265 42.5583C34.0385 41.9835 33.8114 41.5576 33.419 41.1232C32.7827 40.5937 32.1464 40.0643 31.5886 39.6216C30.787 39.0838 30.0752 40.043 29.8116 38.7031C29.6714 38.1985 29.3491 38.0165 27.9028 37.1146C27.5019 36.8457 27.1628 36.9945 26.9723 37.4824C25.6639 40.4014 25.036 39.7065 26.3451 41.6794C26.7292 42.2791 26.9563 42.7051 27.5308 42.8169C28.0269 42.8418 28.3325 43.3547 28.142 43.8426C27.8646 44.409 28.1869 44.5911 29.112 45.9642C29.5745 46.6508 30.1856 47.6765 30.4379 47.6063C30.7686 47.6229 31.1946 47.3956 31.2898 47.1517C31.6457 46.6721 32.0099 46.0271 32.122 45.4524C32.1471 44.9562 30.0813 43.194 29.5067 43.0821C28.7668 42.962 28.3744 42.5277 28.1641 41.7709C27.892 40.5964 29.8565 39.4516 30.409 41.6351Z" fill="#FFD600"/>
<path d="M18.14 51.4652C18.6901 56.9651 19.9063 55.8655 21.1842 55.1836C21.6102 54.9563 21.627 54.6255 21.3999 54.1995C20.2028 51.6519 20.2195 51.3211 19.645 51.2093C19.2358 51.1057 18.9218 50.7583 19.1908 50.3573C19.4682 49.7908 19.2328 49.5302 17.8619 47.1397C17.6348 46.7137 17.3125 46.5317 16.8781 46.9244C15.5835 47.9371 14.3894 46.965 14.7346 49.9672C14.7262 50.1326 14.7178 50.298 14.7963 50.3849C14.9449 50.724 15.0934 51.0631 15.3289 51.3237C15.7998 51.8449 15.7747 52.3411 15.4188 52.8207C14.8023 53.5359 14.9174 54.5366 14.8755 55.3637C14.7131 56.9308 14.7916 57.0177 16.1313 56.7535C17.6362 56.4975 17.6362 56.4975 17.224 54.8185C17.0221 53.8963 16.4978 52.7921 16.1222 52.027C15.825 51.3487 15.9538 50.4431 16.4582 50.3027C17.2149 50.092 18.0166 50.6298 18.14 51.4652Z" fill="#FFD600"/>
<path d="M2.26043 52.4072C1.91295 52.7214 1.89618 53.0522 2.12326 53.4782C4.391 56.1626 4.60969 56.754 5.32981 55.6294C7.31643 52.4129 7.32482 52.2475 7.28825 51.3336C7.2433 50.5851 7.92988 50.1222 8.57455 50.4863C8.81839 50.5814 9.05385 50.842 9.37619 51.0241C10.2167 49.1594 10.2952 49.2462 9.27487 48.117C8.96093 47.7696 8.73385 47.3436 8.49 47.2484C8.15929 47.2317 7.8118 47.5459 7.38583 47.7732C7.04673 47.922 6.62915 47.9839 6.92632 48.6622C7.29361 49.5927 6.85925 49.9854 6.02407 50.1092C5.1188 49.9807 5.02354 50.2247 2.26043 52.4072Z" fill="#FFD600"/>
<path d="M6.18356 46.9663C6.34054 47.14 6.48912 47.4792 6.56761 47.566C6.9852 47.5041 7.40279 47.4422 7.82876 47.2149C8.93293 46.6901 8.6106 46.508 8.15341 44.0806C7.4836 44.2127 6.7353 44.2579 6.06548 44.3901C5.39566 44.5222 5.42384 45.6015 4.71746 44.8197C4.482 44.5591 4.482 44.5591 0.715331 45.2816C0.297744 45.3435 0.0287474 45.7446 0.0904659 46.1622C0.373906 48.7468 0.306831 50.0701 1.411 49.5452C5.49698 47.4292 4.3928 47.9541 4.9308 47.152C5.12131 46.6641 5.05959 46.2465 6.18356 46.9663Z" fill="#FFD600"/>
<path d="M7.98709 57.1724C7.79658 57.6603 8.03204 57.9209 8.44125 58.0244C11.9671 58.7822 11.3057 58.7489 12.2133 55.561C12.4038 55.0731 12.3421 54.6554 12.1234 54.064C11.5122 53.0383 12.765 52.8526 12.8686 52.4432C13.0759 51.6245 13.1963 50.8844 13.3167 50.1442C13.4204 49.7349 13.2634 49.5611 12.7673 49.5362C12.0274 49.416 10.7998 49.1055 10.7045 49.3495C9.69028 51.3713 10.1246 50.9786 10.6573 51.9174C11.2852 52.6123 11.0863 53.2656 10.2511 53.3894C9.58128 53.5215 9.66815 53.443 7.98709 57.1724Z" fill="#FFD600"/>
<path d="M57.5393 8.42559C58.1924 8.62428 58.1055 8.70283 61.5834 7.13664C62.0094 6.90934 62.1915 6.58684 61.8859 6.07399C59.635 3.05877 59.1107 1.95452 58.1467 2.98389C56.1236 5.28657 55.7845 5.43534 55.8995 6.43608C55.9361 7.34997 55.6671 7.751 54.7702 7.45713C54.5263 7.36195 54.361 7.35363 54.204 7.1799C52.7638 9.429 53.24 8.20927 54.367 10.5046C55.6282 10.1535 56.2111 10.0999 56.2447 9.43832C56.0511 8.35071 56.564 8.04486 57.5393 8.42559Z" fill="#FFD600"/>
<path d="M34.0598 35.0199C34.7578 35.9671 35.6547 36.2609 36.4647 36.6333C37.5186 37.1009 37.9919 34.3057 35.1191 33.7466C34.7099 33.6431 34.4409 34.0441 33.5524 33.5848C33.3085 33.4896 33.1599 33.1505 32.9161 33.0553C32.5069 32.9518 32.0977 32.8483 31.6885 32.7448C31.0354 32.5461 30.6963 32.6949 30.7413 33.4434C30.8479 34.6095 29.7521 34.969 31.2602 36.2885C31.818 36.7312 32.202 37.3309 32.9503 37.2856C33.5333 37.232 33.5698 38.1459 33.7885 38.7373C35.3583 40.4746 35.8208 41.1611 36.1149 40.2639C36.5127 38.9573 36.9471 38.5646 36.2239 38.1136C35.3354 37.6544 34.629 36.8726 33.5584 36.7358C33.3146 36.6407 32.8436 36.1195 32.7735 35.8672C32.7118 35.4495 32.9808 35.0485 33.1546 34.8914C33.3367 34.5689 33.8244 34.7593 34.0598 35.0199Z" fill="#FFD600"/>
<path d="M52.1122 1.02204C52.2159 0.612686 51.9019 0.265238 51.4843 0.327139C47.3953 0.867616 47.23 0.859297 46.961 1.26033C46.5967 1.90531 47.0539 4.33279 47.6033 4.94083C47.7603 5.11455 47.7435 5.44536 47.6566 5.5239C47.1887 6.57823 47.6345 7.59562 47.7496 8.59636C49.6638 8.44394 50.1568 6.8934 50.3976 5.41308C50.1705 4.98709 49.7697 4.71818 49.7781 4.55277C49.7949 4.22196 50.0555 3.98634 50.3077 3.91612C51.6557 3.48646 51.7228 2.16323 52.1122 1.02204Z" fill="#FFD600"/>
<path d="M58.2463 14.0993C57.9156 14.0826 57.2122 14.8764 56.9684 14.7812C56.7245 14.686 56.4975 14.26 56.2704 13.834C54.9559 13.6021 53.5546 13.4486 53.0447 15.33C53.9416 15.6239 54.805 16.5794 55.8139 16.2985C55.9793 16.3068 56.2147 16.5674 56.2932 16.6542C57.5658 17.7132 55.6318 16.6209 59.1942 18.2926C59.9257 18.5782 60.4302 18.4377 60.7944 17.7928C63.0668 13.8444 63.0585 14.0098 58.2463 14.0993Z" fill="#FFD600"/>
<path d="M56.6037 10.5341C56.2029 10.2652 55.194 10.546 54.8549 10.6948C54.3504 10.8353 54.499 11.1744 54.4152 12.8284C55.4157 12.7129 56.321 12.8414 56.9207 12.457C57.4335 12.1512 57.624 11.6633 58.2435 12.5236C58.4005 12.6973 59.3142 12.6604 62.142 12.471C63.3079 12.3638 63.0275 11.3548 62.8927 9.10932C62.8393 8.52625 62.517 8.3442 62.0125 8.48465C59.5687 9.27373 58.8204 9.31899 58.3525 10.3733C57.9883 11.0183 57.3185 11.1504 56.6037 10.5341Z" fill="#FFD600"/>
<path d="M54.9231 19.1558C55.125 20.078 55.7697 20.4421 56.4059 20.9715C57.1992 21.6748 57.4766 21.1083 58.4238 20.4098C59.7268 19.2316 58.2135 19.653 53.3 16.8354C51.6098 15.8384 51.6098 15.8384 50.3068 17.0165C49.8724 17.4092 49.7772 17.6531 50.1696 18.0875C54.9405 23.7169 54.2791 23.6836 56.0081 22.2781C56.0081 22.2781 56.095 22.1996 56.1903 21.9557C55.3886 21.4178 54.5954 20.7146 53.7069 20.2554C53.2192 20.065 52.653 19.7878 52.765 19.213C53.1628 17.9064 54.8164 17.9896 54.9231 19.1558Z" fill="#FFD600"/>
<path d="M42.212 11.5514C38.7022 5.57084 39.0329 5.58749 37.3039 6.99293C37.3039 6.99293 37.217 7.07147 37.2086 7.23687C38.9605 8.65163 41.2084 10.0913 39.0253 10.6448C38.9384 10.7233 38.5459 10.289 38.4758 10.0368C38.2907 8.78375 37.3153 8.40302 36.4268 7.94375C36.1045 7.76171 35.4964 8.3115 35.0704 8.53881C34.6444 8.76611 34.7145 9.01838 35.1938 9.37415C41.2511 14.1562 40.3374 14.1932 41.3882 13.0853C41.8226 12.6926 42.8231 12.5771 42.212 11.5514Z" fill="#FFD600"/>
<path d="M43.4022 6.05616C43.4358 5.39454 42.3453 4.01306 41.8409 4.15351C41.2496 4.37249 40.7367 4.67834 40.3107 4.90565C45.407 12.2926 43.9074 10.8076 46.2026 9.67941C46.794 9.46043 46.9845 8.97253 46.7658 8.38114C44.7526 2.3101 44.9964 2.40528 43.1272 3.30619C43.1272 3.30619 43.0403 3.38473 43.0319 3.55013C43.416 4.14985 43.7916 4.91497 44.4279 5.44446C44.7419 5.79191 45.1427 6.06082 44.7868 6.54039C44.5094 7.10683 43.1698 7.37107 43.4022 6.05616Z" fill="#FFD600"/>
<path d="M49.3689 22.4412C49.4139 23.1896 50.5744 24.8234 51.2358 24.8567C51.8973 24.8899 52.497 24.5056 53.2621 24.1295C52.0764 22.992 51.911 22.9836 48.895 20.3445C48.3372 19.9019 47.9615 19.1367 47.387 19.0249C46.8124 18.9131 46.2043 19.4629 45.6998 19.6033C45.1954 19.7438 45.0132 20.0663 45.3188 20.5791C48.8202 26.725 48.0102 26.3526 50.3755 25.4767C48.7273 23.6526 47.6201 22.6019 47.976 22.1223C48.1581 21.7998 48.5757 21.7379 48.8279 21.6677C49.0717 21.7629 49.2988 22.1889 49.3689 22.4412Z" fill="#FFD600"/>
<path d="M50.6897 7.83199C51.2642 7.94381 51.595 7.96045 51.8388 8.05563C52.0826 8.15082 52.4835 8.41972 52.7357 8.3495C53.3186 8.29592 53.8117 6.74538 53.5061 6.23253C53.1305 5.46741 53.4947 4.82243 54.0693 4.93425C54.8092 5.05439 55.1567 4.74022 55.5994 4.18211C57.5609 1.46176 58.1354 1.57358 55.697 0.621759C54.3124 0.137526 54.0602 0.207744 53.4185 1.41916C52.5864 3.11846 52.4043 3.44095 52.6146 4.19775C52.6931 4.28461 52.4241 4.68564 52.2503 4.84273C51.39 5.46274 51.3229 6.78598 50.6897 7.83199Z" fill="#FFD600"/>
<path d="M18.9937 42.8021C20.5268 43.6254 21.1319 41.5001 19.4166 40.9993C18.8421 40.8874 18.6066 40.6268 18.5533 40.0438C18.3064 38.3731 16.1316 38.7611 16.796 40.3699C17.0147 40.9613 16.8326 41.2838 16.4767 41.7634C16.2161 41.999 16.2695 42.5821 16.1742 42.826C16.7937 43.6863 17.4551 43.7196 17.8979 43.1615C18.3406 42.6034 18.5929 42.5332 18.9937 42.8021Z" fill="#FFD600"/>
<path d="M14.0414 42.387C15.5746 43.2104 16.1797 41.0851 14.4644 40.5842C13.8898 40.4724 13.6543 40.2118 13.601 39.6287C13.3541 37.958 11.1793 38.3461 11.8438 39.9549C12.0625 40.5463 11.8804 40.8687 11.5245 41.3483C11.2639 41.5839 11.3172 42.167 11.222 42.411C11.8415 43.2713 12.5029 43.3045 12.9456 42.7464C13.3015 42.2669 13.5621 42.0312 14.0414 42.387Z" fill="#FFD600"/>
<path d="M28.4642 26.0328C27.088 25.3832 26.7184 27.769 28.1197 27.9225C28.8597 28.0426 29.0951 28.3032 29.3054 29.06C29.5157 29.8168 30.1688 30.0155 30.9338 29.6394C30.9506 29.3086 31.0543 28.8992 30.9057 28.5601C30.687 27.9687 30.6253 27.551 31.0596 27.1583C32.1021 26.2158 30.1932 24.6274 29.5516 25.8388C29.3695 26.1613 29.1089 26.3969 28.4642 26.0328Z" fill="#FFD600"/>
<path d="M22.9518 28.4914C21.4102 27.8334 21.049 30.0539 22.6942 30.3025C23.2688 30.4143 23.5042 30.6749 23.6444 31.1795C23.9782 32.7716 26.2398 32.305 25.41 30.6879C25.1045 30.1751 25.2081 29.7657 25.5556 29.4515C25.8162 29.2159 25.7629 28.6328 25.8581 28.3889C25.2386 27.5286 24.4118 27.487 24.0476 28.132C23.7702 28.6984 23.518 28.7686 22.9518 28.4914Z" fill="#FFD600"/>
<path d="M12.8762 47.3861C14.0954 47.862 14.6921 45.9022 13.0553 45.4881C11.8277 45.1776 12.0098 44.8551 11.6425 43.9246C11.3118 43.908 10.8241 43.7176 10.5719 43.7878C10.0674 43.9283 9.87692 44.4162 10.1825 44.929C10.4797 45.6073 10.6283 45.9464 10.0986 46.5831C9.22155 47.5339 11.0519 49.0355 11.6935 47.8241C11.9709 47.2577 12.31 47.1089 12.8762 47.3861Z" fill="#FFD600"/>
<path d="M46.4304 14.9972C45.9428 14.8068 45.7942 14.4677 45.7324 14.05C45.6875 13.3015 45.2951 12.8672 44.799 12.8423C44.1376 12.809 43.947 13.2969 44.0705 14.1322C44.0987 15.2115 42.6021 15.302 43.3702 16.5015C43.6757 17.0143 44.2503 17.1262 45.1106 16.5061C45.276 16.5145 45.6067 16.5311 45.8505 16.6263C46.4952 16.9904 46.9913 17.0153 47.2686 16.4489C47.4592 15.961 47.162 15.2827 46.4304 14.9972Z" fill="#FFD600"/>
<path d="M16.8958 33.4933C16.6519 33.3981 16.3997 33.4683 15.9821 33.5302C15.8785 33.9396 15.6964 34.2621 15.7665 34.5144C16.3608 35.8709 17.4033 34.9284 17.8239 36.442C18.166 37.8687 20.2623 37.3938 19.5895 35.9504C19.2923 35.2721 19.2306 34.8545 19.7518 34.3832C20.6205 33.5978 18.9639 31.9391 18.3307 32.9851C17.8011 33.6218 17.5404 33.8574 16.8958 33.4933Z" fill="#FFD600"/>
<path d="M23.8555 36.8282C25.2317 37.4778 25.4359 35.0836 24.0346 34.9302C23.2947 34.8101 23.0592 34.5495 22.762 33.8712C22.5517 33.1144 21.8118 32.9943 21.1252 33.4572C21.1953 33.7095 21.0048 34.1974 21.2319 34.6234C21.4506 35.2148 21.5992 35.5539 21.1648 35.9466C20.1224 36.8891 22.0312 38.4776 22.6728 37.2662C23.0371 36.6212 23.2893 36.551 23.8555 36.8282Z" fill="#FFD600"/>
<path d="M49.8603 11.1072C49.5128 11.4213 49.2606 11.4916 48.7813 11.1358C47.5087 10.0768 46.5028 11.9332 47.9575 12.6697C48.4452 12.8601 48.5938 13.1992 48.5687 13.6954C48.4848 15.3494 50.6429 15.2922 50.3876 13.7869C50.2558 13.117 50.4295 12.9599 50.9424 12.654C52.2119 12.1375 50.9896 10.0861 49.8603 11.1072Z" fill="#FFD600"/>
</svg>
