<svg width="376" height="200" viewBox="0 0 376 200" fill="none" xmlns="http://www.w3.org/2000/svg">
<path d="M230.4 0C230.6 0 231.1 0.3 231.1 0.3C231.3 0.6 230.4 1.5 229.9 1.5C229.7 1.5 229.7 1.2 229.7 0.9C229.7 0.3 230 0 230.4 0H0V200H376V106.9C376 107.2 375.8 107.2 375.5 106.9L375.7 106.6C375.7 106.9 375.9 106.9 375.9 106.9V0H230.4ZM366.4 88.4L366.6 88.7C366.4 88.7 366.4 89 366.4 89L366.2 88.7L366.4 88.4ZM366.6 94.9C366.6 94.9 366.4 95.2 366.1 95.2C366.1 95.2 365.9 94.9 365.6 94.9C365.6 94.3 365.6 93.4 365.6 92.8C367.1 93.1 366.6 94 366.6 94.9ZM349.3 77.3H349.5V77.6L349.3 77.9C349.3 77.6 349.3 77.6 349.3 77.3ZM348.4 75.5L348.6 75.8L348.4 76.1L348.2 75.8L348.4 75.5ZM347.2 81.2C347.7 81.2 347.7 81.8 347.7 82.1L347.5 82.4C347 82.4 347 81.8 347 81.5C347 81.2 347.2 81.2 347.2 81.2ZM346 75.8C345.8 75.8 345.8 76.1 345.8 76.1C345.6 76.1 345.6 75.8 345.3 75.8L345.5 75.5C345.8 75.5 345.8 75.5 346 75.8ZM334.1 65.4C334.3 65.4 334.6 65.4 334.3 65.7C334.3 66 334.1 66 333.8 66C333.9 65.7 333.9 65.4 334.1 65.4ZM328.5 61.5C328.7 61.5 329 61.8 329.2 62.1C328.7 62.1 328.3 62.4 328 62.4C328 62.4 327.8 62.1 327.8 61.8C328 61.8 328.3 61.5 328.5 61.5ZM320.3 52.5C320.5 52.5 320.5 52.5 320.5 52.8L320.3 53.1C320.3 52.8 320.1 52.8 320.1 52.8L320.3 52.5ZM318.4 54.3H318.6C318.6 54.9 318.4 54.9 318.1 54.9C318.2 54.6 318.4 54.6 318.4 54.3ZM317.7 55.2C317.7 55.2 317.7 55.5 317.5 55.8H317.3C317 55.2 317.5 55.2 317.7 55.2ZM304.6 51C304.6 51 304.6 51.3 304.6 51.6C304.4 51.9 303.9 52.2 303.7 52.8C303.5 53.1 303.2 53.1 303 52.8C302.8 52.5 302.5 52.2 302.1 51.9C302.3 51.6 302.6 51.3 302.8 51.3C303.3 51 303.7 51 304 50.7C304.4 50.7 304.6 50.7 304.6 51ZM300.6 26.3H300.4C300.4 26 300.2 26 300.2 25.7C300.4 25.7 300.6 25.7 300.6 26.3ZM301.8 48.7C302.3 48.7 302.7 49 302.7 49.6C302.9 49.9 302.7 50.5 302.2 50.5C301.5 50.5 300.8 50.5 300.1 50.5C300.2 49.3 300.9 49 301.8 48.7ZM296.9 25.7C298.3 25.7 298.3 24.8 298.3 23.9C298.3 23.6 298.5 23.3 298.8 23C299 23.3 299.3 23.3 299.5 23.6C300.2 24.2 300 25.1 300 25.7C298.6 26 298.1 27.5 297 28.1C297 28.1 296.5 28.1 296.5 27.8C296.4 26.9 296.2 25.7 296.9 25.7ZM299.9 50.4C299.9 50.7 299.9 51 299.4 51C299.2 51 299.2 50.7 298.9 50.4C298.7 50.4 298.4 50.4 298.2 50.4C298.2 50.1 298.2 49.8 298.4 49.8C298.9 49.8 298.9 50.1 298.9 50.4C299 50.4 299.1 50.4 299.1 50.4C299.5 50.4 299.7 50.4 299.9 50.4ZM298.1 50.4C298.1 50.7 297.9 50.7 297.9 51H297.7C297.6 50.4 297.8 50.4 298.1 50.4ZM296.9 32.8C296.4 32.8 296.4 32.5 296.4 32.2C296.4 32.2 296.7 32.5 296.9 32.8ZM294.6 25.4C294.6 25.1 294.6 24.5 295.3 24.8C295.5 25.1 295.5 25.4 295.5 25.7C295.3 26.3 295 26.6 294.6 26.3C294.6 26 294.6 25.7 294.6 25.4ZM286.4 18.5H286.6C286.6 18.8 286.8 19.1 286.8 19.4C286.6 19.7 286.6 19.7 286.3 20L286.1 19.7C286.1 19.1 285.9 18.8 286.4 18.5ZM284.7 23.3C284.9 23.3 284.9 23.6 284.9 23.9L284.4 23.6C284.3 23.3 284.5 23 284.7 23.3ZM283.8 24.8C284.3 24.8 284.5 24.8 285 24.8C284.8 25.7 284.5 25.7 283.8 25.7L283.6 25.4C283.6 25.1 283.6 24.8 283.8 24.8ZM278.9 17.6C278.9 17.3 279.1 17.6 279.1 17.6C278.9 18.2 278.9 18.2 278.6 17.9L278.9 17.6ZM268.1 9.3C268.3 9.3 268.6 9.6 268.8 9.6C268.8 9.6 268.6 9.9 268.3 9.9C268.1 9.9 267.8 9.6 267.6 9.6C267.6 9.6 267.9 9.3 268.1 9.3ZM257.3 19.7C257.3 19.4 257.5 19.7 257.5 19.7C257.3 20 257 20 257 20C257 20 257.1 19.7 257.3 19.7ZM254.5 21.2L254.7 21.5C254.7 21.8 254.7 21.8 254.5 21.8L254.3 21.5L254.5 21.2ZM251.7 20.3C251.9 20.3 251.9 20.3 252.2 20.6C252 20.6 252 20.9 252 20.9C251.8 20.9 251.8 20.6 251.5 20.6L251.7 20.3ZM248 10.1L248.2 10.4C248.2 10.7 248 10.7 248 10.7L247.8 10.4L248 10.1ZM242.4 16.7C242.6 16.4 243.1 16.1 243.3 15.8C243.8 15.8 244.7 16.7 244.7 17.6L244.2 17.9C243.7 17.9 243.3 17.6 243 17.3C242.8 17.3 242.1 17.3 242.4 16.7ZM241.2 18.2C241.4 18.2 241.9 18.2 241.7 18.8C241.7 19.1 241.2 19.1 241.2 19.1C241.2 18.8 241.2 18.5 241.2 18.2ZM241 17.6C241 17.6 241 17.8 241 18.3C241 18.4 241 18.4 241 18.5C240.8 18.5 240.5 18.5 240.3 18.5C239.4 18.5 239.4 17.9 239.4 17.3C239.4 17 239.6 16.7 239.9 16.7C240.3 16.4 241 17 241 17.6ZM241 19.4C241 20.3 240.3 20.6 239.8 20.9C239.8 21.2 239.3 20.9 239.3 20.6C239.3 20 239.3 19.4 239.8 19.4C240 19.1 240.5 19.4 241 19.4ZM236.5 8.1C236.7 7.8 237.2 7.5 237.7 7.5C237.9 7.2 238.2 7.5 238.6 7.5C238.8 7.5 239.3 7.5 239.5 7.5C240 7.5 240 7.8 239.7 8.1C239.2 8.7 238.5 9.3 238.1 9.9C237.6 10.2 237.2 9.9 236.9 9.6C236.5 9.3 236.3 8.7 236.5 8.1ZM238.2 14.6C238 14.6 238 14.9 237.7 15.2H237.5C237.3 14.9 237 14.9 236.8 14.6C236.6 14.6 236.6 14 236.6 14C237.1 13.7 237.5 13.7 237.8 14C237.9 14 238.2 14.3 238.2 14.6ZM234.9 4.8C235.1 5.1 235.4 5.1 235.4 5.4C235.4 5.7 234.9 6.3 234.7 6C234.7 6 234.5 5.7 234.5 5.4C234.5 5.1 234.6 5.1 234.9 4.8ZM231.1 5.7H231.3C231.1 6 231.1 6 231.1 6.3L230.9 6L231.1 5.7ZM230.7 21.8L230.9 21.5C231.1 21.5 231.4 21.5 231.4 21.8C231.6 22.4 231.4 22.7 230.7 23C230.7 22.7 230.7 22.1 230.7 21.8ZM228.8 23.9C228.1 23.9 227.9 23.6 227.9 23C228.3 23 228.8 23.3 228.8 23.9ZM227.2 21.5C227.4 21.5 227.7 21.5 227.7 21.8C227.7 22.1 227.7 22.7 227.7 23C227.2 22.7 227 22.4 227 21.8L227.2 21.5ZM226.5 15.8L226.7 16.1C226.5 16.4 226.2 16.4 226.2 16.1L226.5 15.8ZM224.8 13.4C224.8 13.4 224.6 13.4 224.3 13.7L224.1 13.4C224.4 13.1 224.6 13.1 224.8 13.4ZM224.6 18.8C224.6 19.1 224.8 19.4 224.8 19.7C224.8 19.7 224.6 20 224.3 20C224.3 19.7 224.1 19.4 224.1 19.4C224.1 19.1 224.4 19.1 224.6 18.8ZM222.7 14C222.7 14 222.9 14 222.9 14.3C222.7 14.6 222.4 14.6 222.4 14.3L222.7 14ZM221.8 4.8L222 5.1C221.8 5.4 221.5 5.4 221.5 5.1L221.8 4.8ZM222 15.5C222.5 15.5 222.9 15.5 222.7 16.1C222.7 16.4 222.2 16.4 222 16.4C221.5 16.4 221.3 16.1 221.3 15.5C221.5 15.5 221.8 15.5 222 15.5ZM221.1 14.3C221.3 14.6 221.3 15.2 221.1 15.5C220.6 15.5 220.4 14.9 220.4 14.3L220.6 14C220.8 14 221.1 14.3 221.1 14.3ZM220.1 5.1C219.9 5.1 219.9 4.8 219.6 4.8C219.6 4.8 219.6 4.8 220.1 4.5L220.3 4.8C220.1 4.8 220.1 5.1 220.1 5.1ZM219.7 19.1C219.7 18.8 219.5 18.5 219.2 18.5C219.4 18.5 219.9 18.5 219.9 18.8C220.1 19.1 219.9 19.4 219.7 19.1ZM219.9 1.8L220.1 2.1C220.3 2.7 220.3 3 219.9 3.3C219.7 3.3 219.4 3 219.4 3C219.7 2.4 219.7 2.1 219.9 1.8ZM219.2 17.6C219.2 17.6 219.4 17.9 219.4 18.2C219.2 18.2 218.7 18.2 218.7 17.9C218.5 17.6 218.7 17.6 219.2 17.6ZM217.1 21.2L217.3 21.5L217.1 21.8L216.9 21.5L217.1 21.2ZM215.7 15.5C215.9 15.8 216.2 15.8 216.4 16.1C216.2 16.1 215.9 16.4 215.7 16.4C215.5 16.4 215 16.1 215 16.1C215 15.5 215.5 15.5 215.7 15.5ZM216.2 17.9L216 18.2L215.8 17.9C216 17.6 216 17.6 216 17.6L216.2 17.9ZM214.3 9.3C214.3 9.3 214.5 9.3 214.8 9.6C214.6 9.6 214.6 9.9 214.6 9.9C214.4 9.9 214.4 9.6 214.1 9.6L214.3 9.3ZM215 21.8C215.2 21.8 215.2 22.1 215.5 22.4C215 22.4 214.8 22.7 214.6 22.7C214.4 22.7 214.1 22.7 214.1 22.1C214.5 21.8 214.8 21.8 215 21.8ZM215.5 27.8C215.5 28.1 215 28.1 214.8 28.4C214.1 28.4 213.6 27.8 213.2 27.2C213.2 27.2 213.4 26.6 213.7 26.6C214.2 26.6 214.9 26.6 215.3 26.9C215.5 26.9 215.5 27.5 215.5 27.8ZM213.6 25.1L213.4 25.4C212.9 25.7 212.5 25.7 212.2 25.1C212.4 24.8 212.9 24.8 213.4 24.8L213.6 25.1ZM212.4 12.8L212.6 13.1C212.6 13.4 212.4 13.4 212.6 13.1C212.4 13.4 212.1 13.4 212.1 13.1L212.4 12.8ZM211.7 20C211.7 19.4 211.5 19.1 211.5 18.8C211.5 18.8 211.7 18.5 212 18.5C212.5 18.5 212.7 18.8 212.9 19.1C213.1 19.4 212.9 20 212.9 20.3C212.7 20.9 212 21.2 211.5 20.9C210.8 20.6 211.7 20.3 211.7 20ZM207.3 17C207.5 16.7 208.7 16.4 209.4 16.7C209.2 17.6 208.7 18.5 208.2 19.1C208.2 19.4 208.2 19.4 208.2 19.4C208.2 19.1 208.2 19.1 208 19.1C207.8 19.1 207.5 19.1 207.5 19.1C207.3 18.8 207 17.6 207.3 17ZM208.7 21.8C208.5 21.5 208.2 21.5 208.2 21.2C208.2 20.9 208.4 20.6 208.4 20.3C208.6 20.6 208.9 20.9 208.9 20.9C208.9 21.2 208.7 21.5 208.7 21.8ZM208.9 24.2C208.7 24.2 208.7 24.5 208.7 24.5C208.5 24.5 208.5 24.2 208.2 24.2C208.4 24.2 208.4 23.9 208.7 23.9L208.9 24.2ZM205.9 10.1C206.8 10.1 207.1 10.4 207.1 11.3C207.1 11.6 206.6 11.9 206.2 11.9C205.7 11.9 205.5 11.6 205.5 11C205.4 10.4 205.6 10.1 205.9 10.1ZM207 24.2L206.8 24.5C206.3 24.5 206.3 24.2 206.8 23.9L207 24.2ZM205.6 26.9H205.8C205.8 27.2 205.8 27.2 205.8 27.5C205.6 27.2 205.6 27.2 205.3 27.2L205.6 26.9ZM204 18.5L204.2 18.8L204 19.1C204 18.8 203.8 18.8 203.8 18.8L204 18.5ZM203.8 20.6L204 20.3L204.2 20.6L204 20.9C203.8 20.9 203.5 20.6 203.8 20.6ZM198.8 14.3C198.8 14 199.3 13.7 199.7 13.7C200.2 14 200.4 14 200.4 14.6C200.4 15.2 200.2 15.5 199.7 15.5C199.1 15.5 198.6 14.9 198.8 14.3ZM199.8 18.2C200 18.2 200.3 18.5 200.5 18.8C200 19.1 199.6 19.4 199.1 19.7L198.9 19.4C198.6 18.8 199.1 18.5 199.8 18.2ZM198.1 21.2L198.3 21.5L198.1 21.8L197.9 21.5L198.1 21.2ZM189.9 14.6C190.1 15.2 190.6 15.5 190.8 16.1C191 16.1 190.8 16.4 190.6 16.4C189.9 16.4 189.4 16.1 189.4 15.5C189.5 15.2 189.7 14.9 189.9 14.6ZM187.1 6.6L187.3 6.9C187.1 7.2 186.8 7.2 186.8 6.9L187.1 6.6ZM185.3 10.1L185.5 10.4C185.3 11 185 11 185 10.4L185.3 10.1ZM185 19.4C185.2 19.7 185.5 19.7 185.5 20C185.5 20.3 185.3 20.6 185.3 20.9C185.1 20.6 184.8 20.3 184.8 20.3C184.8 20 185 19.7 185 19.4ZM185 22.1C185.9 21.8 186.9 22.7 187.3 23.9V24.2L187.1 24.5C186.2 24.2 185.5 23.9 184.8 23.3C184.6 23.3 185 22.4 185 22.1ZM185 29.3C185 29.3 185.2 29 185.5 29L185.7 29.3C185.5 30.5 185.9 31.4 186.9 32C187.1 32 187.6 32.3 187.1 32.9C186.9 33.2 186.4 33.2 186.2 33.2C184.8 33.2 184.6 32.9 184.6 32C184.6 31 184.6 30.1 185 29.3ZM183.2 18.5H183.4C183.6 18.8 183.6 18.8 183.2 19.1L183 18.8L183.2 18.5ZM178.5 15.8C178.5 15.5 179 15.8 179 16.1C179.2 16.4 179 16.7 179.2 17.3C179.2 17.6 179.2 17.9 179 18.2C179 18.5 178.5 18.5 178.3 18.5C177.6 18.5 177.4 18.2 177.4 17.6C177.1 16.7 177.8 16.1 178.5 15.8ZM178.9 29C178.7 29.6 178.4 29.6 178.2 29L178.4 28.7C178.7 28.7 178.9 29 178.9 29ZM176.6 26L176.8 26.3L176.6 26.6C176.4 26.3 176.4 26 176.6 26ZM176.6 28.7C176.8 28.7 176.8 28.7 176.8 29L176.6 29.3L176.4 29L176.6 28.7ZM176.6 31.3L176.8 31.6C176.8 32.2 176.6 31.9 176.3 31.6L176.6 31.3ZM170.1 5.7L170.3 6C170.3 6 170.3 6.3 170.1 6.3L169.8 6L170.1 5.7ZM170.1 8.4H170.3C170.3 9 170.5 9.3 170.5 9.6C170.5 9.9 170.3 10.2 170.3 10.5H170.1C169.6 10.1 169.6 9 170.1 8.4ZM168.7 13.7C168.9 13.7 169.2 14 169.4 14C169.2 14.6 168.7 15.2 168.2 15.2C167.7 15.2 167.7 14.6 167.7 14.3C168 14 168.2 13.4 168.7 13.7ZM169.4 20.6L169.2 20.9L169 20.6L169.2 20.3L169.4 20.6ZM168 25.4C169.6 25.1 169.4 23.9 169.6 23C169.8 22.4 170.1 22.4 170.3 22.7C170.8 23.3 171.7 23.6 170.8 24.5C170.8 24.8 170.8 25.1 171.3 25.1C172 25.1 172.7 25.1 172 26C171.5 26.6 171.5 27.2 171.8 28.1C171.8 28.1 171.8 28.4 172 28.4L172.2 28.1C173.1 26.9 173.1 27.2 173.8 27.2C174.5 27.5 175 27.5 175 28.4C175 29 174.5 29.3 174.1 29.3C173.6 29.3 173.4 29.6 173.4 30.2C173.6 30.8 173.9 31.1 174.3 31.1C175.2 31.4 175.2 31.7 174.3 32.6C174.3 32.6 174.1 32.9 174.1 33.2C173.2 33.2 172.5 33.2 171.8 32.3C171.6 32 171.6 32 171.6 31.7C172.1 29.9 171.8 29.9 170.7 29.3C170 29 169.3 28.7 168.6 28.7V28.6C168.5 28.7 168.4 28.8 168.4 29H168C168 28.7 168.2 28.7 168.4 28.5C168.2 28 167.8 27.4 167.6 26.9C167.2 26.3 167.2 25.4 168 25.4ZM166.3 23.3H166.5C166.5 23.3 166.3 23.6 166.3 23.9L166.1 23.6L166.3 23.3ZM166.5 27.5C166.5 27.8 166.7 28.1 166.7 28.4C166.7 28.7 166.5 28.7 166.2 29C166 28.7 166 28.4 166 28.4C166.1 28.1 166.3 28.1 166.5 27.5ZM155.8 23.6C155.8 23.3 156 23.3 156.3 23.3L156.5 23.6C156.5 24.2 156.3 24.5 155.8 24.8C155.8 24.5 155.8 23.9 155.8 23.6ZM156.2 30.4C157.8 31.3 158.3 31 158.3 29.5C158.3 28.9 158.3 28.3 158.3 28C158.3 27.7 158.5 27.7 158.8 27.4L159 27.7C158.8 29.8 160.2 30.7 161.8 31.3C162.3 31.6 162.5 31.6 163 31.3C163.9 30.4 165.3 31.3 166.3 30.1C167.2 31.3 168.6 30.7 169.8 31C170 31 170 31.3 170.3 31.3C170.3 31.6 170.1 31.9 169.8 31.9C168.2 32.2 166.8 31.6 165.4 32.8C164.7 32.5 164.2 32.2 163.8 32.8C163.1 33.7 162.2 34.3 161 34C160.8 34 160.3 34.3 160.1 34.6C159.4 34.6 158.7 34.9 158 34.6C157.1 34.3 157.3 33.1 157.3 32.5C157.3 32.5 156.8 32.2 156.6 32.2L156.4 32.5V32.8C156.2 33.1 156.2 33.1 155.9 33.4L155.7 33.1C155.7 32.2 155.7 31.3 155.7 30.4C155.5 30.1 155.8 30.1 156.2 30.4ZM154.6 25.4C154.6 25.5 154.6 25.6 154.6 25.7C154.8 25.1 155.1 24.9 155.5 24.9C155.5 25.5 155.3 25.8 154.6 25.8C154.6 26.8 153.9 27.4 153.6 28.2C152.7 27.9 152.4 27 152.7 26.4C152.9 25.8 153.6 25.8 154.1 25.5C154.4 25.4 154.4 25.4 154.6 25.4ZM154.6 34.3L154.4 34.6H154.2C153 34 152.3 32.5 153 31.6C153 31.6 153.2 31.3 153.5 31.6C153.9 32.5 154.1 33.4 154.6 34.3ZM153.9 28.4C154.1 28.4 154.4 28.4 154.4 29H154.2C154.1 28.7 153.9 28.7 153.9 28.4ZM150.4 12.8C151.1 14 152.3 13.4 153.4 14V14.3C153.2 14.3 152.9 14.6 152.7 14.6C151.1 15.2 150.6 15.2 150.1 13.7C149.9 13.4 150.2 13.1 150.4 12.8ZM151.3 31.6C151.3 31.6 151.1 31.3 151.1 31C151.1 31 151.1 30.7 151.3 30.4C151.3 30.4 151.8 30.7 151.8 31C151.8 31.3 151.6 31.3 151.3 31.6ZM151.8 36.7C151.6 36.7 151.1 36.7 151.1 36.4C150.9 36.1 151.1 35.8 151.6 36.1C151.6 36.1 151.8 36.4 151.8 36.7ZM149.5 34.9L149.7 35.2C149.5 35.8 149.2 35.8 149.2 35.2L149.5 34.9ZM146.4 24.2C146.6 24.2 146.9 24.2 147.1 24.5C147.3 24.5 147.6 24.8 147.8 25.1C147.8 25.4 147.6 25.7 147.3 25.7C146.8 25.7 146.6 25.7 146.4 25.4C146 25.1 146.2 24.2 146.4 24.2ZM147.6 31.6C147.4 31.6 147.1 31.6 147.1 31.3C147.1 31 147.1 30.7 147.6 30.1L147.8 30.4C148.1 31 148.1 31.3 147.6 31.6ZM144.8 33.1L145 33.4C144.8 34 144.5 34 144.5 33.4L144.8 33.1ZM142.9 25.1L143.1 25.4C143.1 25.4 142.9 25.4 142.9 25.7L142.7 25.4L142.9 25.1ZM142.9 26.9L143.1 27.2C142.9 27.5 142.6 27.5 142.6 26.9H142.9ZM140.8 11C140.8 11 141 11.3 141 11.6C140.8 11.6 140.5 11.9 140.3 11.9C140.1 11.6 140.1 11.6 139.8 11.3C140.1 11.3 140.6 11 140.8 11ZM140.1 26.9C140.1 26.9 140.1 26.9 140.3 27.2C140.1 27.2 139.8 27.2 139.8 27.2C139.9 26.9 140.1 26.9 140.1 26.9ZM140.6 30.1C141.3 29.8 142 29.5 142.7 29.5C142.9 29.5 143.4 30.1 143.4 30.4C143.2 30.4 143.2 31 142.9 31C142.4 31.3 141.7 31.3 141.3 31.6C140.8 31.9 140.1 31.3 139.9 31C139.4 30.1 140.3 30.1 140.6 30.1ZM141.3 34C141.3 34 141.1 34.3 141.1 34.6C140.9 34.6 140.6 34.3 140.6 34.3C140.8 34 140.8 33.4 140.8 33.4C141 33.4 141 33.7 141.3 34ZM136.4 28.4C136.6 28.1 136.9 27.5 137.3 27.8C137.7 28.1 138 28.4 138.5 28.7C138.3 29 138 29.3 137.8 29.3C137.6 29.3 137.3 29.3 136.9 29.3C136.7 29.3 136.4 29 136.2 29C136.1 29 136.1 28.7 136.4 28.4ZM132.6 34.3H132.8C133 34.3 132.8 34.6 132.6 34.9L132.4 34.6L132.6 34.3ZM110.8 37H111C110.8 37.3 110.8 37.3 110.8 37.6C110.8 37.6 110.8 37.3 110.8 37ZM98.4 33.7C98.4 33.4 98.9 33.1 99.3 33.1C100.9 33.1 101.6 33.7 100.9 35.2C100.7 35.5 100.4 35.5 100.2 35.8C99.4 35.8 98.2 34.6 98.4 33.7ZM90.5 31.9C91 31.9 91.4 31.9 91.7 32.5C91.7 33.1 91.7 33.4 91.7 33.7C91 33.7 90.5 33.1 90.1 32.5C90 32.2 90.3 31.9 90.5 31.9ZM86 34.9C86.7 34.6 87.4 34.3 88.1 34C88.3 34.3 88.6 34.3 88.6 34.6C88.6 34.9 88.6 35.5 88.4 35.5C87.9 35.8 87.2 35.8 86.8 35.8C86.8 35.8 86.6 35.5 86.1 35.2V34.9H86ZM83.9 34.9C83.9 35.5 84.1 35.8 84.1 35.8C84.1 35.8 83.9 36.1 83.6 36.1C83.6 36.1 83.4 35.8 83.4 35.5C83.5 35.5 83.7 35.2 83.9 34.9ZM56.6 41.5L56.8 41.8C56.6 41.8 56.3 41.8 56.3 41.8L56.6 41.5ZM52.3 40.6C52.5 40.3 52.8 40.3 53 40.6C53.2 41.2 53.5 41.5 53.7 41.8C53.9 41.8 53.7 42.1 53.5 42.1C53 42.4 52.6 41.8 52.3 40.9V40.6ZM47.2 52.5L47.4 52.8C47.2 53.1 46.9 53.1 46.9 52.8L47.2 52.5ZM30.6 66C31.1 65.7 31.5 65.7 31.8 65.4C32.3 65.4 32.3 65.4 32.5 65.7V66C32.5 66.9 32 67.2 31.6 67.5C31.4 67.8 31.1 67.8 30.9 67.2C30.7 66.9 30.2 66.6 30 66.3C30.1 66.3 30.3 66 30.6 66ZM25.7 66.9C26.2 66.9 26.9 66.6 27.3 66.3C27.5 66.3 28 66.3 28 66.6C28 66.9 28 67.2 27.8 67.5C27.3 68.1 26.6 67.8 26.2 67.5C26 67.5 25.7 67.2 25.5 67.2C25.4 67.2 25.4 66.9 25.7 66.9ZM30.3 69C30.8 69.3 31.5 69.9 31.5 70.5C30.6 70.5 29.6 70.8 28.7 69.9C28.2 69.3 27.5 69.6 27.1 69.9C26.4 70.5 25.7 70.8 25 70.5C24.5 70.5 24.3 70.2 24.3 69.6C26.1 68.4 28.2 68.7 30.3 69ZM23.1 69C23.8 68.7 24 69 24 69.9C23.8 69.9 23.3 69.9 22.8 69.9L22.6 69.6C22.9 69.3 22.9 69 23.1 69ZM19.6 71.3C19.6 71 19.6 70.7 19.6 70.4L19.8 70.1C20 70.1 20.3 70.1 20.3 70.4C20.3 70.7 20.3 71.3 20.3 71.6C20.3 71.9 20.1 72.2 20.1 72.2C19.9 72.2 19.6 71.9 19.6 71.6V71.3ZM17.2 71.6L17.4 71.9C16.9 72.2 16.9 71.9 16.9 71.9L17.2 71.6ZM15.1 83C15.3 83.3 15.3 83.3 15.6 83.6C15.6 83.6 15.4 83.9 15.4 84.5C15.2 84.2 14.9 84.2 14.9 83.9C14.9 83.6 15.1 83.3 15.1 83ZM7.4 91.9L7.6 91.6C7.8 91.9 8.1 92.2 8.1 92.5C8.6 93.7 7.6 94.6 7.2 95.2C7 95.2 6.5 95.2 6.3 95.2C6 94 7.2 93.1 7.4 91.9ZM4.4 98.2C4.4 98.5 4.2 98.8 3.9 98.8L3.7 98.5C3.5 98.2 3.5 97.6 3.5 97C4.1 97 4.6 97.6 4.4 98.2ZM3 96.7C3 96.4 3.2 96.7 3.2 96.7C3.2 96.7 3.4 97 3.4 97.3C3.2 97.3 2.9 97.3 2.7 97.3C2.5 97 2.7 97 3 96.7ZM2.3 117.3C1.8 117.3 1.8 117 1.6 116.7C2.1 116.7 2.3 116.7 2.5 116.7C2.5 117 2.5 117.3 2.3 117.3ZM19.1 155.8L18.9 155.5L19.1 155.2C19.1 155.5 19.3 155.5 19.3 155.5L19.1 155.8ZM20.7 153.1C20.5 153.4 20 154 19.5 154.3C19.5 154 19.3 153.7 19.3 153.4C19.5 152.5 20.2 152.2 20.7 152.5C21 152.5 21 152.8 20.7 153.1ZM23.6 135.8L23.4 135.5C23.4 135.2 23.6 135.2 23.6 135.2L23.8 135.5L23.6 135.8ZM22.9 133.1C22.4 133.1 22.2 133.1 21.7 132.8C21.2 132.5 21.5 131.6 21.9 131.3C22.4 131.3 22.8 131.3 23.3 131.3C23.3 131.9 23.5 132.2 24 132.2C24 132.8 23.6 133.1 22.9 133.1ZM28.7 146.6C28.5 146.6 28.5 146.3 28.2 146.3C28.2 146.3 28.2 146.3 28.7 146L28.9 146.3C28.7 146.3 28.7 146.6 28.7 146.6ZM30.3 138.2H30.1C30.1 138.2 30.3 137.9 30.3 137.6L30.5 137.9L30.3 138.2ZM35 150.4C34.8 149.8 34.5 149.5 34.5 149.2C34.5 149.2 35 149.2 35.2 149.2C35.2 149.2 35.4 149.5 35.4 149.8C35.3 150.1 35 150.1 35 150.4ZM36.7 158.2L36.9 157.9L37.1 158.2C36.9 158.5 36.7 158.5 36.7 158.2ZM41.6 161.5C41.4 161.5 41.4 161.2 41.4 161.2L41.6 160.9L41.8 161.2L41.6 161.5ZM43.4 162.4C43.4 162.1 42.9 162.1 42.7 162.4C42.7 161.8 42.7 161.5 43.2 161.2C43.4 161.2 43.4 161.5 43.7 161.8C43.7 161.8 43.4 162.1 43.4 162.4ZM44.2 164.2L44.4 163.9C44.4 163.9 44.6 163.9 44.6 164.2C44.4 164.2 44.2 164.2 44.2 164.2ZM46 162.1L46.2 161.8L46.4 162.1C46.3 162.4 46 162.4 46 162.1ZM53 176.1C52.8 176.1 52.8 175.8 52.5 175.8L52.7 175.5C52.7 175.5 52.9 175.8 53.2 175.8C53 175.8 53 176.1 53 176.1ZM53.5 167.8C53.7 167.5 54 167.2 54 167.2C54 167.5 54 167.8 53.5 167.8ZM59.4 176.1C58.5 176.4 57.8 177.3 56.6 177.3C55.4 177.3 54.7 176.7 54.3 175.5C54.3 175.2 54.3 175.2 54.1 175.5C54.3 174.9 54.6 174.9 54.8 175.2C55 175.2 55 175.5 55.3 175.5C55.8 175.8 56.2 176.1 56.7 176.4C56.9 176.4 57.9 175.2 57.9 174.6C57.9 173.4 57.9 172.2 57.7 171.3C57.7 171.3 57.2 171 57 171C57 169.8 57.9 170.1 58.6 170.1C59.5 170.1 59.8 170.7 59.8 171.3C59.8 172.2 59.8 173.1 59.8 174C59.6 174.6 60.1 175.8 59.4 176.1ZM54.9 172.8C54.7 173.1 54.7 173.1 54.4 173.1C54.7 172.8 54.7 172.8 54.9 172.8ZM54.4 169.6L54.6 169.3C54.6 169.3 54.8 169.3 54.8 169.6L54.6 169.9L54.4 169.6ZM55.4 171.3C55.6 171.3 55.6 171 55.6 170.7C56.1 170.7 56.3 170.7 56.8 170.7C56.6 171.3 56.3 171.6 55.6 171.6L55.4 171.3ZM61 174.3C61 174.3 61 174 60.8 174C61 174 61.3 173.7 61.5 173.7C61.5 174 61.5 174.3 61 174.3ZM68.7 178.8L68.5 178.5L68.7 178.2L68.9 178.5C69 178.8 68.7 178.8 68.7 178.8ZM76.4 189.9C76.2 189.9 75.9 189.9 75.9 189.6C76.1 189.3 76.4 189.3 76.6 189.3C76.7 189.6 76.7 189.9 76.4 189.9ZM124.2 191.6L124 191.3L124.2 191C124.2 191 124.2 191.3 124.7 191.3C124.4 191.3 124.4 191.6 124.2 191.6ZM127 191.9C126.5 191.6 126.5 191.3 127 191.3L127.2 191.6C127.2 191.6 127 191.6 127 191.9ZM131 191.6L130.8 191.9C130.6 191.6 130.3 191.6 130.3 191.3C130.1 190.4 130.5 190.1 131 190.4C131 190.7 131 191.3 131 191.6ZM144.8 193.7L144.6 193.4L144.8 193.1L145 193.4C145 193.4 144.8 193.4 144.8 193.7ZM154.4 191.3C154.4 191.9 154.4 192.2 154.4 192.8C154.4 193.4 154.2 193.7 153.7 193.7C153.2 193.7 152.8 193.4 152.8 193.1C152.8 192.5 152.8 191.9 152.8 191.3C152.6 190.1 152.3 189.8 150.9 190.4C150.7 190.4 150.7 190.7 150.4 190.4C150.2 190.1 149.9 190.1 149.9 189.8C149.9 189.8 149.9 189.2 150.1 189.2C150.8 189.2 151.7 188.9 152.7 188.9C153.9 188.9 154.3 189.2 154.3 190.4C154.4 190.7 154.4 191 154.4 191.3ZM157.7 195.2C157.5 195.2 157.5 194.9 157.5 194.6C157.5 194.3 157.7 194.3 158 194C158.2 194.3 158.5 194.3 158.5 194.6C158.4 195.2 158.1 195.5 157.7 195.2ZM159.8 193.7L159.6 193.4L159.8 193.1H160C160.2 193.1 160.2 193.4 159.8 193.7ZM163 195.8C163 196.1 162.5 196.4 162.1 196.4C161.9 196.4 161.6 196.1 161.6 196.1C161.6 196.1 161.6 195.8 161.8 195.5C162.3 194.6 161.1 194.3 161.3 193.4L161.5 193.1H161.7C162.8 193.7 163.3 194.6 163 195.8ZM164.2 194.3V194C164.4 194 164.7 193.7 164.9 193.7C164.7 194 164.7 194.3 164.2 194.3ZM166.8 196.4C166.6 196.4 166.3 196.1 166.1 196.1C166.3 196.1 166.6 195.8 166.8 195.8C167 195.8 167.3 196.1 167.5 196.1C167.2 196.1 167 196.4 166.8 196.4ZM186.7 195.8C186.2 195.5 185.8 195.5 185.8 194.9C185.8 194.3 186 194 186.5 194C186.7 193.7 187.2 194 187.4 194.3C187.6 194.9 187.1 195.5 186.7 195.8ZM190.7 194.9C190.5 194.9 190.2 195.2 190 195.5C189.8 195.2 189.5 195.2 189.5 194.9C189.5 194.6 189.5 194.3 189.7 194.3C189.9 194 190.9 194 190.9 194.3C190.9 194.3 190.9 194.6 190.7 194.9ZM200.2 197.3L200 197L200.2 196.7L200.4 197C200.2 197 200.2 197.3 200.2 197.3ZM203.8 197.3C203.8 197 203.8 197 203.8 196.7C203.8 197 203.6 197 203.8 196.7H204C203.8 197 203.8 197 203.8 197.3ZM211.5 199.4C211.1 199.6 210.7 199.9 210.7 200C209.3 199.4 208.2 198.8 207 198.2C206.5 197.9 206.3 197 206.8 196.1L207 195.8L207.2 196.1C207.4 197 207.7 197.6 208.6 196.7C209.5 197 210 198.5 211.2 198.5C211.7 198.5 211.9 199.1 211.5 199.4ZM244.7 192.8C244.2 192.8 244 192.5 244 191.9C244 191.3 244.5 190.7 245.2 191C245.7 191 245.7 191.3 245.7 191.9C245.4 192.5 245.2 192.8 244.7 192.8ZM263 190.1L262.8 189.8L263 189.5H263.2C263.4 189.6 263.4 189.9 263 190.1ZM267.2 188.7C267 189 266.7 189 266.7 189C266.2 188.4 265.5 188.1 264.8 187.8C264.6 187.5 264.8 187.2 264.8 186.9L265 186.6C265.7 186.9 266.4 187.2 267.1 187.8C267.2 188.1 267.2 188.4 267.2 188.7ZM269.3 188.1C269.1 188.1 269.1 187.8 269.1 187.5C269.3 187.5 269.8 187.5 269.8 187.8C270 187.8 269.8 188.1 269.3 188.1ZM268.6 186.9V186.6C269.1 186.6 269.1 186.9 269.3 187.2C269 187.2 268.8 186.9 268.6 186.9ZM271.4 185.4L271.2 185.1L271.4 184.8H271.6C271.9 185.1 271.9 185.4 271.4 185.4ZM272.3 188.1L272.1 187.8C272.1 187.2 271.6 186.9 272.3 186.6L272.8 186.9C272.8 187.5 272.6 187.8 272.3 188.1ZM279.1 181.8L278.9 181.5L279.1 181.2L279.3 181.5C279.1 181.5 279.1 181.8 279.1 181.8ZM319.4 166C319.4 166 319.2 165.7 319.2 165.4L319.7 165.7C319.6 166 319.4 166 319.4 166ZM325.5 161.5C325.3 161.8 325.3 162.1 325.3 162.1C325.1 161.8 325.1 161.2 324.8 160.9V160.3L325 160C325.2 160 325.5 160 325.5 160.3C325.5 160.6 325.5 160.9 325.5 161.5ZM329 157C328.8 156.7 328.5 156.7 328.5 156.4C328.5 156.1 328.7 155.8 328.7 155.5C328.9 155.8 329.2 155.8 329.2 156.1C329.2 156.4 329.2 156.7 329 157ZM331.5 160.3C331.5 160.3 331.3 160 331.3 159.7C331.3 159.7 331.3 159.4 331.5 159.1C331.7 159.4 331.7 159.7 332 159.7C331.8 159.7 331.8 160 331.5 160.3ZM332.5 136.7C332 136.4 332 136.4 332.3 136.1C332.5 136.1 332.5 136.1 332.5 136.1C332.7 136.1 332.7 136.4 332.7 136.4L332.5 136.7ZM339.5 141.5C339.3 141.8 339 142.1 339 142.1C338.5 141.8 337.8 141.5 337.1 141.2V140.9C337.1 140.9 337.1 140.6 337.3 140.6C337.8 140.6 338.2 140.6 338.7 140.6C339.3 140.6 339.7 140.9 339.5 141.5ZM343.7 142.1C343.5 142.1 343.5 141.8 343.5 141.5C343.7 141.5 344 141.8 344 141.8C344.2 142.1 343.9 142.1 343.7 142.1ZM349.8 142.4C349.6 142.7 349.6 143 349.3 143.3C349.1 143 348.8 142.7 348.8 142.4C348.8 142.1 348.8 142.1 348.8 141.8C349 141.5 349 140.9 349.3 140.6C349.5 141.2 349.5 141.5 349.8 141.8C349.8 142.1 349.8 142.4 349.8 142.4ZM351.7 142.1L351.5 142.4L351.3 142.1C351.1 141.2 351.1 140.3 351.1 139.4C351.1 139.4 351.3 139.1 351.6 139.1L351.8 139.4C351.8 139.7 351.8 140.3 352 141.4C351.8 141.4 351.7 141.8 351.7 142.1ZM351.2 134.3C351.4 134.3 351.7 134.3 351.9 134.6C352.1 134.9 352.1 135.5 351.9 135.8C351.9 136.1 351.4 136.1 351.2 136.1C348.9 135.8 348.9 135.8 348.4 137.6C347.9 139.1 347.9 139.1 346.5 139.1C346.3 139.1 346 138.8 345.8 138.8C346 138.5 346 138.2 346.3 138.2C347.5 138.2 347.7 137.6 347.5 136.7C347.5 136.4 347.3 135.8 347 135.5C346.5 135.5 346.1 135.5 345.6 135.5C345.4 136.4 344.4 136.4 343.7 136.4C343 136.4 342.5 135.8 342.1 135.2C342.1 135.2 342.6 134.6 342.8 134.3C343 134 342.8 133.7 342.8 133.4C342.6 133.1 342.3 133.1 342.1 133.4C341.6 133.7 341.2 134.3 340.7 134.6C339.5 135.8 340 137.3 341.6 137.6C343.2 138.2 343.5 138.5 343.7 140C343.7 140.3 343.7 140.9 343.7 141.2C343.5 141.2 343.2 141.2 343 141.2C342.1 141.2 341.1 141.2 340.9 140C340.7 139.1 340 138.5 339 138.2C338.8 137.6 338.1 136.7 339 135.8C339.2 135.5 339 134.3 339 133.7C338.8 133.7 338.8 133.7 338.8 133.7C338.6 133.7 338.3 133.4 338.1 133.4C337.9 133.1 337.6 133.1 337.4 132.8C337.2 133.1 336.9 133.4 336.9 133.7C336.9 134.3 336.9 134.9 336.9 135.5C336.9 136.4 336.4 136.4 335.7 136.7C335.2 137 335.2 137.6 335.7 137.6C336.4 137.6 336.9 137.9 336.9 138.5C337.5 138.5 337.9 138.5 338.5 138.5C338.5 139.1 338 139.4 337.3 139.4C336.8 139.4 336.6 139.1 336.6 138.5C336 138.5 335.4 138.6 334.7 139.1C334.5 139.4 334 139.1 334 138.8C334 138.5 334 137.9 334 137.6C334.5 135.2 333.5 133.7 331 133.1C329.8 132.8 330.1 131.9 331.2 131C331.7 131.3 332.4 131.6 332.6 131.6C333.1 131.3 333.5 131 334 131.6C334.5 131.9 334.7 131.9 334.7 131.3C334.7 130.7 334.7 130.1 334.7 129.5C334.5 128.3 334.5 127.7 335.2 127.4C336.1 127.4 336.8 126.5 338 126.2C339.2 125.9 339.2 125.9 339.4 127.1C339.6 128 339.6 128.3 340.3 127.7C341 127.4 341.2 126.5 342.2 126.5C342.4 126.5 342.9 126.5 342.9 126.8C342.9 126.9 343 126.9 343 127C343 126.9 342.8 126.8 342.7 127.1C342.5 127.4 342 128 342.7 128C344.1 128.3 343.9 129.2 343.9 130.1C344.1 131.6 344.1 131.6 345.5 131.9C346.7 131.9 348.1 131.6 349 132.5C349 132.5 349.5 132.2 349.5 131.9C349.7 131 350 130.7 350.7 131.3C350.9 131.3 351.2 131.6 351.4 131.6C351.6 131.6 351.9 131.9 352.1 131.9C351.9 132.2 351.6 132.5 351.4 132.5C350.3 133.1 350.3 133.7 351.2 134.3ZM324.3 136.4C323.8 136.7 323.6 136.7 323.6 136.4C323.6 135.5 323.6 134.3 323.6 133.4C323.6 133.1 323.8 132.8 323.8 132.5C324 132.5 324.3 132.5 324.5 132.8C325 133.4 325.2 133.7 325.4 134.3C325.6 134.9 326.1 134.9 326.6 134.9C327.1 134.9 327.3 134.6 327.3 134C327.3 133.7 327.3 133.4 327.3 133.1C328.5 133.4 328.9 134.6 329.6 135.2C329.8 135.5 329.8 135.8 329.4 135.8C328.2 136.1 327.5 136.7 327.3 137.9C327.1 138.8 326.1 138.5 325.4 138.8C325.4 138.2 325.4 137.6 325.4 137C325.5 136.1 325 135.8 324.3 136.4ZM325.2 141.8L325 142.1C324.5 141.8 324.5 141.8 325 141.5L325.2 141.8ZM323.6 127.8C323.6 127.5 323.6 126.9 323.6 126.6C323.6 126.3 323.8 126.3 324.1 126C324.3 126.3 324.3 126.3 324.3 126.3C324.5 126.6 324.5 126.9 324.5 127.2C324.3 127.5 324.3 127.8 324.3 128.1L324.1 128.4C323.8 128.1 323.6 128.1 323.6 127.8ZM325.5 129.3C325.7 128.7 326 128.7 326 129C326.2 129.3 326.2 129.6 326.2 129.9C326.2 129.9 326.2 130.2 326 130.2H325.8C325.5 129.9 325.5 129.6 325.5 129.3ZM326.6 132.5C327.1 132.5 327.1 132.8 327.1 133.1C327.1 133.1 326.9 132.8 326.6 132.5ZM327.3 127.8C327.5 127.8 328 127.8 328 128.1C328 128.1 327.8 128.4 327.5 128.4C327.3 128.4 327.3 128.1 327.3 127.8ZM328.5 112.5C328.5 112.2 328.7 112.2 328.7 112.2L328.9 112.5L328.7 112.8L328.5 112.5ZM329.7 124.2C329.9 123.9 330.4 123.9 330.6 124.2C330.8 124.5 330.4 124.8 330.1 125.1C329.9 125.1 329.6 125.4 329.4 125.4L329.2 125.1C329.2 124.8 329.2 124.2 329.7 124.2ZM329.4 107.8L329.6 107.5H329.8C330 107.8 330 108.1 329.6 108.1C329.7 108.1 329.4 108.1 329.4 107.8ZM329.4 129.9C329.4 129.6 329.6 129.3 329.6 129C329.8 129 330.1 129 330.3 129.3C330.5 129.6 331 129.6 331 130.2C330.8 130.8 330.5 131.1 330.3 131.4C329.2 131.3 329.4 130.4 329.4 129.9ZM331.5 126L331.7 126.3L331.5 126.6C331.1 126.3 331.1 126 331.5 126ZM331.3 120.6L331.5 120.3L331.7 120.6C331.5 120.9 331.3 120.9 331.3 120.6ZM334.1 123.9C334.1 123.3 334.6 123.3 335 123.3C335.4 123.3 335.7 123.6 335.7 124.2C335.7 124.5 335.2 124.8 335 125.1C334.3 125.1 333.9 124.5 334.1 123.9ZM339 120.9C338.5 120.6 338.5 120.3 339 120.3C339.2 120.3 339.2 120.3 339.5 120.3C340.4 120.3 340.7 120.9 341.1 121.5V121.8C340.9 121.8 340.4 122.1 340.4 121.8C340 121.5 339.5 121.2 339 120.9ZM340.2 124.5C339.7 124.5 339.5 124.8 339 124.8L338.8 124.5C338.8 124.2 339.3 123.9 339.5 123.9C339.7 124.2 340 124.2 340.2 124.5ZM344.6 124.2L344.8 124.5L344.6 124.8C344.2 124.5 344.2 124.2 344.6 124.2ZM344.4 121.5C344.4 121.2 344.6 120.9 344.6 120.6C344.6 120.6 345.1 120.9 345.1 121.2C345.1 121.5 344.9 121.8 344.9 122.1C344.6 121.8 344.4 121.8 344.4 121.5ZM350 120C349.8 120 349.8 119.7 349.8 119.4C348.6 119.4 348.9 120.3 348.9 120.9C347.7 120.9 348 120 348 119.4C348 119.1 348.2 118.5 348.7 118.5C349.4 118.5 349.9 118.8 349.9 119.4C350.1 119.4 350.6 119.4 350.6 119.7C350.7 120 350.5 120.3 350 120ZM350.3 121.8C350.3 121.8 350.3 122.1 350.1 122.1C349.6 122.1 349.2 121.8 348.9 121.2C349.4 121.2 349.6 121.2 350.1 121.2C350 121.2 350.3 121.5 350.3 121.8ZM348.4 123.9L348.6 124.2C348.8 125.1 348.6 126.6 348.4 126.3C347.7 126 347.5 125.4 347 125.1V124.8C347.2 124.8 347.2 124.2 347.5 124.2C347.7 123.9 348.2 124.2 348.4 123.9ZM348.2 129.6C348.7 129.9 348.7 129.9 348.4 130.2C348.4 130.5 348.4 130.5 348.2 130.5C347.5 130.5 347.3 130.2 347 129.6C347 129.3 346.8 129.3 346.5 129C346.3 129.3 346.3 129 346.5 129C347 128.7 347 129 347 129.6C347.4 129.6 347.7 129.6 348.2 129.6ZM351.2 129.6C351.4 129.6 351.4 129.9 351.7 130.2C351.7 130.5 351.5 130.8 351.5 131.1C351.3 131.1 350.8 130.8 350.8 130.8C351 130.1 351 129.9 351.2 129.6ZM351 123.6L351.2 123.3C351.4 123.3 351.4 123.3 351.4 123.6L351.2 123.9L351 123.6ZM353.1 120.6C353.1 120.9 352.9 121.2 352.9 121.2C352.7 121.2 352.2 120.9 351.7 120.6C351.7 120.6 351.7 120.3 351.9 120.3C352.4 120.3 352.8 120 353.1 120.6ZM352.1 104.2L352.3 103.9L352.5 104.2C352.3 104.2 352.3 104.5 352.3 104.5L352.1 104.2ZM354.7 132.5C354.5 132.8 354 132.8 353.5 133.1C352.8 133.7 352.8 133.1 352.6 132.8C352.6 132.5 352.6 132.2 352.6 131.9C352.6 131.6 352.8 131 353.3 131.3C354.7 132.2 354.5 131.3 354.7 130.7C354.7 130.7 354.7 130.4 354.9 130.4C354.9 130.4 355.1 130.7 355.1 130.1C355.6 131.3 355.4 132.2 354.7 132.5ZM355.4 98.2C355.4 97.9 355.4 97.6 355.6 97.3C355.8 97.3 356.1 97.3 356.3 97.3C357 97.6 357.5 97.9 357.2 98.5C357 98.8 356.7 99.1 356.5 99.1C355.9 99.4 355.6 99.1 355.4 98.2ZM358 133.7L357.8 134C357.8 133.7 357.6 133.7 357.3 133.4C357.1 132.8 356.8 132.5 356.6 131.9L356.4 131.6C356.6 131.6 356.9 131.3 357.1 131.3C358.2 131.6 358.7 132.5 358 133.7ZM362.7 132.8C362.5 132.8 362.5 132.5 362.2 132.5L362.4 132.2C362.6 132.2 362.6 132.5 362.9 132.5C362.7 132.5 362.7 132.8 362.7 132.8ZM362.7 104.5C362.2 104.8 361.8 105.1 361.5 104.5V104.2C361.7 104.2 362 103.9 362.2 103.9C362.4 103.9 362.7 104.2 362.9 104.2C362.9 104.2 362.9 104.5 362.7 104.5ZM363.6 135.5C363.4 135.5 363.4 135.2 363.1 135.2C363.3 135.2 363.3 135.2 363.6 134.9L363.8 135.2C363.6 135.2 363.6 135.5 363.6 135.5ZM363.6 98.5C362.9 98.8 363.1 98.2 362.9 97.9C362.9 97.6 362.7 97.3 362.4 97.3C362.2 97.3 361.9 97.6 361.9 97.6C361.2 98.2 360.5 98.8 359.8 99.4C359.6 99.7 359.6 99.7 359.3 99.7C359.1 99.4 358.8 99.1 358.8 98.8C358.8 98.2 358.8 97.6 358.8 97C359.3 97 359.7 96.7 359.7 96.4C359 96.4 358.5 96.5 358.3 95.5C358.8 95.5 359.3 95.3 359.8 95.7C359.8 94.8 359.3 94.2 358.6 93.7C358.4 93.4 358.1 93.4 357.9 93.7C357.2 94.3 357 95.2 357 96.1C356.1 96.1 355.1 96.1 354.2 96.1C354.2 96.7 354.2 97.3 354.2 97.9C353.5 97.9 353.3 98.5 353.3 99.1C353.1 100.6 352.4 100.9 351.2 100.6C351 100.3 350.7 100.3 350.5 100C350.3 99.7 350 99.7 349.8 100C349.8 100.3 349.6 100.9 349.8 100.9C351 101.8 350.3 102.4 349.8 103.3C349.6 103.9 349.6 104.5 349.1 104.2C348.9 104.2 348.6 103.3 348.6 103C348.6 102.7 348.6 102.4 348.6 102.4C348.6 102.1 348.1 101.8 348.1 101.8C346.2 103.3 344.6 101.2 343 101.5C342.8 101.8 342.3 101.2 342.3 101.2C343.7 98.8 341.6 99.7 340.9 99.7C339.7 99.7 338.3 99.7 337.6 98.5C337.6 98.5 337.6 98.2 337.4 98.2C336.2 97.6 335.3 97.9 334.8 99.4C334.8 100 334.8 100.9 333.9 100.3C333.7 100.3 333.2 100 332.7 100C331.1 100.3 329.7 100 328.3 99.1C328.1 99.1 327.6 99.1 327.4 99.1C327.2 99.4 326.9 99.7 326.7 100C326.7 100.3 326.5 100.6 326.5 100.9C326.3 100.9 326 101.2 325.8 101.2C325.6 101.5 325.8 101.5 326 101.8C326 102.1 326.2 101.8 326.2 101.8C326.2 101.8 326.4 101.5 326.4 101.2C327.1 101.2 327.6 101.2 328.3 101.2C328.8 101.2 329.2 101.8 329.2 102.1C329.4 102.7 329.4 103.3 329 103.9C328.8 104.2 328.3 104.2 327.8 103.9C327.3 103.6 327.1 103 326.4 103.6C325.7 104.2 324.8 104.2 323.8 103.6C323.1 103 322.9 103 322.6 103.9C322.4 104.2 322.6 104.8 322.4 105.1C322.2 105.4 321.7 105.4 321.2 105.4C320.7 105.1 320.5 104.5 319.8 104.5C319.8 104.8 319.8 105.1 319.8 105.4C319.6 106.3 319.1 106.3 318.2 106C317.7 105.7 317.5 105.4 317 105.4C316.5 105.1 315.8 105.7 316.1 106C316.6 107.2 317.3 108.4 317 109.9C317.1 109.9 317.1 109.9 317.2 109.9C317.3 109.6 317.5 109.3 318 109.3V109.6C318 109.7 318 109.8 318 109.9C318.3 109.9 318.6 109.9 319 109.9C319.7 109.9 320.2 110.5 319.9 111.1C319.9 111.7 318.5 112.3 320.1 112.6C320.8 112.6 321.5 113.2 322.2 113.5C322.7 113.8 322.7 113.8 321.7 114.4C321.2 114.7 321.2 115 321.7 115.3C322.9 115.9 322.9 115.9 322.4 117.1C322.2 117.7 322.2 118 322.6 118C323.3 118.3 324.2 118 324.9 118.3C325.6 118.6 325.8 119.2 326.3 119.5L326.1 119.8C325.9 120.1 325.6 120.1 325.6 120.1C325.1 119.8 324.9 119.8 324.4 119.5C323.2 118.9 322.8 119.2 322.1 120.1C321.9 120.4 321.6 120.7 322.1 120.7C323 120.7 323.5 121.6 324.2 122.2C324.9 122.8 325.6 122.8 326.3 122.2C326.5 121.9 326.8 121.9 327 122.2C327 122.5 327 122.8 327 123.1C326.8 124 326.5 124.6 326.1 125.2C325.4 125.8 325.9 126.4 326.3 127C326.5 127.3 326.3 127.9 326.3 128.2C324.4 128.2 324.4 128.2 324.4 127C324.4 126.1 324.4 125.2 324.4 124.3L324.2 124C324 124 323.7 124.3 323.7 124.3C323.5 126.1 321.8 125.8 320.9 126.4C320.4 126.7 320 126.1 319.7 125.8C319 124.9 318.8 124.9 318.3 125.5C317.8 125.8 317.8 126.1 318.3 126.4C319.9 127.3 318.8 128.5 318.5 129.4L318.3 129.7C318.1 129.4 318.1 129.4 317.8 129.1C317.6 129.1 317.3 128.5 317.3 128.5C316.8 128.5 316.8 129.1 316.8 129.4C316.8 130 317 130.6 317.3 131.2C317.5 131.5 317.5 131.8 317.1 131.8C316.9 132.1 316.4 131.8 316.2 131.8L316 131.5C315.8 130.9 315.8 130.3 314.8 130.3C314.3 130.3 314.1 130.9 313.6 130.9C312.7 130.9 311.7 131.2 310.8 131.2C310.3 131.5 310.1 132.1 310.3 132.7C310.5 133 310.8 133.3 311 133.3C312.6 133.9 311.2 134.8 311.2 135.7C311.7 136 312.1 136.3 312.1 136.6C312.3 137.5 312.3 138.4 312.3 139C312.3 139.3 312.8 139.6 313 139.6C313.9 140.2 314.2 138.7 315.1 139.3C316 139.9 315.8 138.7 316 138.4C316 138.1 316.2 138.1 316.5 137.8C316.7 137.5 317 137.2 317.2 137.2C317.4 137.2 317.9 137.2 318.1 137.2C318.6 137.2 318.6 137.5 318.3 137.8C317.8 138.4 317.1 139 316.9 139.6C316.7 140.2 317.1 140.8 317.1 141.4C317.6 141.1 318 141.1 318.3 140.8C318.8 140.2 319.5 139.9 320.2 139.6C320.7 139.3 320.7 138.7 320.4 138.4C320.2 138.1 319.5 137.5 319.7 136.9L319.9 136.6H320.1C320.8 136.9 321.3 137.5 321.3 138.7C321.3 139.9 321.8 139.6 322.7 139.3C322.9 139 323.6 139.6 324.1 139.9C324.1 141.7 324.1 141.7 322.2 141.7C322 141.7 321.7 141.7 321.5 141.7C321.5 143.5 321.5 145.3 321.5 147.1C321.5 147.7 322 148 322.7 148C323.2 148 323.6 148 324.1 148C324.8 148 325 147.7 325.3 147.4C325.5 146.8 325.3 146.2 324.6 146.2C324.7 146 324.7 145.9 324.8 145.7C324.6 145.9 324.3 146 323.9 145.9C323.4 145.9 323.2 145.6 323.2 145C323.4 145 323.4 144.7 323.7 144.4C323.7 144.7 323.9 144.7 324.2 144.4C324.4 144.7 324.9 144.7 325.1 145C325.1 145.1 325.1 145.1 325.1 145.2C325.5 144.5 325.8 143.8 325.6 142.9L325.8 142.6L326 142.9C326.5 143.8 326.9 145 327.6 145.9C328.3 146.8 329.5 147.4 330.4 148C330.9 148.3 330.6 148.6 330.4 148.6C330.2 148.6 329.9 148.6 329.9 148.6C329.4 148.3 329 148.3 328.7 148C328.2 147.7 327.8 147.7 327.1 147.7C326.9 148.3 326.6 148.6 326.4 148.9C325.9 149.5 325.9 150.4 326.6 150.4C327.3 150.7 328 151.9 328.9 151H329.1C329.1 151.3 329.3 151.6 329.3 151.9C328.8 153.1 327.4 153.7 327.2 154.9C327.2 154.9 326.7 155.2 326.5 155.2C325.8 155.2 325.1 155.2 324.6 155.2C322.7 154.9 322 156.1 321.1 157.3C320.2 158.5 320.2 159.1 320.9 160C321.1 160.6 321.6 160.9 321.8 161.5C321.8 161.8 321.8 162.1 321.6 162.4C321.4 162.7 321.1 162.7 320.9 162.4C320.4 161.8 320.2 161.2 319.7 160.6C319.7 160.3 319.5 160.3 319.5 160.3L319.3 160.6C319.5 162.1 318.6 163.3 317.9 164.5C317.4 165.1 317.2 166 317.2 166.6C315.8 166.3 314.6 165.4 313.9 164.2C313.7 164.2 313.2 164.2 313 164.2C312.5 164.2 312.5 164.5 312.8 164.8C313.5 165.4 313.7 166 313.5 166.9C313.5 167.2 313.5 168.1 312.8 167.5C312.6 167.2 312.1 167.2 312.1 167.2C311.2 168.1 309.8 168.4 309.8 170.2C309.8 171.4 309.6 171.4 307.9 171.4V171.1C307.7 170.5 308.1 169.3 306.7 170.2C306.5 170.5 306 170.2 306 169.9C306 169.3 306 168.7 306 168.4C305.8 167.5 305.3 167.5 304.6 167.5C303.9 167.5 303.2 167.5 303.2 168.4C303.2 169 303.2 169.3 303.2 169.9C303 171.4 303 171.4 301.1 170.8C300.6 170.5 300.4 170.5 300.4 170.8C300.4 171.4 300.2 172 300.2 172.6L300 172.9L299.8 172.6C299.7 172.5 299.6 172.4 299.6 172.3L299.4 172.6C299.4 172.6 298.9 172.6 298.7 172.3C298.7 172 298.7 171.4 298.7 171.1C298.8 171.2 298.9 171.2 299 171.3C299 171.2 299 171.2 298.9 171.1C298.7 170.8 298.4 170.8 298.2 170.5C298 170.8 298 171.4 297.7 171.7V172C297 172.3 296.3 172.3 295.1 172C295.6 172.3 295.8 172.6 295.8 173.2L295.6 173.5C295.4 173.5 295.1 173.2 295.1 173.2C295.1 172.9 295.1 172.6 295.1 172C294.4 172 294.2 172.3 293.9 172.9C293.2 172.9 292.7 174.4 291.8 173.2C291.6 173.5 291.3 173.8 291.3 173.8C291.5 175.6 290.6 175.9 289.2 175.9C288.7 175.9 289 176.5 289.2 176.8C289.7 177.1 289.7 177.4 289.2 177.4C288.7 177.4 288.5 177.4 288.3 177.4C287.8 177.1 287.8 176.5 287.6 176.2C287.6 175.6 287.1 175.6 287.1 175.9C286.9 177.4 285.5 177.4 284.8 178C284.1 178.6 283.9 178 283.6 177.7C283.1 177.4 282.9 177.4 282.4 177.7C282.4 177.7 282.6 178 282.6 178.3C282.8 178.9 283.1 179.5 283.1 180.1C283.3 180.7 282.4 181.3 281.9 181C281.2 180.7 280.3 180.4 279.3 180.4C276.7 180.7 276 180.1 276.7 183.7L276.9 184C277.6 184.9 276.7 184.9 276.2 184.9C275.7 184.9 275 184.9 274.8 185.5C274.8 185.8 274.8 186.4 274.3 186.4C274.1 186.4 273.8 185.5 273.8 185.2C273.6 184.6 273.3 184 272.6 184C272.5 184 272.5 184 272.4 184.1C272.6 184.2 272.8 184.3 272.8 184.3C273 184.6 272.8 184.9 272.3 184.6C272.3 184.6 272.2 184.4 272.1 184.2C271.9 184.4 271.8 184.7 271.8 184.9C271.6 184.9 271.3 184.6 271.1 184.6C270.6 184.3 269.9 183.1 269.5 183.4C268.6 184 267.2 183.4 266.5 184.3C266.5 184.6 266.3 185.2 266.5 185.2C266.7 185.5 267.2 185.5 267.7 185.8L267.9 186.1C267.9 186.4 267.7 186.7 267.4 186.7C266 187 265.5 186.7 265.3 185.2C265.3 184.9 265.3 184.6 265.3 184.6L265.1 184.3C264.9 184.3 264.6 184.3 264.6 184.6C264.6 185.5 264.8 186.4 263.4 186.7C262.9 187 262.5 187.6 262 187.9C261.5 188.2 261.1 188.5 260.4 188.5C259.7 188.5 258.8 188.2 258.3 189.1C258.1 189.7 258.1 190.3 258.1 190.9C258.1 191.2 257.9 191.8 257.6 192.1C257.4 191.8 256.9 191.5 256.7 191.2C256.5 190.9 256.5 190.6 256.2 190.3C255 189.7 255 189.7 254.3 190.6C254.1 190.9 253.8 191.2 253.6 191.2C253.4 191.2 252.9 191.2 252.7 191.2C252 191.2 251.1 191.2 250.4 191.2C249.7 191.5 249 192.4 248.3 191.5C248.1 191.2 247.8 191.5 247.6 191.8C246.9 192.4 246.9 192.4 246.7 192.1C245.8 190.6 245.3 190.3 243.7 190.6C243.2 190.6 242.5 189.7 241.8 190.6C241.1 191.2 240.4 190.3 239.7 190C239 189.7 238.5 190.3 238.1 190.6C237.9 190.9 237.4 190.9 236.9 190.6C236.4 190.3 235.7 189.7 235.3 189.1C233.4 187.6 233.4 187.6 232.7 190C232.7 190.3 232.5 190.3 232.2 190.6L232 190.3C231.8 189.4 231.5 188.8 230.6 189.7C229.9 190.3 229 190.3 229 191.2L226.4 191.5C226.2 191.2 225.9 190.9 225.5 190.6C224.8 190 223.6 189.7 222.9 190.3C222.2 190.9 221.7 190.3 221 190C220.8 190 220.3 190.3 220.1 190.3C220.1 190.3 220.1 190.6 220.3 190.9C220.5 191.5 220.5 192.4 220.1 192.4C218.2 193 218.7 194.2 218.7 195.4C218.7 195.7 218.9 196 219.2 196.3C219.4 196.3 219.7 196 219.7 196C220.4 195.4 221.1 194.8 221.8 194.2C222 194.2 222 193.9 222.3 193.9C222.3 193.9 222.3 194.2 222.5 194.2C222.7 194.2 222.7 194.5 222.7 194.5C222.7 194.8 222.7 195.1 222.5 195.4C221.8 196.3 220.9 196.9 220.2 197.8C220 198.1 220 198.7 219.7 199C219.2 198.7 218.8 198.4 218.3 198.1C217.8 197.8 217.4 197.2 216.9 196.9C216.9 196.9 216.7 197.2 216.4 197.5C216.2 197.8 216.4 198.4 215.7 198.1C215 197.8 214.3 197.2 213.6 196.9C213.1 196.6 212.9 196.6 212.4 196.9C210.8 198.1 209.6 196.3 208.2 196V195.7C208.2 195.7 208.2 195.4 208.4 195.4C209.1 195.4 209.8 195.4 210.3 195.1C210.3 195.1 210.5 194.8 210.5 194.5C210 194.2 209.3 193.6 209.1 193.9C207.9 194.5 207.7 194.2 207.7 193.3C207.7 193 207.7 192.7 207.7 192.4C207.5 191.8 207.2 191.8 207 192.1C206.8 192.4 206.3 192.4 206.3 192.7C205.6 194.5 204.9 194.8 203.3 193.6C202.8 193.3 201.9 193.3 201.4 193.6C200.2 194.2 199.3 193.9 198.1 193.6C196.5 193.3 196.5 194.5 196.5 195.7C196.5 195.7 196.3 196 196 196L195.8 195.7C195.8 195.1 195.8 194.8 195.8 194.2C195.8 193.9 195.8 193.6 195.8 193.3L195.6 193C195.4 193 195.1 193.3 194.9 193.3C194 193.9 194 194.5 194 195.4C194 195.7 194 196.3 193.3 196C192.8 195.7 192.4 195.1 192.6 194.5C192.8 194.2 193.3 193.6 192.6 193.6C190.7 193.9 190.3 192.7 190.3 191.2C190.3 191.2 190.3 190.9 190.1 190.9C189.9 190.9 189.4 190.9 189.2 190.9C188.7 190.9 189 191.2 189.2 191.5C189.7 191.8 189.9 192.4 189.4 193C189.2 193.6 188.5 193.3 187.8 193.3C187.3 193.3 187.1 193 186.6 192.7C185.9 192.1 185.2 192.4 185 193C184.5 193.6 184.3 194.5 183.8 195.4C183.6 196 182.6 196 182.2 195.7C181.3 194.8 180.3 194.2 180.1 192.7C180.1 192.7 179.6 192.4 179.4 192.4C178.9 192.1 178.5 192.4 178.5 193C178.5 193.3 178.5 193.6 178.5 193.9C178.5 194.5 178 194.8 177.6 194.8C177.4 194.8 176.9 194.5 176.9 194.5C176.7 193 175.3 192.4 174.3 191.5C173.8 191.2 173.1 191.8 172.9 192.4C172.7 192.7 172.7 193 172.7 193.3C173.5 193.3 174.2 193.4 174.6 194.2C174.8 194.2 174.8 194.5 174.8 194.8C174.6 195.1 174.3 195.1 174.1 195.1C173.2 194.8 172.6 194.3 172.3 193.5C171.8 193.8 171.4 194.2 170.8 194.5C170.3 194.8 170.1 196 169.2 195.7C168.7 195.4 168.3 194.8 167.8 194.5L167.6 194.2C166.7 193 166 194.2 165.3 194.2C165.3 193.9 165.1 193.3 165.3 193C166.2 191.8 165.3 190.9 164.8 190C164.6 190 164.1 190 163.9 190C163.7 190 163.4 190.3 163.7 190.6C163.9 190.9 164.4 191.2 163.9 191.8C163.7 192.1 163.2 192.7 162.5 192.7C162 192.7 161.6 192.7 161.1 192.4C160.4 192.1 159.9 191.8 159 191.8C158.5 191.8 157.8 191.8 157.4 192.1C156.7 192.7 157.2 193.3 156.9 193.9C156.9 194.2 156.7 194.2 156.4 194.5L156.2 194.2C156 193.3 156 192.4 156 191.5C156 190.6 156.5 190.3 157.4 190C157.9 190 157.9 189.4 157.6 189.4C156.4 189.4 156 187.6 154.8 188.8C154.1 189.4 153.2 189.1 152.2 189.1C152 189.1 151.7 188.8 151.5 188.2C151 186.4 150.8 186.1 149.2 186.4C149 186.4 149 186.4 148.7 186.4C147.8 186.4 147.1 187.9 146.1 187C145.6 186.7 145.4 185.8 144.9 185.2C144.7 185.2 144.4 184.9 144.2 184.9C144.2 185.2 144 185.5 144 185.8C144 186.4 144 187 144 187.6C144 187.9 143.8 187.9 143.5 188.2L143.3 187.9C143.1 186.7 142.8 186.4 141.9 187.3C140.7 186.4 140 187.6 139.1 187.6C137.5 187.3 136.1 187.9 135.6 189.7C135.4 190.3 135.1 190.3 134.7 189.4C134.7 189.1 134.5 189.1 134.2 188.8L134 189.1C134 189.4 134 189.7 134 190C133.8 190.9 133.8 190.9 132.1 191.2C131.9 190.3 130.9 190.3 130.2 190.3C129.7 190.3 129.5 190.6 129.3 190.6C129.1 190.9 128.6 191.2 128.4 190.6C128.2 190.3 128.2 190 128.4 189.7C129.1 188.8 128.6 188.2 127.9 187.9C127.2 187.6 126.3 188.5 125.6 187.6C125.4 187.9 124.9 188.2 124.7 188.5C124.2 189.1 124.9 189.1 125.4 189.1C125.6 189.1 126.1 189.1 126.3 189.1C126.5 189.4 126.5 189.4 126.8 189.7L124.5 190.6C123.8 189.7 123.1 189.7 122.4 190C121.5 190.6 120.5 190.3 119.6 190C119.4 190 119.1 190.3 118.9 190.3C120.1 191.5 118.9 192.1 118.2 192.4C117.5 192.7 116.8 193 116.6 193.9C116.4 194.8 115.2 194.8 115 193.9C114.8 193 114.1 192.7 113.6 192.1C113.4 191.8 112.9 191.8 112.7 191.8C112.2 191.8 112 192.1 112 192.7C112 193.3 112 193.9 112 194.5C112 194.8 111.8 194.8 111.5 195.1L111.3 194.8C111.3 194.5 111.3 193.6 110.4 194.2C110.2 194.5 109.9 194.8 109.5 195.1C109 195.4 108.3 195.7 107.9 195.1C107.4 194.5 106.5 194.5 105.8 194.5C105.3 194.5 105.1 194.2 105.1 193.6C105.1 193.3 104.9 193 104.6 192.7C104.4 192.7 104.4 193 104.1 193.3C103.2 194.8 102.9 194.8 102 193.3C101.5 193 101.1 192.4 100.8 192.7C99.9 193.3 99.4 193.3 98.5 192.7C98 192.4 97.1 192.7 96.4 192.1C95.9 191.8 95.7 192.4 95.2 192.4C94.3 193 93.6 192.7 92.9 191.8C92.7 191.5 92.7 191.5 92.9 191.2C93.4 190.9 93.6 190.3 93.1 189.7C93.1 189.7 92.4 190 92.2 190.3C91.7 190.3 91.3 190.9 91 190.9C90.8 190.9 90.3 190.3 90.1 190C89.4 188.8 88.5 188.8 87.3 189.4C86.8 189.7 86.6 190.3 86.1 189.7C85.4 188.8 84.7 189.1 84 189.7C83.3 190 82.4 190.3 81.9 189.7C80.3 188.5 79.1 189.4 77.7 190C77.7 189.1 77.7 188.5 77.7 187.9C77.5 187.6 77.2 187.3 76.8 187.3C76.6 188.2 75.6 188.8 75.2 189.4C75.2 189.4 75.2 189.7 75.4 190C75.6 190.6 75.4 190.9 74.9 190.9C74.7 190.9 74.2 190.9 74.2 190.6C73.7 189.7 73.5 188.8 74.4 188.2C74.9 187.9 74.9 187.3 74.6 187C73.4 186.1 74.1 185.2 74.6 184C75.1 183.1 74.6 181.6 74.6 180.4C74.8 178.9 74.1 179.5 73.4 179.8C73.2 179.8 72.5 180.1 72.2 179.5C72 178.9 71.5 178.6 71.3 178C71.1 177.4 70.6 177.4 69.9 177.7C69.7 178 69 178 68.3 178C67.8 178 67.4 177.7 67.4 177.1C66.9 176.8 66.2 176.5 66 176.2C64.6 174.4 64.6 174.4 62.7 174.4C62.5 173.5 61.3 172.9 61.5 172C61.7 171.1 62 169.9 61.5 169.3C60.8 168.4 59.4 168.7 58.2 168.1C57.5 167.5 56.1 167.8 55.2 167.8C55.4 166.6 54.5 166 54.3 165.1C54.1 164.2 53.6 164.2 53.1 164.8C52.9 164.8 52.6 165.1 52.4 165.1C52.2 165.7 51.9 166 51.5 166C51 166 50.8 165.7 50.6 165.7C49.4 165.1 48.3 164.5 48.5 162.7C48.5 161.8 48.7 161.5 49.7 161.2C50.4 160.9 50.4 161.5 50.2 160.9C50 160.6 50 160.6 49.7 160.3C48.1 158.8 46.4 157 46.4 154.6C46.4 154.6 46.4 154.3 46.2 154.3C46 154 45.5 154 45.3 154C45.1 154 44.8 154.3 45.1 154.6C45.6 155.2 46 155.8 45.8 156.7C45.6 157.3 45.3 157.6 44.9 157.6C44 157.3 43 157 42.1 156.4C41.9 156.4 42.1 154.6 42.6 154.6C42.8 154.6 43.1 154.9 43.3 154.9C43.8 154.9 43.8 154.3 43.8 154C43.8 153.7 43.6 153.1 43.6 152.8C43.4 152.8 43.1 152.8 42.9 153.1C42.2 153.4 41.5 153.4 41.3 152.8C40.6 150.4 38.3 149.8 37.1 148C37.1 148 36.6 148.3 36.4 148.3C35 148.6 34.8 148.6 34.1 147.7C33.9 147.4 33.9 147.1 34.3 147.1C34.8 146.8 35.2 146.8 35.7 146.8C36.6 146.5 36.2 146.2 35.9 145.6C35.9 145.3 36.1 145 36.4 145C37.1 145 38 144.4 38.3 145.6C38.3 146.2 38.5 146.8 39.2 146.8C39.4 147.1 39.7 147.7 39.9 147.7C40.4 148 41.1 148 41.5 147.7C42 147.4 42.4 147.1 42.9 146.8V146.7C42.7 146.6 42.7 146.4 42.7 146.2C42.2 144.8 41.7 143.3 41.3 142C40.8 141.1 41.1 140.2 39.7 141.1C39.7 141.1 39.5 140.8 39.2 140.5C39 140.2 39 139.9 38.7 139.6C37.1 140.8 37.5 138.4 36.4 138.4C35.8 137.5 35.4 137.3 35 137.8C35.3 137.8 35.6 137.8 36 137.8C36 138.7 36 139.6 36 140.5C36 141.4 35.3 142 34.8 142.3C34.1 142.9 33.6 142.6 33.2 142C33 141.4 32.3 141.1 33 140.5C33.6 140 34.1 139.3 34.2 138.5C33.8 138.6 33.3 138.6 33 138.2C32.5 137.6 32.5 137 32.1 136.7C31.6 136.1 31.4 134.9 30.2 135.2C30.2 135.8 30 136.7 30 137.3V137.6C30 137.6 29.8 137.9 29.5 137.9L29.3 137.6C29.3 136.4 29.1 135.5 27.7 135.2C27.5 135.2 27.2 134.3 27.2 134C27.2 132.5 26.3 132.5 25.3 132.5C25.1 131.9 24.8 131.6 24.4 131.6C24.4 130.7 23.2 131 22.8 130.4C22.4 129.8 22.6 129.2 21.9 128.9C21.7 128.6 21.2 128.9 21 128.9C21 128.9 21 129.2 21.2 129.5C21.4 129.8 21.4 130.1 21.2 130.1C20.7 130.1 20.5 130.1 20.3 130.1C20.1 130.1 19.8 129.5 19.6 129.2C19.4 128.9 18.9 128.6 18.7 129.2C18.5 129.5 18.2 130.1 18 130.1C17.3 130.4 16.8 129.8 16.4 129.5C15.5 128.6 15.5 128.6 14.3 129.5C14.1 129.8 13.8 129.8 13.6 130.1C13.4 130.1 13.4 130.1 13.1 130.1C12.9 130.1 12.6 130.1 12.4 129.8C12.2 129.5 11.9 128.9 12.4 128.6C12.6 128.3 13.1 128.3 13.3 128.3L13.5 128C13.3 127.7 13 127.4 13 127.4C11.8 127.4 11.1 127.1 10.7 125.9C10.7 125.6 10 125.6 9.5 125.3C9 125 9 124.1 9.7 123.8C11.6 123.2 11.1 122.9 9.7 122.6C9.2 121.4 8.3 120.8 6.9 120.8C6.7 120.8 6.4 120.5 6.7 120.2C6.9 119.9 7.4 119.6 6.7 119.3C5.3 119 4.6 118.1 4.4 116.9C4.4 116.9 3.9 116.6 3.7 116.6C3.7 116.3 3.7 116 3.5 116C3 116 2.8 116.3 2.8 116.6C2.3 116.6 2.1 116.6 1.9 116.6C1.7 116.6 1.7 116.6 1.4 116.6C0.9 116.6 0.9 116.3 1.2 116.3C1.9 115.4 2.8 114.5 3.1 113.3C3.3 112.7 3.6 112.4 3.1 112.1C1.7 111.2 2.2 110 2.9 109.1C3.4 108.2 3.4 107.6 2.7 106.4C2.7 106.1 2.9 105.5 3.2 105.2C3.7 104.6 3.4 104.6 3 104.3C2.5 104.3 2.1 104.3 2.1 103.7C2.1 103.7 2.6 103.4 2.8 103.4C3.5 103.4 4.2 103.4 4.4 102.5C3.9 102.5 3.2 102.8 3 102.2C2.8 101.9 2.8 101.3 2.8 101C2.8 100.4 3 99.8 3.7 99.8C4.4 99.8 4.9 99.8 5.6 99.8C6.1 100.1 6.5 99.5 6.5 99.2C6.5 98.3 6.5 97.1 6.5 96.2C6.5 95.9 7 95.6 7.4 95.6C7.4 95.9 7.4 96.2 7.6 96.2C8.1 96.2 8.3 95.9 8.3 95.6C9.7 95.9 10.4 95.3 11.3 94.7C10.1 93.5 12 92.3 11.3 91.1C10 90.4 9 90.1 10 89.6C10.5 89.3 10.9 89.6 11.4 89.6C11.9 89.6 12.1 89.9 12.1 90.5C12.1 90.8 12.6 91.1 13 91.1C13.9 89.6 15.8 89.6 17.2 88.7C17.9 89 18.6 89.3 19.3 89.3C20 89.3 20.5 89 20.5 88.4C20 88.1 19.6 88.1 19.6 87.5C19.4 86.6 19.1 86.3 18.4 86.9C18.2 87.2 17.7 86.9 17.7 86.6C17.5 85.4 17.9 83.9 17 83C16.8 83 17.5 82.4 17.9 82.7C18.1 83 18.4 83 18.6 83.3C19.1 83.6 19.3 83.6 19.5 83.3C19.5 83 19.7 82.4 19.5 82.4C19.3 82.1 18.8 82.1 18.3 81.8C17.8 81.5 17.6 80.9 17.8 80.6C18.5 80 19.7 79.7 19.9 78.5L20.4 78.8C20.4 79.4 20.6 80 21.3 80C21.3 80 21.3 80 21.3 79.9C21.3 79.9 21.3 79.8 21.3 79.7C21.3 80 21.1 80 21.3 79.7C21.3 77.1 21.3 74.8 21.3 72.2L21.5 71.9C21.7 72.2 22 72.2 22 72.5C22 73.1 22 73.4 22 74C22 75.2 22.2 75.8 23.4 74.9C24.1 75.5 25.3 76.1 26 75.5C27.2 74.6 27.9 75.2 28.6 76.1C28.8 76.4 29.1 76.4 29.3 76.1C29.5 75.8 29.5 75.5 29.5 75.2C29.5 74 29.3 73.7 28.3 73.7C27.6 73.7 26.4 73.7 25.7 74.3C25.5 74.6 24.5 74 24.3 73.7C24.1 73.4 24.1 73.4 24.3 73.1C24.8 72.5 25.2 72.2 25.7 72.5C27.6 73.4 29.2 73.1 31.1 72.8C31.8 72.8 31.6 71.9 31.6 71.3C31.8 71.3 32.1 71.6 32.3 71.6C32.5 71.9 33 72.2 33.2 71.6C33.2 70.7 33.2 69.8 33.2 69.2C32.7 67.4 33.4 65.6 34.4 64.1C35.3 62.9 34.2 63.2 33.7 62.9C33.2 62.6 33.2 61.7 33.5 61.7C34.7 61.1 35.6 60.5 35.4 59L35.6 58.7L35.8 59C35.8 60.5 36 62 36 63.5L36.2 63.8C36.2 63.5 36.7 63.5 36.7 63.2C36.7 62.6 36.7 62 36.7 61.4C36.7 60.8 36.9 60.5 37.4 60.5C37.6 60.5 37.9 61.1 37.9 61.4C37.9 61.7 38.4 62 38.8 62C39.2 62 39.5 61.7 39.5 61.1C39.5 60.5 39.5 59.9 39 59.3C38.5 58.4 39.5 58.1 39.7 57.8C40.2 57.2 40.6 57.8 40.9 58.1C41.6 58.7 42.3 59.3 43.2 58.4C43.4 58.1 44.1 58.1 44.6 58.1C45.1 58.1 45.5 57.8 45.5 57.2C45.3 55.7 46 55.1 47.4 54.5C48.3 53.9 49.5 53.3 50.4 52.7C50.6 52.7 50.6 52.1 50.6 52.1C49.2 50.6 50.4 50 51.3 49.1C52.2 48.5 50.8 47.9 51.1 47.3C51.3 47 51.3 46.7 51.6 46.4C51.8 46.4 51.8 46.7 52.1 46.7C52.8 47 53.3 47.6 53.3 48.5L53.5 48.8C53.5 48.5 54 48.5 54 48.2C54 47 54 45.8 54 44.6C54 43.7 54 43.7 54.9 44C55.8 44.3 57 44.6 56.8 46.1C56.6 46.1 56.8 46.4 56.8 46.4C56.8 46.7 57.7 46.7 58 46.7C58.5 46.7 58.5 46.4 58.2 46.1C58.2 46 58 45.7 58 45.4C57.8 44.2 58.2 43.6 59.6 43.3C60.1 43.3 60.3 43.3 60.5 43C60.7 42.7 60.7 42.4 60.7 42.1C60.5 41.8 60.5 41.5 59.8 41.8C59.6 41.8 59.1 42.1 58.6 42.1C58.4 42.1 58.1 41.8 58.1 41.8V41.5L58.3 41.2C59 40.3 59.9 40 60.9 40.3C61.8 40.6 61.6 41.8 61.6 42.4C61.6 42.4 61.8 42.7 62.1 42.7L62.3 42.4C62.5 41.8 62.3 41.2 62.5 40.9C62.7 40.6 63 40.3 63.2 40.3C63.7 40.3 64.1 40.3 64.4 40.9C64.6 41.5 64.6 42.1 65.6 41.5C65.8 41.2 66.1 41.2 66.3 40.9C67.2 40 67.2 40 68.4 41.5C68.9 41.8 68.9 42.1 69.1 41.5C69.1 40.9 69.6 40.3 70.5 40.3C71.7 40.6 72.8 40 73.8 40.6C74 40.6 74.3 41.5 74.7 40.6C74.9 40.3 74.9 39.7 74.5 39.4C74.3 39.1 74 38.8 74.5 38.5C74.7 38.2 75.2 37.9 75.4 37.9C76.1 38.2 76.8 38.5 77.5 38.5C78.9 38.8 79.1 38.8 79.4 37.3C79.4 36.6 79.6 36.2 79.7 36.1C79.7 36.1 79.7 36.1 79.6 36.2C79.7 36.1 79.7 36.1 79.7 36.1C79.9 35.9 80.1 35.9 80.3 36.2C80.5 36.5 80.8 36.5 81 36.8C81.5 37.4 81.7 38.3 81.9 38.3C83.1 38.3 84 39.2 85.2 38.9C86.1 38.6 86.6 39.2 86.4 40.4C86.2 40.7 85.9 40.7 85.9 40.7H86.1C86.8 41.3 87.7 41.6 88.4 41.9C88.6 41.6 88.9 41.3 88.9 41C89.1 40.1 88.7 39.5 88.2 38.9C88.2 38.9 88.7 38.3 88.9 38C89.1 37.7 89.4 37.7 89.6 38C90.1 38.6 90.8 39 91.3 39.5C91.8 39.5 92 39.5 92.5 39.5C92.5 40 92.2 40.2 91.8 40.3C91.8 40.3 91.8 40.3 91.8 40.4C92.7 40.4 93 39.8 92.7 39.2C92.5 38.3 91.8 37.4 91.3 36.5C91.1 36.2 91.1 35.6 91.1 35C92 35 92.3 36.2 93.2 36.5C93.4 36.5 93.7 36.5 93.7 36.5C93.7 36.2 93.9 35.9 93.9 35.6C93.9 34.7 93 34.4 93.2 33.5C93.2 33.2 93.4 32.9 93.7 32.9C94.2 32.9 94.4 32.9 94.6 33.2C95.3 33.8 95.1 34.4 95.1 35C95.3 35.9 95.1 37.1 96.5 35.9C97.7 36.8 99.1 37.4 100.2 38.3C100.7 38.6 100.9 39.5 101.6 38.9C101.8 38.6 101.8 38 101.8 37.7C102 37.4 102 37.1 102.3 36.8C102.5 37.1 102.5 37.1 102.8 37.4C103 37.4 103 37.7 103 37.7C103.5 38.3 104.2 38.3 104.6 38C104.8 37.7 105.3 37.4 105.5 37.1C105.7 36.8 105.5 35.9 105.3 35.9C105.1 35.9 104.8 35.9 104.6 36.2C104.4 36.5 104.1 36.5 103.9 36.2C103.7 35.9 103.9 35 104.1 35C105.7 34.7 107.4 34.7 109 35C109.5 35 110.2 35.9 109.9 36.2C109.9 36.8 109 37.1 108.3 36.8C107.8 36.5 107.6 36.5 107.4 36.5C107.2 36.5 106.9 36.8 106.9 36.8C106.9 37.1 107.1 38 107.6 38.3C108.1 38.6 109 38.9 109.2 39.5C109.4 40.1 109.7 40.7 110.1 41C110.3 41.3 110.8 41.6 111.3 41.6C112 41.6 112.7 40.7 113.6 41.6C113.8 42.2 115 41.9 115.7 41.9C115.7 41 116.9 41.3 117.3 40.7C117.5 40.4 117.5 40.1 117.5 39.8C117.3 39.2 117 39.2 116.6 39.5C116.4 39.5 115.4 39.8 115.4 39.8C114.5 38.6 113.8 39.5 113.1 39.8C112.9 39.8 112.4 39.5 112.2 39.5C112.2 39.5 112.2 39.2 112.4 38.9C112.9 38.3 113.3 38 114 38C115.4 38 116.8 38 118.2 38C120.3 38 120.3 38 121.5 36.5C122 36.2 122.2 36.2 122.2 36.5C122 38.3 123.6 37.7 124.3 38.6C125 39.2 125.7 39.8 126.4 40.4C126.6 40.7 127.1 40.4 127.1 40.1C127.1 39.5 127.1 39.2 127.1 38.6C127.1 38 126.9 37.4 127.6 37.1C127.8 37.1 128.3 37.7 128.5 38C129.2 38.6 129.7 38.6 130.1 38C130.3 37.7 130.8 37.7 131 37.7C131.2 37.4 131.2 37.4 131.5 37.1C131.3 37.1 131 36.8 130.8 36.8C130.6 36.5 130.3 36.5 130.1 36.2C130.3 36.2 130.6 35.9 130.8 35.9C132 35.9 132.2 35.9 133.6 36.8C133.8 38 134.1 38 134.8 37.4C135.7 36.8 136.4 35.9 136.4 34.4C136.4 34.1 136.9 33.8 136.9 33.8C137.1 34.1 137.4 34.1 137.6 34.4C138.1 34.7 138.3 35.3 138.1 35.9C138.1 36.2 137.4 36.5 137.9 37.1C138.4 37.4 138.8 37.7 139.3 38C139.8 38.3 140 37.7 140.2 37.4C140.9 36.2 140.9 36.2 142.1 36.8C142.6 37.1 143 37.7 143.7 37.1C144.2 36.5 144.6 36.2 145.3 36.5C145.8 36.8 145.8 37.4 146 37.7C146.2 38 146.7 38 147.2 38C147.4 38 147.7 37.7 147.7 37.4C147.7 36.8 147.7 36.2 147.7 35.9C147.9 35.6 147.9 35 148.2 34.7C148.7 35 148.7 35.6 148.7 35.9C148.7 37.4 150.1 38 150.8 38.9C151.5 39.5 151.7 38.9 152 38.6C152.7 38 152.7 37.1 152.7 36.5C153.2 36.5 153.6 36.5 154.1 36.5C155.3 37.1 155.7 37.1 156.2 36.2C156.4 35.9 156.4 35.3 156.7 35C156.7 34.7 157.2 35 157.2 35.3C157.2 36.2 157.7 36.8 158.6 36.8C158.8 36.8 158.8 37.1 159.1 37.1C158.9 37.4 158.6 37.7 158.4 37.7C158.2 37.7 157.9 38 157.7 38C157.9 38.3 157.9 38.6 158.2 38.6C158.7 38.9 158.9 38.9 159.4 39.2C160.3 39.8 160.8 39.8 161.7 38.6C161.9 38.3 161.9 38.3 161.5 38C160.1 37.1 160.1 37.1 161 35.6V35.3C161.9 35.6 162.6 36.5 163.8 36.2C164.7 35.9 165.4 37.4 166.1 37.1C167.3 36.8 168.4 36.2 169.8 35.9C169.6 35.6 169.3 35.3 169.3 35C169.1 34.4 170.2 33.2 170.9 33.5C171.1 33.5 171.6 33.8 171.6 34.1C171.6 34.7 171.6 35.3 171.8 35.9C171.8 36.1 172 36.2 172.2 36.2C172.2 36.1 172.1 36 172 35.9C172.2 35.9 172.3 35.9 172.5 35.9C172.6 34.9 173.1 34.4 174.1 34.1C174.1 34.1 174.3 33.8 174.3 33.5C174.5 33.5 174.8 33.8 175 33.8C176.9 34.7 177.6 34.7 178 32.6C178.2 32.3 178.2 32 178.5 31.7C178.7 31.4 179.2 31.4 179.4 31.4C179.9 31.4 179.9 31.7 179.6 32C178.7 32.9 179.6 33.2 180.1 33.8C180.3 34.1 180.6 33.8 180.6 33.5C180.1 31.4 182.5 31.4 182.7 29.9L182.9 29.6C183.1 29.9 183.4 29.9 183.4 30.2C183.9 31.4 182.7 32.3 182.5 33.2C183.4 33.8 184.6 34.4 186 34.1C186.7 34.1 186.9 34.4 187.2 35C188.4 34.4 188.1 34.4 188.4 32.9C188.6 32 189.1 31.4 189.1 30.8C189.1 30.5 188.6 30.5 188.4 30.5C187.9 30.5 187.7 31.4 187.2 30.8C186.7 30.2 186.3 29.9 186.3 29.3C186.5 29.3 186.5 28.7 186.8 28.7C187.7 28.4 188.9 28.7 189.1 27.2C189.1 26.9 189.6 26.6 189.8 27.2C191 27.2 191.9 27.2 193.1 27.2L193.3 27.8C191.9 29 193.3 30.2 193.5 31.1C194 32.3 194.7 32 195.4 32C195.4 32 195.4 31.7 195.2 31.4C195.2 31.1 194.7 30.5 195.4 30.5C196.1 30.2 197 30.5 197.7 30.2C198.4 29.9 198.9 29.3 199.8 29.9C199.8 30.2 200.7 29.6 201.2 29.3C201.3 29.2 201.4 29 201.4 28.9C201.3 28.8 201.2 28.6 201.2 28.4C201.5 28.4 201.7 28.5 201.8 28.7C202.5 28.7 203.1 28.4 203.5 28.7C204.4 29 205.4 29.9 205.1 31.1C204.9 32 205.6 32 206 31.4C206.2 31.1 206.5 31.1 206.7 31.4C206.7 31.7 206.9 32.3 207.2 32.6C207.4 32.6 207.9 32.6 208.1 32.6C208.6 32.6 208.8 32.3 208.3 32C207.4 31.1 208.3 29.6 207.1 28.7C207.1 28.7 207.6 28.1 207.8 27.8C208.3 27.2 209.2 27.5 209.9 27.5C210.4 27.5 210.6 28.1 210.6 28.4C210.6 29 209.9 28.7 209.7 28.4C209.2 28.1 209.2 28.1 209 28.4C208.8 29 209 29.6 209.5 29.9C210 30.2 210.2 30.8 210.7 30.2C211.2 29.6 212.1 29.6 212.8 29.6C214 29.9 215.4 29.9 215.6 29.6C217 29 217 29 216.5 26.9C216.5 26.3 216.5 25.7 216.5 25.4C216.5 25.4 216.5 25.1 216.7 25.1H216.9C217.1 26.6 218.5 26.6 219.5 27.2L219.7 26.9V26.6C219.5 25.4 218.1 25.4 217.8 24.2C217.8 23.9 217.8 23.6 217.8 23.6L218.3 23.3C219 23.6 219.9 24.2 220.6 24.5C221.1 24.8 221.3 24.8 221.5 24.8C222.2 24.8 222.4 24.5 222.4 23.9C221.9 23.9 221.5 23.6 221.2 23C221.2 22.7 221.4 22.1 221.9 22.1C222.1 22.1 222.6 22.4 222.8 22.4C223 22.4 222.8 22.7 223 22.7C222.8 23 222.5 23.6 222.3 23.9C223.9 23.6 225.6 23.9 226.3 26C226.3 26.6 226.8 26.9 227 27.2C227.2 27.5 227.7 27.5 227.7 27.5C227.7 27.5 227.9 27.2 227.9 26.9C227.9 26 227.9 25.1 227.9 24.2C228.6 23.9 229.1 23.6 229.8 23.3C229.8 23.6 229.8 23.9 229.8 24.2C229.8 25.1 229.6 26.3 231 26.3C231.5 26.3 231.5 26.9 231.7 27.2C231.7 27.8 232.4 28.1 232.4 27.5C232.4 26.6 233.1 26 233.8 25.4C234.3 24.8 234.3 24.2 234.3 23.6C234.3 23 234.5 22.4 235 22.7C235.5 22.7 236.2 23.3 235.9 23.9C235.9 24.5 235 24.8 236.1 25.1C237 25.4 237.7 26.3 238.9 26C239.1 25.1 238.9 24.2 238.2 23.6C238 23.3 238.2 22.7 238.4 22.7C239.6 23.9 240.5 22.1 241.4 22.4C242.6 22.4 243.5 22.4 244.7 22.4C244.9 22.4 245.2 22.7 245.4 22.7C245.4 22.7 245.2 23 244.9 23.3C244 24.2 242.8 23.9 241.9 23.3C241.4 23 241.2 23 241.2 23.3C241.2 23.6 241.2 23.9 241.2 24.2C241.7 25.1 242.4 25.4 243.3 25.1C244 24.8 244.7 24.8 245.4 25.1C247 25.4 247.3 25.1 247 23.6V23.3C247.5 23 247.7 23 247.9 23C248.4 23 248.4 23.6 248.6 23.9C249.1 24.8 250 24.8 250.5 24.2C251 23.6 251.2 23 251.7 22.4C251.9 21.8 252.2 22.1 252.4 22.4C252.6 22.7 252.6 23 252.6 23.3C252.8 23.6 252.8 24.2 253.1 24.5C253.8 24.8 254.5 24.8 255.2 25.1C255.2 24.8 255.4 24.5 255.4 24.2C255.4 23.9 254.9 23.6 254.5 23.6C254.3 23.3 254 23.3 253.8 23L254 22.7C254.9 22.7 255.6 21.2 256.8 22.4C257 22.7 257.5 22.4 257.7 22.4C257.9 22.4 257.9 22.1 257.7 21.8C257.5 21.5 257.5 20.9 257.9 20.9C258.6 20.9 259.5 20.9 260.2 20.9C261.8 20.9 261.8 20.9 261.8 20C262 19.4 262 18.8 262.5 19.1C263 19.1 263.7 19.7 263.4 20.3C263.1 20.9 262.5 21.5 263.6 21.5C264.3 21.5 265.2 21.8 265.5 20.6C265.5 20.3 265.5 19.7 265.7 19.4C265.9 19.1 265.9 19.1 266.4 19.4C267.1 20 267.8 20 268.3 20.6C268.5 20.9 268.5 21.8 269.2 21.8C269.7 20 271.5 20.3 272.7 19.4C272.7 19.1 273.2 19.7 273.4 19.7C274.1 20 274.8 20.3 275.5 19.7C276.9 18.8 278.1 19.1 279.5 19.7C280.4 20 280.2 19.1 280.4 18.8L280.6 18.5C281.5 18.8 281.1 19.7 281.5 20.3C282.2 20.9 281.7 20.9 281.3 21.2C280.8 21.2 280.6 21.5 280.4 21.5C281.8 23.6 280.9 26 281.3 28.1C281.3 28.1 281.3 28.4 281.5 28.4C281.7 28.4 281.7 28.4 282 28.4C283.6 27.8 284.6 26.3 285.7 25.1C285.5 25.1 285.5 24.8 285.2 24.8C284.7 24.8 284.3 24.8 283.8 24.8C283.8 24.5 283.8 24.2 283.8 23.9C284.7 23.6 285 23.6 286.1 23.9C286.3 23.9 286.3 23.9 286.6 23.9C287.1 23.9 287.3 23.9 287.5 23.9C287.5 23 288 22.7 288.7 23C289.4 23 289.9 23.6 290.6 23.9L290.8 24.2C290.6 24.5 290.3 24.8 290.1 24.8C289.9 24.8 289.6 25.1 289.4 25.1L289.6 25.4C290.8 25.7 291.7 26.6 292.9 26.6C292.7 28.1 293.8 29 294.3 30.2C294.8 31.1 294.8 31.7 294.8 32.3C294.3 32.9 293.6 33.2 292.9 33.8C292.4 34.1 292 35 291.3 35C291.3 35 291.3 35.3 291.1 35.6C290.2 36.8 289.9 37.1 288.5 36.2C287.6 35.6 286.9 35.9 286.4 36.5C286.2 36.5 286.2 36.8 285.9 37.1C286.1 37.1 286.4 37.4 286.6 37.4C286.8 37.7 286.8 37.7 287.1 37.7C287.3 38 287.3 38 286.9 38.3C285.5 38.9 283.9 39.5 282.7 40.7C282 41.3 281.1 41 280.1 41C279.6 41 278.9 41.6 279.4 42.2C280.1 43.4 279.9 43.4 278.7 44C277.5 44.6 277.5 45.8 278.5 47C278.7 47.3 279 47.3 279.2 47C279.4 47 279.4 46.7 279.7 46.7C280.4 46.4 281.3 45.5 281.8 45.8C282.5 46.1 283.2 47 283.9 47.6C284.6 48.2 283 49.1 284.1 49.4C284.8 49.7 285.5 50 286 50.6C286.5 50.9 286.9 51.5 287.4 51.8C288.1 52.4 288.1 51.5 288.1 51.2C288.3 50.9 288.3 50.3 288.3 50L288.5 49.7L288.7 50C288.7 50.9 289.2 51.5 290.1 51.5C290.8 51.5 291.5 51.2 292 51.5C292.5 51.8 293.2 52.1 293.9 51.5C294.1 52.1 294.6 52.4 294.8 53C295.5 53.9 296.7 54.5 297.6 53.9C298.5 53.3 299.2 53.6 299.9 53.9C300.4 54.2 300.8 53.9 301.3 54.2C302 54.5 302.7 55.4 303.4 54.8C304.1 54.5 304.8 53.9 305.3 53C305.5 52.7 305.1 52.1 304.8 51.5V51C305 50.4 305.3 50.4 305.5 50.7C306 51 306.4 51.6 306.9 51.9C307.8 52.8 307.8 53.1 306.9 54.3L306.7 54.6C306 55.5 306 55.5 306.9 56.1C307.1 56.1 307.1 56.4 307.4 56.4C307.9 56.7 308.3 57.3 308.6 56.1C308.8 54.3 310.5 54.6 311.6 53.7C312.3 53.1 312.1 54 312.3 54.3C312.3 54.6 312.5 54.6 312.8 54.9C313.5 54.3 314 54.6 314.7 55.2C315.2 55.8 315.2 56.4 315.2 57C315.2 57.3 315.4 57.9 315.7 58.2C315.7 58.2 315.9 58.5 315.9 58.8C316.4 58.5 316.6 58.5 317.1 58.2C317.6 57.9 317.8 57 318.5 57.3C319 57.3 319.7 57.6 320.1 57.9C320.6 58.2 320.6 58.2 320.1 58.5C319.2 58.8 318.2 59.1 317.3 59.7C317.1 59.7 317.1 60 317.1 60C317.1 60 317.1 60.3 317.3 60.3C318.2 60.3 319.4 60.9 320.3 60C321.2 59.4 321.7 60 322.6 60.3C323.8 60.9 324 61.5 324 62.4C324 63 324.2 63.3 324.7 63.3C326.6 63 328.2 63.6 329.8 62.7C330.5 62.4 331.2 63.3 332.1 63.6C331.9 63.9 331.9 64.2 331.6 64.5C331.1 65.4 331.4 66 332.3 66.3C332.5 66.9 332.8 67.2 333.2 67.2C334.1 66.9 335.1 66.6 336 66C336.9 65.4 336.9 66 337.4 66.3C338.1 66.9 337.9 67.8 337.9 68.4C337.9 69.3 338.6 69.9 339.3 70.5C340.2 71.1 340.7 70.2 341.4 69.9C341.6 69.9 342.1 69.9 342.3 69.9C342.5 69.9 342.5 70.2 342.3 70.5C342.1 70.8 341.8 71.1 342.5 71.4C343 71.4 343.4 71.7 343.7 72C343.9 72.3 343.7 72.6 343.7 72.9C343.5 73.2 343.2 73.2 343 72.9C342.5 72.6 342.3 72.6 342.1 73.2C342.1 73.5 342.1 73.8 342.1 74.1C342.1 74.4 342.3 75 342.6 75.3C343.3 76.8 344.7 81.3 344.9 82.8C345.1 83.7 345.8 84.3 346.8 84.6C346.8 84 347.3 83.7 347.7 83.4C347.9 83.1 348.4 83.1 348.4 83.4C348.6 84.9 350 85.5 350.7 86.7C351.2 87.6 352.3 87.9 352.8 89.1C353.5 90.6 354.4 90.3 355.6 89.1C356.3 88.5 355.4 88.5 355.1 88.5C354.4 88.5 354.2 88.2 354.2 87.6C354.2 87.3 354.4 87 354.4 86.7H354.6C355.1 87 355.5 87.6 355.8 86.4C355.8 86.1 356 85.8 356.3 85.5C356.5 85.5 356.8 85.8 356.8 86.1C356.8 86.4 356.8 86.7 356.8 87C356.8 87.9 356.8 88.8 358.2 88.8C358.7 89.1 359.1 89.4 359.6 89.7C359.6 89.4 359.6 89.1 359.8 89.1C360.3 88.8 361.2 89.1 361.2 89.4C361.2 90.6 361.4 91.8 361.4 93L361.6 93.3C361.8 93.3 362.1 93 362.1 92.7C362.1 92.1 362.6 91.8 363.3 91.8C363.8 91.8 364 92.1 364 92.7C363.8 92.7 363.3 92.7 363.3 93C363.1 94.2 362.8 95.4 363.5 96.6C365.7 97 365.2 97.6 363.6 98.5ZM323.3 110.1C323.3 110.1 323.1 110.4 323.1 110.7C322.9 110.7 322.6 110.4 322.6 110.4C322.8 110.1 322.8 109.8 322.8 109.5C323.1 109.6 323.1 109.9 323.3 110.1ZM321.5 107.8V108.1L321.3 108.4C321.3 108.1 321.1 107.8 321.3 107.8H321.5ZM321.7 129.9C321.7 130.2 321.5 130.2 321.2 130.5C321 129.9 320.7 129.6 320.7 129.3C320.7 129 321.2 129 321.4 129.3C321.5 129.3 321.7 129.6 321.7 129.9ZM319.6 133.7C319.4 133.7 319.1 133.4 319.1 133.4C319.3 133.1 319.8 132.5 320.3 132.2L320.5 132.5C320.8 133.4 320.3 133.7 319.6 133.7ZM312.3 134.9C312.3 135.2 312.1 135.5 312.1 135.5C311.6 135.8 311.4 135.5 311.6 135.2C311.6 134.9 312.1 134.9 312.3 134.9ZM222.7 193.1C222.7 192.8 222.9 192.8 222.7 193.1V193.1ZM37.6 142.1C37.6 142.1 37.6 141.8 37.8 141.8C37.8 141.8 38 141.8 38 142.1C37.8 142.4 37.6 142.1 37.6 142.1ZM38.3 146C38.3 145.4 38.3 145.1 38.5 144.5C38.7 144.2 39.7 144.2 39.7 144.5C39.9 144.5 39.9 145.1 39.7 145.1C39.2 145.4 38.8 145.7 38.3 146ZM295 34.9V35.2L294.8 35.5C294.8 35.5 294.8 35.2 294.8 34.9H295V34.9ZM287.8 41.5C287.6 41.5 287.6 41.8 287.3 42.1L287.1 41.8C287.1 41.2 286.9 40.9 287.3 40.6C287.3 40.6 287.5 40.6 287.5 40.9C287.5 40.9 287.8 41.2 287.8 41.5ZM366.6 133.1C366.4 133.1 366.1 132.8 365.9 132.8C366.1 132.5 366.4 132.2 366.4 132.5C366.9 132.5 367.1 132.8 367.3 132.8C367.1 132.8 366.9 133.1 366.6 133.1ZM368.3 134.9C368.3 134.9 368.1 134.9 367.8 134.6C367.8 134.3 368 134.3 368 134.6C368 134.3 368.2 134.6 368.2 134.6V134.9H368.3ZM367.3 107.2C366.8 106.9 366.4 106.3 365.9 106C366.8 105.1 366.4 104.8 365.2 104.5L365 104.2C365 104.2 365 103.9 365.2 103.9C366.6 103.6 367.3 103.9 367.5 105.4C367.7 106 367.7 106.3 368.4 106.3C368.5 107.2 367.8 107.5 367.3 107.2ZM369.4 106C369.2 106 368.9 106.3 368.7 106.3C368.7 106 368.7 105.7 369.4 105.7V106ZM369.2 104.8C369 104.2 368.7 103.9 368.7 103.6L368.9 103.3C369.4 103.3 369.4 103.6 369.6 104.2C369.4 104.5 369.4 104.5 369.2 104.8Z" fill="#FFD600"/>
</svg>
