<svg width="1440" height="279" viewBox="0 0 1440 279" fill="none" xmlns="http://www.w3.org/2000/svg">
<path d="M0 0.844278V226.773C2.31338 226.435 3.54718 224.409 4.62675 222.552C6.32323 220.019 8.01973 217.317 10.4873 215.46C13.4176 212.927 16.6564 210.901 20.6662 211.238C21.5916 211.238 21.9 210.732 22.0542 209.887C22.5169 207.861 24.0591 207.523 25.6014 206.679C28.6859 204.653 32.2331 204.146 35.0091 201.782C36.0887 200.769 37.6309 201.276 38.7105 200.6C41.0239 199.081 43.1831 197.392 45.188 195.535C45.9591 194.859 46.4218 193.846 47.5014 193.846C51.5112 194.015 54.5957 191.482 57.8344 189.794C58.2971 189.625 58.7598 189.287 59.2225 189.287C63.5408 190.3 67.8591 188.443 72.1774 189.962C72.6401 190.131 73.1027 190.131 73.5654 190.3C74.9534 190.807 75.7246 193.34 77.5753 191.313C78.9633 192.495 80.3513 191.482 81.8935 191.313C86.0576 191.144 90.2217 190.807 93.9231 193.34C96.2365 195.028 98.7041 195.872 101.48 194.353C103.022 193.508 104.256 194.184 105.336 195.366C106.415 196.548 107.495 197.223 109.037 197.054C111.505 199.587 114.435 200.094 117.52 199.25C118.445 199.081 119.37 199.25 120.141 199.925C124.768 204.653 130.937 205.159 136.643 207.017C139.111 207.861 141.579 208.874 144.2 208.874C145.743 208.874 147.285 208.705 148.365 207.355C149.753 206.004 151.295 207.186 152.683 206.848C156.23 205.666 159.623 206.004 163.17 207.017C165.329 207.692 167.18 206.004 168.722 204.315C172.424 200.094 176.588 197.561 182.14 198.405C183.528 198.574 184.916 197.899 185.996 196.886C188.463 194.859 191.393 193.34 194.169 191.82C196.483 190.638 198.796 189.794 201.418 189.625C208.512 188.78 214.681 185.066 220.542 181.013C220.85 180.844 221.159 180.675 221.467 180.675C221.776 180.675 222.084 180.675 222.393 180.507C222.701 180.507 223.01 180.675 223.318 180.675C224.398 180.844 225.477 180.507 226.557 180.507C227.791 180.338 229.024 180.507 230.258 180.169C233.343 179.156 235.039 176.623 236.736 173.921C241.825 171.22 242.288 165.31 244.293 160.582C244.447 160.244 244.447 159.906 244.601 159.568C245.835 157.711 247.686 157.036 249.382 156.191C249.69 156.023 249.999 155.854 250.307 155.854C252.775 154.334 254.626 154.165 255.397 157.88C255.397 158.049 255.397 158.218 255.397 158.218C255.397 158.218 255.397 158.218 255.551 158.218C260.795 161.257 264.496 167.842 271.745 165.816C272.824 165.478 274.212 165.31 274.829 164.128C276.68 160.75 279.302 157.88 279.61 153.321C280.073 148.931 282.849 145.216 284.237 141.163C284.391 140.488 284.854 139.812 285.008 138.968C285.933 134.24 287.013 129.512 290.406 125.966C291.485 124.953 291.794 123.433 292.102 121.745C292.411 120.056 293.182 118.705 294.724 117.861C296.883 118.705 298.888 119.55 300.431 121.745C301.819 123.771 303.978 124.109 306.137 122.927C308.759 121.576 311.381 120.056 314.465 120.225C314.619 120.225 315.082 120.225 315.082 120.056C318.012 116.004 323.256 116.848 326.495 113.302C327.112 112.627 327.728 112.12 327.728 111.107C327.728 109.925 328.037 109.25 329.271 109.081C330.042 108.912 330.35 108.236 330.196 107.392C329.888 106.041 330.042 105.197 331.43 104.859C333.743 104.184 333.743 101.313 335.285 99.9625C335.748 99.6248 335.748 98.4428 336.365 98.105C339.295 96.4165 340.683 93.2083 342.38 90.3377C343.305 88.6492 344.693 88.3114 346.235 88.1426C349.628 87.9737 352.713 86.9606 355.18 84.5966C355.952 83.9212 356.877 84.0901 357.802 84.2589C360.116 84.5966 362.275 85.6098 364.28 86.9606C365.514 87.8049 366.593 87.636 367.827 86.6229C370.911 83.7523 374.459 81.8949 378.468 80.8818C379.394 80.713 380.473 80.3752 380.936 79.5309C382.324 77.3358 384.329 77.5047 386.334 78.0112C388.493 78.6867 390.19 78.349 392.04 76.6604C394.354 74.6342 397.284 74.1276 400.214 73.9587C400.831 73.9587 401.448 73.9587 401.756 73.4522C402.836 70.9193 404.995 71.0882 406.846 70.9193C409.159 70.7505 411.781 70.9193 413.632 72.439C416.408 74.6342 418.413 73.1144 420.109 71.257C421.343 69.9062 422.731 68.8931 424.428 68.2176C427.82 66.8668 429.671 63.8274 430.442 60.2814C431.522 55.3846 434.298 52.3452 437.999 49.8124C439.079 49.137 440.313 48.6304 441.547 47.955C443.089 47.1107 444.631 47.1107 446.173 47.955C447.253 48.4616 448.487 48.7993 449.412 49.6435C452.034 51.8387 454.964 51.5009 457.894 51.1632C459.282 50.9944 459.899 49.9812 460.67 49.137C461.904 47.7861 462.675 48.2927 463.447 49.6435C463.755 50.1501 464.218 50.8255 464.218 51.3321C464.526 55.0469 466.994 57.0732 469.153 59.4371C469.77 60.1126 470.541 60.2814 471.312 59.7749C473.78 58.0863 476.71 57.4109 479.486 56.7355C480.257 56.5666 481.028 56.0601 481.645 55.5535C485.346 53.6961 489.048 53.3583 492.749 55.2158C493.212 55.3846 493.52 56.06 493.983 55.7223C497.53 52.8518 501.694 53.0206 506.167 52.8518C503.699 48.1238 506.321 45.591 508.943 42.8893C511.256 40.6942 514.495 39.5122 516.192 36.4728C516.654 35.6285 517.734 35.7974 518.505 35.7974C521.435 35.6285 524.057 36.3039 526.679 37.4859C528.067 38.1613 528.838 37.8236 530.226 36.4728C531.768 34.7842 534.082 33.2645 536.549 33.0957C539.017 32.9268 541.33 33.0957 543.798 33.94C547.191 34.9531 548.579 38.3302 551.509 39.8499C552.743 40.5253 553.977 40.863 555.21 40.1876C557.987 38.3302 560.608 39.1745 563.384 39.8499C563.847 40.0188 564.31 40.1876 564.772 40.3565C566.932 41.2008 568.628 40.863 570.016 38.8368C570.17 38.4991 570.479 38.3302 570.787 37.9925C572.175 35.1219 574.334 34.9531 576.802 35.7974C578.19 36.3039 579.27 36.3039 580.195 34.9531C580.966 33.94 582.046 33.6022 583.279 33.7711C585.439 34.1088 587.752 34.2777 589.603 32.758C590.682 31.9137 591.916 33.2645 592.996 32.4203C597.777 30.7317 602.712 31.9137 607.647 32.2514C610.577 32.4203 612.274 35.6285 613.508 37.8237C616.284 42.5516 620.448 44.7467 624.612 47.2795C625.229 48.2927 626.308 48.9681 626.771 50.1501C626.925 50.4878 626.925 50.9944 627.079 51.3321C624.766 58.2552 629.701 68.5554 636.333 70.0751C639.572 70.9193 642.502 72.6079 645.432 74.1276C647.9 75.4784 648.517 79.0244 650.367 81.3884C651.138 82.4015 651.601 83.5835 652.218 84.5966C652.372 84.9343 652.681 85.1032 652.835 85.4409C652.989 85.6097 653.298 85.9475 653.452 86.1163C654.069 87.1295 654.994 87.8049 655.765 88.6492C660.084 90 665.481 96.9231 665.636 101.82C665.79 106.886 669.491 109.25 672.422 111.782C673.655 112.964 675.198 113.978 675.506 115.666C677.203 122.083 684.76 123.602 689.695 121.407C699.411 120.394 706.505 113.809 713.908 107.899C715.296 106.717 716.838 105.366 718.381 105.028C725.938 103.34 730.564 96.7542 736.425 92.364C739.509 90 743.211 90.8443 746.604 90.1689C748.146 89.8312 749.688 90.1689 750.922 89.1557C752.773 87.636 754.778 87.8049 756.783 88.4803C757.554 87.4672 758.633 87.2983 759.713 86.9606C760.638 86.6229 761.564 87.8049 762.489 87.2983C765.265 85.9475 766.962 87.4671 768.504 89.6623C769.738 91.5197 771.28 92.0263 773.439 91.8574C777.603 91.6886 781.767 92.5329 785.931 91.182C786.548 91.0132 787.011 91.6886 787.628 91.6886C789.324 91.6886 791.021 91.5197 791.946 89.6623C792.717 87.8049 794.568 86.9606 795.647 85.2721C796.264 84.0901 797.344 84.0901 798.423 84.0901C800.891 84.0901 803.05 84.9344 805.055 86.1163C806.752 87.1295 807.523 86.6229 808.602 85.2721C808.911 84.9344 809.373 84.5966 809.528 84.0901C810.453 81.0507 812.921 81.5572 814.617 82.2326C817.393 83.2458 820.169 84.09 823.099 84.5966C823.562 84.5966 824.025 84.9344 824.333 85.2721C826.647 87.2983 828.343 94.728 827.418 97.7674C826.647 100.131 827.264 102.158 828.806 104.015C830.04 105.366 830.811 107.054 832.045 108.405C832.816 109.081 832.507 110.263 832.353 111.276C832.045 115.497 832.661 116.51 836.517 118.03C837.134 118.368 838.059 118.537 838.368 119.212C839.602 122.083 842.378 122.589 844.383 123.94C846.542 125.291 848.238 126.642 849.78 128.668C850.706 129.85 851.477 130.863 853.328 130.525C854.87 130.356 856.412 131.201 857.954 131.707C861.502 133.227 865.357 132.552 868.904 133.565C869.213 133.734 869.676 133.734 869.984 133.734C872.914 132.214 874.611 134.071 876.307 136.266C877.233 137.448 878.312 138.462 879.7 138.968C880.78 139.475 881.705 140.15 882.785 140.826C885.252 142.514 886.64 144.709 886.178 148.086C886.023 149.099 886.023 150.45 886.64 151.463C887.874 153.321 890.496 153.321 891.576 151.126C892.964 148.255 895.431 147.917 897.745 147.411C900.058 146.904 902.371 146.567 904.068 149.099C904.376 149.437 904.839 149.944 905.147 149.944C906.998 149.944 907.615 150.619 908.232 152.645C908.54 153.996 909.774 156.191 912.396 155.854C913.784 155.685 914.863 157.711 915.635 158.893C918.411 163.114 920.107 163.283 923.192 159.568C924.271 158.218 925.659 158.049 927.047 158.218C928.744 158.386 930.286 158.218 931.828 157.373C933.833 156.191 935.838 157.542 937.997 157.036C938.768 156.867 939.385 157.711 940.002 158.386C941.544 160.075 942.316 162.27 943.087 164.296C943.704 165.985 943.087 167.674 942.47 169.024C941.853 170.544 941.082 172.064 940.928 173.583C941.544 174.597 942.315 174.09 942.932 174.259C945.554 174.597 948.022 174.597 950.335 176.285C951.415 177.129 952.803 177.805 954.345 177.974C955.425 178.143 956.967 178.48 957.584 180.507C958.201 182.702 960.36 183.884 962.519 183.377C964.832 183.039 966.683 183.884 968.38 185.066C969.459 185.741 970.23 186.417 971.618 185.572C972.852 184.897 974.086 185.066 975.165 186.079C976.862 187.598 979.021 188.612 981.026 189.287C982.26 189.794 983.648 190.3 984.573 191.651C985.498 192.833 987.195 192.158 987.349 190.638C987.503 189.962 987.349 189.118 987.041 188.443C985.653 184.897 986.732 181.689 988.429 178.649C989.2 177.298 989.971 175.779 989.663 173.921C989.354 172.57 990.125 171.388 991.051 170.544C992.284 169.531 993.672 168.349 995.06 167.336C997.22 166.829 998.916 167.674 999.841 170.038C1000.3 171.388 1001.08 172.908 1002.31 173.246C1006.94 174.428 1009.25 178.987 1012.95 181.52C1013.57 181.857 1014.49 182.364 1014.49 183.039C1014.34 188.949 1019.43 192.495 1019.89 198.574C1020.04 202.627 1023.13 206.341 1025.44 209.719C1029.14 212.589 1032.54 210.056 1035.78 208.874C1037.32 208.199 1038.4 207.523 1040.09 208.537C1043.18 210.394 1046.11 209.887 1048.58 207.017C1049.35 206.173 1050.27 205.666 1051.04 204.991C1053.97 202.627 1056.9 203.977 1057.06 207.861C1057.06 211.745 1058.6 214.784 1059.99 217.992C1060.91 220.019 1061.99 222.045 1061.84 224.409C1061.69 227.28 1063.23 228.968 1065.54 229.644C1067.85 230.319 1070.01 230.15 1072.02 228.124C1075.87 224.409 1077.11 219.174 1079.11 214.278C1080.81 210.225 1084.36 207.523 1087.75 207.861C1088.06 207.861 1088.37 207.692 1088.37 207.861C1093.76 213.602 1098.24 208.368 1102.71 206.173C1105.02 204.991 1107.03 203.133 1109.34 201.951C1110.42 201.445 1111.65 200.769 1111.96 199.587C1112.89 195.704 1115.51 193.846 1118.29 191.82C1120.29 190.469 1121.99 188.612 1122.76 186.079C1123.38 184.39 1124.76 183.715 1126.15 183.039C1129.7 181.52 1133.09 180 1135.87 177.129C1136.95 176.116 1138.03 175.947 1139.42 175.779C1142.04 175.779 1143.73 174.259 1144.97 171.895C1147.43 167.336 1151.91 165.31 1155.61 162.27C1156.23 161.764 1157.46 161.932 1158.23 162.27C1162.7 163.959 1167.33 164.634 1172.11 164.634C1174.42 164.634 1176.58 165.478 1178.43 167.336C1182.29 169.193 1185.99 167.674 1188.46 162.946C1191.23 157.205 1194.78 151.97 1194.47 144.878C1194.32 142.345 1195.71 139.812 1197.4 137.617C1200.95 133.396 1202.96 128.499 1203.11 122.42C1203.26 118.874 1205.89 116.341 1208.51 114.315C1209.28 113.809 1210.36 113.809 1211.28 114.653C1214.68 117.355 1218.07 120.056 1219.46 124.784C1220.07 126.642 1222.08 126.135 1223.01 127.486C1227.48 133.227 1233.65 134.747 1239.82 136.435C1240.74 136.604 1241.67 136.942 1242.59 137.28C1247.99 139.306 1252.46 136.942 1254 130.863C1254.62 128.161 1256.01 126.135 1257.55 124.109C1259.4 121.745 1261.72 121.238 1264.18 122.083C1268.19 123.265 1270.81 121.914 1272.05 117.692C1273.44 113.133 1276.98 111.445 1280.38 109.925C1282.38 109.081 1284.08 108.574 1285.16 106.548C1286.55 104.353 1288.24 103.171 1290.71 103.677C1290.86 103.677 1291.17 103.677 1291.48 103.677C1295.03 103.508 1301.97 96.5854 1302.43 92.7017C1302.43 92.1951 1302.59 91.6886 1302.89 91.182H1302.74C1302.89 90.8443 1303.2 90.5066 1303.51 90.3377C1305.36 89.6623 1307.37 89.3246 1309.06 87.9737C1311.07 86.7917 1312.61 87.636 1313.07 89.8311C1314.15 94.8968 1317.7 96.7542 1321.56 98.105C1323.41 98.7805 1324.49 99.7936 1324.95 101.82C1325.41 103.508 1326.18 105.366 1327.57 106.21C1332.04 108.743 1333.43 113.64 1335.44 118.03C1336.05 119.381 1336.82 120.732 1338.06 121.407C1340.37 122.927 1342.53 122.758 1344.23 120.225C1345.31 118.705 1346.54 117.186 1347.31 115.666C1348.85 112.289 1351.63 110.263 1353.63 107.561C1356.56 106.21 1359.65 107.561 1362.58 107.561C1364.89 107.561 1366.74 107.223 1367.21 104.184C1367.21 103.677 1367.51 103.002 1367.82 102.833C1371.37 101.82 1373.07 97.5985 1376.92 97.2608C1379.08 97.0919 1380.47 95.4034 1381.7 93.7148C1384.32 90.1689 1387.56 88.3114 1391.88 88.818C1392.5 88.9868 1393.27 88.4803 1393.73 89.3246V89.1557C1394.81 90.8443 1396.2 91.0132 1397.9 90.3377C1400.06 89.4935 1402.21 88.4803 1403.91 86.7918C1405.92 84.9343 1407.77 82.9081 1410.08 81.3884C1412.09 80.0375 1414.24 81.5572 1415.94 80.0375C1416.1 80.0375 1416.25 80.0375 1416.25 80.0375C1419.33 81.2195 1419.33 81.2195 1420.57 77.6736C1421.03 76.8293 1422.11 76.6604 1422.73 75.985C1423.04 71.9325 1425.5 69.2308 1429.2 69.3996C1431.21 69.5685 1432.6 68.8931 1433.52 67.0356C1435.06 64.1651 1437.38 63.6585 1440 65.1782V0H0V0.844278Z" fill="#1A1A1A"/>
<g filter="url(#filter0_d_1136_3890)">
<path fill-rule="evenodd" clip-rule="evenodd" d="M1432.6 62.3991C1431.52 64.2483 1430.29 64.7106 1428.29 64.5565C1424.59 64.2483 1422.12 66.714 1421.81 70.5664C1421.2 71.1828 1420.12 71.3369 1419.66 72.1074C1418.42 75.3435 1418.42 75.3435 1415.34 74.2648C1415.19 74.2648 1415.19 74.2648 1415.03 74.2648C1413.34 75.6517 1411.02 74.2648 1409.17 75.4976C1406.86 76.8845 1405.01 78.7337 1403.01 80.4288C1401.31 81.9698 1399.16 82.7403 1397 83.6649C1395.3 84.2813 1393.92 84.1272 1392.84 82.5862V82.7403C1392.38 81.9698 1391.6 82.2779 1390.99 82.2779C1386.67 81.8157 1383.44 83.5108 1380.82 86.7469C1379.58 88.2879 1378.04 89.8288 1376.04 89.9829C1372.18 90.137 1370.33 94.1436 1366.94 95.0682C1366.48 95.2223 1366.33 95.6846 1366.33 96.301C1366.02 99.0748 1364.02 99.383 1361.7 99.383C1358.78 99.5371 1355.69 98.1502 1352.76 99.383C1350.61 101.849 1347.83 103.698 1346.45 106.78C1345.67 108.321 1344.44 109.554 1343.36 110.94C1341.67 113.252 1339.51 113.406 1337.2 112.019C1335.96 111.249 1335.19 110.17 1334.58 108.937C1332.57 104.931 1331.19 100.462 1326.72 98.1502C1325.33 97.3797 1324.41 95.6846 1324.1 94.1436C1323.63 92.1403 1322.56 91.3698 1320.71 90.7534C1316.85 89.5206 1313.31 87.8255 1312.23 83.2026C1311.77 81.1993 1310.23 80.4288 1308.22 81.5075C1306.53 82.5861 1304.52 82.8944 1302.67 83.6649C1302.37 83.9731 1302.06 84.1272 1301.9 84.4354H1302.06C1301.75 84.8977 1301.75 85.36 1301.59 85.8223C1301.13 89.3665 1294.35 95.6846 1290.65 95.8387C1290.34 95.8387 1290.19 95.8387 1289.88 95.8387C1287.42 95.3764 1285.57 96.4551 1284.33 98.4584C1283.25 100.153 1281.4 100.77 1279.55 101.54C1276.01 102.773 1272.46 104.314 1271.23 108.629C1270 112.481 1267.38 113.714 1263.37 112.636C1260.91 112.019 1258.59 112.327 1256.74 114.485C1255.05 116.334 1253.82 118.183 1253.2 120.649C1251.81 126.196 1247.19 128.354 1241.79 126.504C1240.87 126.196 1239.94 126.042 1239.02 125.734C1232.85 124.193 1226.54 122.806 1222.22 117.567C1221.3 116.334 1219.29 116.796 1218.67 115.101C1217.29 110.786 1213.9 108.475 1210.51 105.855C1209.43 105.085 1208.5 105.085 1207.73 105.547C1204.96 107.242 1202.34 109.708 1202.34 112.944C1202.18 118.491 1200.18 122.806 1196.63 126.813C1194.94 128.662 1193.55 131.127 1193.71 133.439C1194.01 139.911 1190.47 144.842 1187.7 149.928C1185.38 154.396 1181.68 155.629 1177.68 153.934C1175.98 152.239 1173.67 151.469 1171.36 151.469C1166.58 151.469 1161.96 150.852 1157.49 149.311C1156.72 149.003 1155.48 148.849 1154.87 149.311C1151.32 152.239 1146.7 153.934 1144.23 158.095C1142.84 160.406 1141.3 161.639 1138.68 161.639C1137.3 161.639 1136.22 161.793 1135.14 162.872C1132.36 165.492 1128.82 166.878 1125.43 168.265C1124.04 168.882 1122.5 169.344 1122.04 171.039C1121.11 173.351 1119.42 175.046 1117.57 176.279C1114.79 178.128 1112.17 179.823 1111.25 183.367C1110.94 184.446 1109.71 185.062 1108.63 185.524C1106.32 186.603 1104.31 188.452 1102 189.377C1097.53 191.38 1092.91 196.003 1087.67 190.918C1087.51 190.764 1087.21 190.918 1087.05 190.918C1083.51 190.764 1080.12 193.075 1078.42 196.774C1076.42 201.089 1075.03 205.866 1071.33 209.41C1069.33 211.259 1067.32 211.567 1064.86 210.797C1062.55 210.18 1061 208.639 1061.16 206.02C1061.16 203.862 1060.23 202.013 1059.31 200.164C1057.92 197.236 1056.38 194.462 1056.38 190.918C1056.38 187.374 1053.3 186.141 1050.37 188.298C1049.6 188.915 1048.67 189.377 1047.9 190.147C1045.44 192.767 1042.66 193.229 1039.43 191.534C1037.73 190.61 1036.65 191.38 1035.11 191.843C1031.87 192.921 1028.33 195.233 1024.78 192.613C1022.47 189.377 1019.39 186.141 1019.24 182.442C1018.93 176.895 1013.69 173.659 1013.84 168.265C1013.84 167.649 1012.92 167.187 1012.3 166.878C1008.6 164.567 1006.29 160.252 1001.67 159.328C1000.43 159.019 999.816 157.632 999.199 156.4C998.275 154.242 996.733 153.472 994.422 153.934C993.034 154.859 991.801 155.937 990.414 156.862C989.335 157.633 988.719 158.711 989.027 159.944C989.335 161.639 988.719 162.872 987.794 164.259C986.099 167.033 985.02 169.96 986.407 173.197C986.715 173.813 986.715 174.583 986.715 175.2C986.561 176.587 984.866 177.203 983.941 176.124C982.862 175.046 981.629 174.429 980.396 173.967C978.238 173.197 976.235 172.426 974.539 171.039C973.46 170.115 972.073 169.806 970.994 170.577C969.761 171.347 968.836 170.731 967.758 170.115C965.908 169.036 964.213 168.265 961.901 168.574C959.743 168.882 957.585 167.803 956.969 165.954C956.352 163.951 954.657 163.642 953.732 163.642C952.191 163.488 950.804 162.872 949.725 162.101C947.413 160.56 944.947 160.406 942.327 160.252C941.71 160.252 940.94 160.56 940.323 159.636C940.477 158.249 941.094 156.862 941.865 155.475C942.481 154.088 943.252 152.701 942.481 151.16C941.71 149.157 940.786 147.308 939.399 145.767C938.782 145.15 938.32 144.38 937.395 144.534C935.391 144.996 933.233 143.918 931.23 144.842C929.689 145.613 928.147 145.767 926.452 145.613C925.065 145.459 923.832 145.613 922.599 146.846C919.516 150.236 917.821 150.082 915.047 146.229C914.122 144.996 913.043 143.301 911.81 143.455C909.19 143.764 908.111 141.606 907.649 140.528C907.032 138.678 906.416 137.908 904.566 138.062C904.258 138.062 903.795 137.6 903.487 137.291C901.792 134.98 899.48 135.134 897.168 135.75C894.856 136.213 892.39 136.521 891.003 139.141C890.078 141.144 887.304 141.144 886.071 139.449C885.454 138.524 885.454 137.445 885.609 136.367C886.071 133.285 884.684 131.282 882.218 129.741C881.293 129.124 880.368 128.354 879.135 128.045C877.748 127.583 876.669 126.813 875.744 125.58C874.203 123.577 872.354 121.881 869.425 123.268C869.117 123.422 868.809 123.268 868.346 123.114C864.802 122.036 860.948 122.652 857.403 121.419C856.016 120.957 854.321 120.186 852.78 120.34C851.084 120.495 850.159 119.724 849.235 118.645C847.848 116.796 845.998 115.563 843.84 114.331C841.683 113.098 838.908 112.636 837.829 110.016C837.521 109.399 836.751 109.245 835.98 108.937C832.281 107.55 831.51 106.626 831.818 102.773C831.818 101.849 832.127 100.77 831.51 100.153C830.277 98.9207 829.507 97.3797 828.274 96.1469C826.732 94.4518 826.116 92.6026 826.886 90.4452C827.811 87.6715 826.116 80.8911 823.804 79.0419C823.496 78.7337 823.033 78.5796 822.571 78.4255C819.643 77.9632 816.868 77.1927 814.094 76.2681C812.399 75.8058 809.933 75.1894 809.008 77.9632C808.854 78.4255 808.391 78.5796 808.083 79.0419C807.158 80.2747 806.234 80.8911 804.538 79.8124C802.535 78.5796 800.223 77.9632 797.911 77.9632C796.832 77.9632 795.753 78.1173 795.136 79.0419C794.212 80.5829 792.362 81.3534 791.437 83.0484C790.667 84.7435 788.817 84.8977 787.122 84.8977C786.66 84.8977 786.043 84.2813 785.427 84.4354C781.265 85.6682 777.104 84.8977 772.942 85.0518C770.939 85.2059 769.397 84.7435 768.01 83.0484C766.469 81.0452 764.62 79.6583 761.999 80.8911C761.075 81.3534 760.304 80.2747 759.225 80.5829C758.3 81.0452 757.067 81.0452 756.297 81.9698C754.293 81.3534 752.444 81.0452 750.44 82.5862C749.207 83.5108 747.512 83.2026 746.124 83.5108C742.734 83.9731 739.189 83.3567 735.952 85.514C730.095 89.5206 725.471 95.5305 717.919 97.0715C716.378 97.3797 714.837 98.7666 713.45 99.6912C706.052 104.931 698.962 111.095 689.252 112.019C684.32 114.022 676.768 112.636 675.072 106.78C674.61 105.239 673.223 104.314 671.99 103.235C669.061 100.77 665.516 98.7666 665.208 94.1436C665.054 89.6747 659.66 83.3567 655.344 82.1239C654.573 81.3534 653.649 80.737 653.032 79.8124C652.878 79.6583 652.57 79.3501 652.416 79.196C652.262 78.8878 651.953 78.7337 651.799 78.4255C651.183 77.5009 650.72 76.4222 649.95 75.4976C648.254 73.3402 647.484 70.1041 645.018 68.8713C642.089 67.3303 639.315 65.9435 635.924 65.173C629.297 63.632 624.365 54.386 626.677 48.0679C626.677 47.7597 626.523 47.2974 626.368 46.9892C625.906 45.9105 624.981 45.2941 624.211 44.3695C620.049 42.058 615.888 40.0548 613.114 35.74C611.881 33.7367 610.185 30.9629 607.257 30.6547C602.479 30.3465 597.547 29.2678 592.615 30.8088C591.536 31.5793 590.303 30.5006 589.224 31.117C587.22 32.5039 585.063 32.3498 582.905 32.0416C581.672 31.8875 580.593 32.1957 579.822 33.1203C578.898 34.3531 577.819 34.3531 576.432 33.8908C574.12 33.1203 571.808 33.4285 570.421 35.8941C570.267 36.2023 569.958 36.3564 569.65 36.6646C568.263 38.5138 566.413 38.822 564.41 38.0515C563.947 37.8974 563.485 37.7433 563.023 37.5892C560.248 36.8187 557.628 36.2023 554.854 37.8974C553.775 38.5138 552.542 38.2056 551.155 37.5892C548.227 36.2023 546.839 33.1203 543.449 32.1957C540.983 31.5793 538.671 31.2711 536.205 31.4252C533.739 31.5793 531.581 32.9662 529.885 34.5072C528.498 35.74 527.882 35.8941 526.341 35.4318C523.72 34.3531 520.946 33.7367 518.172 33.8908C517.401 33.8908 516.322 33.7367 515.86 34.5072C514.01 37.281 510.928 38.3597 508.616 40.363C505.842 42.8286 503.222 45.14 505.842 49.4548C501.372 49.6089 497.211 49.4548 493.666 52.0745C493.203 52.3827 492.895 51.7663 492.433 51.6122C488.734 49.9171 484.881 50.2253 481.336 51.9204C480.565 52.2286 479.949 52.6909 479.178 52.9991C476.25 53.6155 473.475 54.2319 471.009 55.7729C470.239 56.2352 469.468 56.2352 468.852 55.4647C466.694 53.3073 464.228 51.4581 463.92 48.0679C463.92 47.6056 463.457 46.9892 463.149 46.5269C462.378 45.2941 461.608 44.8318 460.375 46.0646C459.604 46.8351 458.988 47.9138 457.6 47.9138C454.672 48.222 451.744 48.5302 449.123 46.5269C448.199 45.9105 446.966 45.6023 445.887 44.9859C444.345 44.2155 442.804 44.0614 441.263 44.9859C440.184 45.6023 438.951 46.0646 437.718 46.681C434.019 48.9925 431.091 51.6122 430.166 56.2352C429.395 59.4713 427.7 62.2451 424.155 63.4779C422.46 64.0943 421.073 64.8647 419.839 66.2516C418.144 67.9467 416.14 69.3336 413.366 67.3303C411.517 65.9435 408.896 65.7894 406.585 65.9435C404.735 66.0976 402.423 65.7894 401.498 68.2549C401.19 68.8713 400.574 68.7172 399.957 68.7172C397.029 68.8713 394.1 69.3336 391.789 71.1828C389.939 72.5697 388.398 73.032 386.086 72.4156C384.236 71.7992 382.233 71.6451 380.691 73.8025C380.075 74.573 379.15 74.7271 378.225 75.0353C374.218 75.9599 370.673 77.655 367.591 80.2747C366.358 81.1993 365.433 81.3534 364.046 80.5829C362.042 79.3501 359.884 78.4255 357.573 78.1173C356.648 77.9632 355.723 77.8091 354.952 78.4255C352.332 80.5829 349.25 81.5075 346.013 81.6616C344.472 81.6616 343.085 82.1239 342.16 83.6649C340.465 86.2846 339.077 89.2124 336.149 90.7534C335.533 91.0616 335.533 91.9862 335.07 92.4485C333.529 93.8354 333.529 96.4551 331.217 96.9174C329.83 97.2256 329.522 97.9961 329.984 99.2289C330.292 99.9994 329.984 100.616 329.059 100.77C327.826 100.924 327.518 101.54 327.518 102.619C327.518 103.544 326.901 104.006 326.285 104.622C323.202 107.858 317.808 107.088 314.88 110.786C314.725 110.94 314.417 110.94 314.263 110.94C311.181 110.786 308.56 112.173 305.94 113.406C303.783 114.485 301.625 114.176 300.238 112.327C298.696 110.324 296.693 109.554 294.535 108.783C293.148 109.554 292.223 110.786 291.915 112.327C291.607 113.714 291.144 115.101 290.219 116.18C286.674 119.416 285.75 123.731 284.825 128.045C284.671 128.662 284.363 129.278 284.054 130.049C282.667 133.901 279.893 137.137 279.431 141.144C278.968 145.15 276.502 147.77 274.653 151.006C274.036 152.085 272.803 152.239 271.57 152.547C264.326 154.396 260.627 148.387 255.387 145.613C255.233 145.613 255.233 145.613 255.233 145.613C255.233 145.613 255.233 145.613 255.233 145.305C254.462 141.914 252.459 142.068 250.147 143.455C249.838 143.609 249.53 143.609 249.222 143.764C247.527 144.688 245.677 145.305 244.444 146.846C244.29 147.154 244.29 147.462 244.136 147.77C242.132 152.085 241.67 157.478 236.584 159.944C234.888 162.41 233.039 164.721 230.11 165.646C228.877 165.954 227.644 165.954 226.411 165.954C225.332 165.954 224.253 166.262 223.175 166.108C222.866 165.954 222.558 165.954 222.25 165.954C221.942 165.954 221.633 165.954 221.325 166.108C221.017 166.108 220.709 166.262 220.4 166.416C214.544 170.269 208.379 173.659 201.289 174.275C198.669 174.583 196.357 175.2 194.045 176.279C191.271 177.665 188.342 179.052 185.876 180.901C184.797 181.826 183.41 182.443 182.023 182.288C176.474 181.518 172.313 183.829 168.614 187.682C167.073 189.223 165.223 190.764 163.065 190.147C159.52 189.223 156.13 188.915 152.585 189.993C151.198 190.302 149.656 189.377 148.269 190.456C147.19 191.688 145.649 191.688 144.108 191.843C141.488 191.843 138.868 190.918 136.556 190.147C131.007 188.298 124.688 187.99 120.064 183.675C119.294 183.059 118.369 182.905 117.444 183.059C114.207 183.829 111.433 183.367 108.967 181.056C107.426 181.21 106.347 180.439 105.268 179.515C104.189 178.436 102.956 177.82 101.415 178.59C98.6407 179.977 96.3288 179.052 93.8628 177.665C90.1638 175.354 85.8482 175.662 81.841 175.816C80.4538 175.816 79.0667 176.895 77.5255 175.816C75.6759 177.665 74.7512 175.354 73.5182 174.892C73.0558 174.738 72.5934 174.738 72.131 174.583C67.8155 173.351 63.5 175.046 59.1845 173.967C58.7221 173.813 58.2597 174.121 57.7973 174.429C54.4065 175.97 51.324 178.128 47.4709 178.128C46.392 178.128 45.9296 179.052 45.159 179.669C43.0012 181.364 40.8434 182.905 38.6857 184.292C37.6068 184.908 36.0655 184.6 34.9866 185.37C32.2124 187.682 28.6675 188.144 25.5849 189.839C24.1978 190.61 22.5024 190.918 22.0401 192.767C21.8859 193.384 21.5777 194 20.6529 194C16.6457 193.692 13.409 195.695 10.4806 197.852C8.16871 199.548 6.4733 202.013 4.62378 204.325C3.39077 206.02 2.31189 207.869 0 208.177C0 228.826 0 249.476 0 269.971C1.38713 270.125 3.08254 269.509 4.16142 270.433C6.62744 272.282 8.93932 271.974 11.7136 271.204C12.9466 270.895 13.7172 270.125 14.642 269.509C15.4126 269.046 15.875 268.43 16.7998 268.584C18.9575 269.046 21.2694 269.2 23.273 270.125C26.6638 271.82 30.3628 272.282 34.0619 272.899C34.8325 273.053 35.449 273.053 36.0655 272.745C38.3774 271.204 41.3058 270.433 42.6929 267.505C43.4636 265.81 45.159 265.348 46.8544 265.656C47.7791 265.81 48.7039 266.118 49.6286 266.427C49.6286 264.886 50.091 263.961 51.4781 263.191C52.7112 262.574 53.6359 261.65 51.9405 260.263C51.4781 259.954 51.1699 259.338 51.7864 258.722C52.2488 258.259 52.557 258.722 53.0194 258.876C55.6396 259.646 58.1055 261.495 61.0339 260.109C61.9587 259.8 62.5752 260.417 63.1917 261.033C64.733 262.574 66.7366 263.19 68.5861 264.115C69.9732 264.731 71.3604 264.732 72.5934 263.653C74.597 261.958 76.9089 261.65 79.5291 262.112C81.6868 262.574 83.9987 261.033 86.3106 261.804C90.9344 259.492 95.7123 258.259 100.953 258.722C102.186 258.876 103.11 258.105 104.035 257.181C104.96 256.102 106.193 255.331 106.964 254.099C108.659 251.941 110.2 249.784 110.508 246.702C110.663 244.853 111.125 242.387 114.053 242.387C115.132 242.387 115.903 241.463 116.673 240.692C119.448 237.302 123.455 236.531 127.462 235.915C129.928 235.607 132.703 235.299 134.244 233.449C135.631 231.6 137.326 231.138 139.33 230.984C141.18 230.83 142.413 229.905 142.875 228.21C143.183 227.131 143.645 226.361 144.57 225.744C146.112 224.666 147.036 222.662 149.194 222.508C149.502 219.272 152.122 221.121 153.664 220.505C153.818 220.505 153.972 220.505 153.972 220.351C155.822 218.656 158.287 218.348 160.753 217.731C162.757 217.269 164.607 216.344 166.148 214.803C167.227 213.725 168.306 212.954 170.309 213.416C171.696 213.725 173.392 212.184 175.087 213.108C175.087 213.108 175.241 212.954 175.395 212.954C176.166 212.184 176.629 210.489 177.399 210.797C178.94 211.567 179.403 209.718 179.865 209.872C182.023 210.026 182.639 209.256 182.485 207.252C182.485 206.482 183.256 206.174 183.872 206.02C186.647 205.095 189.113 203.708 191.116 201.551C192.658 199.856 194.661 198.161 197.436 198.315C199.285 198.315 201.135 198.315 202.83 198.315C203.909 203.246 206.991 206.02 210.69 208.485C211.615 209.102 212.848 209.256 213.619 208.639C215.314 207.561 217.01 208.023 218.705 208.331C219.784 208.485 220.863 208.948 221.787 208.177C223.945 206.328 227.028 205.095 227.953 202.013C228.415 200.472 229.494 199.548 231.189 200.164C232.73 200.626 233.347 199.548 233.809 198.623C234.118 198.007 233.809 197.236 235.042 197.082C235.351 197.39 235.813 197.698 236.275 198.161C238.125 200.01 239.82 202.013 242.903 200.626C243.211 200.472 243.673 200.626 243.827 200.78C246.294 202.938 249.222 201.859 251.842 201.397C253.229 201.089 254.925 201.705 255.849 200.318C257.391 198.161 260.165 197.39 261.552 195.079C262.168 194.154 263.093 193.384 264.172 192.767C266.176 191.688 266.946 189.069 269.104 188.144C269.412 185.37 271.57 185.062 273.728 184.754C274.807 184.6 275.886 184.446 276.502 183.367C277.427 181.672 278.814 180.131 279.431 178.436C280.355 175.816 282.205 175.046 284.517 175.046C285.75 175.046 286.829 175.046 287.753 173.967C289.449 171.81 291.452 170.885 294.227 172.118C294.535 172.272 295.306 172.272 295.614 171.964C297.772 170.577 300.083 171.193 302.395 171.347C304.091 171.501 305.94 171.347 307.636 171.193C309.485 171.039 310.564 170.115 311.335 168.419C312.414 165.8 312.568 165.8 315.188 166.724C318.27 167.649 321.353 168.265 324.435 168.419C326.285 168.419 328.443 168.419 329.367 167.187C330.755 165.492 332.296 163.642 332.758 161.331C333.221 158.557 333.529 155.937 332.45 153.318C333.837 152.701 335.07 152.393 335.995 151.469C332.758 148.232 332.758 148.232 334.916 143.918C336.611 144.688 338.461 145.459 339.54 146.846C340.31 147.77 337.998 148.849 338.769 150.236C338.153 150.544 337.844 151.006 338.153 151.623C338.307 152.085 338.923 152.085 339.386 151.931C339.848 151.777 340.156 151.469 340.619 151.314C341.543 151.314 342.314 151.469 341.852 152.701C341.698 153.164 341.698 153.934 342.16 153.78C345.088 153.01 344.472 155.321 344.78 157.016C346.938 155.783 348.633 154.396 350.483 153.934C352.795 153.318 354.644 155.167 356.648 156.092C356.956 155.783 357.264 155.475 357.418 155.167C358.035 153.01 359.268 153.472 360.655 154.242C361.117 154.396 361.58 154.705 361.734 155.013C362.659 156.4 363.429 155.783 364.354 155.013C366.512 153.01 369.903 152.855 371.29 155.167C372.985 157.941 375.759 158.249 378.534 158.865C380.846 159.328 383.312 159.482 384.545 156.708C384.853 156.092 385.469 155.937 385.932 155.629C387.627 154.551 389.168 153.318 390.71 152.239C392.251 151.16 393.176 149.773 392.559 147.77C392.097 146.537 392.713 145.767 393.33 144.842C394.871 142.223 395.025 139.295 394.563 136.367C394.409 134.98 394.1 133.747 392.713 133.285C391.788 132.977 391.943 132.36 391.943 131.436C391.788 127.583 392.867 123.885 393.792 120.186C394.1 118.799 394.563 117.413 394.1 116.026C393.638 114.947 394.1 114.176 395.179 113.868C396.875 113.406 397.491 112.173 398.416 110.94C399.495 109.245 400.574 107.704 401.498 105.855C402.269 104.314 403.656 104.006 405.043 104.776C406.276 105.547 407.972 105.855 408.28 107.704C408.434 108.321 408.897 108.783 409.359 108.937C412.287 110.016 415.062 111.865 418.607 110.786C421.535 110.016 424.617 110.17 426.159 113.868C426.313 114.331 426.775 115.101 427.7 115.101C428.779 113.868 428.933 112.173 429.703 110.632C430.166 109.708 430.628 108.783 431.553 108.321C433.248 107.55 437.718 105.855 439.722 105.701C440.184 105.701 440.646 105.547 441.109 105.393C443.729 104.776 444.345 105.085 445.116 107.55C445.578 109.091 446.041 110.632 446.657 112.173C446.811 112.481 446.657 113.098 447.428 113.098C451.281 113.406 454.98 114.793 458.987 114.331C463.611 113.868 469.776 110.324 471.318 105.855C471.78 104.468 472.551 104.006 473.784 103.852C474.554 103.852 475.171 103.852 475.941 103.852C479.024 103.698 482.415 104.468 483.956 100.462C484.418 99.383 485.343 99.9994 486.114 100.308C487.963 101.078 489.659 101.386 491.2 99.6912C491.662 99.2289 492.125 99.2289 492.741 99.6912C493.512 100.308 493.82 99.6912 494.128 99.2289C495.361 96.4551 497.365 94.4518 499.985 92.9108C500.91 92.2944 501.68 91.2157 502.297 90.2911C503.53 88.2878 505.996 88.9043 507.383 87.5174C507.845 87.0551 508.616 88.1337 508.924 88.596C509.849 89.9829 511.39 90.7534 512.623 91.8321C513.394 92.2944 514.165 92.6026 514.935 92.4485C516.631 91.9862 518.326 91.8321 519.867 91.2157C523.412 89.9829 526.186 90.7534 528.961 92.7567C530.348 93.6813 531.581 95.3764 533.585 95.0682C535.896 94.76 536.051 95.5305 535.896 97.5338C535.742 100.77 536.205 101.078 539.133 100.308C541.753 99.5371 541.753 99.5371 543.14 102.003C543.449 102.465 543.757 103.081 544.065 103.544C545.452 105.547 545.76 105.547 548.072 104.16C548.997 103.698 550.076 103.39 550.847 102.773C552.85 101.386 554.392 101.54 555.779 103.544C556.395 104.314 557.474 104.776 558.553 105.085C559.169 103.698 559.169 102.311 559.169 100.924C559.324 97.9961 559.94 95.5305 563.177 94.2977C564.564 93.8354 565.643 92.6026 567.03 91.8321C568.879 90.7534 570.267 89.6747 570.267 87.2091C570.267 86.5927 570.575 86.1304 571.037 85.6682C573.195 83.9731 574.428 81.0452 577.51 80.5829C578.281 80.4288 578.898 79.9665 579.052 79.196C579.668 77.5009 580.747 75.8058 581.055 74.2648C581.518 72.7238 581.98 72.5697 583.213 72.2615C586.142 71.491 589.224 71.0287 591.844 69.7959C594.156 68.7172 595.543 68.7172 597.547 70.2582C598.934 71.3369 600.938 72.8779 602.633 71.9533C604.637 70.8746 606.794 71.1828 608.798 70.7205C610.031 70.4123 611.11 70.5664 611.572 71.9533C612.035 73.4943 613.422 73.9566 614.655 74.573C617.121 75.8058 619.741 76.4222 622.361 76.4222C624.519 76.4222 625.135 77.0386 625.135 78.7337C625.135 81.5075 625.135 84.1271 625.135 86.9009C625.135 88.9042 625.752 90.7534 626.368 92.7567C626.831 94.1436 627.601 95.0682 628.989 95.3764C631.609 95.8387 633.767 97.842 636.695 97.6879C637.928 97.5338 638.544 98.9207 639.623 99.5371C640.548 100.153 641.473 101.232 642.706 100.924C644.709 100.462 646.713 101.078 648.871 99.5371C648.408 102.157 647.946 104.314 647.946 106.317C647.638 111.095 647.33 115.872 649.641 120.34C650.412 121.727 651.183 122.652 652.724 122.806C654.882 122.96 656.577 124.039 658.118 125.272C658.427 125.58 658.735 126.196 659.197 125.888C661.047 124.963 661.663 126.504 662.434 127.583C662.896 128.2 663.359 128.662 664.129 128.816C667.982 129.895 671.836 131.127 675.843 129.895C677.23 129.432 678.463 129.741 679.85 130.511C682.625 132.052 685.707 132.668 688.944 132.514C689.714 132.514 690.793 132.514 691.255 131.744C692.488 129.741 694.338 129.741 696.342 129.278C699.116 128.816 701.736 128.045 704.51 127.275C705.743 126.967 706.514 126.196 707.13 125.118C708.363 123.114 708.826 122.96 711.138 123.731C712.371 124.193 713.45 124.655 714.837 124.809C717.303 125.118 719.461 125.426 720.848 122.652C721.156 121.881 721.927 121.727 722.697 121.881C723.776 122.19 724.547 121.573 725.471 120.957C728.4 119.262 731.02 117.104 734.257 116.026C736.106 115.409 738.264 114.485 739.035 112.79C739.959 110.94 740.73 111.403 741.963 111.865C744.737 113.098 747.666 113.868 750.594 112.173C751.365 112.79 751.519 113.714 751.365 114.485C751.211 116.642 751.519 118.645 752.906 120.34C753.522 121.265 752.906 122.036 752.444 122.806C751.673 124.039 751.365 125.118 751.827 126.813C752.906 131.127 755.834 133.285 759.071 135.288C759.842 135.75 760.92 135.905 761.845 135.596C763.541 135.288 765.39 134.98 766.931 134.209C768.627 133.439 770.168 135.442 771.247 134.518C772.48 133.439 773.405 131.744 775.1 131.127C776.487 129.432 779.107 130.049 780.186 128.508C781.728 126.35 783.885 125.426 786.197 124.501C788.047 123.731 789.28 122.652 790.359 120.957C791.283 119.416 792.516 117.875 794.058 116.796C797.911 113.868 801.764 114.177 804.384 118.183C806.234 121.111 808.854 122.806 811.782 124.193C813.169 124.963 815.019 125.58 815.789 126.813C818.872 131.59 823.187 134.826 827.657 138.216C830.585 140.528 833.36 142.377 837.059 141.76C840.295 141.298 842.761 142.223 844.457 145.15C844.765 145.459 845.073 145.767 845.536 146.075C849.389 148.078 851.855 151.006 853.859 154.859C856.325 159.79 861.411 161.947 865.726 160.56C867.884 159.944 868.655 160.56 869.733 161.793V161.947C870.196 162.718 871.121 162.41 871.737 162.718C876.823 165.492 880.676 167.341 877.286 174.121C876.977 174.583 876.977 175.046 876.669 175.508C874.203 180.593 873.587 186.295 870.504 191.226C869.579 192.767 870.196 195.541 871.583 196.003C872.662 196.311 873.587 195.233 874.666 195.849C877.44 195.849 876.053 198.161 876.669 199.393C878.673 198.777 880.676 197.852 881.909 199.856C884.221 203.862 888.075 203.862 891.928 204.325C892.852 204.479 893.777 204.17 894.394 203.4C896.243 201.551 898.555 201.243 900.867 202.321C902.716 203.246 903.949 202.475 905.491 201.859C907.032 201.243 908.419 203.554 910.115 202.321C911.964 200.934 913.814 201.397 915.817 201.859C917.358 202.167 918.9 202.784 920.287 202.167C921.828 201.551 923.369 201.397 925.065 201.551C926.452 201.705 927.685 201.397 928.455 200.164C929.843 197.544 932.925 198.007 934.775 196.157C934.929 196.003 935.545 196.157 935.7 196.311C938.936 198.315 943.097 198.161 946.18 201.089C947.875 202.629 950.187 203.862 952.807 201.705C953.886 200.78 955.428 200.78 956.661 199.702C957.431 199.085 958.202 199.239 959.127 199.856C961.13 201.397 963.134 202.784 965.446 204.016C967.912 205.249 969.916 207.098 972.69 208.023C974.231 208.485 975.156 210.951 977.159 208.948C977.314 208.793 977.776 208.948 977.776 209.102C979.009 210.951 981.629 210.951 982.862 212.646C985.328 215.882 989.489 216.653 992.264 219.272C992.88 219.889 993.805 219.889 994.576 219.58C996.271 219.118 997.658 219.735 999.045 220.813C1000.74 222.2 1002.74 223.279 1004.75 223.279C1008.45 223.125 1010.14 225.128 1011.68 227.902C1012.3 229.135 1013.38 230.213 1013.84 231.6C1014.3 232.833 1015.23 233.449 1016.46 233.603C1017.08 233.758 1018 233.603 1018.47 233.912C1021.24 235.915 1024.01 234.99 1026.94 234.22C1028.02 233.912 1029.1 233.603 1030.02 234.066C1031.72 234.99 1033.11 234.528 1034.65 233.912C1036.19 233.295 1037.73 232.525 1038.35 235.144C1038.5 236.069 1039.89 236.685 1040.66 237.61C1040.97 236.994 1041.12 236.685 1041.28 236.377C1041.89 234.374 1042.35 232.525 1044.67 231.908C1046.67 231.446 1048.67 230.984 1049.91 233.295C1050.06 233.449 1050.52 233.603 1050.83 233.603C1052.99 233.449 1054.84 234.528 1057 234.99C1059.15 235.453 1061.47 236.84 1063.62 234.836C1064.24 234.22 1064.86 234.836 1065.47 234.99C1068.56 235.761 1071.64 236.84 1074.88 236.994C1076.88 237.148 1078.57 236.84 1079.5 234.682C1079.81 234.066 1080.42 233.295 1081.04 234.066C1082.12 235.299 1082.58 234.682 1082.89 233.603C1083.66 230.367 1085.51 229.443 1088.75 229.597C1093.37 229.751 1097.84 229.289 1101.23 225.59C1101.54 225.128 1102.31 224.974 1102.77 224.82C1107.09 223.895 1110.79 221.892 1114.18 218.964C1114.95 218.348 1115.72 217.731 1116.64 217.577C1119.42 217.115 1121.88 216.19 1123.73 213.879C1124.35 213.108 1124.97 212.338 1125.58 211.567C1126.2 210.643 1126.82 209.564 1128.36 210.026C1128.82 210.18 1129.44 210.18 1129.59 209.872C1131.59 207.252 1134.37 208.023 1136.99 208.331C1138.99 208.485 1141.15 208.485 1142.69 207.407C1144.39 206.174 1146.39 205.557 1147.93 204.17C1148.24 203.862 1148.7 203.554 1149.16 203.554C1152.86 204.479 1156.56 205.711 1159.64 208.023C1160.88 208.948 1161.8 209.564 1163.34 209.718C1165.35 209.872 1167.2 211.413 1169.35 211.259C1174.44 214.957 1179.99 214.957 1185.69 213.416C1186.92 213.108 1188.77 213.108 1189.55 211.875C1190.78 209.872 1192.01 207.869 1192.47 205.557C1193.09 203.246 1193.55 201.089 1196.17 200.01C1196.64 199.856 1196.94 199.548 1197.25 199.239C1197.71 198.777 1198.18 198.315 1197.56 197.698C1195.56 195.695 1197.56 193.692 1197.25 191.534C1197.87 191.688 1198.18 191.688 1198.33 191.843C1199.26 192.459 1199.56 193.384 1199.56 194.616C1199.56 196.311 1201.88 194 1202.03 195.849C1202.03 196.62 1202.65 196.774 1203.26 196.62C1204.65 196.157 1206.04 196.774 1207.42 196.003C1209.43 196.928 1211.43 197.39 1213.43 195.695C1218.52 191.226 1225.15 189.069 1230.08 184.292C1233.47 180.902 1238.4 178.436 1239.33 172.888C1239.64 171.656 1240.71 170.731 1241.79 170.115C1244.11 168.728 1246.73 167.957 1249.5 167.649C1251.66 167.495 1253.51 166.57 1255.2 165.337C1257.51 163.642 1258.9 161.023 1261.52 159.79C1262.45 158.557 1263.83 157.787 1265.38 157.787C1267.07 157.787 1268.61 157.17 1270 156.246C1271.23 154.705 1272.46 153.01 1274.47 152.701C1277.55 152.085 1278.01 149.928 1278.01 147.616C1277.86 144.072 1278.78 141.144 1282.17 139.295C1282.48 138.832 1282.79 138.37 1283.1 137.754C1284.02 135.596 1285.26 133.439 1286.34 131.282C1287.57 128.354 1290.81 128.662 1293.12 127.583C1295.43 126.504 1296.66 126.813 1296.97 129.278C1297.13 130.049 1297.13 130.665 1297.74 131.127C1300.05 132.052 1301.75 133.439 1302.21 135.905C1303.29 140.682 1307.14 142.685 1311.15 144.38C1312.69 144.996 1314.39 145.15 1315.62 146.229C1318.55 149.003 1323.02 148.849 1326.1 151.16C1326.72 151.623 1327.8 151.777 1328.41 151.469C1330.57 150.39 1331.65 151.777 1332.73 153.318C1334.89 155.937 1336.74 158.711 1339.82 160.56C1341.51 161.639 1343.21 162.255 1345.06 161.023C1346.91 159.79 1348.91 160.252 1350.61 160.869C1352.15 161.331 1353.54 161.485 1354.92 160.715C1355.69 160.252 1356.62 160.252 1357.23 160.869C1360.32 163.951 1364.94 163.488 1368.18 165.954C1368.95 166.416 1369.72 166.416 1370.49 166.108C1373.11 165.183 1376.19 165.029 1378.04 162.41C1378.66 161.639 1379.43 161.793 1380.35 161.793C1383.28 161.947 1384.21 158.249 1386.83 157.941C1386.83 157.941 1386.83 157.787 1386.83 157.633C1386.67 155.629 1388.06 155.475 1389.45 155.167C1391.6 154.859 1393.92 154.705 1394.69 151.777C1394.84 151.16 1395.61 151.314 1396.23 151.006C1401.31 148.695 1405.94 145.305 1411.49 144.226C1412.26 144.072 1412.57 142.993 1413.64 143.147C1414.11 144.534 1414.57 146.075 1416.11 146.691C1418.42 147.616 1420.89 148.695 1423.51 149.003C1425.51 149.157 1426.75 148.695 1427.98 147.154C1429.06 145.767 1430.6 143.609 1432.14 143.609C1434.76 143.455 1437.38 142.223 1440 142.839C1440 115.718 1440 88.442 1440 61.3205C1436.46 59.3172 1434.14 59.7795 1432.6 62.3991Z" fill="white"/>
</g>
<defs>
<filter id="filter0_d_1136_3890" x="-4" y="28" width="1448" height="251" filterUnits="userSpaceOnUse" color-interpolation-filters="sRGB">
<feFlood flood-opacity="0" result="BackgroundImageFix"/>
<feColorMatrix in="SourceAlpha" type="matrix" values="0 0 0 0 0 0 0 0 0 0 0 0 0 0 0 0 0 0 127 0" result="hardAlpha"/>
<feOffset dy="2"/>
<feGaussianBlur stdDeviation="2"/>
<feComposite in2="hardAlpha" operator="out"/>
<feColorMatrix type="matrix" values="0 0 0 0 0 0 0 0 0 0 0 0 0 0 0 0 0 0 0.2 0"/>
<feBlend mode="normal" in2="BackgroundImageFix" result="effect1_dropShadow_1136_3890"/>
<feBlend mode="normal" in="SourceGraphic" in2="effect1_dropShadow_1136_3890" result="shape"/>
</filter>
</defs>
</svg>
